<svg width="48" height="48" viewBox="0 0 48 48" fill="none" xmlns="http://www.w3.org/2000/svg">
<circle cx="22.9348" cy="25.6569" r="21.8255" fill="#D75304" stroke="#0D0D0D" stroke-width="0.418182"/>
<circle cx="25.0001" cy="23.0004" r="21.8255" fill="#FFDF0D" stroke="#0D0D0D" stroke-width="0.418182"/>
<mask id="mask0_333_1543" style="mask-type:alpha" maskUnits="userSpaceOnUse" x="3" y="1" width="44" height="44">
<circle cx="24.9999" cy="23.001" r="21.6339" transform="rotate(22.3651 24.9999 23.001)" fill="white"/>
</mask>
<g mask="url(#mask0_333_1543)">
<rect x="25.9518" y="-1.35059" width="16.764" height="44.9124" transform="rotate(22.3651 25.9518 -1.35059)" fill="white"/>
</g>
<circle cx="25.0003" cy="23.0004" r="14.9402" stroke="#0D0D0D" stroke-width="0.418182"/>
<path d="M31.7378 25.8646L31.8465 26.2705L27.2487 27.5025L27.14 27.0967C27.4087 27.0239 27.6331 26.9556 27.8137 26.8852C28.0043 26.811 28.1504 26.7328 28.2484 26.641C28.3484 26.5474 28.3988 26.4391 28.3953 26.3102C28.392 26.1847 28.3377 26.0453 28.2424 25.8865L26.9994 23.7972L26.98 23.7647L26.9435 23.7745L22.79 24.8874L22.7534 24.8972L22.7529 24.935L22.721 27.3659C22.721 27.366 22.721 27.366 22.721 27.366C22.718 27.5512 22.7406 27.699 22.8005 27.8093C22.8619 27.9227 22.9597 27.9913 23.0931 28.0223C23.2239 28.0528 23.3895 28.0475 23.5917 28.0165C23.7833 27.9872 24.0117 27.9341 24.2809 27.8628L24.3896 28.2686L20.3327 29.3556L20.224 28.9497C20.562 28.8564 20.8547 28.7444 21.0671 28.5665C21.2927 28.3775 21.4239 28.1174 21.4301 27.7403C21.4301 27.7403 21.4301 27.7403 21.4301 27.7403L21.6082 17.2777L21.6082 17.2777C21.6113 17.0925 21.5887 16.9447 21.5288 16.8343C21.4674 16.7209 21.3696 16.6523 21.2362 16.6213C21.1054 16.5908 20.9398 16.5961 20.7376 16.6271C20.546 16.6564 20.3176 16.7095 20.0484 16.7808L19.9397 16.375L24.0277 15.2797L30.0885 25.4202L30.0885 25.4203C30.2825 25.7438 30.5261 25.9034 30.816 25.9543C31.0889 26.0022 31.3984 25.9528 31.7378 25.8646ZM22.9808 17.0679L22.8909 16.9173L22.8878 17.0927L22.7721 23.7702L22.771 23.8365L22.8351 23.8193L26.3704 22.872L26.4343 22.8549L26.4004 22.7981L22.9808 17.0679Z" fill="#D75304" stroke="#0D0D0D" stroke-width="0.1"/>
</svg>
