<svg width="48" height="48" viewBox="0 0 48 48" fill="none" xmlns="http://www.w3.org/2000/svg">
<circle cx="22.9348" cy="25.6569" r="21.8255" fill="#D75304" stroke="#0D0D0D" stroke-width="0.418182"/>
<circle cx="25.0001" cy="23.0004" r="21.8255" fill="#FFDF0D" stroke="#0D0D0D" stroke-width="0.418182"/>
<mask id="mask0_333_1552" style="mask-type:alpha" maskUnits="userSpaceOnUse" x="3" y="1" width="44" height="44">
<circle cx="24.9999" cy="23.001" r="21.6339" transform="rotate(22.3651 24.9999 23.001)" fill="white"/>
</mask>
<g mask="url(#mask0_333_1552)">
<rect x="25.9518" y="-1.35059" width="16.764" height="44.9124" transform="rotate(22.3651 25.9518 -1.35059)" fill="white"/>
</g>
<circle cx="25.0003" cy="23.0004" r="14.9402" stroke="#0D0D0D" stroke-width="0.418182"/>
<path d="M27.0846 21.5911L27.1121 21.6866C27.9531 21.544 28.8756 21.4566 29.6763 21.7361C30.4722 22.014 31.1558 22.6572 31.5145 23.9961C31.7699 24.9493 31.6421 25.9007 31.1066 26.7065C30.5707 27.5127 29.6234 28.178 28.2315 28.551L22.6581 30.0443L22.5494 29.6384C22.8831 29.5453 23.1354 29.4344 23.2821 29.2567C23.4395 29.0661 23.4664 28.8107 23.3713 28.4556L20.7986 18.8543C20.7035 18.4993 20.5525 18.2916 20.3208 18.2052C20.105 18.1246 19.831 18.1547 19.4954 18.241L19.3867 17.835L24.6317 16.4297C25.8914 16.0921 26.9249 16.0936 27.7012 16.3994C28.4748 16.7041 28.9992 17.3135 29.2389 18.2078C29.4918 19.1518 29.3383 19.8339 28.9351 20.3601C28.5293 20.8898 27.8657 21.2682 27.0846 21.5911ZM23.6588 22.1876L23.6717 22.2359L23.72 22.223L25.5553 21.7312C26.3649 21.5143 26.9112 21.1431 27.2123 20.6653C27.5138 20.1868 27.5646 19.6094 27.3988 18.9907C27.2219 18.3305 26.9691 17.8316 26.5078 17.5674C26.047 17.3035 25.3923 17.2818 24.432 17.5391L22.5967 18.0309L22.5484 18.0438L22.5614 18.0921L23.6588 22.1876ZM25.279 28.2343L25.2919 28.2826L25.3402 28.2697L27.5039 27.6899C28.4373 27.4398 29.0719 27.0459 29.4131 26.4913C29.7547 25.9361 29.7955 25.2308 29.5657 24.3733C29.3327 23.5035 28.9031 22.9383 28.2451 22.6697C27.5906 22.4026 26.7206 22.4336 25.6157 22.7296L23.9737 23.1696L23.9254 23.1826L23.9383 23.2308L25.279 28.2343Z" fill="#D75304" stroke="#0D0D0D" stroke-width="0.1"/>
</svg>
