<svg width="48" height="48" viewBox="0 0 48 48" fill="none" xmlns="http://www.w3.org/2000/svg">
<circle cx="22.9348" cy="25.6569" r="21.8255" fill="#D75304" stroke="#0D0D0D" stroke-width="0.418182"/>
<circle cx="25.0001" cy="23.0004" r="21.8255" fill="#FFDF0D" stroke="#0D0D0D" stroke-width="0.418182"/>
<mask id="mask0_333_1561" style="mask-type:alpha" maskUnits="userSpaceOnUse" x="3" y="1" width="44" height="44">
<circle cx="24.9999" cy="23.001" r="21.6339" transform="rotate(22.3651 24.9999 23.001)" fill="white"/>
</mask>
<g mask="url(#mask0_333_1561)">
<rect x="25.9518" y="-1.35059" width="16.764" height="44.9124" transform="rotate(22.3651 25.9518 -1.35059)" fill="white"/>
</g>
<circle cx="25.0003" cy="23.0004" r="14.9402" stroke="#0D0D0D" stroke-width="0.418182"/>
<path d="M21.7793 23.2867C22.1981 24.8494 22.9308 26.0117 23.8801 26.6983C24.8307 27.3858 25.9936 27.5927 27.2626 27.2526C29.4616 26.6634 30.1753 25.0811 30.1964 23.8454L30.6108 23.8186C30.6889 24.6225 30.6641 25.6135 30.2013 26.5212C29.7304 27.4447 28.8019 28.2896 27.0454 28.7602C25.3093 29.2254 23.8037 28.9766 22.5986 28.1174C21.3921 27.2572 20.4805 25.7805 19.9441 23.7785C19.4468 21.9227 19.5469 20.2578 20.1845 18.9468C20.8217 17.6369 21.9984 16.6747 23.6666 16.2277C25.5292 15.7286 26.8096 16.033 27.7047 16.7525C28.6028 17.4743 29.122 18.6211 29.4445 19.8248L29.5338 20.158L27.4066 20.5117C27.4067 19.9296 27.3432 19.4008 27.2017 18.8729C26.9739 18.0226 26.5589 17.4917 26.0225 17.222C25.4873 16.9529 24.8405 16.9484 24.1573 17.1315C23.2294 17.3801 22.3662 17.9258 21.87 18.9108C21.3744 19.895 21.2495 21.3092 21.7793 23.2867Z" fill="#D75304" stroke="#0D0D0D" stroke-width="0.1"/>
</svg>
