<svg width="48" height="48" viewBox="0 0 48 48" fill="none" xmlns="http://www.w3.org/2000/svg">
<circle cx="22.9348" cy="25.6569" r="21.8255" fill="#D75304" stroke="#0D0D0D" stroke-width="0.418182"/>
<circle cx="25.0001" cy="23.0004" r="21.8255" fill="#FFDF0D" stroke="#0D0D0D" stroke-width="0.418182"/>
<mask id="mask0_333_1570" style="mask-type:alpha" maskUnits="userSpaceOnUse" x="3" y="1" width="44" height="44">
<circle cx="24.9999" cy="23.001" r="21.6339" transform="rotate(22.3651 24.9999 23.001)" fill="white"/>
</mask>
<g mask="url(#mask0_333_1570)">
<rect x="25.9518" y="-1.35059" width="16.764" height="44.9124" transform="rotate(22.3651 25.9518 -1.35059)" fill="white"/>
</g>
<circle cx="25.0003" cy="23.0004" r="14.9402" stroke="#0D0D0D" stroke-width="0.418182"/>
<path d="M24.2899 28.3171L24.3028 28.3654L24.3511 28.3525L25.2011 28.1247C26.7635 27.7061 27.8354 27.008 28.3921 25.9538C28.9483 24.9007 28.9841 23.5039 28.5012 21.7017C28.0183 19.8996 27.2953 18.7315 26.293 18.1217C25.29 17.5115 24.0192 17.4675 22.4576 17.8859L21.6076 18.1136L21.5593 18.1266L21.5723 18.1749L24.2899 28.3171ZM18.5063 18.3237L18.3975 17.9178L22.4255 16.8385C24.4174 16.3048 26.1416 16.3791 27.5022 17.09C28.8619 17.8003 29.8676 19.1511 30.4137 21.1893C30.9598 23.2275 30.7708 24.9245 29.9545 26.2439C29.1379 27.5639 27.6884 28.5142 25.6969 29.0478L21.669 30.1271L21.5602 29.7212C21.894 29.6281 22.1463 29.5172 22.2929 29.3395C22.4503 29.1488 22.4773 28.8935 22.3821 28.5384L19.8095 18.9371C19.7143 18.582 19.5633 18.3744 19.3317 18.2879C19.1159 18.2074 18.8419 18.2375 18.5063 18.3237Z" fill="#D75304" stroke="#0D0D0D" stroke-width="0.1"/>
</svg>
