<svg width="48" height="48" viewBox="0 0 48 48" fill="none" xmlns="http://www.w3.org/2000/svg">
<circle cx="22.9348" cy="25.6569" r="21.8255" fill="#D75304" stroke="#0D0D0D" stroke-width="0.418182"/>
<circle cx="25.0001" cy="23.0004" r="21.8255" fill="#FFDF0D" stroke="#0D0D0D" stroke-width="0.418182"/>
<mask id="mask0_333_1636" style="mask-type:alpha" maskUnits="userSpaceOnUse" x="3" y="1" width="44" height="44">
<circle cx="24.9999" cy="23.001" r="21.6339" transform="rotate(22.3651 24.9999 23.001)" fill="white"/>
</mask>
<g mask="url(#mask0_333_1636)">
<rect x="25.9518" y="-1.35059" width="16.764" height="44.9124" transform="rotate(22.3651 25.9518 -1.35059)" fill="white"/>
</g>
<circle cx="25.0003" cy="23.0004" r="14.9402" stroke="#0D0D0D" stroke-width="0.418182"/>
<path d="M28.7406 18.0438L28.3544 18.2312C28.0865 17.6852 27.8397 17.264 27.5727 16.9999C27.4348 16.8635 27.2899 16.7672 27.132 16.7179C26.9737 16.6685 26.8056 16.6673 26.6237 16.716L21.6009 18.0619L21.5526 18.0748L21.5655 18.1231L22.7199 22.4312L22.7328 22.4795L22.7811 22.4665L26.5289 21.4623C26.8814 21.3679 27.0924 21.2329 27.188 21.032C27.2774 20.8442 27.2591 20.6119 27.1888 20.333L27.5948 20.2242L28.3298 22.9675L27.9238 23.0763C27.8453 22.7995 27.7449 22.5892 27.5737 22.4713C27.3904 22.3451 27.1402 22.3338 26.7877 22.4282L23.0399 23.4324L22.9916 23.4454L23.0046 23.4937L24.2831 28.2653L24.2961 28.3136L24.3444 28.3007L29.5797 26.8979C29.9478 26.7993 30.1721 26.54 30.3078 26.1522C30.4389 25.7778 30.4894 25.2783 30.5091 24.6747L30.9334 24.695L30.8591 26.7573L30.8591 26.7575L30.8317 27.6184L21.6623 30.0753L21.5535 29.6694C21.8873 29.5763 22.1396 29.4654 22.2862 29.2878C22.4436 29.0971 22.4705 28.8417 22.3754 28.4866L19.8028 18.8853C19.7076 18.5303 19.5566 18.3226 19.325 18.2362C19.1091 18.1556 18.8352 18.1857 18.4996 18.272L18.3908 17.866L27.4595 15.4361L27.8135 16.1688L27.8137 16.1692L28.7406 18.0438Z" fill="#D75304" stroke="#0D0D0D" stroke-width="0.1"/>
</svg>
