<svg width="48" height="48" viewBox="0 0 48 48" fill="none" xmlns="http://www.w3.org/2000/svg">
<circle cx="22.9348" cy="25.6569" r="21.8255" fill="#D75304" stroke="#0D0D0D" stroke-width="0.418182"/>
<circle cx="25.0001" cy="23.0004" r="21.8255" fill="#FFDF0D" stroke="#0D0D0D" stroke-width="0.418182"/>
<mask id="mask0_333_1645" style="mask-type:alpha" maskUnits="userSpaceOnUse" x="3" y="1" width="44" height="44">
<circle cx="24.9998" cy="23.001" r="21.6339" transform="rotate(22.3651 24.9998 23.001)" fill="white"/>
</mask>
<g mask="url(#mask0_333_1645)">
<rect x="25.9518" y="-1.35059" width="16.764" height="44.9124" transform="rotate(22.3651 25.9518 -1.35059)" fill="white"/>
</g>
<circle cx="25.0003" cy="23.0004" r="14.9402" stroke="#0D0D0D" stroke-width="0.418182"/>
<path d="M23.0572 23.4838L23.0089 23.4968L23.0219 23.5451L24.2073 27.969C24.3024 28.3241 24.4534 28.5318 24.685 28.6182C24.9009 28.6987 25.1748 28.6686 25.5104 28.5824L25.6192 28.9883L21.6589 30.0495L21.5501 29.6435C21.8839 29.5505 22.1362 29.4395 22.2828 29.2619C22.4402 29.0712 22.4671 28.8158 22.372 28.4608L19.7993 18.8595C19.7042 18.5044 19.5532 18.2967 19.3215 18.2103C19.1057 18.1297 18.8317 18.1598 18.4962 18.2461L18.3874 17.8402L27.6116 15.3686L27.9844 16.0972L27.9845 16.0974L28.9257 17.9491L28.5617 18.1467C28.2846 17.6036 28.0286 17.1855 27.7546 16.9236C27.6131 16.7883 27.4652 16.6931 27.3054 16.6445C27.1452 16.5957 26.9761 16.5948 26.7942 16.6436L21.5975 18.036L21.5492 18.049L21.5621 18.0972L22.7372 22.4826L22.7501 22.5308L22.7984 22.5179L26.5462 21.5137C26.8987 21.4192 27.1097 21.2843 27.2053 21.0834C27.2947 20.8956 27.2764 20.6633 27.206 20.3844L27.6121 20.2756L28.3471 23.0189L27.9411 23.1277C27.8626 22.8509 27.7622 22.6406 27.591 22.5227C27.4077 22.3965 27.1575 22.3852 26.805 22.4796L23.0572 23.4838Z" fill="#D75304" stroke="#0D0D0D" stroke-width="0.1"/>
</svg>
