<svg width="48" height="48" viewBox="0 0 48 48" fill="none" xmlns="http://www.w3.org/2000/svg">
<circle cx="22.9348" cy="25.6569" r="21.8255" fill="#D75304" stroke="#0D0D0D" stroke-width="0.418182"/>
<circle cx="25.0001" cy="23.0004" r="21.8255" fill="#FFDF0D" stroke="#0D0D0D" stroke-width="0.418182"/>
<mask id="mask0_333_1663" style="mask-type:alpha" maskUnits="userSpaceOnUse" x="3" y="1" width="44" height="44">
<circle cx="24.9998" cy="23.001" r="21.6339" transform="rotate(22.3651 24.9998 23.001)" fill="white"/>
</mask>
<g mask="url(#mask0_333_1663)">
<rect x="25.9518" y="-1.35059" width="16.764" height="44.9124" transform="rotate(22.3651 25.9518 -1.35059)" fill="white"/>
</g>
<circle cx="25.0003" cy="23.0004" r="14.9402" stroke="#0D0D0D" stroke-width="0.418182"/>
<path d="M27.1737 20.8157L27.222 20.8028L27.2091 20.7545L26.2255 17.0839C26.1304 16.7289 25.9794 16.5212 25.7478 16.4348C25.5319 16.3542 25.258 16.3843 24.9224 16.4706L24.8136 16.0646L28.7739 15.0035L28.8827 15.4094C28.5489 15.5025 28.2966 15.6134 28.15 15.7911C27.9926 15.9818 27.9657 16.2371 28.0608 16.5922L30.6335 26.1935C30.7286 26.5485 30.8796 26.7562 31.1113 26.8427C31.3271 26.9232 31.6011 26.8931 31.9366 26.8069L32.0454 27.2128L28.0851 28.2739L27.9763 27.868C28.3101 27.7749 28.5624 27.664 28.709 27.4863C28.8664 27.2957 28.8933 27.0403 28.7982 26.6852L27.4989 21.8363L27.486 21.788L27.4377 21.8009L21.9706 23.2659L21.9223 23.2788L21.9352 23.3271L23.2345 28.176C23.3296 28.5311 23.4806 28.7388 23.7123 28.8252C23.9281 28.9058 24.2021 28.8757 24.5376 28.7894L24.6464 29.1953L20.6861 30.2565L20.5773 29.8506C20.9111 29.7575 21.1634 29.6466 21.31 29.4689C21.4674 29.2782 21.4944 29.0228 21.3992 28.6678L18.8266 19.0665C18.7314 18.7114 18.5804 18.5038 18.3488 18.4173C18.1329 18.3368 17.859 18.3669 17.5234 18.4531L17.4146 18.0472L21.3749 16.986L21.4837 17.392C21.1499 17.485 20.8976 17.596 20.751 17.7736C20.5936 17.9643 20.5667 18.2197 20.6618 18.5747L21.6453 22.2453L21.6583 22.2936L21.7066 22.2806L27.1737 20.8157Z" fill="#D75304" stroke="#0D0D0D" stroke-width="0.1"/>
</svg>
