<svg width="48" height="48" viewBox="0 0 48 48" fill="none" xmlns="http://www.w3.org/2000/svg">
<circle cx="22.9348" cy="25.6569" r="21.8255" fill="#D75304" stroke="#0D0D0D" stroke-width="0.418182"/>
<circle cx="25.0001" cy="23.0004" r="21.8255" fill="#FFDF0D" stroke="#0D0D0D" stroke-width="0.418182"/>
<mask id="mask0_333_1672" style="mask-type:alpha" maskUnits="userSpaceOnUse" x="3" y="1" width="44" height="44">
<circle cx="24.9998" cy="23.001" r="21.6339" transform="rotate(22.3651 24.9998 23.001)" fill="white"/>
</mask>
<g mask="url(#mask0_333_1672)">
<rect x="25.9518" y="-1.35059" width="16.764" height="44.9124" transform="rotate(22.3651 25.9518 -1.35059)" fill="white"/>
</g>
<circle cx="25.0003" cy="23.0004" r="14.9402" stroke="#0D0D0D" stroke-width="0.418182"/>
<path d="M27.8293 27.8186C28.0873 27.8865 28.427 27.8382 28.8576 27.7257L28.9664 28.1316L24.4652 29.3377L24.3564 28.9318C24.7856 28.814 25.1039 28.6859 25.2934 28.4981C25.3931 28.3992 25.4572 28.2839 25.4832 28.1465C25.5089 28.0101 25.4965 27.855 25.4487 27.6765L22.8761 18.0752C22.8282 17.8967 22.7614 17.7562 22.6709 17.6509C22.5797 17.5449 22.4666 17.4771 22.3307 17.4413C22.0727 17.3734 21.733 17.4217 21.3024 17.5342L21.1937 17.1284L25.6949 15.9223L25.8036 16.3281C25.3745 16.446 25.0562 16.574 24.8667 16.7618C24.7669 16.8607 24.7028 16.976 24.6769 17.1134C24.6511 17.2499 24.6635 17.405 24.7113 17.5834L27.284 27.1847C27.3318 27.3632 27.3986 27.5038 27.4892 27.609C27.5803 27.715 27.6935 27.7829 27.8293 27.8186Z" fill="#D75304" stroke="#0D0D0D" stroke-width="0.1"/>
</svg>
