<svg width="48" height="48" viewBox="0 0 48 48" fill="none" xmlns="http://www.w3.org/2000/svg">
<circle cx="22.9348" cy="25.6569" r="21.8255" fill="#D75304" stroke="#0D0D0D" stroke-width="0.418182"/>
<circle cx="25.0001" cy="23.0004" r="21.8255" fill="#FFDF0D" stroke="#0D0D0D" stroke-width="0.418182"/>
<mask id="mask0_333_1681" style="mask-type:alpha" maskUnits="userSpaceOnUse" x="3" y="1" width="44" height="44">
<circle cx="24.9998" cy="23.001" r="21.6339" transform="rotate(22.3651 24.9998 23.001)" fill="white"/>
</mask>
<g mask="url(#mask0_333_1681)">
<rect x="25.9518" y="-1.35059" width="16.764" height="44.9124" transform="rotate(22.3651 25.9518 -1.35059)" fill="white"/>
</g>
<circle cx="25.0003" cy="23.0004" r="14.9402" stroke="#0D0D0D" stroke-width="0.418182"/>
<path d="M25.7896 16.9272L25.7767 16.8789L25.7284 16.8919L22.9272 17.6424C22.7483 17.6904 22.6079 17.7599 22.5036 17.8556C22.3987 17.9519 22.3332 18.072 22.3001 18.2158C22.237 18.49 22.2917 18.8531 22.4121 19.3127L22.0062 19.4214C21.7368 18.4321 21.4161 17.7504 20.9037 17.1287L27.348 15.4019L29.4263 23.1583C29.8439 24.7168 29.7995 25.9562 29.3153 26.8957C28.8317 27.8341 27.9039 28.4838 26.5312 28.8516C24.8733 29.2958 23.6467 28.9835 22.7534 28.2648C21.8576 27.5441 21.2905 26.4093 20.9658 25.1975L20.8817 24.8837L23.0269 24.5251C23.0138 25.1297 23.0764 25.6563 23.1931 26.0915C23.4054 26.8838 23.8093 27.4319 24.3395 27.7338C24.8696 28.0356 25.5189 28.0876 26.2144 27.9012C26.9855 27.6946 27.5255 27.3403 27.7831 26.7151C28.039 26.0943 28.011 25.2176 27.679 23.9785L25.7896 16.9272Z" fill="#D75304" stroke="#0D0D0D" stroke-width="0.1"/>
</svg>
