<svg width="48" height="48" viewBox="0 0 48 48" fill="none" xmlns="http://www.w3.org/2000/svg">
<circle cx="22.9348" cy="25.6569" r="21.8255" fill="#D75304" stroke="#0D0D0D" stroke-width="0.418182"/>
<circle cx="25.0001" cy="23.0004" r="21.8255" fill="#FFDF0D" stroke="#0D0D0D" stroke-width="0.418182"/>
<mask id="mask0_333_1705" style="mask-type:alpha" maskUnits="userSpaceOnUse" x="3" y="1" width="44" height="44">
<circle cx="24.9999" cy="23.001" r="21.6339" transform="rotate(22.3651 24.9999 23.001)" fill="white"/>
</mask>
<g mask="url(#mask0_333_1705)">
<rect x="25.9518" y="-1.35059" width="16.764" height="44.9124" transform="rotate(22.3651 25.9518 -1.35059)" fill="white"/>
</g>
<circle cx="25.0003" cy="23.0004" r="14.9402" stroke="#0D0D0D" stroke-width="0.418182"/>
<path d="M25.2558 28.0583L25.2687 28.1066L25.317 28.0936L29.1035 27.079C29.4715 26.9804 29.688 26.7284 29.8075 26.3461C29.9227 25.9776 29.9495 25.4835 29.9389 24.878L30.3533 24.8671L30.4073 26.9547L30.4073 26.9557L30.412 27.7844L22.635 29.8683L22.5262 29.4623C22.8599 29.3692 23.1122 29.2583 23.2589 29.0807C23.4163 28.89 23.4432 28.6346 23.3481 28.2796L20.7754 18.6783C20.6803 18.3232 20.5293 18.1155 20.2976 18.0291C20.0818 17.9485 19.8078 17.9786 19.4723 18.0649L19.3635 17.659L23.3238 16.5978L23.4325 17.0037C23.0988 17.0968 22.8465 17.2077 22.6999 17.3854C22.5425 17.5761 22.5155 17.8314 22.6107 18.1865L25.2558 28.0583Z" fill="#D75304" stroke="#0D0D0D" stroke-width="0.1"/>
</svg>
