<svg width="48" height="48" viewBox="0 0 48 48" fill="none" xmlns="http://www.w3.org/2000/svg">
<circle cx="22.9348" cy="25.6569" r="21.8255" fill="#D75304" stroke="#0D0D0D" stroke-width="0.418182"/>
<circle cx="25.0001" cy="23.0004" r="21.8255" fill="#FFDF0D" stroke="#0D0D0D" stroke-width="0.418182"/>
<mask id="mask0_333_1750" style="mask-type:alpha" maskUnits="userSpaceOnUse" x="3" y="1" width="44" height="44">
<circle cx="24.9998" cy="23.001" r="21.6339" transform="rotate(22.3651 24.9998 23.001)" fill="white"/>
</mask>
<g mask="url(#mask0_333_1750)">
<rect x="25.9518" y="-1.35059" width="16.764" height="44.9124" transform="rotate(22.3651 25.9518 -1.35059)" fill="white"/>
</g>
<circle cx="25.0003" cy="23.0004" r="14.9402" stroke="#0D0D0D" stroke-width="0.418182"/>
<path d="M28.5746 26.2103L28.5445 26.246L28.5782 26.2784L32.0927 29.6672L31.9789 29.8255L29.9972 28.6334L27.8851 26.9246L27.8542 26.8996L27.8228 26.9241C27.2635 27.3609 26.5577 27.7145 25.7329 27.9355C23.9116 28.4235 22.3596 28.0799 21.1443 27.1762C19.9274 26.2715 19.044 24.802 18.5698 23.0324C18.0957 21.2628 18.1391 19.5973 18.7529 18.254C19.366 16.9124 20.551 15.8861 22.3735 15.3978C24.1959 14.9095 25.7353 15.2057 26.9371 16.0611C28.1403 16.9174 29.0106 18.3381 29.4848 20.1077C30.1086 22.4358 29.8637 24.677 28.5746 26.2103ZM27.4882 25.2245L27.5396 25.2744L27.5687 25.2089C28.066 24.0895 28.0914 22.5576 27.5723 20.6202C27.1024 18.8668 26.415 17.6566 25.5692 16.9573C24.7211 16.2561 23.7186 16.0726 22.6323 16.3637C21.5559 16.6521 20.7816 17.301 20.399 18.3088L20.3874 18.3395L20.411 18.3624L27.4882 25.2245ZM20.3756 18.6469L20.3184 18.5243L20.2821 18.6546C20.0042 19.6511 20.0566 20.9311 20.4824 22.5199C20.9522 24.2734 21.6525 25.5312 22.5103 26.2786C23.3702 27.0278 24.3858 27.2612 25.4741 26.9696C26.0415 26.8176 26.5014 26.5684 26.8854 26.1913L26.9254 26.1521L26.8818 26.1168L22.0265 22.1889L20.3756 18.6469Z" fill="#D75304" stroke="#0D0D0D" stroke-width="0.1"/>
</svg>
