<svg width="48" height="48" viewBox="0 0 48 48" fill="none" xmlns="http://www.w3.org/2000/svg">
<circle cx="22.9348" cy="25.6569" r="21.8255" fill="#D75304" stroke="#0D0D0D" stroke-width="0.418182"/>
<circle cx="25.0001" cy="23.0004" r="21.8255" fill="#FFDF0D" stroke="#0D0D0D" stroke-width="0.418182"/>
<mask id="mask0_333_1759" style="mask-type:alpha" maskUnits="userSpaceOnUse" x="3" y="1" width="44" height="44">
<circle cx="24.9998" cy="23.001" r="21.6339" transform="rotate(22.3651 24.9998 23.001)" fill="white"/>
</mask>
<g mask="url(#mask0_333_1759)">
<rect x="25.9518" y="-1.35059" width="16.764" height="44.9124" transform="rotate(22.3651 25.9518 -1.35059)" fill="white"/>
</g>
<circle cx="25.0003" cy="23.0004" r="14.9402" stroke="#0D0D0D" stroke-width="0.418182"/>
<path d="M27.5686 23.9723L27.569 23.9726L31.9817 27.0411L32.0624 27.3422L28.2373 28.3671L28.1286 27.9614C28.4098 27.8859 28.6341 27.8241 28.8038 27.7678C28.9805 27.7092 29.1074 27.6538 29.1765 27.5891C29.2127 27.5552 29.2369 27.5152 29.2403 27.468C29.2437 27.4217 29.2264 27.3773 29.1986 27.3356C29.1444 27.254 29.0365 27.1625 28.8888 27.0529C28.8887 27.0529 28.8886 27.0528 28.8885 27.0527L22.7847 22.353L22.6677 22.2629L22.7059 22.4056L24.2174 28.0466C24.3125 28.4016 24.4635 28.6093 24.6952 28.6958C24.911 28.7763 25.185 28.7462 25.5205 28.66L25.6293 29.0659L21.669 30.127L21.5602 29.7211C21.894 29.628 22.1463 29.5171 22.2929 29.3394C22.4503 29.1488 22.4773 28.8934 22.3821 28.5383L19.8095 18.937C19.7143 18.582 19.5633 18.3743 19.3317 18.2879C19.1159 18.2073 18.8419 18.2374 18.5063 18.3237L18.3975 17.9177L23.7777 16.4761C24.9104 16.1726 25.8846 16.2049 26.6341 16.5353C27.382 16.8651 27.9122 17.4944 28.1545 18.3988C28.4194 19.3876 28.185 20.2012 27.6862 20.8223C27.186 21.4452 26.4177 21.8769 25.6139 22.0923C25.1144 22.2261 24.7814 22.2741 24.41 22.2519L24.3629 22.249L24.3573 22.2958L24.3446 22.4028L24.3395 22.4451L24.3805 22.4568C25.3845 22.744 26.7045 23.3598 27.5686 23.9723ZM21.6076 18.1136L21.5593 18.1265L21.5723 18.1748L22.0899 20.1067C22.4302 21.3767 23.7522 21.8664 24.8725 21.5662C25.5399 21.3874 25.9754 21.0441 26.2058 20.6048C26.4358 20.1662 26.4577 19.6393 26.3131 19.0993C26.1433 18.4657 25.8659 17.9758 25.4221 17.7005C24.9777 17.4248 24.3776 17.3714 23.5781 17.5856L21.6076 18.1136Z" fill="#D75304" stroke="#0D0D0D" stroke-width="0.1"/>
</svg>
