<svg width="48" height="48" viewBox="0 0 48 48" fill="none" xmlns="http://www.w3.org/2000/svg">
<circle cx="22.9348" cy="25.6569" r="21.8255" fill="#D75304" stroke="#0D0D0D" stroke-width="0.418182"/>
<circle cx="25.0001" cy="23.0004" r="21.8255" fill="#FFDF0D" stroke="#0D0D0D" stroke-width="0.418182"/>
<mask id="mask0_333_1768" style="mask-type:alpha" maskUnits="userSpaceOnUse" x="3" y="1" width="44" height="44">
<circle cx="24.9998" cy="23.001" r="21.6339" transform="rotate(22.3651 24.9998 23.001)" fill="white"/>
</mask>
<g mask="url(#mask0_333_1768)">
<rect x="25.9518" y="-1.35059" width="16.764" height="44.9124" transform="rotate(22.3651 25.9518 -1.35059)" fill="white"/>
</g>
<circle cx="25.0003" cy="23.0004" r="14.9402" stroke="#0D0D0D" stroke-width="0.418182"/>
<path d="M23.9084 21.2562L23.9086 21.2562L27.1684 21.5215L27.1686 21.5216C28.2396 21.6047 28.9706 21.9001 29.4828 22.3539C29.9953 22.8079 30.2945 23.4255 30.4924 24.1642C30.779 25.2335 30.6271 26.2111 30.0491 27.0175C29.4702 27.8252 28.4595 28.467 27.0177 28.8533C24.7993 29.4477 23.0085 28.948 21.9681 28.129L20.9397 24.2909L21.2508 24.2076C22.1865 27.1601 24.6261 28.5002 26.9817 27.8691C27.8101 27.6471 28.3862 27.2734 28.7122 26.7923C29.0389 26.3101 29.1098 25.727 28.9411 25.0975C28.8151 24.627 28.6065 24.2411 28.2482 23.9605C27.8905 23.6804 27.3893 23.5097 26.6864 23.458L23.7917 23.2399C23.7916 23.2399 23.7916 23.2399 23.7916 23.2399C22.7276 23.1539 21.9651 22.9173 21.418 22.5154C20.8721 22.1142 20.535 21.5442 20.33 20.7791C20.0954 19.9035 20.2149 18.9802 20.7542 18.1783C21.2938 17.3761 22.2566 16.6911 23.7162 16.3C25.1872 15.9059 26.7382 15.9793 27.8728 16.5462L28.9331 19.7473L28.6207 19.831C28.101 18.6083 27.4013 17.835 26.6146 17.4238C25.8191 17.0082 24.9404 16.9659 24.0805 17.1963C23.0688 17.4674 22.4453 17.8951 22.1078 18.3816C21.7697 18.8689 21.7229 19.4092 21.853 19.8947C21.9643 20.3098 22.1659 20.6258 22.4997 20.8503C22.8318 21.0736 23.2899 21.2031 23.9084 21.2562Z" fill="#D75304" stroke="#0D0D0D" stroke-width="0.1"/>
</svg>
