<svg width="48" height="48" viewBox="0 0 48 48" fill="none" xmlns="http://www.w3.org/2000/svg">
<circle cx="22.9348" cy="25.6569" r="21.8255" fill="#D75304" stroke="#0D0D0D" stroke-width="0.418182"/>
<circle cx="25.0001" cy="23.0004" r="21.8255" fill="#FFDF0D" stroke="#0D0D0D" stroke-width="0.418182"/>
<mask id="mask0_333_1796" style="mask-type:alpha" maskUnits="userSpaceOnUse" x="3" y="1" width="44" height="44">
<circle cx="24.9999" cy="23.001" r="21.6339" transform="rotate(22.3651 24.9999 23.001)" fill="white"/>
</mask>
<g mask="url(#mask0_333_1796)">
<rect x="25.9518" y="-1.35059" width="16.764" height="44.9124" transform="rotate(22.3651 25.9518 -1.35059)" fill="white"/>
</g>
<circle cx="25.0003" cy="23.0004" r="14.9402" stroke="#0D0D0D" stroke-width="0.418182"/>
<path d="M18.0947 18.3947L17.9859 17.9888L21.9462 16.9276L22.055 17.3336C21.7212 17.4266 21.4689 17.5376 21.3223 17.7152C21.1649 17.9059 21.138 18.1613 21.2331 18.5163L22.9465 24.9108C23.3133 26.2796 23.8841 27.1094 24.5736 27.5408C25.2637 27.9727 26.063 27.9994 26.8735 27.7822C27.6928 27.5627 28.3693 27.1513 28.7544 26.4734C29.1395 25.7956 29.2277 24.8612 28.8918 23.6076L27.1111 16.962C27.0632 16.7831 26.9936 16.6427 26.8979 16.5384C26.8017 16.4335 26.6815 16.368 26.5377 16.3349C26.2635 16.2718 25.9005 16.3265 25.4409 16.4469L25.3321 16.0411L29.0413 15.0472L29.1501 15.4531C28.8163 15.5462 28.564 15.6572 28.4174 15.8348C28.26 16.0255 28.233 16.2809 28.3282 16.6359L30.114 23.3008C30.5338 24.8673 30.4192 26.0731 29.8911 26.9704C29.3629 27.8679 28.4152 28.4665 27.1478 28.8061C25.6174 29.2162 24.3391 29.218 23.3316 28.7007C22.3253 28.1839 21.5776 27.1431 21.1216 25.4411L19.3978 19.0081C19.3027 18.653 19.1517 18.4453 18.9201 18.3589C18.7042 18.2784 18.4303 18.3085 18.0947 18.3947Z" fill="#D75304" stroke="#0D0D0D" stroke-width="0.1"/>
</svg>
