<svg width="48" height="48" viewBox="0 0 48 48" fill="none" xmlns="http://www.w3.org/2000/svg">
<circle cx="22.9348" cy="25.6569" r="21.8255" fill="#D75304" stroke="#0D0D0D" stroke-width="0.418182"/>
<circle cx="25.0001" cy="23.0004" r="21.8255" fill="#FFDF0D" stroke="#0D0D0D" stroke-width="0.418182"/>
<mask id="mask0_333_1805" style="mask-type:alpha" maskUnits="userSpaceOnUse" x="3" y="1" width="44" height="44">
<circle cx="24.9999" cy="23.001" r="21.6339" transform="rotate(22.3651 24.9999 23.001)" fill="white"/>
</mask>
<g mask="url(#mask0_333_1805)">
<rect x="25.9518" y="-1.35059" width="16.764" height="44.9124" transform="rotate(22.3651 25.9518 -1.35059)" fill="white"/>
</g>
<circle cx="25.0003" cy="23.0004" r="14.9402" stroke="#0D0D0D" stroke-width="0.418182"/>
<path d="M25.3732 16.5532C25.7774 16.4454 26.1199 16.3617 26.4055 16.3071C26.7019 16.2504 26.9403 16.2244 27.1246 16.2367C27.3087 16.249 27.4479 16.3002 27.5338 16.4069C27.6191 16.513 27.6424 16.6623 27.6231 16.8482C27.6231 16.8484 27.6231 16.8486 27.6231 16.8488L26.9946 24.4701L25.3732 16.5532ZM25.3732 16.5532L25.2645 16.1475L30.0362 14.8689L30.1449 15.2748C29.8059 15.3684 29.5045 15.4826 29.2804 15.6606C29.043 15.8492 28.8948 16.1074 28.8757 16.4784C28.8757 16.4785 28.8757 16.4786 28.8757 16.4787L28.1245 28.467L26.1269 29.0023L19.4822 18.9957C19.4822 18.9956 19.4821 18.9955 19.4821 18.9954C19.2801 18.6837 19.0226 18.5342 18.7227 18.4895C18.4396 18.4474 18.1214 18.4992 17.7811 18.5876L17.6723 18.1818L20.5837 17.4017L27.0596 27.1642L27.1506 27.1284C27.0211 26.3368 26.9227 25.3534 26.9946 24.4701L25.3732 16.5532Z" fill="#D75304" stroke="#0D0D0D" stroke-width="0.1"/>
</svg>
