<svg width="48" height="48" viewBox="0 0 48 48" fill="none" xmlns="http://www.w3.org/2000/svg">
<circle cx="22.9348" cy="25.6569" r="21.8255" fill="#D75304" stroke="#0D0D0D" stroke-width="0.418182"/>
<circle cx="25.0001" cy="23.0004" r="21.8255" fill="#FFDF0D" stroke="#0D0D0D" stroke-width="0.418182"/>
<mask id="mask0_333_1823" style="mask-type:alpha" maskUnits="userSpaceOnUse" x="3" y="1" width="44" height="44">
<circle cx="24.9999" cy="23.001" r="21.6339" transform="rotate(22.3651 24.9999 23.001)" fill="white"/>
</mask>
<g mask="url(#mask0_333_1823)">
<rect x="25.9518" y="-1.35059" width="16.764" height="44.9124" transform="rotate(22.3651 25.9518 -1.35059)" fill="white"/>
</g>
<circle cx="25.0003" cy="23.0004" r="14.9402" stroke="#0D0D0D" stroke-width="0.418182"/>
<path d="M25.7423 21.3554L25.7322 21.3859L25.7558 21.4078L30.4668 25.7769C30.4669 25.7769 30.4669 25.777 30.467 25.777C30.7439 26.0397 31.0964 26.1215 31.4963 26.1068C31.8815 26.0926 32.3168 25.9884 32.781 25.8647L32.8897 26.2705L28.5044 27.4455L28.3957 27.0397C28.5504 26.9978 28.671 26.9622 28.7572 26.926C28.8048 26.906 28.8449 26.8846 28.8753 26.8598C28.9061 26.8346 28.9294 26.8039 28.9377 26.7656C28.9459 26.7275 28.9378 26.6897 28.9212 26.6536C28.9047 26.6177 28.8785 26.5802 28.8453 26.5402C28.779 26.4605 28.6771 26.362 28.5458 26.2375L28.5454 26.2371L24.938 22.8969L24.8811 22.8443L24.8566 22.9178L23.2725 27.6695C23.2725 27.6696 23.2725 27.6696 23.2725 27.6696C23.2149 27.8399 23.1809 27.9757 23.1872 28.0764C23.1905 28.1282 23.2045 28.1749 23.2352 28.2122C23.266 28.2497 23.309 28.2724 23.3601 28.2845C23.4588 28.308 23.6008 28.2947 23.7872 28.2584C23.9657 28.2235 24.1925 28.1657 24.4741 28.0906L24.5828 28.4963L20.3327 29.6351L20.224 29.2293C20.5653 29.1369 20.907 29.0322 21.194 28.8695C21.4959 28.6983 21.7399 28.4615 21.8604 28.1053L21.8605 28.1051L23.9016 21.9677L23.9117 21.9371L23.8882 21.9152L19.5615 17.8987C19.5614 17.8986 19.5613 17.8986 19.5612 17.8985C19.2862 17.6376 18.9646 17.5465 18.6235 17.5448C18.2995 17.5431 17.9556 17.622 17.6143 17.7125L17.5056 17.3067L20.483 16.5089L24.7008 20.4068L24.7579 20.4595L24.7822 20.3857L26.1762 16.1613C26.1762 16.1612 26.1762 16.1612 26.1762 16.1611C26.2338 15.9909 26.2678 15.8551 26.2615 15.7544C26.2582 15.7026 26.2442 15.6559 26.2135 15.6186C26.1827 15.5811 26.1397 15.5584 26.0886 15.5463C25.9899 15.5229 25.8479 15.5361 25.6615 15.5725C25.483 15.6073 25.2562 15.6651 24.9746 15.7403L24.8659 15.3345L29.1353 14.1906L29.244 14.5963C28.9027 14.6888 28.561 14.7935 28.2741 14.9562C27.9722 15.1273 27.7281 15.3642 27.6076 15.7204L27.6075 15.7207L25.7423 21.3554Z" fill="#D75304" stroke="#0D0D0D" stroke-width="0.1"/>
</svg>
