<svg width="48" height="48" viewBox="0 0 48 48" fill="none" xmlns="http://www.w3.org/2000/svg">
<circle cx="22.9348" cy="25.6569" r="21.8255" fill="#D75304" stroke="#0D0D0D" stroke-width="0.418182"/>
<circle cx="25.0001" cy="23.0004" r="21.8255" fill="#FFDF0D" stroke="#0D0D0D" stroke-width="0.418182"/>
<mask id="mask0_333_1832" style="mask-type:alpha" maskUnits="userSpaceOnUse" x="3" y="1" width="44" height="44">
<circle cx="24.9999" cy="23.001" r="21.6339" transform="rotate(22.3651 24.9999 23.001)" fill="white"/>
</mask>
<g mask="url(#mask0_333_1832)">
<rect x="25.9518" y="-1.35059" width="16.764" height="44.9124" transform="rotate(22.3651 25.9518 -1.35059)" fill="white"/>
</g>
<circle cx="25.0003" cy="23.0004" r="14.9402" stroke="#0D0D0D" stroke-width="0.418182"/>
<path d="M20.0251 18.8602C19.5345 18.2934 18.8656 18.3799 18.17 18.5624L18.0612 18.1566L21.0544 17.3546L25.526 22.5047L25.5903 22.5788L25.6125 22.4832L26.8698 17.0527L26.8698 17.0526C26.9107 16.8754 26.9268 16.7327 26.9025 16.6256C26.89 16.5707 26.8665 16.5235 26.8293 16.4863C26.7921 16.4492 26.7441 16.4249 26.6876 16.4108C26.5768 16.383 26.4248 16.3921 26.2299 16.4262C26.0439 16.4586 25.8126 16.5151 25.5303 16.5902L25.4216 16.1844L29.6137 15.0612L29.7224 15.4669C29.0286 15.6558 28.3828 15.9009 28.197 16.6266L28.1969 16.6272L26.5226 23.5153L26.5196 23.5277L26.5229 23.54L27.5323 27.3071C27.5801 27.4856 27.6469 27.6261 27.7375 27.7314C27.8286 27.8374 27.9418 27.9053 28.0776 27.941C28.3356 28.0089 28.6753 27.9606 29.1059 27.8481L29.2147 28.254L24.6941 29.4652L24.5854 29.0594C25.0146 28.9415 25.3329 28.8135 25.5224 28.6257C25.6221 28.5268 25.6862 28.4115 25.7121 28.2741C25.7379 28.1377 25.7255 27.9825 25.6777 27.8041L24.6994 24.1529L24.6963 24.1415L24.6885 24.1327L20.0253 18.8605C20.0253 18.8604 20.0252 18.8603 20.0251 18.8602Z" fill="#D75304" stroke="#0D0D0D" stroke-width="0.1"/>
</svg>
