<svg width="48" height="48" viewBox="0 0 48 48" fill="none" xmlns="http://www.w3.org/2000/svg">
<circle cx="22.9348" cy="25.6569" r="21.8255" fill="#3468D1" stroke="#0D0D0D" stroke-width="0.418182"/>
<circle cx="25.0002" cy="23.0004" r="21.8255" fill="#8FB1F6" stroke="#0D0D0D" stroke-width="0.418182"/>
<mask id="mask0_323_850" style="mask-type:alpha" maskUnits="userSpaceOnUse" x="3" y="1" width="44" height="44">
<circle cx="24.9999" cy="23.001" r="21.6339" transform="rotate(22.3651 24.9999 23.001)" fill="white"/>
</mask>
<g mask="url(#mask0_323_850)">
<rect x="25.9518" y="-1.35059" width="16.764" height="44.9124" transform="rotate(22.3651 25.9518 -1.35059)" fill="white"/>
</g>
<circle cx="25.0004" cy="23.0004" r="14.9402" stroke="#0D0D0D" stroke-width="0.418182"/>
<path d="M23.2381 23.5557C23.2884 24.1308 22.863 24.6377 22.2879 24.6881C21.7128 24.7384 21.2059 24.313 21.1556 23.7379C21.1052 23.1628 21.5306 22.6558 22.1057 22.6055C22.6808 22.5552 23.1878 22.9806 23.2381 23.5557Z" fill="#3468D1" stroke="black" stroke-width="0.1"/>
<path d="M28.2888 23.1138C28.3391 23.6889 27.9137 24.1959 27.3387 24.2462C26.7636 24.2965 26.2566 23.8711 26.2063 23.296C26.156 22.7209 26.5814 22.214 27.1565 22.1636C27.7315 22.1133 28.2385 22.5387 28.2888 23.1138Z" fill="#3468D1" stroke="black" stroke-width="0.1"/>
<path d="M24.6921 25.6316C24.7424 26.2066 24.317 26.7136 23.7419 26.7639C23.1668 26.8142 22.6598 26.3888 22.6095 25.8138C22.5592 25.2387 22.9846 24.7317 23.5597 24.6814C24.1348 24.6311 24.6417 25.0565 24.6921 25.6316Z" fill="#3468D1" stroke="black" stroke-width="0.1"/>
<path d="M26.8348 21.0379C26.8852 21.613 26.4598 22.12 25.8847 22.1703C25.3096 22.2206 24.8026 21.7952 24.7523 21.2201C24.702 20.6451 25.1274 20.1381 25.7025 20.0878C26.2776 20.0375 26.7845 20.4629 26.8348 21.0379Z" fill="#3468D1" stroke="black" stroke-width="0.1"/>
<path d="M27.2174 25.4106C27.2677 25.9857 26.8423 26.4927 26.2672 26.543C25.6922 26.5933 25.1852 26.1679 25.1349 25.5928C25.0846 25.0177 25.51 24.5108 26.0851 24.4605C26.6601 24.4101 27.1671 24.8355 27.2174 25.4106Z" fill="#3468D1" stroke="black" stroke-width="0.1"/>
<path d="M24.3095 21.2589C24.3598 21.834 23.9344 22.3409 23.3593 22.3912C22.7842 22.4416 22.2773 22.0162 22.227 21.4411C22.1766 20.866 22.6021 20.359 23.1771 20.3087C23.7522 20.2584 24.2592 20.6838 24.3095 21.2589Z" fill="#3468D1" stroke="black" stroke-width="0.1"/>
<path d="M30.8245 22.9145C30.8497 23.2029 30.6364 23.4572 30.348 23.4824C30.0595 23.5076 29.8053 23.2943 29.78 23.0059C29.7548 22.7174 29.9682 22.4632 30.2566 22.4379C30.545 22.4127 30.7993 22.6261 30.8245 22.9145Z" fill="#3468D1" stroke="black" stroke-width="0.1"/>
<path d="M19.6683 23.8905C19.6935 24.1789 19.4801 24.4332 19.1917 24.4584C18.9033 24.4836 18.649 24.2703 18.6238 23.9819C18.5985 23.6934 18.8119 23.4392 19.1003 23.4139C19.3888 23.3887 19.643 23.6021 19.6683 23.8905Z" fill="#3468D1" stroke="black" stroke-width="0.1"/>
<path d="M17.4303 24.0863C17.4454 24.2591 17.3176 24.4115 17.1447 24.4266C16.9719 24.4417 16.8195 24.3139 16.8044 24.1411C16.7893 23.9682 16.9171 23.8158 17.09 23.8007C17.2628 23.7856 17.4152 23.9135 17.4303 24.0863Z" fill="#3468D1" stroke="black" stroke-width="0.1"/>
<path d="M32.6439 22.7553C32.659 22.9281 32.5311 23.0805 32.3583 23.0956C32.1855 23.1108 32.0331 22.9829 32.018 22.8101C32.0029 22.6372 32.1307 22.4849 32.3035 22.4697C32.4764 22.4546 32.6288 22.5825 32.6439 22.7553Z" fill="#3468D1" stroke="black" stroke-width="0.1"/>
<path d="M27.6127 18.3268C27.638 18.6152 27.4246 18.8695 27.1362 18.8947C26.8478 18.9199 26.5935 18.7066 26.5683 18.4182C26.543 18.1297 26.7564 17.8755 27.0448 17.8502C27.3332 17.825 27.5875 18.0383 27.6127 18.3268Z" fill="#3468D1" stroke="black" stroke-width="0.1"/>
<path d="M22.88 28.4782C22.9052 28.7666 22.6919 29.0209 22.4035 29.0461C22.115 29.0714 21.8608 28.858 21.8355 28.5696C21.8103 28.2812 22.0237 28.0269 22.3121 28.0017C22.6005 27.9764 22.8548 28.1898 22.88 28.4782Z" fill="#3468D1" stroke="black" stroke-width="0.1"/>
<path d="M21.81 30.3404C21.8251 30.5133 21.6973 30.6657 21.5244 30.6808C21.3516 30.6959 21.1992 30.568 21.1841 30.3952C21.169 30.2224 21.2968 30.07 21.4697 30.0549C21.6425 30.0398 21.7949 30.1676 21.81 30.3404Z" fill="#3468D1" stroke="black" stroke-width="0.1"/>
<path d="M28.2642 16.5012C28.2793 16.674 28.1515 16.8264 27.9786 16.8415C27.8058 16.8566 27.6534 16.7287 27.6383 16.5559C27.6232 16.3831 27.751 16.2307 27.9239 16.2156C28.0967 16.2005 28.2491 16.3283 28.2642 16.5012Z" fill="#3468D1" stroke="black" stroke-width="0.1"/>
<path d="M22.0346 18.8148C22.0598 19.1032 21.8465 19.3575 21.558 19.3827C21.2696 19.408 21.0153 19.1946 20.9901 18.9062C20.9649 18.6178 21.1782 18.3635 21.4667 18.3383C21.7551 18.313 22.0094 18.5264 22.0346 18.8148Z" fill="#3468D1" stroke="black" stroke-width="0.1"/>
<path d="M28.4582 27.9902C28.4834 28.2786 28.27 28.5329 27.9816 28.5581C27.6932 28.5833 27.4389 28.37 27.4137 28.0815C27.3885 27.7931 27.6018 27.5389 27.8902 27.5136C28.1787 27.4884 28.4329 27.7017 28.4582 27.9902Z" fill="#3468D1" stroke="black" stroke-width="0.1"/>
<path d="M29.4168 29.6749C29.4319 29.8478 29.304 30.0001 29.1312 30.0152C28.9584 30.0304 28.806 29.9025 28.7909 29.7297C28.7757 29.5568 28.9036 29.4045 29.0764 29.3893C29.2493 29.3742 29.4016 29.5021 29.4168 29.6749Z" fill="#3468D1" stroke="black" stroke-width="0.1"/>
<path d="M20.6574 17.1667C20.6726 17.3395 20.5447 17.4919 20.3719 17.507C20.199 17.5221 20.0467 17.3943 20.0315 17.2214C20.0164 17.0486 20.1443 16.8962 20.3171 16.8811C20.4899 16.866 20.6423 16.9938 20.6574 17.1667Z" fill="#3468D1" stroke="black" stroke-width="0.1"/>
<path d="M24.9509 19.0292C24.9804 19.3654 24.7317 19.6618 24.3955 19.6912C24.0593 19.7207 23.7629 19.472 23.7335 19.1358C23.704 18.7996 23.9527 18.5032 24.2889 18.4738C24.6251 18.4443 24.9215 18.693 24.9509 19.0292Z" fill="#3468D1" stroke="black" stroke-width="0.1"/>
<path d="M24.5153 16.4439C24.5346 16.6653 24.3709 16.8605 24.1495 16.8798C23.9281 16.8992 23.7329 16.7354 23.7136 16.5141C23.6942 16.2927 23.858 16.0975 24.0793 16.0781C24.3007 16.0588 24.4959 16.2225 24.5153 16.4439Z" fill="#3468D1" stroke="black" stroke-width="0.1"/>
<path d="M25.7148 27.7606C25.7442 28.0968 25.4955 28.3931 25.1593 28.4226C24.8231 28.452 24.5268 28.2033 24.4973 27.8671C24.4679 27.5309 24.7166 27.2345 25.0528 27.2051C25.389 27.1757 25.6854 27.4244 25.7148 27.7606Z" fill="#3468D1" stroke="black" stroke-width="0.1"/>
<path d="M25.7347 30.3823C25.7541 30.6036 25.5903 30.7988 25.3689 30.8182C25.1476 30.8376 24.9524 30.6738 24.933 30.4524C24.9136 30.231 25.0774 30.0359 25.2988 30.0165C25.5202 29.9971 25.7153 30.1609 25.7347 30.3823Z" fill="#3468D1" stroke="black" stroke-width="0.1"/>
<path d="M21.3609 21.5436C21.3903 21.8798 21.1416 22.1762 20.8054 22.2056C20.4692 22.235 20.1728 21.9863 20.1434 21.6501C20.114 21.3139 20.3627 21.0175 20.6989 20.9881C21.0351 20.9587 21.3315 21.2074 21.3609 21.5436Z" fill="#3468D1" stroke="black" stroke-width="0.1"/>
<path d="M18.7843 20.4559C18.8037 20.6773 18.6399 20.8724 18.4185 20.8918C18.1971 20.9112 18.002 20.7474 17.9826 20.526C17.9632 20.3046 18.127 20.1095 18.3484 20.0901C18.5698 20.0707 18.7649 20.2345 18.7843 20.4559Z" fill="#3468D1" stroke="black" stroke-width="0.1"/>
<path d="M29.3049 25.2462C29.3343 25.5824 29.0856 25.8788 28.7494 25.9082C28.4132 25.9376 28.1168 25.6889 28.0874 25.3527C28.058 25.0165 28.3067 24.7202 28.6429 24.6907C28.9791 24.6613 29.2755 24.91 29.3049 25.2462Z" fill="#3468D1" stroke="black" stroke-width="0.1"/>
<path d="M31.4657 26.3703C31.485 26.5917 31.3213 26.7869 31.0999 26.8062C30.8785 26.8256 30.6833 26.6618 30.664 26.4404C30.6446 26.2191 30.8084 26.0239 31.0298 26.0045C31.2511 25.9852 31.4463 26.1489 31.4657 26.3703Z" fill="#3468D1" stroke="black" stroke-width="0.1"/>
<path d="M21.7427 25.9078C21.7721 26.244 21.5234 26.5404 21.1872 26.5698C20.851 26.5993 20.5547 26.3506 20.5252 26.0144C20.4958 25.6782 20.7445 25.3818 21.0807 25.3524C21.4169 25.3229 21.7133 25.5716 21.7427 25.9078Z" fill="#3468D1" stroke="black" stroke-width="0.1"/>
<path d="M19.3941 27.4265C19.4135 27.6478 19.2497 27.843 19.0284 27.8624C18.807 27.8817 18.6118 27.718 18.5924 27.4966C18.5731 27.2752 18.7368 27.08 18.9582 27.0607C19.1796 27.0413 19.3748 27.2051 19.3941 27.4265Z" fill="#3468D1" stroke="black" stroke-width="0.1"/>
<path d="M28.923 20.882C28.9525 21.2182 28.7038 21.5145 28.3676 21.544C28.0314 21.5734 27.735 21.3247 27.7056 20.9885C27.6762 20.6523 27.9249 20.3559 28.2611 20.3265C28.5972 20.2971 28.8936 20.5458 28.923 20.882Z" fill="#3468D1" stroke="black" stroke-width="0.1"/>
<path d="M30.8558 19.3998C30.8752 19.6212 30.7114 19.8163 30.4901 19.8357C30.2687 19.8551 30.0735 19.6913 30.0541 19.4699C30.0348 19.2485 30.1985 19.0534 30.4199 19.034C30.6413 19.0146 30.8365 19.1784 30.8558 19.3998Z" fill="#3468D1" stroke="black" stroke-width="0.1"/>
</svg>
