<svg width="48" height="48" viewBox="0 0 48 48" fill="none" xmlns="http://www.w3.org/2000/svg">
<circle cx="22.9348" cy="25.6569" r="21.8255" fill="#E84142" stroke="#0D0D0D" stroke-width="0.418182"/>
<circle cx="25.0002" cy="23.0004" r="21.8255" fill="#FFA2A2" stroke="#0D0D0D" stroke-width="0.418182"/>
<mask id="mask0_323_920" style="mask-type:alpha" maskUnits="userSpaceOnUse" x="3" y="1" width="44" height="44">
<circle cx="24.9999" cy="23.001" r="21.6339" transform="rotate(22.3651 24.9999 23.001)" fill="white"/>
</mask>
<g mask="url(#mask0_323_920)">
<rect x="25.9518" y="-1.35059" width="16.764" height="44.9124" transform="rotate(22.3651 25.9518 -1.35059)" fill="white"/>
</g>
<circle cx="25.0004" cy="23.0004" r="14.9402" stroke="#0D0D0D" stroke-width="0.418182"/>
<path d="M22.8638 28.8677L22.8633 28.8678L18.9433 29.9182L18.9432 29.9182C18.815 29.9526 18.68 29.9528 18.5516 29.9188C18.4232 29.8849 18.306 29.8178 18.2116 29.7245C18.1172 29.6311 18.0488 29.5146 18.0134 29.3866C17.978 29.2587 17.9767 29.1236 18.0097 28.995L21.6363 14.8828C21.6699 14.7524 21.7376 14.6332 21.8324 14.5375C21.9272 14.4418 22.0457 14.373 22.1758 14.3381C22.3059 14.3033 22.443 14.3036 22.5729 14.3391C22.7029 14.3746 22.821 14.4439 22.9154 14.5401L22.9155 14.5402L25.9666 17.6418L25.9673 17.6424C26.0619 17.7369 26.13 17.8547 26.1646 17.9839C26.1992 18.113 26.1992 18.2489 26.1645 18.378C26.1645 18.3781 26.1645 18.3782 26.1644 18.3783L23.4029 28.3356L23.4029 28.3357C23.3675 28.4638 23.2991 28.5804 23.2045 28.6738C23.1099 28.7671 22.9924 28.834 22.8638 28.8677ZM22.8892 28.9644L18.9692 30.0148L22.8892 28.9644ZM27.119 26.5509L27.1191 26.5506L28.3345 21.7735C28.3345 21.7734 28.3345 21.7733 28.3345 21.7733C28.3684 21.6429 28.4362 21.5238 28.5311 21.4281C28.626 21.3324 28.7446 21.2636 28.8749 21.2287C29.0051 21.1938 29.1422 21.1941 29.2723 21.2295C29.4023 21.2649 29.5207 21.3342 29.6152 21.4303C29.6152 21.4303 29.6152 21.4303 29.6152 21.4303L33.0798 24.9522L33.0798 24.9522C33.1733 25.0471 33.2402 25.1648 33.274 25.2936C33.3078 25.4224 33.3072 25.5578 33.2724 25.6863C33.2375 25.8149 33.1696 25.932 33.0754 26.0261C32.9812 26.1202 32.8639 26.188 32.7354 26.2226L28.055 27.4767L28.0549 27.4768C27.9263 27.5114 27.7908 27.5117 27.6621 27.4776C27.5333 27.4435 27.4157 27.3763 27.321 27.2827C27.2263 27.189 27.1578 27.0721 27.1224 26.9437C27.0869 26.8153 27.0858 26.6799 27.119 26.5509Z" fill="#E84142" stroke="black" stroke-width="0.2"/>
</svg>
