<svg width="48" height="48" viewBox="0 0 48 48" fill="none" xmlns="http://www.w3.org/2000/svg">
<circle cx="22.9348" cy="25.6569" r="21.8255" fill="#D75304" stroke="#0D0D0D" stroke-width="0.418182"/>
<circle cx="25.0002" cy="23.0004" r="21.8255" fill="#FFDF0D" stroke="#0D0D0D" stroke-width="0.418182"/>
<mask id="mask0_323_943" style="mask-type:alpha" maskUnits="userSpaceOnUse" x="3" y="1" width="44" height="44">
<circle cx="24.9999" cy="23.001" r="21.6339" transform="rotate(22.3651 24.9999 23.001)" fill="white"/>
</mask>
<g mask="url(#mask0_323_943)">
<rect x="25.9518" y="-1.35059" width="16.764" height="44.9124" transform="rotate(22.3651 25.9518 -1.35059)" fill="white"/>
</g>
<circle cx="25.0004" cy="23.0004" r="14.9402" stroke="#0D0D0D" stroke-width="0.418182"/>
<path d="M23.952 28.6985L23.9246 28.5976L22.8156 24.5272L22.7881 24.4264L22.889 24.3989L25.6636 23.6429C26.196 23.4979 26.6874 23.4709 27.1353 23.5673C27.1355 23.5673 27.1357 23.5673 27.1358 23.5674L27.1138 23.6696C27.541 23.7572 27.9019 23.9407 28.1966 24.2199L23.952 28.6985ZM23.952 28.6985L24.0529 28.671L26.7597 27.9336C27.6817 27.6824 28.3221 27.32 28.6508 26.8308L28.6509 26.8307C28.9792 26.3412 29.0639 25.8021 28.9058 25.2219C28.789 24.7929 28.5766 24.4326 28.2683 24.1439L23.952 28.6985ZM20.8706 17.5218L20.8981 17.6227L20.9989 17.5952L22.1115 17.2921L22.2124 17.2646L22.1849 17.1638L22.0202 16.5591L23.2566 16.2222L23.4214 16.8269L23.4488 16.9278L23.5497 16.9003L24.6623 16.5972L24.7632 16.5697L24.7357 16.4688L24.5849 15.9154C25.1918 15.8242 25.7395 15.8237 26.2291 15.912L26.2299 15.9122C26.9673 16.0389 27.5636 16.3223 28.0243 16.7587L28.0248 16.7592C28.492 17.1964 28.8175 17.7485 29.0001 18.4188C29.1506 18.9711 29.1717 19.4666 29.0691 19.9078C28.9642 20.3491 28.7681 20.7367 28.4806 21.0723C28.1906 21.4108 27.84 21.6931 27.4278 21.9191L27.3556 21.9587L27.3772 22.0383L27.4142 22.174L27.4402 22.2694L27.537 22.2487C28.0192 22.1454 28.5156 22.1669 29.0277 22.3151L29.0289 22.3155C29.541 22.4572 30.0036 22.7303 30.417 23.1375C30.8261 23.5405 31.1268 24.085 31.3153 24.7768C31.5065 25.4787 31.508 26.1534 31.3219 26.8029C31.1354 27.4449 30.7464 28.0211 30.1484 28.5311C29.6746 28.9352 29.058 29.2707 28.2956 29.5355L28.1365 28.9513L28.109 28.8505L28.0081 28.878L26.8955 29.1811L26.7947 29.2085L26.8222 29.3094L26.9869 29.9141L25.7504 30.251L25.5857 29.6463L25.5582 29.5454L25.4573 29.5729L24.3448 29.876L24.2439 29.9035L24.2714 30.0044L24.4361 30.609L22.1549 31.2305L18.4247 17.5387L20.7059 16.9172L20.8706 17.5218ZM23.5956 16.6711L23.4584 16.1673L23.6424 16.1171C23.8961 16.048 24.1411 15.9922 24.3775 15.9497L24.5065 16.4229L23.5956 16.6711ZM27.9622 29.1072L28.097 29.6018C27.9616 29.6452 27.822 29.6866 27.678 29.7258L27.1886 29.8591L27.0514 29.3553L27.9622 29.1072ZM25.4114 29.8021L25.5487 30.3059L24.6379 30.5541L24.5006 30.0503L25.4114 29.8021ZM20.9076 16.8622L21.8184 16.6141L21.9557 17.1178L21.0448 17.366L20.9076 16.8622ZM21.7635 16.4123L20.8526 16.6605L20.4344 15.1255L21.3453 14.8774L21.7635 16.4123ZM25.111 32.2908L24.6928 30.7558L25.6037 30.5076L26.0218 32.0426L25.111 32.2908ZM27.6618 31.5958L27.2436 30.0609L27.7329 29.9275C27.8766 29.8884 28.0163 29.8471 28.152 29.8037L28.5726 31.3477L27.6618 31.5958ZM23.8961 14.1824L24.3224 15.7472C24.0849 15.7905 23.8399 15.8466 23.5875 15.9154L23.4034 15.9655L22.9852 14.4306L23.8961 14.1824ZM22.3221 22.7159L22.3496 22.8168L22.4505 22.7893L24.9402 22.111C25.3868 21.9893 25.7704 21.7973 26.0884 21.5334L26.0884 21.5334L26.0893 21.5327C26.4062 21.2639 26.6291 20.9456 26.7547 20.5782C26.8846 20.202 26.8894 19.7998 26.7737 19.3752C26.6197 18.8102 26.2908 18.3943 25.7889 18.1354C25.2866 17.8729 24.651 17.8556 23.8952 18.0615L21.3512 18.7546L21.2504 18.7821L21.2779 18.883L22.3221 22.7159Z" fill="#D75304" stroke="#0D0D0D" stroke-width="0.209091"/>
</svg>
