<svg width="48" height="48" viewBox="0 0 48 48" fill="none" xmlns="http://www.w3.org/2000/svg">
<circle cx="22.9348" cy="25.6569" r="21.8255" fill="#D75304" stroke="#0D0D0D" stroke-width="0.418182"/>
<circle cx="25.0001" cy="23.0004" r="21.8255" fill="#FFDF0D" stroke="#0D0D0D" stroke-width="0.418182"/>
<mask id="mask0_323_820" style="mask-type:alpha" maskUnits="userSpaceOnUse" x="3" y="1" width="44" height="44">
<circle cx="24.9999" cy="23.001" r="21.6339" transform="rotate(22.3651 24.9999 23.001)" fill="white"/>
</mask>
<g mask="url(#mask0_323_820)">
<rect x="25.9518" y="-1.35059" width="16.764" height="44.9124" transform="rotate(22.3651 25.9518 -1.35059)" fill="white"/>
</g>
<circle cx="25.0003" cy="23.0004" r="14.9402" stroke="#0D0D0D" stroke-width="0.418182"/>
<path d="M31.4012 22.2269L32.4784 21.9383L32.8234 23.226L31.3925 23.6094L31.3246 23.6276L31.3187 23.6976C31.1969 25.1542 30.6289 26.5378 29.6921 27.6598C28.7553 28.7818 27.4953 29.5876 26.0839 29.9674L20.6399 31.4261L19.4319 26.9178L19.406 26.8212L19.3094 26.847L17.5617 27.3153L17.2167 26.0277L18.9644 25.5594L19.0609 25.5335L19.0351 25.4369L18.5715 23.7068L18.5456 23.6103L18.449 23.6361L16.7014 24.1044L16.3564 22.8168L18.104 22.3485L18.2006 22.3226L18.1747 22.226L16.9667 17.7177L22.4108 16.2589C23.823 15.8821 25.3171 15.95 26.6893 16.4533C28.0616 16.9565 29.2453 17.8707 30.0791 19.0713L30.1192 19.129L30.1871 19.1108L31.618 18.7274L31.963 20.0151L30.8859 20.3037L30.7762 20.3331L30.8192 20.4381C31.0428 20.9852 31.1964 21.5583 31.2762 22.1439L31.2916 22.2563L31.4012 22.2269ZM18.6984 18.6372L18.602 18.663L18.6277 18.7595L19.4591 21.8817L19.4849 21.9785L19.5816 21.9525L28.5857 19.5399L28.7387 19.4989L28.6358 19.3784C27.9284 18.5497 27.0009 17.9382 25.9605 17.6146C24.9201 17.291 23.8094 17.2685 22.7568 17.5498L22.7567 17.5498L18.6984 18.6372ZM21.5574 29.6932L21.5832 29.7898L21.6798 29.7639L25.7381 28.6765C25.7381 28.6765 25.7381 28.6765 25.7381 28.6765C26.7914 28.3944 27.7432 27.8197 28.4834 27.019C29.2235 26.2182 29.7216 25.2242 29.9201 24.152L29.9489 23.9962L29.7959 24.0372L20.7918 26.4498L20.6952 26.4757L20.7211 26.5723L21.5574 29.6932ZM29.9763 22.5216C29.9483 22.2511 29.9013 21.983 29.8357 21.7193L29.8399 21.7182L29.8139 21.6215C29.7347 21.3268 29.6323 21.0387 29.5077 20.7601L29.4729 20.6823L29.3906 20.7044L19.9315 23.2389L19.8349 23.2648L19.8608 23.3614L20.3243 25.0915L20.3502 25.188L20.4468 25.1622L29.9027 22.6285L29.985 22.6064L29.9763 22.5216Z" fill="#D75304" stroke="black" stroke-width="0.2"/>
</svg>
