<svg width="48" height="48" viewBox="0 0 48 48" fill="none" xmlns="http://www.w3.org/2000/svg">
<circle cx="22.9348" cy="25.6569" r="21.8255" fill="#027FF3" stroke="#0D0D0D" stroke-width="0.418182"/>
<circle cx="25.0001" cy="23.0004" r="21.8255" fill="#A6F5FF" stroke="#0D0D0D" stroke-width="0.418182"/>
<mask id="mask0_333_2091" style="mask-type:alpha" maskUnits="userSpaceOnUse" x="3" y="1" width="44" height="44">
<circle cx="24.9999" cy="23.001" r="21.6339" transform="rotate(22.3651 24.9999 23.001)" fill="white"/>
</mask>
<g mask="url(#mask0_333_2091)">
<rect x="25.9518" y="-1.35059" width="16.764" height="44.9124" transform="rotate(22.3651 25.9518 -1.35059)" fill="white"/>
</g>
<circle cx="25.0003" cy="23.0004" r="14.9402" stroke="#0D0D0D" stroke-width="0.418182"/>
<path d="M21.8035 29.8682L19.3805 30.5174C19.2519 30.5519 19.1149 30.5339 18.9997 30.4672C18.8847 30.4005 18.8009 30.2908 18.767 30.1621L16.2262 20.5033C16.1562 20.2371 16.3147 19.9643 16.581 19.893L18.6123 19.3487C18.7407 19.3143 18.8775 19.3323 18.9923 19.3986L30.973 26.3086L33.0286 25.7578L30.7178 17.1338L29.0079 17.5974L26.5445 21.8257L25.6792 21.3237L28.2459 16.9179C28.3122 16.8041 28.4206 16.7211 28.5479 16.6865L30.9409 16.0378L30.9424 16.0375C31.0703 16.0032 31.2067 16.0209 31.3215 16.0867C31.4368 16.1529 31.5209 16.262 31.5553 16.3905L34.1252 25.9816C34.1966 26.248 34.038 26.5221 33.7708 26.5937L31.0311 27.3278C30.9026 27.3622 30.7659 27.3444 30.6509 27.278L18.6705 20.3679L17.321 20.7295L19.6076 29.4219L21.3409 28.9574L23.5598 25.0042L24.4331 25.4922L22.111 29.6295C22.0449 29.7471 21.934 29.8332 21.8035 29.8682Z" fill="url(#paint0_linear_333_2091)"/>
<path d="M18.9783 30.505C19.1031 30.5772 19.2515 30.5967 19.3907 30.5594L21.8137 29.9102C21.955 29.8723 22.075 29.7792 22.1466 29.6518L24.4687 25.5144L24.4891 25.4781L24.4528 25.4578L23.5796 24.9698L23.5434 24.9496L23.523 24.9858L21.3126 28.9238L19.6365 29.3729L17.3711 20.7609L18.6641 20.4144L30.6297 27.3158C30.7541 27.3877 30.9022 27.4071 31.0413 27.3698L33.781 26.6357C34.0703 26.5582 34.2422 26.2614 34.1648 25.9727L31.5949 16.3817C31.5576 16.2425 31.4665 16.1242 31.3416 16.0526C31.2173 15.9813 31.0695 15.9621 30.9311 15.9992L30.9296 15.9996L30.9295 15.9997L28.5365 16.6483L28.5364 16.6483C28.3987 16.6858 28.2813 16.7756 28.2095 16.8989L25.6427 21.3047L25.6218 21.3407L25.6578 21.3616L26.5231 21.8635L26.559 21.8844L26.5798 21.8485L29.0347 17.6349L30.6879 17.1867L32.9772 25.7304L30.9783 26.266L19.0125 19.3646C18.8881 19.2927 18.7399 19.2732 18.601 19.3105L16.5696 19.8548C16.2813 19.932 16.1096 20.2275 16.1854 20.5157L16.1854 20.5158L18.7263 30.1746C18.7629 30.314 18.8537 30.4327 18.9783 30.505Z" stroke="black" stroke-width="0.1"/>
<defs>
<linearGradient id="paint0_linear_333_2091" x1="23.7588" y1="18.1273" x2="26.5416" y2="28.5127" gradientUnits="userSpaceOnUse">
<stop stop-color="#01E5FF"/>
<stop offset="0.9999" stop-color="#017AF2"/>
<stop offset="1" stop-color="#41889E"/>
</linearGradient>
</defs>
</svg>
