<svg width="48" height="48" viewBox="0 0 48 48" fill="none" xmlns="http://www.w3.org/2000/svg">
<circle cx="22.9348" cy="25.6569" r="21.8255" fill="#D75304" stroke="#0D0D0D" stroke-width="0.418182"/>
<circle cx="25.0002" cy="23.0004" r="21.8255" fill="#FFDF0D" stroke="#0D0D0D" stroke-width="0.418182"/>
<mask id="mask0_323_890" style="mask-type:alpha" maskUnits="userSpaceOnUse" x="3" y="1" width="44" height="44">
<circle cx="24.9999" cy="23.001" r="21.6339" transform="rotate(22.3651 24.9999 23.001)" fill="white"/>
</mask>
<g mask="url(#mask0_323_890)">
<rect x="25.9518" y="-1.35059" width="16.764" height="44.9124" transform="rotate(22.3651 25.9518 -1.35059)" fill="white"/>
</g>
<circle cx="25.0004" cy="23.0004" r="14.9402" stroke="#0D0D0D" stroke-width="0.418182"/>
<path d="M19.5589 20.6989L19.533 20.6023L19.4365 20.6281L17.8123 21.0633L17.0876 18.3588L24.6279 16.3384C27.2803 15.6277 30.219 17.8338 31.1567 21.3331C32.0943 24.8324 30.6523 28.2123 27.9999 28.923L20.4597 30.9434L19.735 28.2389L21.3591 27.8037L21.4557 27.7778L21.4298 27.6812L19.5589 20.6989ZM24.8102 26.7755L24.8361 26.872L24.9327 26.8462L25.9265 26.5799C26.6258 26.3925 27.1367 25.8108 27.4058 25.0429C27.6752 24.2744 27.7071 23.3094 27.4441 22.3279C27.1811 21.3463 26.6709 20.5266 26.0535 19.9957C25.4364 19.4652 24.7031 19.2169 24.0038 19.4043L23.01 19.6706L22.9134 19.6965L22.9393 19.7931L24.8102 26.7755Z" fill="#D75304" stroke="black" stroke-width="0.2"/>
</svg>
