<svg width="48" height="48" viewBox="0 0 48 48" fill="none" xmlns="http://www.w3.org/2000/svg">
<circle cx="22.9348" cy="25.6569" r="21.8255" fill="#D75304" stroke="#0D0D0D" stroke-width="0.418182"/>
<circle cx="25.0001" cy="23.0004" r="21.8255" fill="#FFDF0D" stroke="#0D0D0D" stroke-width="0.418182"/>
<mask id="mask0_323_1030" style="mask-type:alpha" maskUnits="userSpaceOnUse" x="3" y="1" width="44" height="44">
<circle cx="24.9999" cy="23.001" r="21.6339" transform="rotate(22.3651 24.9999 23.001)" fill="white"/>
</mask>
<g mask="url(#mask0_323_1030)">
<rect x="25.9518" y="-1.35059" width="16.764" height="44.9124" transform="rotate(22.3651 25.9518 -1.35059)" fill="white"/>
</g>
<circle cx="25.0003" cy="23.0004" r="14.9402" stroke="#0D0D0D" stroke-width="0.418182"/>
<path d="M27.2151 28.2724L27.2151 28.2725L27.2183 28.2715C27.9289 28.0556 28.5789 27.6761 29.1162 27.1635C29.6518 26.6525 30.0605 26.0235 30.3098 25.3267C30.3873 25.1823 30.5148 25.0711 30.6684 25.0137C30.8242 24.9556 30.996 24.957 31.1507 25.0177C31.3055 25.0784 31.4325 25.1941 31.5073 25.3426C31.5814 25.49 31.5991 25.6594 31.5569 25.8188C31.2353 26.7154 30.7061 27.5232 30.0125 28.1762C29.3182 28.8299 28.479 29.3098 27.5635 29.5767C24.8024 30.316 21.865 28.8667 20.2321 26.0021L20.1939 25.935L20.1194 25.955L18.3303 26.4344C18.1574 26.4807 17.9731 26.4565 17.8181 26.367C17.663 26.2775 17.5499 26.13 17.5036 25.9571C17.4572 25.7842 17.4815 25.6 17.571 25.4449C17.6605 25.2899 17.8079 25.1768 17.9809 25.1304L19.5155 24.7192L19.6121 24.6933L19.5862 24.5968L19.5858 24.5953L19.5854 24.5939L19.585 24.5924L19.5846 24.591L19.5842 24.5895L19.5838 24.5881L19.5835 24.5866L19.5831 24.5852L19.5827 24.5837L19.5823 24.5823L19.5819 24.5808L19.5815 24.5794L19.5811 24.5779L19.5807 24.5765L19.5804 24.575L19.58 24.5736L19.5796 24.5721L19.5792 24.5707L19.5788 24.5692L19.5784 24.5678L19.578 24.5663L19.5776 24.5649L19.5772 24.5634L19.5769 24.562L19.5765 24.5605L19.5761 24.5591L19.5757 24.5576L19.5753 24.5562L19.5749 24.5547L19.5745 24.5533L19.5741 24.5518L19.5737 24.5504L19.5734 24.5489L19.573 24.5474L19.5726 24.546L19.5722 24.5445L19.5718 24.5431L19.5714 24.5416L19.571 24.5402L19.5706 24.5387L19.5702 24.5373L19.5698 24.5358L19.5695 24.5344L19.5691 24.5329L19.5687 24.5315L19.5683 24.53L19.5679 24.5285L19.5675 24.5271L19.5671 24.5256L19.5667 24.5242L19.5663 24.5227L19.5659 24.5213L19.5656 24.5198L19.5652 24.5184L19.5648 24.5169L19.5644 24.5154L19.564 24.514L19.5636 24.5125L19.5632 24.5111L19.5628 24.5096L19.5624 24.5082L19.562 24.5067L19.5617 24.5053L19.5613 24.5038L19.5609 24.5023L19.5605 24.5009L19.5601 24.4994L19.5597 24.498L19.5593 24.4965L19.5589 24.495L19.5585 24.4936L19.5581 24.4921L19.5578 24.4907L19.5574 24.4892L19.557 24.4878L19.5566 24.4863L19.5562 24.4848L19.5558 24.4834L19.5554 24.4819L19.555 24.4805L19.5546 24.479L19.5542 24.4775L19.5538 24.4761L19.5535 24.4746L19.5531 24.4732L19.5527 24.4717L19.5523 24.4702L19.5519 24.4688L19.5515 24.4673L19.5511 24.4659L19.5507 24.4644L19.5503 24.4629L19.5499 24.4615L19.5495 24.46L19.5491 24.4586L19.5488 24.4571L19.5484 24.4556L19.548 24.4542L19.5476 24.4527L19.5472 24.4513L19.5468 24.4498L19.5464 24.4483L19.546 24.4469L19.5456 24.4454L19.5452 24.444L19.5448 24.4425L19.5444 24.441L19.5441 24.4396L19.5437 24.4381L19.5433 24.4366L19.5429 24.4352L19.5425 24.4337L19.5421 24.4323L19.5417 24.4308L19.5413 24.4293L19.5409 24.4279L19.5405 24.4264L19.5401 24.4249L19.5397 24.4235L19.5394 24.422L19.539 24.4206L19.5386 24.4191L19.5382 24.4176L19.5378 24.4162L19.5374 24.4147L19.537 24.4132L19.5366 24.4118L19.5362 24.4103L19.5358 24.4088L19.5354 24.4074L19.535 24.4059L19.5346 24.4045L19.5343 24.403L19.5339 24.4015L19.5335 24.4001L19.5331 24.3986L19.5327 24.3971L19.5323 24.3957L19.5319 24.3942L19.5315 24.3927L19.5311 24.3913L19.5307 24.3898L19.5303 24.3883L19.5299 24.3869L19.5295 24.3854L19.5292 24.3839L19.5288 24.3825L19.5284 24.381L19.528 24.3795L19.5276 24.3781L19.5272 24.3766L19.5268 24.3752L19.5264 24.3737L19.526 24.3722L19.5256 24.3708L19.5252 24.3693L19.5248 24.3678L19.5244 24.3664L19.524 24.3649L19.5237 24.3634L19.5233 24.362L19.5229 24.3605L19.5225 24.359L19.5221 24.3576L19.5217 24.3561L19.5213 24.3546L19.5209 24.3532L19.5205 24.3517L19.5201 24.3502L19.5197 24.3488L19.5193 24.3473L19.5189 24.3458L19.5185 24.3444L19.5182 24.3429L19.5178 24.3414L19.5174 24.34L19.517 24.3385L19.5166 24.337L19.5162 24.3356L19.5158 24.3341L19.5154 24.3326L19.515 24.3312L19.5146 24.3297L19.5142 24.3282L19.5138 24.3267L19.5134 24.3253L19.513 24.3238L19.5126 24.3223L19.5123 24.3209L19.5119 24.3194L19.5115 24.3179L19.5111 24.3165L19.5107 24.315L19.5103 24.3135L19.5099 24.3121L19.5095 24.3106L19.5091 24.3091L19.5087 24.3077L19.5083 24.3062L19.5079 24.3047L19.5075 24.3033L19.5071 24.3018L19.5067 24.3003L19.5064 24.2989L19.506 24.2974L19.5056 24.2959L19.5052 24.2944L19.5048 24.293L19.5044 24.2915L19.504 24.29L19.5036 24.2886L19.5032 24.2871L19.5028 24.2856L19.5024 24.2842L19.502 24.2827L19.5016 24.2812L19.5012 24.2798L19.5008 24.2783L19.5004 24.2768L19.5001 24.2754L19.4997 24.2739L19.4993 24.2724L19.4989 24.2709L19.4985 24.2695L19.4981 24.268L19.4977 24.2665L19.4973 24.2651L19.4969 24.2636L19.4965 24.2621L19.4961 24.2607L19.4957 24.2592L19.4953 24.2577L19.4949 24.2563L19.4945 24.2548L19.4942 24.2533L19.4938 24.2518L19.4934 24.2504L19.493 24.2489L19.4926 24.2474L19.4922 24.246L19.4918 24.2445L19.4914 24.243L19.491 24.2416L19.4906 24.2401L19.4902 24.2386L19.4898 24.2372L19.4894 24.2357L19.489 24.2342L19.4886 24.2327L19.4882 24.2313L19.4879 24.2298L19.4875 24.2283L19.4871 24.2269L19.4867 24.2254L19.4863 24.2239L19.4859 24.2225L19.4855 24.221L19.4851 24.2195L19.4847 24.2181L19.4843 24.2166L19.4839 24.2151L19.4835 24.2136L19.4831 24.2122L19.4827 24.2107L19.4823 24.2092L19.4819 24.2078L19.4816 24.2063L19.4812 24.2048L19.4808 24.2034L19.4804 24.2019L19.48 24.2004L19.4796 24.199L19.4792 24.1975L19.4788 24.196L19.4784 24.1945L19.478 24.1931L19.4776 24.1916L19.4772 24.1901L19.4768 24.1887L19.4764 24.1872L19.476 24.1857L19.4756 24.1843L19.4753 24.1828L19.4749 24.1813L19.4745 24.1799L19.4741 24.1784L19.4737 24.1769L19.4733 24.1754L19.4729 24.174L19.4725 24.1725L19.4721 24.171L19.4717 24.1696L19.4713 24.1681L19.4709 24.1666L19.4705 24.1652L19.4701 24.1637L19.4697 24.1622L19.4693 24.1608L19.469 24.1593L19.4686 24.1578L19.4682 24.1563L19.4678 24.1549L19.4674 24.1534L19.467 24.1519L19.4666 24.1505L19.4662 24.149L19.4658 24.1475L19.4654 24.1461L19.465 24.1446L19.4646 24.1431L19.4642 24.1417L19.4638 24.1402L19.4634 24.1387L19.4631 24.1373L19.4627 24.1358L19.4623 24.1343L19.4619 24.1329L19.4615 24.1314L19.4611 24.1299L19.4607 24.1284L19.4603 24.127L19.4599 24.1255L19.4595 24.124L19.4591 24.1226L19.4587 24.1211L19.4583 24.1196L19.4579 24.1182L19.4575 24.1167L19.4572 24.1152L19.4568 24.1138L19.4564 24.1123L19.456 24.1108L19.4556 24.1094L19.4552 24.1079L19.4548 24.1064L19.4544 24.105L19.454 24.1035L19.4536 24.102L19.4532 24.1006L19.4528 24.0991L19.4524 24.0976L19.452 24.0962L19.4516 24.0947L19.4513 24.0932L19.4509 24.0918L19.4505 24.0903L19.4501 24.0888L19.4497 24.0874L19.4493 24.0859L19.4489 24.0844L19.4485 24.083L19.4481 24.0815L19.4477 24.08L19.4473 24.0786L19.4469 24.0771L19.4465 24.0756L19.4461 24.0742L19.4458 24.0727L19.4454 24.0712L19.445 24.0698L19.4446 24.0683L19.4442 24.0668L19.4438 24.0654L19.4434 24.0639L19.443 24.0624L19.4426 24.061L19.4422 24.0595L19.4418 24.058L19.4414 24.0566L19.441 24.0551L19.4407 24.0537L19.4403 24.0522L19.4399 24.0507L19.4395 24.0493L19.4391 24.0478L19.4387 24.0463L19.4383 24.0449L19.4379 24.0434L19.4375 24.0419L19.4371 24.0405L19.4367 24.039L19.4363 24.0375L19.4359 24.0361L19.4355 24.0346L19.4352 24.0332L19.4348 24.0317L19.4344 24.0302L19.434 24.0288L19.4336 24.0273L19.4332 24.0258L19.4328 24.0244L19.4324 24.0229L19.432 24.0214L19.4316 24.02L19.4312 24.0185L19.4308 24.0171L19.4305 24.0156L19.4301 24.0141L19.4297 24.0127L19.4293 24.0112L19.4289 24.0097L19.4285 24.0083L19.4281 24.0068L19.4277 24.0054L19.4273 24.0039L19.4269 24.0024L19.4265 24.001L19.4261 23.9995L19.4258 23.998L19.4254 23.9966L19.425 23.9951L19.4246 23.9937L19.4242 23.9922L19.4238 23.9907L19.4234 23.9893L19.423 23.9878L19.4226 23.9864L19.4222 23.9849L19.4218 23.9834L19.4214 23.982L19.4211 23.9805L19.4207 23.9791L19.4203 23.9776L19.4199 23.9761L19.4195 23.9747L19.4191 23.9732L19.4187 23.9718L19.4183 23.9703L19.4179 23.9688L19.4175 23.9674L19.4171 23.9659L19.4168 23.9645L19.4164 23.963L19.416 23.9615L19.4156 23.9601L19.4152 23.9586L19.4148 23.9572L19.4144 23.9557L19.414 23.9542L19.4136 23.9528L19.4132 23.9513L19.4128 23.9499L19.4125 23.9484L19.4121 23.947L19.4117 23.9455L19.4113 23.944L19.4109 23.9426L19.4105 23.9411L19.4101 23.9397L19.4097 23.9382L19.4093 23.9368L19.4089 23.9353L19.4085 23.9338L19.4082 23.9324L19.4078 23.9309L19.4074 23.9295L19.407 23.928L19.4066 23.9266L19.4062 23.9251L19.4058 23.9237L19.4054 23.9222L19.405 23.9207L19.4046 23.9193L19.4043 23.9178L19.4039 23.9164L19.4035 23.9149L19.4031 23.9135L19.4027 23.912L19.4023 23.9106L19.4019 23.9091L19.4015 23.9077L19.4011 23.9062L19.4008 23.9047L19.4004 23.9033L19.4 23.9018L19.3996 23.9004L19.3992 23.8989L19.3988 23.8975L19.3984 23.896L19.398 23.8946L19.3976 23.8931L19.3972 23.8917L19.3969 23.8902L19.3965 23.8888L19.3961 23.8873L19.3957 23.8859L19.3953 23.8844L19.3949 23.883L19.3945 23.8815L19.3941 23.8801L19.3937 23.8786L19.3934 23.8772L19.393 23.8757L19.3926 23.8743L19.3922 23.8728L19.3918 23.8714L19.3914 23.8699L19.391 23.8685L19.3906 23.867L19.3902 23.8656L19.3899 23.8641L19.3895 23.8627L19.3891 23.8612L19.3887 23.8598L19.3883 23.8583L19.3879 23.8569L19.3875 23.8554L19.3871 23.854L19.3868 23.8525L19.3864 23.8511L19.386 23.8496L19.3856 23.8482L19.3852 23.8467L19.3848 23.8453L19.3844 23.8438L19.384 23.8424L19.3837 23.8409L19.3833 23.8395L19.3829 23.838L19.3825 23.8366L19.3821 23.8351L19.3817 23.8337L19.3813 23.8322L19.3809 23.8308L19.3805 23.8293L19.3802 23.8279L19.3798 23.8264L19.3794 23.825L19.379 23.8235L19.3786 23.8221L19.3782 23.8206L19.3778 23.8192L19.3774 23.8177L19.377 23.8163L19.3767 23.8148L19.3763 23.8134L19.3759 23.8119L19.3755 23.8105L19.3751 23.809L19.3747 23.8076L19.3743 23.8061L19.3739 23.8047L19.3735 23.8032L19.3732 23.8018L19.3728 23.8003L19.3724 23.7989L19.372 23.7974L19.3716 23.796L19.3712 23.7945L19.3708 23.793L19.3704 23.7916L19.37 23.7901L19.3697 23.7887L19.3693 23.7872L19.3689 23.7858L19.3685 23.7843L19.3681 23.7829L19.3677 23.7814L19.3673 23.78L19.3669 23.7785L19.3665 23.7771L19.3661 23.7756L19.3658 23.7741L19.3654 23.7727L19.365 23.7712L19.3646 23.7698L19.3642 23.7683L19.3638 23.7669L19.3634 23.7654L19.363 23.764L19.3626 23.7625L19.3622 23.761L19.3619 23.7596L19.3615 23.7581L19.3611 23.7567L19.3607 23.7552L19.3603 23.7538L19.3599 23.7523L19.3595 23.7508L19.3591 23.7494L19.3587 23.7479L19.3583 23.7465L19.358 23.745L19.3576 23.7436L19.3572 23.7421L19.3568 23.7406L19.3564 23.7392L19.356 23.7377L19.3556 23.7363L19.3552 23.7348L19.3548 23.7333L19.3544 23.7319L19.354 23.7304L19.3537 23.729L19.3533 23.7275L19.3529 23.726L19.3525 23.7246L19.3521 23.7231L19.3517 23.7217L19.3513 23.7202L19.3509 23.7187L19.3505 23.7173L19.3501 23.7158L19.3497 23.7144L19.3493 23.7129L19.349 23.7114L19.3486 23.71L19.3482 23.7085L19.3478 23.7071L19.3474 23.7056L19.347 23.7041L19.3466 23.7027L19.3462 23.7012L19.3458 23.6998L19.3454 23.6983L19.345 23.6968L19.3446 23.6954L19.3443 23.6939L19.3439 23.6924L19.3435 23.691L19.3431 23.6895L19.3427 23.6881L19.3423 23.6866L19.3419 23.6851L19.3415 23.6837L19.3411 23.6822L19.3407 23.6807L19.3403 23.6793L19.3399 23.6778L19.3396 23.6764L19.3392 23.6749L19.3388 23.6734L19.3384 23.672L19.338 23.6705L19.3376 23.669L19.3372 23.6676L19.3368 23.6661L19.3364 23.6647L19.336 23.6632L19.3356 23.6617L19.3352 23.6603L19.3348 23.6588L19.3345 23.6573L19.3341 23.6559L19.3337 23.6544L19.3333 23.6529L19.3329 23.6515L19.3325 23.65L19.3321 23.6485L19.3317 23.6471L19.3313 23.6456L19.3309 23.6442L19.3305 23.6427L19.3301 23.6412L19.3297 23.6398L19.3294 23.6383L19.329 23.6368L19.3286 23.6354L19.3282 23.6339L19.3278 23.6324L19.3274 23.631L19.327 23.6295L19.3266 23.628L19.3262 23.6266L19.3258 23.6251L19.3254 23.6236L19.325 23.6222L19.3246 23.6207L19.3243 23.6192L19.3239 23.6178L19.3235 23.6163L19.3231 23.6148L19.3227 23.6134L19.3223 23.6119L19.3219 23.6104L19.3215 23.609L19.3211 23.6075L19.3207 23.606L19.3203 23.6046L19.3199 23.6031L19.3195 23.6016L19.3191 23.6002L19.3187 23.5987L19.3184 23.5972L19.318 23.5958L19.3176 23.5943L19.3172 23.5928L19.3168 23.5914L19.3164 23.5899L19.316 23.5884L19.3156 23.587L19.3152 23.5855L19.3148 23.584L19.3144 23.5826L19.314 23.5811L19.3136 23.5796L19.3132 23.5782L19.3129 23.5767L19.3125 23.5752L19.3121 23.5738L19.3117 23.5723L19.3113 23.5708L19.3109 23.5694L19.3105 23.5679L19.3101 23.5664L19.3097 23.565L19.3093 23.5635L19.3089 23.562L19.3085 23.5605L19.3081 23.5591L19.3077 23.5576L19.3073 23.5561L19.307 23.5547L19.3066 23.5532L19.3062 23.5517L19.3058 23.5503L19.3054 23.5488L19.305 23.5473L19.3046 23.5459L19.3042 23.5444L19.3038 23.5429L19.3034 23.5415L19.303 23.54L19.3026 23.5385L19.3022 23.5371L19.3018 23.5356L19.3014 23.5341L19.301 23.5326L19.3007 23.5312L19.3003 23.5297L19.2999 23.5282L19.2995 23.5268L19.2991 23.5253L19.2987 23.5238L19.2983 23.5224L19.2979 23.5209L19.2975 23.5194L19.2971 23.518L19.2967 23.5165L19.2963 23.515L19.2959 23.5135L19.2955 23.5121L19.2951 23.5106L19.2947 23.5091L19.2944 23.5077L19.294 23.5062L19.2936 23.5047L19.2932 23.5033L19.2928 23.5018L19.2924 23.5003L19.292 23.4989L19.2916 23.4974L19.2912 23.4959L19.2908 23.4944L19.2904 23.493L19.29 23.4915L19.2896 23.49L19.2892 23.4886L19.2888 23.4871L19.2885 23.4856L19.2881 23.4842L19.2877 23.4827L19.2873 23.4812L19.2869 23.4798L19.2865 23.4783L19.2861 23.4768L19.2857 23.4753L19.2853 23.4739L19.2849 23.4724L19.2845 23.4709L19.2841 23.4695L19.2837 23.468L19.2833 23.4665L19.2829 23.4651L19.2825 23.4636L19.2822 23.4621L19.2818 23.4607L19.2814 23.4592L19.281 23.4577L19.2806 23.4562L19.2802 23.4548L19.2798 23.4533L19.2794 23.4518L19.279 23.4504L19.2786 23.4489L19.2782 23.4474L19.2778 23.446L19.2774 23.4445L19.277 23.443L19.2766 23.4416L19.2762 23.4401L19.2759 23.4386L19.2755 23.4371L19.2751 23.4357L19.2747 23.4342L19.2743 23.4327L19.2739 23.4313L19.2735 23.4298L19.2731 23.4283L19.2727 23.4269L19.2723 23.4254L19.2719 23.4239L19.2715 23.4225L19.2711 23.421L19.2707 23.4195L19.2703 23.418L19.2699 23.4166L19.2696 23.4151L19.2692 23.4136L19.2688 23.4122L19.2684 23.4107L19.268 23.4092L19.2676 23.4078L19.2672 23.4063L19.2668 23.4048L19.2664 23.4034L19.266 23.4019L19.2656 23.4004L19.2652 23.399L19.2648 23.3975L19.2644 23.396L19.264 23.3945L19.2637 23.3931L19.2633 23.3916L19.2629 23.3901L19.2625 23.3887L19.2621 23.3872L19.2617 23.3857L19.2613 23.3843L19.2609 23.3828L19.2605 23.3813L19.2601 23.3799L19.2597 23.3784L19.2593 23.3769L19.2589 23.3755L19.2585 23.374L19.2581 23.3725L19.2578 23.3711L19.2574 23.3696L19.257 23.3681L19.2566 23.3667L19.2562 23.3652L19.2558 23.3637L19.2554 23.3623L19.255 23.3608L19.2546 23.3593L19.2542 23.3579L19.2538 23.3564L19.2534 23.3549L19.253 23.3535L19.2526 23.352L19.2522 23.3505L19.2519 23.349L19.2515 23.3476L19.2511 23.3461L19.2507 23.3446L19.2503 23.3432L19.2499 23.3417L19.2495 23.3402L19.2491 23.3388L19.2487 23.3373L19.2483 23.3358L19.2479 23.3344L19.2475 23.3329L19.2471 23.3314L19.2467 23.33L19.2464 23.3285L19.246 23.3271L19.2456 23.3256L19.2452 23.3241L19.2448 23.3227L19.2444 23.3212L19.244 23.3197L19.2436 23.3183L19.2432 23.3168L19.2428 23.3153L19.2424 23.3139L19.242 23.3124L19.2416 23.3109L19.2412 23.3095L19.2409 23.308L19.2405 23.3065L19.2401 23.3051L19.2397 23.3036L19.2393 23.3021L19.2389 23.3007L19.2385 23.2992L19.2381 23.2977L19.2377 23.2963L19.2373 23.2948L19.2369 23.2934L19.2365 23.2919L19.2361 23.2904L19.2358 23.289L19.2354 23.2875L19.235 23.286L19.2346 23.2846L19.2342 23.2831L19.2338 23.2816L19.2334 23.2802L19.233 23.2787L19.2326 23.2772L19.2322 23.2758L19.2318 23.2743L19.2314 23.2729L19.231 23.2714L19.2307 23.2699L19.2303 23.2685L19.2299 23.267L19.2295 23.2655L19.2291 23.2641L19.2287 23.2626L19.2283 23.2612L19.2279 23.2597L19.2275 23.2582L19.2271 23.2568L19.2267 23.2553L19.2263 23.2538L19.226 23.2524L19.2256 23.2509L19.2252 23.2495L19.2248 23.248L19.2244 23.2465L19.224 23.2451L19.2236 23.2436L19.2232 23.2422L19.2228 23.2407L19.2224 23.2392L19.222 23.2378L19.2216 23.2363L19.2213 23.2349L19.2209 23.2334L19.2205 23.2319L19.2201 23.2305L19.2197 23.229L19.2193 23.2276L19.2189 23.2261L19.2185 23.2246L19.2181 23.2232L19.2177 23.2217L19.2173 23.2203L19.217 23.2188L19.2166 23.2173L19.2162 23.2159L19.2158 23.2144L19.2154 23.213L19.215 23.2115L19.2146 23.21L19.2142 23.2086L19.2138 23.2071L19.2134 23.2057L19.213 23.2042L19.2127 23.2027L19.2123 23.2013L19.2119 23.1998L19.2115 23.1984L19.2111 23.1969L19.2107 23.1955L19.2103 23.194L19.2099 23.1925L19.2095 23.1911L19.2091 23.1896L19.2087 23.1882L19.2084 23.1867L19.208 23.1853L19.2076 23.1838L19.2072 23.1823L19.2068 23.1809L19.2064 23.1794L19.206 23.178L19.2056 23.1765L19.2052 23.1751L19.2048 23.1736L19.2045 23.1722L19.2041 23.1707L19.2037 23.1693L19.2033 23.1678L19.2029 23.1663L19.2025 23.1649L19.2021 23.1634L19.2017 23.162L19.2013 23.1605L19.2009 23.1591L19.2006 23.1576L19.2002 23.1562L19.1998 23.1547L19.1994 23.1533L19.199 23.1518L19.1986 23.1503L19.1982 23.1489L19.1978 23.1474L19.1974 23.146L19.1971 23.1445L19.1967 23.1431L19.1963 23.1416L19.1959 23.1402L19.1955 23.1387L19.1951 23.1373L19.1947 23.1358L19.1943 23.1344L19.1939 23.1329L19.1936 23.1315L19.1932 23.13L19.1928 23.1286L19.1924 23.1271L19.192 23.1257L19.1916 23.1242L19.1912 23.1228L19.1908 23.1213L19.1904 23.1199L19.1901 23.1184L19.1897 23.117L19.1893 23.1155L19.1889 23.1141L19.1885 23.1126L19.1881 23.1112L19.1877 23.1097L19.1873 23.1083L19.1869 23.1068L19.1866 23.1054L19.1862 23.1039L19.1858 23.1025L19.1854 23.101L19.185 23.0996L19.1591 23.003L19.0625 23.0289L17.5279 23.4401C17.355 23.4864 17.1708 23.4621 17.0157 23.3726C16.8607 23.2831 16.7476 23.1357 16.7012 22.9628C16.6549 22.7899 16.6792 22.6056 16.7687 22.4506C16.8582 22.2956 17.0056 22.1824 17.1785 22.1361L18.9677 21.6567L19.0425 21.6366L19.0418 21.5591C19.0087 18.2666 20.8425 15.5386 23.6036 14.7982C24.5299 14.5716 25.4966 14.5676 26.4248 14.7866C27.3532 15.0056 28.2166 15.4415 28.9441 16.0586L28.9434 16.0593L28.9553 16.0668C29.0354 16.1175 29.104 16.1846 29.1565 16.2636C29.209 16.3426 29.2443 16.4318 29.26 16.5253C29.2757 16.6188 29.2715 16.7146 29.2477 16.8065C29.2239 16.8983 29.1811 16.9841 29.1219 17.0582C29.0627 17.1323 28.9886 17.1932 28.9044 17.2367C28.8201 17.2803 28.7276 17.3056 28.6329 17.3111C28.5382 17.3165 28.4434 17.3019 28.3548 17.2682C28.2661 17.2345 28.1855 17.1826 28.1182 17.1157L28.1185 17.1155L28.1125 17.1104C27.5481 16.6299 26.879 16.2881 26.1588 16.1125C25.4385 15.9369 24.6872 15.9323 23.9649 16.0991L23.9649 16.099L23.9615 16.0999C21.8949 16.6536 20.5476 18.6606 20.399 21.1369L20.3907 21.2754L20.5247 21.2395L24.6644 20.1303C24.8373 20.0839 25.0215 20.1082 25.1766 20.1977C25.3316 20.2872 25.4447 20.4346 25.4911 20.6076C25.5374 20.7805 25.5131 20.9647 25.4236 21.1198C25.3341 21.2748 25.1867 21.3879 25.0138 21.4342L20.5597 22.6277L20.4766 22.65L20.4862 22.7354C20.5158 23 20.5856 23.2606 20.6512 23.5053L20.6521 23.5088C20.6862 23.6359 20.7302 23.7617 20.7727 23.8834L20.7733 23.8852C20.8165 24.0087 20.8582 24.1281 20.8902 24.2474L20.916 24.3439L21.0126 24.3181L25.4667 23.1246C25.6396 23.0783 25.8239 23.1025 25.9789 23.192C26.1339 23.2815 26.2471 23.429 26.2934 23.6019C26.3397 23.7748 26.3155 23.959 26.226 24.1141C26.1364 24.2691 25.989 24.3822 25.8161 24.4286L21.6689 25.5398L21.5349 25.5757L21.6114 25.6915C22.9783 27.7618 25.1561 28.8241 27.2151 28.2724Z" fill="#D75304" stroke="black" stroke-width="0.2"/>
</svg>
