<svg width="48" height="48" viewBox="0 0 48 48" fill="none" xmlns="http://www.w3.org/2000/svg">
<circle cx="22.9348" cy="25.6569" r="21.8255" fill="#8247E5" stroke="#0D0D0D" stroke-width="0.418182"/>
<circle cx="25.0001" cy="23.0004" r="21.8255" fill="#D4BAFF" stroke="#0D0D0D" stroke-width="0.418182"/>
<mask id="mask0_323_900" style="mask-type:alpha" maskUnits="userSpaceOnUse" x="3" y="1" width="44" height="44">
<circle cx="24.9999" cy="23.001" r="21.6339" transform="rotate(22.3651 24.9999 23.001)" fill="white"/>
</mask>
<g mask="url(#mask0_323_900)">
<rect x="25.9518" y="-1.35059" width="16.764" height="44.9124" transform="rotate(22.3651 25.9518 -1.35059)" fill="white"/>
</g>
<circle cx="25.0003" cy="23.0004" r="14.9402" stroke="#0D0D0D" stroke-width="0.418182"/>
<path d="M21.8345 24.0818L21.834 24.0821C21.7004 24.1584 21.5491 24.1986 21.3952 24.1986C21.2413 24.1986 21.09 24.1584 20.9564 24.0821L20.9561 24.0819L18.8947 22.8948L18.8937 22.8942C18.7618 22.816 18.6526 22.7048 18.577 22.5714C18.5015 22.4381 18.4622 22.2874 18.4629 22.1342M21.8345 24.0818L18.5629 22.1345M21.8345 24.0818L28.2716 20.3618L28.2216 20.2752M21.8345 24.0818L28.2216 20.2752M18.4629 22.1342C18.4629 22.1341 18.4629 22.134 18.4629 22.134L18.5629 22.1345M18.4629 22.1342V22.1345H18.5629M18.4629 22.1342V19.7602V19.7601C18.463 19.606 18.5036 19.4547 18.5807 19.3212C18.6578 19.1878 18.7686 19.077 18.9021 19L18.9521 19.0866M18.5629 22.1345V19.7602C18.563 19.6237 18.599 19.4895 18.6673 19.3713C18.7356 19.253 18.8338 19.1548 18.9521 19.0866M18.9521 19.0866L18.9021 19M18.9521 19.0866L21.0075 17.8994C21.126 17.8317 21.2602 17.7961 21.3967 17.7961L18.9021 19M28.2216 20.2752L28.2717 20.3617C28.3747 20.3021 28.4917 20.2707 28.6108 20.2707C28.7299 20.2707 28.8468 20.3021 28.9499 20.3617L28.95 20.3618L32.5608 22.4456C32.6639 22.5051 32.7495 22.5907 32.809 22.6938C32.8685 22.7968 32.8999 22.9137 32.9 23.0327V27.2033C32.8999 27.3223 32.8685 27.4392 32.809 27.5422C32.7495 27.6453 32.6639 27.7309 32.5608 27.7904L28.95 29.8742L28.9499 29.8743C28.8468 29.9339 28.7299 29.9653 28.6108 29.9653C28.4917 29.9653 28.3747 29.9339 28.2717 29.8743L28.2715 29.8742L24.6611 27.7905C24.661 27.7905 24.661 27.7905 24.6609 27.7905C24.5582 27.7307 24.473 27.645 24.4137 27.542C24.3544 27.439 24.3231 27.3222 24.3231 27.2033V25.9503V25.9502C24.323 25.8995 24.3362 25.8498 24.3614 25.8059C24.3865 25.762 24.4227 25.7256 24.4663 25.7001C24.4664 25.7 24.4665 25.6999 24.4666 25.6999L25.5365 25.0834L25.5369 25.0831C25.5511 25.0748 25.5672 25.0705 25.5836 25.0704C25.6 25.0704 25.6162 25.0747 25.6304 25.0829C25.6446 25.0911 25.6564 25.1029 25.6646 25.1172C25.6728 25.1314 25.677 25.1475 25.6769 25.164V25.1644V26.3051L25.6769 26.3052C25.677 26.4593 25.7177 26.6107 25.7948 26.7441C25.8719 26.8775 25.9827 26.9883 26.1162 27.0654C26.1162 27.0654 26.1162 27.0654 26.1162 27.0654L28.1715 28.2525L28.1719 28.2527C28.3056 28.3291 28.4568 28.3693 28.6108 28.3693C28.7647 28.3693 28.916 28.3291 29.0496 28.2527L29.0501 28.2524L31.0994 27.0654L28.2216 20.2752ZM18.9021 19L20.9575 17.8128L20.9579 17.8126C21.0915 17.7362 21.2428 17.6961 21.3967 17.6961C21.5506 17.6961 21.7019 17.7362 21.8355 17.8126L21.8359 17.8128L23.8913 19C24.0248 19.077 24.1356 19.1878 24.2127 19.3212C24.2898 19.4547 24.3304 19.606 24.3305 19.7601V19.7602V20.8993C24.3306 20.9158 24.3349 20.9321 24.3432 20.9464C24.3514 20.9607 24.3632 20.9726 24.3775 20.981C24.3918 20.9893 24.408 20.9937 24.4245 20.9938C24.4409 20.9939 24.4571 20.9898 24.4714 20.9817C24.4715 20.9817 24.4716 20.9816 24.4717 20.9816L25.5411 20.3638C25.5412 20.3638 25.5412 20.3638 25.5412 20.3638C25.5849 20.3384 25.6212 20.3019 25.6463 20.2581C25.6715 20.2142 25.6846 20.1645 25.6844 20.1139L25.6844 20.1135V18.8621C25.6844 18.7432 25.6531 18.6264 25.5938 18.5233C25.5345 18.4203 25.4493 18.3347 25.3466 18.2749C25.3465 18.2748 25.3465 18.2748 25.3464 18.2748L21.7285 16.1912L21.7283 16.1911C21.6253 16.1314 21.5083 16.1 21.3892 16.1C21.2701 16.1 21.1532 16.1314 21.0501 16.1911L21.05 16.1911L17.4392 18.275C17.4392 18.275 17.4392 18.275 17.4392 18.275C17.3361 18.3345 17.2505 18.42 17.191 18.5231C17.1315 18.6261 17.1001 18.743 17.1 18.862C17.1 18.862 17.1 18.8621 17.1 18.8621L17 18.862V23.0327C17.0001 23.1692 17.0361 23.3034 17.1044 23.4216C17.1727 23.5398 17.271 23.638 17.3892 23.7063L18.9021 19ZM17.191 23.3716C17.1315 23.2685 17.1001 23.1517 17.1 23.0327L31.0995 27.0653C31.2329 26.9883 31.3437 26.8775 31.4208 26.7441C31.4979 26.6107 31.5385 26.4593 31.5386 26.3052V26.3051V23.9309V23.9308C31.5385 23.7767 31.4979 23.6253 31.4208 23.4919C31.3437 23.3585 31.2329 23.2477 31.0994 23.1706C31.0994 23.1706 31.0994 23.1706 31.0994 23.1706L29.044 21.9835L29.0436 21.9833C28.91 21.9069 28.7587 21.8667 28.6048 21.8667C28.4509 21.8667 28.2996 21.9069 28.166 21.9833L28.1655 21.9835L21.7284 25.7036L21.7283 25.7036C21.6253 25.7633 21.5083 25.7947 21.3892 25.7947C21.2701 25.7947 21.1532 25.7633 21.0501 25.7036L21.05 25.7035L17.4392 23.6197C17.4392 23.6197 17.4392 23.6197 17.4392 23.6197C17.3361 23.5602 17.2505 23.4746 17.191 23.3716Z" fill="#8247E5" stroke="black" stroke-width="0.2"/>
</svg>
