<svg width="48" height="48" viewBox="0 0 48 48" fill="none" xmlns="http://www.w3.org/2000/svg">
<circle cx="22.9348" cy="25.6569" r="21.8255" fill="#252525" stroke="#0D0D0D" stroke-width="0.418182"/>
<circle cx="25.0002" cy="23.0004" r="21.8255" fill="#D4B2FE" stroke="#0D0D0D" stroke-width="0.418182"/>
<mask id="mask0_323_910" style="mask-type:alpha" maskUnits="userSpaceOnUse" x="3" y="1" width="44" height="44">
<circle cx="24.9999" cy="23.001" r="21.6339" transform="rotate(22.3651 24.9999 23.001)" fill="white"/>
</mask>
<g mask="url(#mask0_323_910)">
<rect x="25.9518" y="-1.35059" width="16.764" height="44.9124" transform="rotate(22.3651 25.9518 -1.35059)" fill="white"/>
</g>
<circle cx="25.0004" cy="23.0004" r="14.9402" stroke="#0D0D0D" stroke-width="0.418182"/>
<mask id="path-6-inside-1_323_910" fill="white">
<path d="M29.1057 18.4446L16.5303 20.662L19.1525 16.9289L31.7279 14.7115L29.1057 18.4446ZM30.8473 28.3217L18.2719 30.5391L20.8944 26.8076L33.4698 24.5902M20.5826 25.0395L33.158 22.8221L29.4172 20.211L16.8418 22.4284"/>
</mask>
<path d="M29.1057 18.4446L16.5303 20.662L19.1525 16.9289L31.7279 14.7115L29.1057 18.4446ZM30.8473 28.3217L18.2719 30.5391L20.8944 26.8076L33.4698 24.5902M20.5826 25.0395L33.158 22.8221L29.4172 20.211L16.8418 22.4284" fill="url(#paint0_linear_323_910)"/>
<path d="M29.1057 18.4446L29.1231 18.5431L29.1638 18.5359L29.1876 18.5021L29.1057 18.4446ZM16.5303 20.662L16.4485 20.6045L16.3094 20.8025L16.5477 20.7604L16.5303 20.662ZM19.1525 16.9289L19.1351 16.8304L19.0944 16.8376L19.0707 16.8714L19.1525 16.9289ZM31.7279 14.7115L31.8097 14.769L31.9488 14.571L31.7105 14.613L31.7279 14.7115ZM18.2719 30.5391L18.1901 30.4816L18.0509 30.6796L18.2893 30.6375L18.2719 30.5391ZM20.8944 26.8076L20.877 26.7091L20.8363 26.7162L20.8125 26.7501L20.8944 26.8076ZM33.158 22.8221L33.1754 22.9206L33.4136 22.8786L33.2153 22.7401L33.158 22.8221ZM29.4172 20.211L29.4744 20.129L29.4405 20.1054L29.3998 20.1126L29.4172 20.211ZM29.0884 18.3461L16.5129 20.5635L16.5477 20.7604L29.1231 18.5431L29.0884 18.3461ZM16.6121 20.7194L19.2343 16.9864L19.0707 16.8714L16.4485 20.6045L16.6121 20.7194ZM19.1698 17.0274L31.7453 14.81L31.7105 14.613L19.1351 16.8304L19.1698 17.0274ZM31.6461 14.654L29.0239 18.3871L29.1876 18.5021L31.8097 14.769L31.6461 14.654ZM30.83 28.2232L18.2545 30.4406L18.2893 30.6375L30.8647 28.4202L30.83 28.2232ZM18.3537 30.5966L20.9762 26.865L20.8125 26.7501L18.1901 30.4816L18.3537 30.5966ZM20.9117 26.906L33.4871 24.6886L33.4524 24.4917L20.877 26.7091L20.9117 26.906ZM20.6 25.138L33.1754 22.9206L33.1407 22.7237L20.5652 24.941L20.6 25.138ZM33.2153 22.7401L29.4744 20.129L29.36 20.293L33.1008 22.9041L33.2153 22.7401ZM29.3998 20.1126L16.8244 22.3299L16.8591 22.5269L29.4346 20.3095L29.3998 20.1126Z" fill="black" mask="url(#path-6-inside-1_323_910)"/>
<defs>
<linearGradient id="paint0_linear_323_910" x1="32.6069" y1="19.8703" x2="22.8628" y2="27.3007" gradientUnits="userSpaceOnUse">
<stop stop-color="#19FB9B"/>
<stop offset="0.5" stop-color="#4EA0D1"/>
<stop offset="1" stop-color="#9845FF"/>
</linearGradient>
</defs>
</svg>
