<svg width="48" height="48" viewBox="0 0 48 48" fill="none" xmlns="http://www.w3.org/2000/svg">
<circle cx="22.9348" cy="25.6569" r="21.8255" fill="#FF007A" stroke="#0D0D0D" stroke-width="0.418182"/>
<circle cx="25.0002" cy="23.0004" r="21.8255" fill="#F5CCE0" stroke="#0D0D0D" stroke-width="0.418182"/>
<mask id="mask0_323_930" style="mask-type:alpha" maskUnits="userSpaceOnUse" x="3" y="1" width="44" height="44">
<circle cx="24.9999" cy="23.001" r="21.6339" transform="rotate(22.3651 24.9999 23.001)" fill="white"/>
</mask>
<g mask="url(#mask0_323_930)">
<rect x="25.9518" y="-1.35059" width="16.764" height="44.9124" transform="rotate(22.3651 25.9518 -1.35059)" fill="white"/>
</g>
<circle cx="25.0004" cy="23.0004" r="14.9402" stroke="#0D0D0D" stroke-width="0.418182"/>
<path d="M30.8544 31.0309C30.858 31.0227 30.8617 31.0141 30.8655 31.0052C30.9061 30.9093 30.9569 30.7731 30.998 30.6113C31.0799 30.2886 31.1241 29.8593 30.9648 29.4455L30.9648 29.4455C30.7448 28.8743 30.4016 28.3417 29.8057 27.4169C29.7458 27.3239 29.6834 27.227 29.6183 27.1258L29.6182 27.1256C29.2499 26.5572 29.1732 26.0727 29.1869 25.7325C29.1937 25.562 29.2233 25.4271 29.2509 25.3352C29.2624 25.297 29.2735 25.2663 29.2825 25.2436L29.31 25.2584C29.3582 25.2844 29.4279 25.3224 29.5139 25.3699C29.6857 25.4649 29.9224 25.5979 30.1813 25.7503C30.7004 26.0557 31.3054 26.4364 31.6605 26.7428C32.3568 27.3436 32.5234 28.5426 32.1323 29.6303C32.0076 29.9545 31.8194 30.2505 31.5787 30.5008C31.3696 30.7183 31.1244 30.8976 30.8544 31.0309Z" fill="#FF007A" stroke="black" stroke-width="0.1"/>
<mask id="path-7-inside-1_323_930" fill="white">
<path d="M32.592 27.3227C32.592 27.3227 32.762 26.1428 30.9039 25.417C29.4952 24.8643 28.32 24.3942 27.7483 23.7018C27.5683 23.4897 27.4369 23.2407 27.3634 22.9724C27.2898 22.7041 27.276 22.4229 27.3227 22.1487C27.3227 22.1487 27.7769 22.6966 29.5794 22.8855C31.2374 23.0602 32.2792 23.6526 32.7143 24.6055C32.9212 25.0329 33.0184 25.5052 32.9971 25.9796C32.9757 26.454 32.8365 26.9156 32.592 27.3227ZM28.4296 24.7833C28.4296 24.7833 28.8187 25.9871 28.1215 26.7002C27.5133 27.3211 26.6128 27.3227 25.8982 27.4609C25.4054 27.5564 24.9357 27.7462 24.5149 28.0199C25.1899 27.845 25.8824 27.7465 26.5795 27.7261C27.5546 27.7261 28.382 27.3275 28.6853 26.6398C29.1982 25.4885 28.4296 24.7833 28.4296 24.7833ZM24.9691 29.7414C25.5361 29.4984 26.1268 29.7748 26.5 30.275C26.8733 30.7753 27.0273 31.8282 27.8341 32.303C28.6408 32.7779 29.5032 32.0219 29.5032 32.0219C29.5032 32.0219 28.6964 32.3634 28.2104 32.1268C27.688 31.8727 27.6085 31.428 27.5164 30.6625C27.3576 29.4127 26.7017 28.9156 26.1253 28.706C25.31 28.4412 24.4236 28.5045 23.6542 28.8822C23.1063 29.1572 22.5934 29.4968 22.1264 29.8939C22.1264 29.8939 23.0793 30.0527 23.4604 30.2798C23.8416 30.5069 24.3275 31.2787 24.8103 31.4296C25.2534 31.5693 25.7123 31.4995 25.9601 31.1405C26.2078 30.7816 26.0998 30.1527 25.6965 30.0177C25.2026 29.851 24.85 30.086 24.8706 30.391C24.8666 30.4726 24.8942 30.5527 24.9478 30.6146C25.0013 30.6764 25.0767 30.7152 25.1581 30.7229C25.1581 30.7229 24.8405 30.5641 24.9739 30.2941C25.1327 29.9971 25.4979 30.04 25.6965 30.1797C25.9394 30.3512 25.976 30.942 25.5615 31.1104C25.147 31.2787 24.6229 31.004 24.5435 30.6752C24.4641 30.3465 24.4943 29.9463 24.9691 29.7414ZM23.7447 21.4769L17 14.0001C17 14.0001 22.7283 21.064 22.9332 21.3054C23.138 21.5468 23.2508 21.7596 23.0729 21.9231C22.9247 22.0455 22.7455 22.1247 22.5552 22.1518C22.4226 22.1816 22.2842 22.1716 22.1574 22.123C22.0305 22.0744 21.9208 21.9894 21.8421 21.8787C21.5531 21.5309 19.4425 18.1911 19.4425 18.1911C19.4425 18.1911 21.3323 21.6119 21.4292 21.8136C21.5261 22.0153 21.588 22.1931 21.4927 22.3202C21.3367 22.4839 21.2046 22.6689 21.1005 22.8697C20.9957 23.1269 20.9099 23.8797 20.8226 24.2053C20.5878 24.9039 20.2091 25.5456 19.7109 26.0888C19.2567 26.5652 18.9057 27.1846 19.0439 28.0596C19.1757 28.8965 19.7141 29.5604 19.8046 29.7033C19.8974 29.8311 19.9525 29.9824 19.9634 30.14C19.9634 30.14 21.3133 29.9812 22.0835 29.2745C22.7759 28.6393 22.4011 27.9278 22.1979 27.7483C22.0533 27.6197 21.1275 26.9987 21.0354 26.6716C20.9432 26.3444 20.794 26.1142 21.2355 25.2296C21.677 24.345 21.5642 24.2513 21.623 23.9464C21.6817 23.6415 21.669 23.0126 22.02 22.8855C22.371 22.7585 22.814 22.8173 23.2365 22.5679C23.8527 22.1931 23.7447 21.4769 23.7447 21.4769ZM19.9332 28.1279C19.9075 28.1282 19.882 28.1231 19.8583 28.1131C19.8347 28.1031 19.8133 28.0883 19.7956 28.0697C19.7778 28.0511 19.7641 28.029 19.7553 28.0049C19.7465 27.9807 19.7427 27.955 19.7442 27.9294C19.7442 27.823 19.8554 27.7467 19.8363 27.68C19.8173 27.6133 19.7204 27.6102 19.6998 27.5212C19.6886 27.4736 19.7299 27.3831 19.9046 27.3767C20.0047 27.3824 20.0988 27.4266 20.1671 27.5C20.2355 27.5734 20.2729 27.6703 20.2715 27.7706C20.2687 27.8615 20.2324 27.9482 20.1697 28.0141C20.1071 28.08 20.0223 28.1205 19.9316 28.1279L19.9332 28.1279ZM24.3085 22.8998C24.1933 22.907 24.0809 22.9379 23.9784 22.9907C23.8758 23.0435 23.7854 23.117 23.7127 23.2066C23.64 23.2961 23.5867 23.3998 23.5561 23.511C23.5255 23.6222 23.5183 23.7386 23.535 23.8527C23.5875 24.2561 24.1179 24.2259 24.4466 24.1243C24.7754 24.0226 25.1263 23.9655 25.0962 23.5541C25.066 23.1428 24.5737 22.8855 24.3085 22.8998ZM24.3196 23.5525C24.1131 23.5525 23.9464 23.4382 23.9464 23.2969C23.9464 23.1555 24.1052 23.0412 24.3196 23.0412C24.534 23.0412 24.6928 23.1555 24.6928 23.2969C24.6928 23.4382 24.526 23.5525 24.3196 23.5525ZM23.0427 18.5738C23.0427 18.5738 23.7844 18.6437 24.1433 19.2091C24.5022 19.7744 24.4609 20.532 24.6563 20.8671C24.7517 21.0504 24.8578 21.228 24.9739 21.3991C25.0295 21.4689 25.0723 21.5738 24.9389 21.5976C24.6118 21.6579 23.8749 21.3594 23.4715 20.5621C22.868 19.3758 23.0427 18.5738 23.0427 18.5738ZM30.6005 18.4341C30.6005 18.4341 30.3909 18.8629 30.5513 19.6172C30.5975 19.8267 30.7087 20.0162 30.8689 20.1588C31.1733 20.4583 31.4587 20.7765 31.7233 21.1116L30.9769 20.5065C30.8181 20.3795 30.7228 20.3843 30.7133 20.5193C30.7038 20.6542 30.6466 21.2434 30.626 21.3721C30.578 21.5391 30.5159 21.7017 30.4401 21.858C30.4401 21.858 30.518 21.4912 30.5259 21.3911C30.5434 21.1466 30.5402 20.4001 30.3544 20.1635C30.0368 19.7601 29.0839 19.398 29.0839 19.398C29.4544 19.4528 29.8153 19.5598 30.1559 19.7157C30.2988 19.7824 30.3306 19.7331 30.3306 19.6331C30.3412 19.3669 30.3688 19.1017 30.4132 18.839C30.4427 18.6911 30.5069 18.5523 30.6005 18.4341V18.4341Z"/>
</mask>
<path d="M32.592 27.3227C32.592 27.3227 32.762 26.1428 30.9039 25.417C29.4952 24.8643 28.32 24.3942 27.7483 23.7018C27.5683 23.4897 27.4369 23.2407 27.3634 22.9724C27.2898 22.7041 27.276 22.4229 27.3227 22.1487C27.3227 22.1487 27.7769 22.6966 29.5794 22.8855C31.2374 23.0602 32.2792 23.6526 32.7143 24.6055C32.9212 25.0329 33.0184 25.5052 32.9971 25.9796C32.9757 26.454 32.8365 26.9156 32.592 27.3227ZM28.4296 24.7833C28.4296 24.7833 28.8187 25.9871 28.1215 26.7002C27.5133 27.3211 26.6128 27.3227 25.8982 27.4609C25.4054 27.5564 24.9357 27.7462 24.5149 28.0199C25.1899 27.845 25.8824 27.7465 26.5795 27.7261C27.5546 27.7261 28.382 27.3275 28.6853 26.6398C29.1982 25.4885 28.4296 24.7833 28.4296 24.7833ZM24.9691 29.7414C25.5361 29.4984 26.1268 29.7748 26.5 30.275C26.8733 30.7753 27.0273 31.8282 27.8341 32.303C28.6408 32.7779 29.5032 32.0219 29.5032 32.0219C29.5032 32.0219 28.6964 32.3634 28.2104 32.1268C27.688 31.8727 27.6085 31.428 27.5164 30.6625C27.3576 29.4127 26.7017 28.9156 26.1253 28.706C25.31 28.4412 24.4236 28.5045 23.6542 28.8822C23.1063 29.1572 22.5934 29.4968 22.1264 29.8939C22.1264 29.8939 23.0793 30.0527 23.4604 30.2798C23.8416 30.5069 24.3275 31.2787 24.8103 31.4296C25.2534 31.5693 25.7123 31.4995 25.9601 31.1405C26.2078 30.7816 26.0998 30.1527 25.6965 30.0177C25.2026 29.851 24.85 30.086 24.8706 30.391C24.8666 30.4726 24.8942 30.5527 24.9478 30.6146C25.0013 30.6764 25.0767 30.7152 25.1581 30.7229C25.1581 30.7229 24.8405 30.5641 24.9739 30.2941C25.1327 29.9971 25.4979 30.04 25.6965 30.1797C25.9394 30.3512 25.976 30.942 25.5615 31.1104C25.147 31.2787 24.6229 31.004 24.5435 30.6752C24.4641 30.3465 24.4943 29.9463 24.9691 29.7414ZM23.7447 21.4769L17 14.0001C17 14.0001 22.7283 21.064 22.9332 21.3054C23.138 21.5468 23.2508 21.7596 23.0729 21.9231C22.9247 22.0455 22.7455 22.1247 22.5552 22.1518C22.4226 22.1816 22.2842 22.1716 22.1574 22.123C22.0305 22.0744 21.9208 21.9894 21.8421 21.8787C21.5531 21.5309 19.4425 18.1911 19.4425 18.1911C19.4425 18.1911 21.3323 21.6119 21.4292 21.8136C21.5261 22.0153 21.588 22.1931 21.4927 22.3202C21.3367 22.4839 21.2046 22.6689 21.1005 22.8697C20.9957 23.1269 20.9099 23.8797 20.8226 24.2053C20.5878 24.9039 20.2091 25.5456 19.7109 26.0888C19.2567 26.5652 18.9057 27.1846 19.0439 28.0596C19.1757 28.8965 19.7141 29.5604 19.8046 29.7033C19.8974 29.8311 19.9525 29.9824 19.9634 30.14C19.9634 30.14 21.3133 29.9812 22.0835 29.2745C22.7759 28.6393 22.4011 27.9278 22.1979 27.7483C22.0533 27.6197 21.1275 26.9987 21.0354 26.6716C20.9432 26.3444 20.794 26.1142 21.2355 25.2296C21.677 24.345 21.5642 24.2513 21.623 23.9464C21.6817 23.6415 21.669 23.0126 22.02 22.8855C22.371 22.7585 22.814 22.8173 23.2365 22.5679C23.8527 22.1931 23.7447 21.4769 23.7447 21.4769ZM19.9332 28.1279C19.9075 28.1282 19.882 28.1231 19.8583 28.1131C19.8347 28.1031 19.8133 28.0883 19.7956 28.0697C19.7778 28.0511 19.7641 28.029 19.7553 28.0049C19.7465 27.9807 19.7427 27.955 19.7442 27.9294C19.7442 27.823 19.8554 27.7467 19.8363 27.68C19.8173 27.6133 19.7204 27.6102 19.6998 27.5212C19.6886 27.4736 19.7299 27.3831 19.9046 27.3767C20.0047 27.3824 20.0988 27.4266 20.1671 27.5C20.2355 27.5734 20.2729 27.6703 20.2715 27.7706C20.2687 27.8615 20.2324 27.9482 20.1697 28.0141C20.1071 28.08 20.0223 28.1205 19.9316 28.1279L19.9332 28.1279ZM24.3085 22.8998C24.1933 22.907 24.0809 22.9379 23.9784 22.9907C23.8758 23.0435 23.7854 23.117 23.7127 23.2066C23.64 23.2961 23.5867 23.3998 23.5561 23.511C23.5255 23.6222 23.5183 23.7386 23.535 23.8527C23.5875 24.2561 24.1179 24.2259 24.4466 24.1243C24.7754 24.0226 25.1263 23.9655 25.0962 23.5541C25.066 23.1428 24.5737 22.8855 24.3085 22.8998ZM24.3196 23.5525C24.1131 23.5525 23.9464 23.4382 23.9464 23.2969C23.9464 23.1555 24.1052 23.0412 24.3196 23.0412C24.534 23.0412 24.6928 23.1555 24.6928 23.2969C24.6928 23.4382 24.526 23.5525 24.3196 23.5525ZM23.0427 18.5738C23.0427 18.5738 23.7844 18.6437 24.1433 19.2091C24.5022 19.7744 24.4609 20.532 24.6563 20.8671C24.7517 21.0504 24.8578 21.228 24.9739 21.3991C25.0295 21.4689 25.0723 21.5738 24.9389 21.5976C24.6118 21.6579 23.8749 21.3594 23.4715 20.5621C22.868 19.3758 23.0427 18.5738 23.0427 18.5738ZM30.6005 18.4341C30.6005 18.4341 30.3909 18.8629 30.5513 19.6172C30.5975 19.8267 30.7087 20.0162 30.8689 20.1588C31.1733 20.4583 31.4587 20.7765 31.7233 21.1116L30.9769 20.5065C30.8181 20.3795 30.7228 20.3843 30.7133 20.5193C30.7038 20.6542 30.6466 21.2434 30.626 21.3721C30.578 21.5391 30.5159 21.7017 30.4401 21.858C30.4401 21.858 30.518 21.4912 30.5259 21.3911C30.5434 21.1466 30.5402 20.4001 30.3544 20.1635C30.0368 19.7601 29.0839 19.398 29.0839 19.398C29.4544 19.4528 29.8153 19.5598 30.1559 19.7157C30.2988 19.7824 30.3306 19.7331 30.3306 19.6331C30.3412 19.3669 30.3688 19.1017 30.4132 18.839C30.4427 18.6911 30.5069 18.5523 30.6005 18.4341V18.4341Z" fill="#FF007A" stroke="black" stroke-width="0.2" mask="url(#path-7-inside-1_323_930)"/>
<path d="M30.9975 21.2719C31.4256 21.7673 31.7352 22.3529 31.9037 22.9842C31.898 22.9777 31.8922 22.971 31.8861 22.9642C31.7615 22.8244 31.558 22.6454 31.241 22.4836L31.2407 22.4835C31.0265 22.3762 30.7808 22.329 30.5127 22.3043C30.4716 22.3005 30.4298 22.2973 30.3873 22.2944C30.4504 22.2844 30.5096 22.2567 30.5579 22.2141C30.6447 22.1461 30.8684 21.9036 30.9975 21.2719ZM30.2437 22.2861C30.1507 22.2815 30.055 22.278 29.9572 22.2744C29.8526 22.2706 29.7456 22.2667 29.6367 22.2613C29.0091 22.2299 28.2984 22.1463 27.5403 21.7347L27.5403 21.7346C27.3602 21.637 27.1577 21.4567 26.9374 21.2237C26.7177 20.9914 26.4836 20.7104 26.2397 20.4146C26.2139 20.3833 26.1879 20.3518 26.1619 20.3202C25.6977 19.7565 25.2003 19.1525 24.7101 18.7526L24.7098 18.7524C24.4163 18.516 24.0117 18.3589 23.6843 18.2611C23.6355 18.2465 23.5883 18.2332 23.5432 18.2211C23.9451 18.2493 24.3392 18.3551 24.7033 18.5341C25.0571 18.7229 25.4168 19.0362 25.6896 19.3046C25.8257 19.4386 25.9394 19.5606 26.0191 19.6491C26.0589 19.6933 26.0902 19.7292 26.1115 19.7539L26.1358 19.7823L26.1419 19.7896L26.1435 19.7915L26.1438 19.7919L26.1439 19.792L26.1439 19.792L26.1657 19.8183L26.1981 19.8076L26.1981 19.8076L26.1981 19.8076L26.1982 19.8076L26.1988 19.8074L26.2014 19.8065L26.2126 19.8031C26.2227 19.8001 26.2379 19.7957 26.2579 19.7903C26.298 19.7796 26.3576 19.7649 26.4349 19.7495C26.5894 19.7188 26.8143 19.6851 27.0946 19.6739C27.6551 19.6515 28.4366 19.719 29.3191 20.0795L29.3193 20.0797C29.6044 20.1942 29.8767 20.3383 30.1317 20.5096C30.1941 20.8108 30.216 21.1191 30.1967 21.4261C30.1713 21.5594 30.1251 21.6877 30.0598 21.8066C30.0217 21.8738 30.0075 21.952 30.0196 22.0284C30.0318 22.1048 30.0697 22.1749 30.127 22.2269L30.1269 22.2271L30.1304 22.2297C30.1645 22.2557 30.203 22.2747 30.2437 22.2861Z" fill="#FF007A" stroke="black" stroke-width="0.1"/>
</svg>
