<svg width="48" height="48" viewBox="0 0 48 48" fill="none" xmlns="http://www.w3.org/2000/svg">
<circle cx="22.9348" cy="25.6569" r="21.8255" fill="#29B379" stroke="#0D0D0D" stroke-width="0.418182"/>
<circle cx="25.0002" cy="23.0004" r="21.8255" fill="#1FC87F" stroke="#0D0D0D" stroke-width="0.418182"/>
<mask id="mask0_323_1012" style="mask-type:alpha" maskUnits="userSpaceOnUse" x="3" y="1" width="44" height="44">
<circle cx="24.9999" cy="23.001" r="21.6339" transform="rotate(22.3651 24.9999 23.001)" fill="white"/>
</mask>
<g mask="url(#mask0_323_1012)">
<rect x="25.9518" y="-1.35059" width="16.764" height="44.9124" transform="rotate(22.3651 25.9518 -1.35059)" fill="white"/>
</g>
<circle cx="25.0004" cy="23.0004" r="14.9402" stroke="#0D0D0D" stroke-width="0.418182"/>
<path d="M27.6421 30.5673L27.7387 30.5414L27.4453 29.4465C27.7804 29.3171 28.0744 29.1784 28.3843 29.0145C28.99 28.6942 29.512 28.3043 29.9327 27.8499M27.6421 30.5673L27.3487 29.4723L27.3255 29.3855L27.4093 29.3532C27.74 29.2256 28.0304 29.0886 28.3376 28.9261L28.3376 28.9261C28.9346 28.6103 29.4472 28.227 29.8593 27.782M27.6421 30.5673L25.6275 31.1071L25.3266 29.9844L25.3042 29.9004L25.2179 29.911C24.8968 29.9502 24.5396 29.9854 24.2175 29.988L24.2183 30.088L24.2175 29.988C23.498 29.9938 22.8618 29.8831 22.2707 29.6574L22.2706 29.6574C21.6808 29.4327 21.1654 29.0891 20.7188 28.6089L20.7188 28.6088C20.3135 28.1733 20.0027 27.6245 19.7887 26.9628M27.6421 30.5673L27.668 30.6639L19.7887 26.9628M29.8593 27.782L29.9327 27.8499M29.8593 27.782C29.8593 27.782 29.8593 27.782 29.8593 27.782L29.9327 27.8499M29.8593 27.782C30.2697 27.3384 30.5645 26.831 30.7356 26.2611M29.9327 27.8499C30.3531 27.3956 30.6557 26.875 30.8313 26.2898C31.0067 25.7052 31.002 25.0578 30.8122 24.3494C30.7237 24.019 30.5833 23.7022 30.3874 23.4003M30.3874 23.4003L30.3036 23.4548C30.3035 23.4548 30.3035 23.4547 30.3035 23.4547M30.3874 23.4003L30.3035 23.4547M30.3874 23.4003L26.3555 21.9523M30.7356 26.2611L30.8283 26.2889L30.7356 26.2611C30.7356 26.2611 30.7356 26.2611 30.7356 26.2611ZM30.7356 26.2611C30.9047 25.6973 30.9015 25.0691 30.7156 24.3753C30.6299 24.0551 30.4938 23.748 30.3035 23.4547M30.3035 23.4547C30.1138 23.1631 29.8741 22.9056 29.5839 22.6819C29.294 22.4592 28.9598 22.281 28.5799 22.1479C28.2024 22.016 27.7802 21.9438 27.3121 21.9324C27.1812 21.9328 26.9829 21.9375 26.7277 21.9436C26.6145 21.9463 26.4902 21.9493 26.3555 21.9523M19.7887 26.9628L21.9658 26.3795C22.0906 26.7633 22.2712 27.1118 22.5149 27.3789C22.7954 27.6869 23.1179 27.8951 23.5073 28.0338C23.8805 28.1672 24.3096 28.222 24.724 28.221L24.854 28.2207L24.8204 28.0951L23.715 23.9697L23.6949 23.8947L23.6172 23.8956C23.4701 23.8974 23.3033 23.9016 23.1311 23.9059C22.9651 23.9101 22.794 23.9144 22.6306 23.9168L22.6297 23.9168C22.0176 23.9309 21.5115 23.8705 21.0756 23.747L21.0755 23.747C20.6366 23.6227 20.2725 23.4527 19.9803 23.2388C19.6861 23.0233 19.4529 22.775 19.28 22.4938C19.1046 22.2083 18.973 21.9057 18.887 21.5846C18.7201 20.9616 18.7138 20.3912 18.8674 19.8691C19.023 19.3407 19.284 18.8676 19.66 18.446C20.0377 18.0226 20.4903 17.6624 21.0363 17.3604C21.2666 17.2331 21.5314 17.1109 21.7621 17.0107L21.8411 16.9763L21.8188 16.8931L21.5381 15.8455L23.5528 15.3057L23.8355 16.3608L23.8581 16.4452L23.9448 16.4341C24.2597 16.3938 24.5113 16.3919 24.8023 16.3932C25.4642 16.3967 26.0904 16.5038 26.6437 16.7142C27.1958 16.9243 27.6751 17.2457 28.078 17.6625C28.4216 18.0185 28.6788 18.4468 28.862 19.0003L26.6611 19.59C26.3662 18.9143 25.9077 18.4663 25.3201 18.2829L19.7887 26.9628ZM26.3555 21.9523C26.2067 21.9557 26.066 21.9575 25.9243 21.9594C25.7611 21.9616 25.5966 21.9638 25.4173 21.9683L25.3385 21.9703L25.3182 21.8943L24.3409 18.2471L24.3072 18.1214L24.4373 18.1212C24.7862 18.1206 25.0495 18.1983 25.3201 18.2829L26.3555 21.9523ZM28.6433 25.9877L28.6433 25.9878C28.6007 26.2638 28.4834 26.5266 28.2945 26.7761L28.2164 26.717L28.2945 26.7761C28.1041 27.0276 27.8164 27.2644 27.4741 27.4782L28.6433 25.9877ZM28.6433 25.9877C28.6849 25.7164 28.6677 25.457 28.6009 25.2077L28.6433 25.9877ZM27.9108 24.1703L27.9108 24.1703C28.2384 24.356 28.4673 24.7091 28.6009 25.2077L27.9108 24.1703ZM27.9108 24.1703C27.6025 23.9958 27.2795 23.9002 26.9605 23.8789L27.9108 24.1703ZM23.0542 22.0048L23.19 22.0103L23.1548 21.879L22.3094 18.7238L22.277 18.6031L22.1663 18.6611C21.9353 18.7822 21.6849 18.9395 21.4925 19.1146C21.2725 19.3147 21.1256 19.5456 21.0198 19.8124C20.9093 20.0904 20.898 20.4006 20.9881 20.7369C21.1142 21.2076 21.364 21.5486 21.7611 21.7378C22.124 21.9112 22.6 21.9864 23.0542 22.0048Z" fill="#29B379" stroke="black" stroke-width="0.2"/>
</svg>
