<svg width="48" height="48" viewBox="0 0 48 48" fill="none" xmlns="http://www.w3.org/2000/svg">
<circle cx="22.9348" cy="25.6569" r="21.8255" fill="#2775CA" stroke="#0D0D0D" stroke-width="0.418182"/>
<circle cx="25.0002" cy="23.0004" r="21.8255" fill="#9ECDFF" stroke="#0D0D0D" stroke-width="0.418182"/>
<mask id="mask0_323_963" style="mask-type:alpha" maskUnits="userSpaceOnUse" x="3" y="1" width="44" height="44">
<circle cx="24.9999" cy="23.001" r="21.6339" transform="rotate(22.3651 24.9999 23.001)" fill="white"/>
</mask>
<g mask="url(#mask0_323_963)">
<rect x="25.9518" y="-1.35059" width="16.764" height="44.9124" transform="rotate(22.3651 25.9518 -1.35059)" fill="white"/>
</g>
<circle cx="25.0004" cy="23.0004" r="14.9402" stroke="#0D0D0D" stroke-width="0.418182"/>
<path d="M33.6194 20.7192C34.8916 25.4671 32.074 30.3473 27.3262 31.6195C22.5783 32.8916 17.6981 30.0741 16.426 25.3262C15.1538 20.5784 17.9714 15.6982 22.7192 14.426C27.4671 13.1538 32.3473 15.9714 33.6194 20.7192Z" fill="#2775CA" stroke="black" stroke-width="0.2"/>
<path d="M26.6377 26.1242L25.1748 26.5162C24.2575 26.762 23.3073 26.2134 23.0615 25.2961L23.0261 25.1642C22.9812 24.9963 23.0777 24.8291 23.2456 24.7841C23.4135 24.7391 23.5807 24.8357 23.6257 25.0035L23.661 25.1354C23.8185 25.723 24.4266 26.0741 25.0142 25.9167L26.477 25.5247C27.0646 25.3673 27.4157 24.7591 27.2583 24.1716C27.1314 23.6979 26.7011 23.3634 26.2101 23.3536L23.8292 23.3168C23.0595 23.2982 22.3852 22.772 22.1876 22.0346C21.9418 21.1173 22.4904 20.1671 23.4077 19.9213L24.8706 19.5293C25.7879 19.2835 26.7381 19.8321 26.9839 20.7494L27.0192 20.8813C27.0642 21.0492 26.9677 21.2164 26.7998 21.2614C26.6319 21.3064 26.4647 21.2098 26.4197 21.042L26.3843 20.9101C26.2269 20.3225 25.6188 19.9714 25.0312 20.1288L23.5683 20.5208C22.9808 20.6782 22.6297 21.2864 22.7871 21.8739C22.914 22.3476 23.3442 22.6821 23.8352 22.6919L26.2162 22.7286C26.9843 22.7413 27.6586 23.2675 27.8562 24.0049C28.1036 24.9282 27.555 25.8784 26.6377 26.1242Z" fill="white"/>
<path d="M26.2275 27.5193C26.0597 27.5642 25.8924 27.4677 25.8474 27.2998L25.5262 26.1007C25.4812 25.9329 25.5777 25.7656 25.7456 25.7206C25.9135 25.6757 26.0807 25.7722 26.1257 25.9401L26.447 27.1392C26.492 27.307 26.3954 27.4743 26.2275 27.5193Z" fill="white"/>
<path d="M24.2998 20.3248C24.1319 20.3698 23.9647 20.2732 23.9197 20.1054L23.5984 18.9063C23.5534 18.7384 23.65 18.5712 23.8178 18.5262C23.9857 18.4812 24.1529 18.5778 24.1979 18.7456L24.5192 19.9447C24.5642 20.1126 24.4676 20.2798 24.2998 20.3248Z" fill="white"/>
<path d="M24.5934 29.8142C24.5574 29.8239 24.5259 29.8259 24.4867 29.8236C21.6117 29.5979 19.1731 27.5717 18.4277 24.7899C17.6823 22.008 18.7811 19.034 21.1581 17.4011C21.2995 17.3054 21.4883 17.3383 21.59 17.4781C21.6857 17.6196 21.6544 17.8143 21.5129 17.91C19.3473 19.3964 18.3494 22.0992 19.0273 24.6292C19.7052 27.1593 21.9208 29.001 24.5395 29.2054C24.7098 29.2176 24.8404 29.3689 24.8222 29.5409C24.8123 29.672 24.7193 29.7805 24.5934 29.8142Z" fill="white"/>
<path d="M28.7902 28.6897C28.6643 28.7235 28.5295 28.6761 28.4554 28.5674C28.3597 28.426 28.391 28.2312 28.5325 28.1355C30.6981 26.6492 31.696 23.9464 31.0181 21.4163C30.3402 18.8863 28.1246 17.0445 25.5059 16.8402C25.3355 16.828 25.205 16.6766 25.2232 16.5046C25.2354 16.3343 25.3868 16.2038 25.5587 16.222C28.4337 16.4476 30.8722 18.4738 31.6176 21.2557C32.363 24.0375 31.2643 27.0115 28.8873 28.6444C28.8546 28.6661 28.8262 28.6801 28.7902 28.6897Z" fill="white"/>
</svg>
