<svg width="48" height="48" viewBox="0 0 48 48" fill="none" xmlns="http://www.w3.org/2000/svg">
<circle cx="22.9348" cy="25.6569" r="21.8255" fill="#29B379" stroke="#0D0D0D" stroke-width="0.418182"/>
<circle cx="25.0002" cy="23.0004" r="21.8255" fill="#1FC87F" stroke="#0D0D0D" stroke-width="0.418182"/>
<mask id="mask0_323_991" style="mask-type:alpha" maskUnits="userSpaceOnUse" x="3" y="1" width="44" height="44">
<circle cx="24.9999" cy="23.001" r="21.6339" transform="rotate(22.3651 24.9999 23.001)" fill="white"/>
</mask>
<g mask="url(#mask0_323_991)">
<rect x="25.9518" y="-1.35059" width="16.764" height="44.9124" transform="rotate(22.3651 25.9518 -1.35059)" fill="white"/>
</g>
<circle cx="25.0004" cy="23.0004" r="14.9402" stroke="#0D0D0D" stroke-width="0.418182"/>
<path d="M31.3591 20.5087C31.3302 20.4012 31.2543 20.3181 31.1544 20.2553C31.0548 20.1927 30.925 20.1458 30.7727 20.1113C30.4678 20.0422 30.0513 20.0177 29.5511 20.033C28.5491 20.0637 27.1888 20.255 25.6636 20.5906L25.5614 20.6131L25.5885 20.7142L26.1172 22.6874C25.6374 22.8382 25.1326 22.9859 24.6144 23.1247C24.0961 23.2636 23.5876 23.3874 23.0943 23.4973L22.5656 21.5241L22.5385 21.4231L22.4388 21.4547C20.9501 21.9266 19.6764 22.4411 18.7933 22.9156C18.3524 23.1524 18.0039 23.3818 17.7745 23.5941C17.6599 23.7002 17.5709 23.8057 17.516 23.9097C17.4607 24.0142 17.4366 24.1243 17.4655 24.2319C17.4992 24.3577 17.5975 24.4494 17.7243 24.5152C17.8514 24.5812 18.0195 24.6279 18.2187 24.6592C18.6179 24.722 19.1658 24.7261 19.8204 24.6768C21.1312 24.5782 22.8901 24.2639 24.7866 23.7557C26.6831 23.2475 28.3639 22.6421 29.548 22.0733C30.1393 21.7892 30.6114 21.512 30.9249 21.2579C31.0813 21.1311 31.2031 21.0062 31.2795 20.8849C31.3558 20.7639 31.3939 20.6349 31.3591 20.5087ZM31.3591 20.5087C31.3591 20.5086 31.359 20.5084 31.359 20.5083L31.2626 20.535L31.3592 20.5091C31.3592 20.509 31.3591 20.5088 31.3591 20.5087ZM22.469 21.55L22.4949 21.6467C22.4963 21.6463 22.4978 21.6458 22.4992 21.6454L22.469 21.55ZM22.469 21.55L22.3724 21.5759L22.3736 21.5804C22.4053 21.5703 22.4371 21.5601 22.469 21.55ZM25.5021 20.3801L25.5268 20.4721L25.6199 20.4519C27.3873 20.0682 28.9675 19.8768 30.1309 19.8853C30.7134 19.8896 31.1855 19.944 31.5227 20.0461C31.8662 20.1503 32.0376 20.2935 32.0798 20.4508C32.1219 20.608 32.045 20.8179 31.7993 21.0801C31.5582 21.3373 31.1763 21.6207 30.6738 21.9157C29.6702 22.5051 28.206 23.1294 26.4848 23.6797L26.394 23.7087L26.4187 23.8008L28.0102 29.7403L24.9873 30.5503L23.3958 24.6108L23.3712 24.5189L23.2781 24.539C21.5101 24.9205 19.9297 25.1115 18.7664 25.1034C18.1839 25.0993 17.7119 25.0453 17.3748 24.9435C17.0313 24.8398 16.8601 24.6969 16.8181 24.5401C16.7761 24.3833 16.853 24.1737 17.0988 23.9117C17.34 23.6546 17.7219 23.3713 18.2244 23.0762C19.228 22.4869 20.6921 21.8622 22.4131 21.3112L22.5039 21.2821L22.4792 21.1901L21.9892 19.3613L21.9633 19.2647L21.8667 19.2906L17.7911 20.3826L17.0697 17.6901L28.4252 14.6474L29.1467 17.3399L25.0828 18.4288L24.9862 18.4547L25.0121 18.5513L25.5021 20.3801ZM25.7829 20.6669L25.7817 20.6624L25.6851 20.6883C25.7178 20.6811 25.7504 20.674 25.7829 20.6669ZM25.6851 20.6883L25.7066 20.7859C25.7081 20.7856 25.7095 20.7853 25.711 20.785L25.6851 20.6883ZM26.2386 22.7539L26.2386 22.7539L26.2386 22.7539Z" fill="#29B379" stroke="black" stroke-width="0.2"/>
</svg>
