<svg width="48" height="48" viewBox="0 0 48 48" fill="none" xmlns="http://www.w3.org/2000/svg">
<circle cx="22.9348" cy="25.6569" r="21.8255" fill="#23292F" stroke="#0D0D0D" stroke-width="0.418182"/>
<circle cx="25.0002" cy="23.0004" r="21.8255" fill="#9A9A9A" stroke="#0D0D0D" stroke-width="0.418182"/>
<mask id="mask0_323_840" style="mask-type:alpha" maskUnits="userSpaceOnUse" x="3" y="1" width="44" height="44">
<circle cx="24.9999" cy="23.001" r="21.6339" transform="rotate(22.3651 24.9999 23.001)" fill="white"/>
</mask>
<g mask="url(#mask0_323_840)">
<rect x="25.9518" y="-1.35059" width="16.764" height="44.9124" transform="rotate(22.3651 25.9518 -1.35059)" fill="white"/>
</g>
<circle cx="25.0004" cy="23.0004" r="14.9402" stroke="#0D0D0D" stroke-width="0.418182"/>
<path d="M25.8496 19.7658L25.8496 19.7657L28.6463 14.9216L30.7614 14.3239L27.3938 20.1569C26.8319 21.1283 25.9076 21.8371 24.8236 22.1275C23.7396 22.418 22.5847 22.2663 21.6125 21.706L15.7795 18.3383L17.9101 17.7984L22.7541 20.5951L22.7542 20.5952C23.2748 20.895 23.8931 20.976 24.4734 20.8205C25.0537 20.665 25.5486 20.2857 25.8496 19.7658ZM24.1505 25.8062L24.1505 25.8063L21.3537 30.6504L19.2387 31.2481L22.6063 25.4152C23.1681 24.4437 24.0925 23.735 25.1765 23.4445C26.2604 23.1541 27.4154 23.3057 28.3876 23.8661L34.2206 27.2337L32.09 27.7736L27.246 24.9769L27.2459 24.9769C26.7253 24.677 26.107 24.596 25.5267 24.7515C24.9464 24.907 24.4515 25.2863 24.1505 25.8062Z" fill="#23292F" stroke="black" stroke-width="0.2"/>
</svg>
