<svg width="12" height="12" viewBox="0 0 12 12" fill="none" xmlns="http://www.w3.org/2000/svg">
<g clip-path="url(#clip0_209_99)">
<path d="M5.29163 10.2648C4.81809 10.7257 4.18214 10.9816 3.52136 10.9772C2.86058 10.9728 2.22811 10.7084 1.76079 10.2412C1.29347 9.77399 1.02888 9.1416 1.02426 8.48082C1.01965 7.82004 1.27538 7.18401 1.73613 6.71034L3.86713 4.57785L3.15963 3.87085L1.02913 6.00335C0.370268 6.66254 0.000253965 7.55647 0.000488393 8.48847C0.00072282 9.42048 0.371187 10.3142 1.03038 10.9731C1.68958 11.6319 2.58351 12.002 3.51552 12.0017C4.44753 12.0015 5.34127 11.631 6.00013 10.9718L8.13113 8.84084L7.42413 8.13384L5.29163 10.2648Z" fill="#8A8A8A"/>
<path d="M10.9721 1.03073C10.6468 0.703133 10.2596 0.443365 9.83315 0.266474C9.40667 0.0895827 8.94933 -0.000914605 8.48762 0.000225943C8.02615 -0.000999921 7.56902 0.089265 7.14265 0.265802C6.71629 0.442338 6.32915 0.701644 6.00362 1.02873L3.87012 3.16023L4.57712 3.86773L6.70962 1.73673C6.94239 1.50255 7.21931 1.31688 7.52433 1.19046C7.82936 1.06403 8.15643 0.999376 8.48662 1.00023C8.98375 1.00039 9.46967 1.14794 9.88296 1.42423C10.2962 1.70051 10.6183 2.09312 10.8085 2.55244C10.9987 3.01175 11.0485 3.51714 10.9515 4.00471C10.8545 4.49229 10.6151 4.94017 10.2636 5.29173L8.13262 7.42273L8.84012 8.13023L10.9711 6.00023C11.6291 5.34077 11.9988 4.44728 11.999 3.51568C11.9992 2.58409 11.6299 1.69044 10.9721 1.03073Z" fill="#8A8A8A"/>
<path d="M7.42276 3.87098L3.87061 7.42313L4.57771 8.13023L8.12987 4.57808L7.42276 3.87098Z" fill="#8A8A8A"/>
</g>
<defs>
<clipPath id="clip0_209_99">
<rect width="12" height="12" fill="white"/>
</clipPath>
</defs>
</svg>
