<svg width="13" height="18" viewBox="0 0 13 18" fill="none" xmlns="http://www.w3.org/2000/svg">
<mask id="path-1-inside-1_22_146" fill="white">
<path fill-rule="evenodd" clip-rule="evenodd" d="M12.7687 13.1454V8.14537L6.38407 12.4491L6.67572e-06 8.14577V13.1458L6.38038 17.4466V17.4516L6.38407 17.4491L6.38837 17.452V17.4462L12.7687 13.1454Z"/>
</mask>
<path fill-rule="evenodd" clip-rule="evenodd" d="M12.7687 13.1454V8.14537L6.38407 12.4491L6.67572e-06 8.14577V13.1458L6.38038 17.4466V17.4516L6.38407 17.4491L6.38837 17.452V17.4462L12.7687 13.1454Z" fill="#F47564"/>
<path d="M12.7687 8.14537H13.1687V7.39335L12.5452 7.81368L12.7687 8.14537ZM12.7687 13.1454L12.9923 13.477L13.1687 13.3581V13.1454H12.7687ZM6.38407 12.4491L6.16049 12.7808L6.38407 12.9315L6.60765 12.7808L6.38407 12.4491ZM6.67572e-06 8.14577L0.223585 7.81409L-0.399993 7.39375V8.14577H6.67572e-06ZM6.67572e-06 13.1458H-0.399993V13.3585L-0.223572 13.4775L6.67572e-06 13.1458ZM6.38038 17.4466H6.78038V17.2339L6.60396 17.1149L6.38038 17.4466ZM6.38038 17.4516H5.98038V18.2036L6.60394 17.7833L6.38038 17.4516ZM6.38407 17.4491L6.60763 17.1174L6.38407 16.9667L6.16051 17.1174L6.38407 17.4491ZM6.38837 17.452L6.16481 17.7837L6.78837 18.204V17.452H6.38837ZM6.38837 17.4462L6.16479 17.1145L5.98837 17.2335V17.4462H6.38837ZM12.3687 8.14537V13.1454H13.1687V8.14537H12.3687ZM6.60765 12.7808L12.9923 8.47705L12.5452 7.81368L6.16049 12.1174L6.60765 12.7808ZM6.60765 12.1174L0.223585 7.81409L-0.223572 8.47746L6.16049 12.7808L6.60765 12.1174ZM-0.399993 8.14577V13.1458H0.400006V8.14577H-0.399993ZM-0.223572 13.4775L6.1568 17.7783L6.60396 17.1149L0.223585 12.8141L-0.223572 13.4775ZM6.78038 17.4516V17.4466H5.98038V17.4516H6.78038ZM6.16051 17.1174L6.15682 17.1199L6.60394 17.7833L6.60763 17.7808L6.16051 17.1174ZM6.16051 17.7808L6.16481 17.7837L6.61193 17.1203L6.60763 17.1174L6.16051 17.7808ZM6.78837 17.452V17.4462H5.98837V17.452H6.78837ZM12.5452 12.8137L6.16479 17.1145L6.61195 17.7779L12.9923 13.477L12.5452 12.8137Z" fill="#0D0D0D" mask="url(#path-1-inside-1_22_146)"/>
<mask id="path-3-inside-2_22_146" fill="white">
<path fill-rule="evenodd" clip-rule="evenodd" d="M12.7687 5.42857V0.42857L6.38407 4.73231L6.67572e-06 0.428978V5.42898L6.38038 9.72983V9.7348L6.38407 9.73231L6.38837 9.73521V9.72942L12.7687 5.42857Z"/>
</mask>
<path fill-rule="evenodd" clip-rule="evenodd" d="M12.7687 5.42857V0.42857L6.38407 4.73231L6.67572e-06 0.428978V5.42898L6.38038 9.72983V9.7348L6.38407 9.73231L6.38837 9.73521V9.72942L12.7687 5.42857Z" fill="#F47564"/>
<path d="M12.7687 0.42857H13.1687V-0.32345L12.5452 0.0968881L12.7687 0.42857ZM12.7687 5.42857L12.9923 5.76025L13.1687 5.64133V5.42857H12.7687ZM6.38407 4.73231L6.16049 5.064L6.38407 5.2147L6.60765 5.064L6.38407 4.73231ZM6.67572e-06 0.428978L0.223585 0.0972962L-0.399993 -0.323042V0.428978H6.67572e-06ZM6.67572e-06 5.42898H-0.399993V5.64174L-0.223572 5.76066L6.67572e-06 5.42898ZM6.38038 9.72983H6.78038V9.51707L6.60396 9.39814L6.38038 9.72983ZM6.38038 9.7348H5.98038V10.4868L6.60394 10.0665L6.38038 9.7348ZM6.38407 9.73231L6.60763 9.40062L6.38407 9.24994L6.16051 9.40062L6.38407 9.73231ZM6.38837 9.73521L6.16481 10.0669L6.78837 10.4872V9.73521H6.38837ZM6.38837 9.72942L6.16479 9.39774L5.98837 9.51666V9.72942H6.38837ZM12.3687 0.42857V5.42857H13.1687V0.42857H12.3687ZM6.60765 5.064L12.9923 0.760252L12.5452 0.0968881L6.16049 4.40063L6.60765 5.064ZM6.60765 4.40063L0.223585 0.0972962L-0.223572 0.76066L6.16049 5.064L6.60765 4.40063ZM-0.399993 0.428978V5.42898H0.400006V0.428978H-0.399993ZM-0.223572 5.76066L6.1568 10.0615L6.60396 9.39814L0.223585 5.0973L-0.223572 5.76066ZM6.78038 9.7348V9.72983H5.98038V9.7348H6.78038ZM6.16051 9.40062L6.15682 9.40311L6.60394 10.0665L6.60763 10.064L6.16051 9.40062ZM6.16051 10.064L6.16481 10.0669L6.61193 9.40352L6.60763 9.40062L6.16051 10.064ZM6.78837 9.73521V9.72942H5.98837V9.73521H6.78837ZM12.5452 5.09689L6.16479 9.39774L6.61195 10.0611L12.9923 5.76025L12.5452 5.09689Z" fill="#0D0D0D" mask="url(#path-3-inside-2_22_146)"/>
</svg>
