<svg width="18" height="13" viewBox="0 0 18 13" fill="none" xmlns="http://www.w3.org/2000/svg">
<mask id="path-1-inside-1_22_136" fill="white">
<path fill-rule="evenodd" clip-rule="evenodd" d="M13.5894 -3.8147e-06H8.58942L12.8932 6.38466L8.58982 12.7687H13.5898L17.8907 6.38836H17.8956L17.8932 6.38466L17.8961 6.38037H17.8903L13.5894 -3.8147e-06Z"/>
</mask>
<path fill-rule="evenodd" clip-rule="evenodd" d="M13.5894 -3.8147e-06H8.58942L12.8932 6.38466L8.58982 12.7687H13.5898L17.8907 6.38836H17.8956L17.8932 6.38466L17.8961 6.38037H17.8903L13.5894 -3.8147e-06Z" fill="#89A5E3"/>
<path d="M8.58942 -3.8147e-06V-0.400004H7.8374L8.25773 0.223574L8.58942 -3.8147e-06ZM13.5894 -3.8147e-06L13.9211 -0.223582L13.8022 -0.400004H13.5894V-3.8147e-06ZM12.8932 6.38466L13.2248 6.60824L13.3756 6.38466L13.2248 6.16109L12.8932 6.38466ZM8.58982 12.7687L8.25814 12.5451L7.8378 13.1687H8.58982V12.7687ZM13.5898 12.7687V13.1687H13.8026L13.9215 12.9923L13.5898 12.7687ZM17.8907 6.38836V5.98836H17.6779L17.559 6.16478L17.8907 6.38836ZM17.8956 6.38836V6.78836H18.6476L18.2273 6.1648L17.8956 6.38836ZM17.8932 6.38466L17.5615 6.16111L17.4108 6.38466L17.5615 6.60822L17.8932 6.38466ZM17.8961 6.38037L18.2278 6.60393L18.648 5.98037H17.8961V6.38037ZM17.8903 6.38037L17.5586 6.60395L17.6775 6.78037H17.8903V6.38037ZM8.58942 0.399996H13.5894V-0.400004H8.58942V0.399996ZM13.2248 6.16109L8.9211 -0.223582L8.25773 0.223574L12.5615 6.60824L13.2248 6.16109ZM12.5615 6.16109L8.25814 12.5451L8.92151 12.9923L13.2248 6.60824L12.5615 6.16109ZM8.58982 13.1687H13.5898V12.3687H8.58982V13.1687ZM13.9215 12.9923L18.2224 6.61193L17.559 6.16478L13.2581 12.5451L13.9215 12.9923ZM17.8956 5.98836H17.8907V6.78836H17.8956V5.98836ZM17.5615 6.60822L17.564 6.61191L18.2273 6.1648L18.2249 6.16111L17.5615 6.60822ZM18.2249 6.60822L18.2278 6.60393L17.5644 6.15681L17.5615 6.16111L18.2249 6.60822ZM17.8961 5.98037H17.8903V6.78037H17.8961V5.98037ZM13.2577 0.223574L17.5586 6.60395L18.2219 6.15679L13.9211 -0.223582L13.2577 0.223574Z" fill="#0D0D0D" mask="url(#path-1-inside-1_22_136)"/>
<mask id="path-3-inside-2_22_136" fill="white">
<path fill-rule="evenodd" clip-rule="evenodd" d="M5.87262 -3.8147e-06H0.87262L5.17636 6.38466L0.873028 12.7687H5.87303L10.1739 6.38836H10.1789L10.1764 6.38466L10.1793 6.38037H10.1735L5.87262 -3.8147e-06Z"/>
</mask>
<path fill-rule="evenodd" clip-rule="evenodd" d="M5.87262 -3.8147e-06H0.87262L5.17636 6.38466L0.873028 12.7687H5.87303L10.1739 6.38836H10.1789L10.1764 6.38466L10.1793 6.38037H10.1735L5.87262 -3.8147e-06Z" fill="#89A5E3"/>
<path d="M0.87262 -3.8147e-06V-0.400004H0.1206L0.540938 0.223574L0.87262 -3.8147e-06ZM5.87262 -3.8147e-06L6.2043 -0.223582L6.08538 -0.400004H5.87262V-3.8147e-06ZM5.17636 6.38466L5.50805 6.60824L5.65875 6.38466L5.50805 6.16109L5.17636 6.38466ZM0.873028 12.7687L0.541346 12.5451L0.121008 13.1687H0.873028V12.7687ZM5.87303 12.7687V13.1687H6.08579L6.20471 12.9923L5.87303 12.7687ZM10.1739 6.38836V5.98836H9.96111L9.84219 6.16478L10.1739 6.38836ZM10.1789 6.38836V6.78836H10.9308L10.5105 6.1648L10.1789 6.38836ZM10.1764 6.38466L9.84467 6.16111L9.69399 6.38466L9.84467 6.60822L10.1764 6.38466ZM10.1793 6.38037L10.511 6.60393L10.9312 5.98037H10.1793V6.38037ZM10.1735 6.38037L9.84179 6.60395L9.96071 6.78037H10.1735V6.38037ZM0.87262 0.399996H5.87262V-0.400004H0.87262V0.399996ZM5.50805 6.16109L1.2043 -0.223582L0.540938 0.223574L4.84468 6.60824L5.50805 6.16109ZM4.84468 6.16109L0.541346 12.5451L1.20471 12.9923L5.50805 6.60824L4.84468 6.16109ZM0.873028 13.1687H5.87303V12.3687H0.873028V13.1687ZM6.20471 12.9923L10.5056 6.61193L9.84219 6.16478L5.54135 12.5451L6.20471 12.9923ZM10.1789 5.98836H10.1739V6.78836H10.1789V5.98836ZM9.84467 6.60822L9.84716 6.61191L10.5105 6.1648L10.5081 6.16111L9.84467 6.60822ZM10.5081 6.60822L10.511 6.60393L9.84757 6.15681L9.84467 6.16111L10.5081 6.60822ZM10.1793 5.98037H10.1735V6.78037H10.1793V5.98037ZM5.54094 0.223574L9.84179 6.60395L10.5051 6.15679L6.2043 -0.223582L5.54094 0.223574Z" fill="#0D0D0D" mask="url(#path-3-inside-2_22_136)"/>
</svg>
