<svg width="902" height="897" viewBox="0 0 902 897" fill="none" xmlns="http://www.w3.org/2000/svg">
<path opacity="0.1" d="M568.417 97.8028L566.503 92.5387M568.417 97.8028L610.199 105.194M568.417 97.8028L525.496 93.7896M568.417 97.8028L568.654 102.982M566.503 92.5387L606.398 94.7133M566.503 92.5387L563.006 87.3872M566.503 92.5387L525.496 93.7896M610.199 105.194L606.398 94.7133M610.199 105.194L650.453 115.883M610.199 105.194L610.68 115.498M606.398 94.7133L644.805 100.288M606.398 94.7133L599.449 84.4574M650.453 115.883L644.805 100.288M650.453 115.883L651.176 131.213M650.453 115.883L688.789 129.765M644.805 100.288L634.46 85.0295M644.805 100.288L681.343 109.215M688.789 129.765L681.343 109.215M688.789 129.765L724.83 146.731M688.789 129.765L689.743 149.989M681.343 109.215L715.659 121.405M681.343 109.215L667.686 89.1022M724.83 146.731L715.659 121.405M724.83 146.731L758.237 166.587M724.83 146.731L726.005 171.622M715.659 121.405L747.429 136.745M715.659 121.405L698.835 96.6297M758.237 166.587L747.429 136.745M758.237 166.587L788.673 189.156M758.237 166.587L759.624 195.935M747.429 136.745L776.339 155.075M747.429 136.745L727.594 107.544M788.673 189.156L776.339 155.075M788.673 189.156L815.882 214.226M788.673 189.156L790.263 222.663M776.339 155.075L802.108 176.24M776.339 155.075L753.709 121.737M815.882 214.226L802.108 176.24M815.882 214.226L839.548 241.543M815.882 214.226L817.63 251.583M802.108 176.24L824.516 200.022M802.108 176.24L776.89 139.076M839.548 241.543L824.516 200.022M839.548 241.543L859.492 270.844M839.548 241.543L841.482 282.374M824.516 200.022L843.32 226.187M824.516 200.022L796.942 159.39L776.89 139.076M859.492 270.844L843.32 226.187M859.492 270.844L875.501 301.857M859.492 270.844L861.57 314.77M843.32 226.187L858.33 254.493L869.434 284.663L887.408 334.297M887.408 334.297L895.125 367.812M887.408 334.297L875.501 301.857M887.408 334.297L889.711 383.083M776.89 139.076L753.709 121.737M776.89 139.076L741.156 104.154L722.054 90.8068M753.709 121.737L727.594 107.544M753.709 121.737L722.054 90.8068M727.594 107.544L698.835 96.6297M727.594 107.544L699.526 80.1069M698.835 96.6297L667.686 89.1022M698.835 96.6297L675.013 73.3513M634.46 85.0295L599.449 84.4574M634.46 85.0295L619.787 70.6941M634.46 85.0295L667.686 89.1022M667.686 89.1022L648.349 70.2034M599.449 84.4574L563.006 87.3872M599.449 84.4574L589.592 74.8218M563.006 87.3872L525.496 93.7896M563.006 87.3872L558.055 82.5457M525.496 93.7896L558.055 82.5457M525.496 93.7896L551.847 78.2015M525.496 93.7896L536.608 71.6533M525.496 93.7896L544.595 74.5261M525.496 93.7896L528.175 69.6967M525.496 93.7896L519.628 68.7325M525.496 93.7896L511.293 68.796M525.496 93.7896L503.486 69.8853M525.496 93.7896L490.637 74.9399M525.496 93.7896L496.519 71.9597M525.496 93.7896L486.101 78.7055M525.496 93.7896L483.057 83.1203M525.496 93.7896L481.628 88.0087M525.496 93.7896L483.78 98.4517M525.496 93.7896L481.866 93.1876M525.496 93.7896L487.277 103.603M525.496 93.7896L492.228 108.445M525.496 93.7896L498.435 112.789M525.496 93.7896L505.688 116.466M525.496 93.7896L513.675 119.339M525.496 93.7896L522.109 121.295M525.496 93.7896L530.655 122.26M525.496 93.7896L538.991 122.196M525.496 93.7896L546.796 121.105M525.496 93.7896L553.765 119.032M525.496 93.7896L559.646 116.052M525.496 93.7896L564.182 112.285M525.496 93.7896L567.226 107.872M525.496 93.7896L568.654 102.982M558.055 82.5457L589.592 74.8218M558.055 82.5457L551.847 78.2015M589.592 74.8218L619.787 70.6941M589.592 74.8218L577.205 66.1822M619.787 70.6941L648.349 70.2034M619.787 70.6941L601.376 57.833M648.349 70.2034L675.013 73.3513M648.349 70.2034L624.082 53.2469M675.013 73.3513L699.526 80.1069M675.013 73.3513L645.118 52.4641M699.526 80.1069L721.157 90.1798M699.526 80.1069L664.291 55.4909M722.054 90.8068L721.645 90.4073L721.157 90.1798M722.054 90.8068L721.157 90.1798M721.157 90.1798L696.313 72.8212L681.402 62.3012L664.291 55.4909M664.291 55.4909L645.118 52.4641M664.291 55.4909L623.232 34.6429M645.118 52.4641L624.082 53.2469M645.118 52.4641L610.287 34.7737M624.082 53.2469L601.376 57.833M624.082 53.2469L595.796 38.8868M601.376 57.833L577.205 66.1822M601.376 57.833L579.912 46.9406M577.205 66.1822L551.847 78.2015M577.205 66.1822L562.794 58.8579M551.847 78.2015L544.595 74.5261M544.595 74.5261L536.608 71.6533M544.595 74.5261L562.794 58.8579M562.794 58.8579L579.912 46.9406M562.794 58.8579L546.896 53.1408M579.912 46.9406L595.796 38.8868M579.912 46.9406L556.256 38.4324M595.796 38.8868L610.287 34.7737M595.796 38.8868L564.594 27.6727M610.287 34.7737L623.232 34.6429M610.287 34.7737L571.841 20.9606M623.232 34.6429L577.942 18.3606M577.942 18.3606L571.841 20.9606M577.942 18.3606L530.14 7.27643M577.942 18.3606L582.813 19.9004M571.841 20.9606L564.594 27.6727M571.841 20.9606L531.303 11.5516M564.594 27.6727L556.256 38.4324M564.594 27.6727L531.675 20.0351M556.256 38.4324L546.896 53.1408M556.256 38.4324L531.271 32.6423M536.608 71.6533L546.896 53.1408M536.608 71.6533L528.175 69.6967M546.896 53.1408L530.104 49.2493M528.175 69.6967L530.104 49.2493M528.175 69.6967L519.628 68.7325M530.104 49.2493L531.271 32.6423M530.104 49.2493L513.1 47.3271M531.271 32.6423L531.675 20.0351M531.271 32.6423L505.956 29.785M531.675 20.0351L531.303 11.5516M531.675 20.0351L498.3 16.2701M531.303 11.5516L530.14 7.27643M531.303 11.5516L490.195 6.9125M530.14 7.27643L481.695 1.80684M481.695 1.80684L490.195 6.9125M481.695 1.80684L434.433 2.17006M481.695 1.80684L472.898 1L418.94 1.41382M490.195 6.9125L498.3 16.2701M490.195 6.9125L450.088 7.22248M498.3 16.2701L505.956 29.785M498.3 16.2701L465.753 16.5194M505.956 29.785L513.1 47.3271M505.956 29.785L481.268 29.9753M519.628 68.7325L511.293 68.796M519.628 68.7325L513.1 47.3271M513.1 47.3271L496.5 47.4553M511.293 68.796L496.5 47.4553M511.293 68.796L503.486 69.8853M496.5 47.4553L481.268 29.9753M496.5 47.4553L480.974 49.6233M481.268 29.9753L465.753 16.5194M481.268 29.9753L458.159 33.2025M465.753 16.5194L450.088 7.22248M465.753 16.5194L435.284 20.7741M450.088 7.22248L434.433 2.17006M450.088 7.22248L412.551 12.4656M434.433 2.17006L418.94 1.41382M434.433 2.17006L390.205 8.34692M418.94 1.41382L368.433 8.46778M368.433 8.46778L390.205 8.34692M368.433 8.46778L323.298 21.8948M368.433 8.46778L347.462 12.8218L297.155 27.7857M390.205 8.34692L412.551 12.4656M412.551 12.4656L435.284 20.7741M412.551 12.4656L379.024 22.4386M435.284 20.7741L458.159 33.2025M435.284 20.7741L408.06 28.8732M458.159 33.2025L480.974 49.6233M458.159 33.2025L437.504 39.3464M480.974 49.6233L503.486 69.8853M480.974 49.6233L467.087 53.7533M503.486 69.8853L496.519 71.9597M496.519 71.9597L467.087 53.7533M496.519 71.9597L490.637 74.9399M467.087 53.7533L437.504 39.3464M467.087 53.7533L455.407 59.6808M437.504 39.3464L408.06 28.8732M437.504 39.3464L420.118 48.1667M408.06 28.8732L379.024 22.4386M408.06 28.8732L385.129 40.5037M379.024 22.4386L350.675 20.1057M379.024 22.4386L350.789 36.7629M323.298 21.8948L297.155 27.7857M323.298 21.8948L350.675 20.1057M323.298 21.8948L285.299 41.171M297.155 27.7857L272.499 37.7243L226.19 61.2169M297.155 27.7857L254.793 49.2738M226.19 61.2169L254.793 49.2738M226.19 61.2169L190.326 90.9397M226.19 61.2169L199.732 76.887L161.171 108.856M254.793 49.2738L285.299 41.171M254.793 49.2738L222.006 76.4599M350.675 20.1057L317.406 36.9865M285.299 41.171L317.406 36.9865M285.299 41.171L255.872 65.5627M317.406 36.9865L350.789 36.7629M317.406 36.9865L291.627 58.35M350.789 36.7629L385.129 40.5037M350.789 36.7629L328.914 54.8899M385.129 40.5037L420.118 48.1667M385.129 40.5037L367.386 55.2148M420.118 48.1667L455.407 59.6808M420.118 48.1667L406.656 59.3272M490.637 74.9399L455.407 59.6808M490.637 74.9399L486.101 78.7055M455.407 59.6808L446.345 67.185M486.101 78.7055L446.345 67.185M486.101 78.7055L483.057 83.1203M446.345 67.185L406.656 59.3272M446.345 67.185L440.284 75.9702M406.656 59.3272L367.386 55.2148M406.656 59.3272L397.63 72.3995M367.386 55.2148L328.914 54.8899M367.386 55.2148L355.493 72.4483M328.914 54.8899L291.627 58.35M328.914 54.8899L314.278 76.116M291.627 58.35L255.872 65.5627M291.627 58.35L274.366 83.368M255.872 65.5627L222.006 76.4599M255.872 65.5627L236.166 94.1292M222.006 76.4599L190.326 90.9397M222.006 76.4599L200.027 108.303M190.326 90.9397L161.171 108.856M190.326 90.9397L166.31 125.749M161.171 108.856L134.807 130.04M161.171 108.856L135.333 146.298M134.807 130.04L111.476 154.291L82.7697 195.895M134.807 130.04L107.396 169.756M82.7697 195.895L107.396 169.756M82.7697 195.895L69.3093 241.98M82.7697 195.895L61.6901 224.462M107.396 169.756L135.333 146.298M107.396 169.756L94.5455 213.748M135.333 146.298L166.31 125.749M135.333 146.298L123.211 187.776M166.31 125.749L200.027 108.303M166.31 125.749L155.051 164.306M200.027 108.303L236.166 94.1292M200.027 108.303L189.715 143.576M236.166 94.1292L274.366 83.368M236.166 94.1292L226.924 125.774M274.366 83.368L314.278 76.116M274.366 83.368L266.273 111.079M314.278 76.116L355.493 72.4483M314.278 76.116L307.403 99.6313M355.493 72.4483L397.63 72.3995M355.493 72.4483L349.913 91.5388M397.63 72.3995L440.284 75.9702M397.63 72.3995L393.412 86.8782M483.057 83.1203L440.284 75.9702M483.057 83.1203L481.628 88.0087M440.284 75.9702L437.452 85.6979M481.628 88.0087L437.452 85.6979M481.628 88.0087L481.866 93.1876M437.452 85.6979L393.412 86.8782M437.452 85.6979L437.934 96.0031M393.412 86.8782L349.913 91.5388M393.412 86.8782L394.135 102.21M349.913 91.5388L307.403 99.6313M349.913 91.5388L350.865 111.751M307.403 99.6313L266.273 111.079M307.403 99.6313L308.579 124.529M266.273 111.079L226.924 125.774M266.273 111.079L267.66 140.424M226.924 125.774L189.715 143.576M226.924 125.774L228.498 159.283M189.715 143.576L155.051 164.306M189.715 143.576L191.48 180.925M155.051 164.306L123.211 187.776M155.051 164.306L156.968 205.137M123.211 187.776L125.287 231.692M123.211 187.776L94.5455 213.748M94.5455 213.748L96.743 260.335M94.5455 213.748L69.3093 241.98M69.3093 241.98L71.6077 290.77M69.3093 241.98L47.7449 272.195M61.6901 224.462L47.7449 272.195M61.6901 224.462L44.3597 255.189M47.7449 272.195L30.0681 304.111M47.7449 272.195L50.1308 322.746M44.3597 255.189L30.0681 304.111M44.3597 255.189L30.9415 287.764L21.5734 321.887M30.0681 304.111L16.4405 337.399M30.0681 304.111L32.5087 355.904M1.8389 406.876L1 442.366L3.44401 494.175M1.8389 406.876L7.00084 371.766M1.8389 406.876L4.31777 459.438M3.44401 494.175L4.31777 459.438M3.44401 494.175L22.5289 546.863M3.44401 494.175L6.88003 528.467M7.00084 371.766L16.4405 337.399M7.00084 371.766L9.49309 424.59M4.31777 459.438L9.49309 424.59M4.31777 459.438L23.6818 512.898M16.4405 337.399L18.9193 389.961M9.49309 424.59L18.9193 389.961M9.49309 424.59L28.9518 478.313M18.9193 389.961L32.5087 355.904M18.9193 389.961L38.2868 443.438M32.5087 355.904L50.1308 322.746M32.5087 355.904L51.5936 408.592M71.6077 290.77L96.743 260.335M71.6077 290.77L89.5867 340.403M71.6077 290.77L50.1308 322.746M50.1308 322.746L68.7506 374.153M96.743 260.335L125.287 231.692M96.743 260.335L113.902 307.701M125.287 231.692L156.968 205.137M125.287 231.692L141.461 276.361M191.48 180.925L156.968 205.137M191.48 180.925L228.498 159.283M191.48 180.925L205.235 218.904M156.968 205.137L172.018 246.662M228.498 159.283L267.66 140.424M228.498 159.283L240.849 193.363M267.66 140.424L308.579 124.529M267.66 140.424L278.468 170.27M308.579 124.529L350.865 111.751M308.579 124.529L317.75 149.854M350.865 111.751L394.135 102.21M350.865 111.751L358.313 132.31M394.135 102.21L437.934 96.0031M394.135 102.21L399.784 117.804M437.934 96.0031L481.866 93.1876M437.934 96.0031L441.734 106.484M481.866 93.1876L483.78 98.4517M483.78 98.4517L441.734 106.484M483.78 98.4517L487.277 103.603M441.734 106.484L399.784 117.804M441.734 106.484L448.683 116.74M399.784 117.804L358.313 132.31M399.784 117.804L410.129 133.065M358.313 132.31L317.75 149.854M358.313 132.31L371.97 152.425M317.75 149.854L278.468 170.27M317.75 149.854L334.574 174.63M278.468 170.27L240.849 193.363M278.468 170.27L298.286 199.469M240.849 193.363L205.235 218.904M240.849 193.363L263.48 226.707M205.235 218.904L172.018 246.662M205.235 218.904L230.473 256.081M172.018 246.662L141.461 276.361M172.018 246.662L199.592 287.294M141.461 276.361L171.134 320.072M141.461 276.361L113.902 307.701M113.902 307.701L145.367 354.061M113.902 307.701L89.5867 340.403M89.5867 340.403L122.549 388.978M89.5867 340.403L68.7506 374.153M68.7506 374.153L102.891 424.445M68.7506 374.153L51.5936 408.592M51.5936 408.592L86.5874 460.155M51.5936 408.592L38.2868 443.438M38.2868 443.438L73.7918 495.743M38.2868 443.438L28.9518 478.313M28.9518 478.313L23.6818 512.898M28.9518 478.313L64.6277 530.865M23.6818 512.898L22.5289 546.863M23.6818 512.898L59.1867 565.203M22.5289 546.863L25.4999 579.874M22.5289 546.863L57.5193 598.41M6.88003 528.467L25.4999 579.874M6.88003 528.467L14.5934 561.983L26.5077 594.404L32.2968 610.386M25.4999 579.874L32.2968 610.386M25.4999 579.874L59.6405 630.166M32.2968 610.386L32.9383 612.157M32.2968 610.386L32.5707 611.616L32.9383 612.157M32.9383 612.157L43.6702 641.787M32.9383 612.157L65.53 660.175M43.6702 641.787L58.6916 670.091L88.3562 713.786M43.6702 641.787L75.1352 688.147M88.3562 713.786L75.1352 688.147M88.3562 713.786L130.366 754.85M88.3562 713.786L105.071 736.887L125.118 757.202L160.847 792.129L205.699 823.448M75.1352 688.147L65.53 660.175M75.1352 688.147L119.692 731.687M65.53 660.175L59.6405 630.166M65.53 660.175L112.211 705.8M59.6405 630.166L57.5193 598.41M59.6405 630.166L107.991 677.425M57.5193 598.41L59.1867 565.203M57.5193 598.41L107.075 646.85M59.1867 565.203L64.6277 530.865M59.1867 565.203L109.472 614.357M73.7918 495.743L86.5874 460.155M73.7918 495.743L124.072 544.881M73.7918 495.743L64.6277 530.865M64.6277 530.865L115.153 580.253M86.5874 460.155L102.891 424.445M86.5874 460.155L136.143 508.595M102.891 424.445L122.549 388.978M102.891 424.445L151.24 471.704M122.549 388.978L145.367 354.061M122.549 388.978L169.227 434.605M145.367 354.061L171.134 320.072M145.367 354.061L189.934 397.616M171.134 320.072L199.592 287.294M171.134 320.072L213.143 361.119M199.592 287.294L230.473 256.081M199.592 287.294L238.645 325.472M230.473 256.081L263.48 226.707M230.473 256.081L266.204 290.99M298.286 199.469L334.574 174.63M298.286 199.469L326.353 226.903M298.286 199.469L263.48 226.707M263.48 226.707L295.526 258.034M334.574 174.63L371.97 152.425M334.574 174.63L358.378 197.907M371.97 152.425L410.129 133.065M371.97 152.425L391.307 171.322M410.129 133.065L448.683 116.74M410.129 133.065L424.801 147.4M487.277 103.603L448.683 116.74M487.277 103.603L492.228 108.445M448.683 116.74L458.54 126.376M492.228 108.445L458.54 126.376M492.228 108.445L498.435 112.789M458.54 126.376L424.801 147.4M458.54 126.376L470.928 135.017M424.801 147.4L391.307 171.322M424.801 147.4L443.212 160.261M391.307 171.322L358.378 197.907M391.307 171.322L415.573 188.277M358.378 197.907L326.353 226.903M358.378 197.907L388.293 218.801M326.353 226.903L361.608 251.532M326.353 226.903L295.526 258.034M295.526 258.034L335.771 286.153M295.526 258.034L266.204 290.99M266.204 290.99L311.048 322.328M266.204 290.99L238.645 325.472M238.645 325.472L287.689 359.721M238.645 325.472L213.143 361.119M213.143 361.119L265.881 397.96M213.143 361.119L189.934 397.616M189.934 397.616L245.869 436.694M189.934 397.616L169.227 434.605M169.227 434.605L227.837 475.532M169.227 434.605L151.24 471.704M151.24 471.704L211.939 514.106M151.24 471.704L136.143 508.595M136.143 508.595L198.364 552.043M136.143 508.595L124.072 544.881M124.072 544.881L187.2 588.972M124.072 544.881L115.153 580.253M115.153 580.253L109.472 614.357M115.153 580.253L178.586 624.563M109.472 614.357L107.075 646.85M109.472 614.357L172.599 658.448M107.075 646.85L107.991 677.425M107.075 646.85L169.287 690.3M107.991 677.425L112.211 705.8M107.991 677.425L168.692 719.827M112.211 705.8L119.692 731.687M112.211 705.8L170.812 746.729M119.692 731.687L130.366 754.85M119.692 731.687L175.635 770.762M130.366 754.85L144.131 775.065L193.165 809.316M130.366 754.85L183.109 791.69M205.699 823.448L193.165 809.316M205.699 823.448L257.948 849.994M205.699 823.448L220.597 833.968L267.476 857.774M193.165 809.316L183.109 791.69M193.165 809.316L250.283 838.319M183.109 791.69L175.635 770.762M183.109 791.69L244.563 822.889M175.635 770.762L170.812 746.729M175.635 770.762L240.819 803.857M170.812 746.729L168.692 719.827M170.812 746.729L239.089 781.411M168.692 719.827L169.287 690.3M168.692 719.827L239.411 755.735M172.599 658.448L169.287 690.3M172.599 658.448L178.586 624.563M172.599 658.448L246.14 695.787M169.287 690.3L241.771 727.097M178.586 624.563L187.2 588.972M178.586 624.563L252.488 662.092M187.2 588.972L198.364 552.043M187.2 588.972L260.74 626.328M198.364 552.043L211.939 514.106M198.364 552.043L270.826 588.845M211.939 514.106L227.837 475.532M211.939 514.106L282.664 550.013M227.837 475.532L245.869 436.694M227.837 475.532L296.099 510.199M245.869 436.694L265.881 397.96M245.869 436.694L311.054 469.789M265.881 397.96L287.689 359.721M265.881 397.96L327.339 429.158M287.689 359.721L311.048 322.328M287.689 359.721L344.813 388.723M311.048 322.328L335.771 286.153M311.048 322.328L363.303 348.856M335.771 286.153L361.608 251.532M335.771 286.153L382.663 309.956M361.608 251.532L388.293 218.801M361.608 251.532L402.648 272.375M388.293 218.801L415.573 188.277M388.293 218.801L423.124 236.493M415.573 188.277L443.212 160.261M415.573 188.277L443.86 202.64M443.212 160.261L470.928 135.017M443.212 160.261L464.66 171.157M498.435 112.789L505.688 116.466M498.435 112.789L470.928 135.017M470.928 135.017L485.338 142.339M505.688 116.466L485.338 142.339M505.688 116.466L513.675 119.339M485.338 142.339L464.66 171.157M485.338 142.339L501.253 148.053M464.66 171.157L488.332 179.659M464.66 171.157L443.86 202.64M443.86 202.64L423.124 236.493M443.86 202.64L475.064 213.861M423.124 236.493L402.648 272.375M423.124 236.493L461.551 250.303M402.648 272.375L447.954 288.651M402.648 272.375L382.663 309.956M382.663 309.956L434.377 328.547M382.663 309.956L363.303 348.856M363.303 348.856L420.962 369.575M363.303 348.856L344.813 388.723M344.813 388.723L407.829 411.375M344.813 388.723L327.339 429.158M327.339 429.158L395.122 453.528M327.339 429.158L311.054 469.789M311.054 469.789L382.951 495.623M311.054 469.789L296.099 510.199M296.099 510.199L371.427 537.268M296.099 510.199L282.664 550.013M282.664 550.013L270.826 588.845M282.664 550.013L360.683 578.063M270.826 588.845L260.74 626.328M270.826 588.845L350.805 617.586M260.74 626.328L252.488 662.092M260.74 626.328L341.884 655.5M252.488 662.092L246.14 695.787M252.488 662.092L334.013 691.397M246.14 695.787L241.771 727.097M246.14 695.787L327.284 724.958M241.771 727.097L239.411 755.735M241.771 727.097L321.733 755.842M239.411 755.735L239.089 781.411M239.411 755.735L317.43 783.785M239.089 781.411L240.819 803.857M239.089 781.411L314.417 808.48M240.819 803.857L244.563 822.889M240.819 803.857L312.719 829.709M244.563 822.889L250.283 838.319M244.563 822.889L312.346 847.259M250.283 838.319L257.948 849.994M250.283 838.319L313.317 860.967M257.948 849.994L267.476 857.774M257.948 849.994L315.607 870.714M267.476 857.774L319.21 876.379M319.21 876.379L315.607 870.714M319.21 876.379L324.06 877.903L371.865 889.004M315.607 870.714L313.317 860.967M315.607 870.714L376.438 884.815M313.317 860.967L312.346 847.259M313.317 860.967L379.803 876.391M312.346 847.259L312.719 829.709M312.346 847.259L383.874 863.851M312.719 829.709L314.417 808.48M312.719 829.709L388.582 847.296M314.417 808.48L317.43 783.785M314.417 808.48L393.895 826.91M317.43 783.785L321.733 755.842M317.43 783.785L399.747 802.884M321.733 755.842L327.284 724.958M321.733 755.842L406.107 775.417M327.284 724.958L334.013 691.397M327.284 724.958L412.897 744.808M341.884 655.5L350.644 618.268M341.884 655.5L341.734 656.184M334.013 691.397L341.734 656.184M334.013 691.397L420.037 711.356M350.805 617.586L360.513 578.743M350.805 617.586L350.644 618.268M371.427 537.268L382.951 495.623M371.427 537.268L371.249 537.946M360.683 578.063L371.249 537.946M360.683 578.063L360.513 578.743M382.951 495.623L395.122 453.528M382.951 495.623L458.817 513.227M395.122 453.528L407.829 411.375M395.122 453.528L466.65 470.119M407.829 411.375L420.962 369.575M407.829 411.375L474.336 426.812M420.962 369.575L434.377 328.547M420.962 369.575L481.796 383.693M434.377 328.547L447.954 288.651M434.377 328.547L488.944 341.203M447.954 288.651L461.551 250.303M447.954 288.651L495.739 299.738M461.551 250.303L475.064 213.861M461.551 250.303L502.105 259.703M488.332 179.659L501.253 148.053M488.332 179.659L513.301 185.457M488.332 179.659L475.064 213.861M475.064 213.861L507.98 221.482M501.253 148.053L513.675 119.339M501.253 148.053L518.028 151.948M513.675 119.339L522.109 121.295M522.109 121.295L518.028 151.948M522.109 121.295L530.655 122.26M518.028 151.948L513.301 185.457M518.028 151.948L535.049 153.867M513.301 185.457L538.615 188.308M513.301 185.457L507.98 221.482M507.98 221.482L502.105 259.703M507.98 221.482L541.354 225.249M502.105 259.703L495.739 299.738M502.105 259.703L543.232 264.344M495.739 299.738L544.204 305.214M495.739 299.738L488.944 341.203M488.944 341.203L544.275 347.453M488.944 341.203L481.796 383.693M481.796 383.693L481.706 384.212M474.336 426.812L474.245 427.326M474.336 426.812L481.706 384.212M466.65 470.119L466.557 470.632M466.65 470.119L474.245 427.326M458.817 513.227L458.722 513.74M458.817 513.227L466.557 470.632M369.785 537.606L371.249 537.946M371.249 537.946L449.267 556.054L450.812 556.228M359.04 578.402L360.513 578.743M360.513 578.743L441.357 597.501M349.163 617.924L350.644 618.268M350.644 618.268L433.52 637.503L435.075 637.679M340.242 655.838L341.734 656.184M341.734 656.184L425.855 675.688L427.391 675.861M420.037 711.356L412.897 744.808M420.037 711.356L427.391 675.861M420.037 711.356L507.256 721.185M412.897 744.808L406.107 775.417M412.897 744.808L499.689 754.619M406.107 775.417L399.747 802.884M406.107 775.417L491.651 785.079M399.747 802.884L393.895 826.91M399.747 802.884L483.207 812.287M393.895 826.91L388.582 847.296M393.895 826.91L474.469 836.008M388.582 847.296L383.874 863.851M388.582 847.296L465.505 855.981M383.874 863.851L379.803 876.391M383.874 863.851L456.387 872.032M379.803 876.391L376.438 884.815M379.803 876.391L447.221 883.998M376.438 884.815L373.778 889.034L429.105 895.267M376.438 884.815L438.109 891.771M429.105 895.267L438.109 891.771M429.105 895.267L483.065 894.863M447.221 883.998L456.387 872.032M447.221 883.998L512.972 883.513M447.221 883.998L438.109 891.771M456.387 872.032L465.505 855.981M456.387 872.032L527.104 871.494M465.505 855.981L474.469 836.008M465.505 855.981L540.504 855.408M474.469 836.008L483.207 812.287M474.469 836.008L553.044 835.404M483.207 812.287L491.651 785.079M483.207 812.287L564.603 811.667M491.651 785.079L499.689 754.619M491.651 785.079L575.07 784.43M499.689 754.619L507.256 721.185M499.689 754.619L584.322 753.95M427.391 675.861L512.644 685.482M427.391 675.861L427.497 675.349L435.075 637.679M507.256 721.185L514.286 685.143M507.256 721.185L592.316 720.533M435.075 637.679L519.06 647.149M435.075 637.679L435.179 637.161L442.999 597.162M442.999 597.162L450.812 556.228M442.999 597.162L526.46 606.566M450.812 556.228L529.838 565.134L531.441 565.122M450.812 556.228L450.91 555.715L458.722 513.74M526.46 606.566L531.441 565.122M526.46 606.566L607.856 605.946M526.46 606.566L520.702 646.81M457.175 513.566L458.722 513.74M458.722 513.74L534.099 522.251L535.692 522.238M465.008 470.458L466.557 470.632M466.557 470.632L537.521 478.639L539.138 478.627M472.694 427.151L474.245 427.326M474.245 427.326L540.112 434.758L541.735 434.746M480.137 384.035L481.706 384.212M481.706 384.212L541.825 390.987L543.438 390.975M544.275 347.453L544.204 305.214M544.275 347.453L598.232 347.032M544.275 347.453L543.45 390.652L543.438 390.975M544.204 305.214L543.232 264.344M544.204 305.214L591.448 304.853M541.354 225.249L543.232 264.344M541.354 225.249L538.615 188.308M541.354 225.249L573.903 225.003M543.232 264.344L583.323 264.044M538.615 188.308L535.049 153.867M538.615 188.308L563.305 188.128M535.049 153.867L530.655 122.26M535.049 153.867L551.634 153.75M530.655 122.26L538.991 122.196M538.991 122.196L551.634 153.75M538.991 122.196L546.796 121.105M551.634 153.75L563.305 188.128M551.634 153.75L567.175 151.572M563.305 188.128L586.431 184.899M563.305 188.128L573.903 225.003M573.903 225.003L583.323 264.044M573.903 225.003L604.373 220.755M583.323 264.044L591.448 304.853M583.323 264.044L620.842 258.803M591.448 304.853L635.692 298.668M591.448 304.853L598.232 347.032M598.232 347.032L648.756 339.976M598.232 347.032L603.594 390.193M543.438 390.975L601.951 390.531M543.438 390.975L541.754 434.42L541.735 434.746M541.735 434.746L605.859 434.256M541.735 434.746L539.164 478.301L539.138 478.627M539.138 478.627L608.238 478.101M539.138 478.627L535.724 521.916L535.692 522.238M535.692 522.238L609.097 521.678M535.692 522.238L531.48 564.796L531.441 565.122M531.441 565.122L608.416 564.548M607.856 605.946L684.043 595.297M607.856 605.946L604.125 646.179M607.856 605.946L610.058 564.209M520.702 646.81L604.125 646.179M520.702 646.81L514.286 685.143M604.125 646.179L598.939 684.488M604.125 646.179L682.217 635.261M514.286 685.143L598.939 684.488M598.939 684.488L678.166 673.425M598.939 684.488L592.316 720.533M592.316 720.533L671.939 709.424M592.316 720.533L584.322 753.95M584.322 753.95L575.07 784.43M584.322 753.95L663.566 742.883M575.07 784.43L564.603 811.667M575.07 784.43L653.149 773.534M564.603 811.667L553.044 835.404M564.603 811.667L640.795 801.035M553.044 835.404L540.504 855.408M553.044 835.404L626.61 825.137M540.504 855.408L527.104 871.494M540.504 855.408L610.723 845.601M527.104 871.494L512.972 883.513M527.104 871.494L593.309 862.249M512.972 883.513L498.253 891.311M512.972 883.513L574.526 874.908M438.109 891.771L498.253 891.311M483.065 894.863L498.253 891.311M483.065 894.863L533.572 887.811L554.542 883.456M498.253 891.311L554.542 883.456M554.542 883.456L574.526 874.908M554.542 883.456L604.848 868.485L629.505 858.551M574.526 874.908L593.309 862.249M574.526 874.908L629.505 858.551M593.309 862.249L610.723 845.601M593.309 862.249L652.462 844.644M610.723 845.601L626.61 825.137M610.723 845.601L673.47 826.937M626.61 825.137L640.795 801.035M626.61 825.137L692.332 805.578M640.795 801.035L653.149 773.534M640.795 801.035L708.862 780.782M653.149 773.534L663.566 742.883M653.149 773.534L722.928 752.768M671.939 709.424L678.166 673.425M671.939 709.424L743.066 688.258M671.939 709.424L663.566 742.883M663.566 742.883L734.364 721.837M678.166 673.425L682.217 635.261M678.166 673.425L748.961 652.362M682.217 635.261L684.043 595.297M682.217 635.261L751.983 614.516M684.043 595.297L683.621 553.925M684.043 595.297L752.114 575.06M610.058 564.209L610.739 521.339M610.058 564.209L683.621 553.925M610.739 521.339L680.959 511.532M610.739 521.339L609.88 477.763M680.959 511.532L676.086 468.518M680.959 511.532L743.705 492.869M680.959 511.532L683.621 553.925M683.621 553.925L749.346 534.383M609.88 477.763L676.086 468.518M609.88 477.763L607.501 433.917M676.086 468.518L669.055 425.313M676.086 468.518L735.242 450.93M607.501 433.917L669.055 425.313M607.501 433.917L603.594 390.193M669.055 425.313L659.9 382.334M669.055 425.313L724.035 408.956M603.594 390.193L659.9 382.334M659.9 382.334L648.756 339.976M659.9 382.334L710.206 367.363M648.756 339.976L635.692 298.668M648.756 339.976L693.873 326.551M635.692 298.668L620.842 258.803M635.692 298.668L675.205 286.909M604.373 220.755L620.842 258.803M604.373 220.755L586.431 184.899M604.373 220.755L631.597 212.658M620.842 258.803L654.385 248.821M586.431 184.899L567.175 151.572M586.431 184.899L607.069 178.758M567.175 151.572L546.796 121.105M567.175 151.572L581.045 147.444M546.796 121.105L553.765 119.032M553.765 119.032L581.045 147.444M553.765 119.032L559.646 116.052M581.045 147.444L607.069 178.758M581.045 147.444L592.724 141.508M607.069 178.758L624.471 169.931M607.069 178.758L631.597 212.658M631.597 212.658L654.385 248.821M631.597 212.658L654.526 201.015M654.385 248.821L675.205 286.909M654.385 248.821L682.621 234.497M675.205 286.909L708.49 270.026M675.205 286.909L693.873 326.551M693.873 326.551L731.871 307.268M693.873 326.551L710.206 367.363M710.206 367.363L752.568 345.875M710.206 367.363L724.035 408.956M724.035 408.956L770.345 385.472M724.035 408.956L735.242 450.93M735.242 450.93L785.047 425.649M735.242 450.93L743.705 492.869M743.705 492.869L796.533 466.065M743.705 492.869L749.346 534.383M749.346 534.383L804.699 506.301M749.346 534.383L752.114 575.06M752.114 575.06L809.447 545.969M752.114 575.06L751.983 614.516M751.983 614.516L748.961 652.362M751.983 614.516L810.756 584.705M748.961 652.362L743.066 688.258M748.961 652.362L808.583 622.129M743.066 688.258L734.364 721.837M743.066 688.258L802.972 657.86M734.364 721.837L722.928 752.768M734.364 721.837L793.983 691.587M722.928 752.768L708.862 780.782M722.928 752.768L781.685 722.961M708.862 780.782L692.332 805.578M708.862 780.782L766.195 751.691M692.332 805.578L673.47 826.937M692.332 805.578L747.671 777.516M673.47 826.937L652.462 844.644M673.47 826.937L724.211 801.192M652.462 844.644L629.505 858.551M652.462 844.644L702.27 819.38M629.505 858.551L675.829 835.047L702.27 819.38M702.27 819.38L724.211 801.192M724.211 801.192L726.297 800.134M724.211 801.192L729.223 797.038M726.297 800.134L729.223 797.038M726.297 800.134L767.211 766.219L790.528 741.983M747.671 777.516L766.195 751.691M747.671 777.516L790.528 741.983M747.671 777.516L729.223 797.038M766.195 751.691L781.685 722.961M766.195 751.691L810.577 714.908M781.685 722.961L793.983 691.587M781.685 722.961L827.167 685.263M793.983 691.587L802.972 657.86M793.983 691.587L840.143 653.326M802.972 657.86L808.583 622.129M802.972 657.86L849.358 619.411M808.583 622.129L810.756 584.705M808.583 622.129L854.743 583.868M809.447 545.969L804.699 506.301M809.447 545.969L853.83 509.186M809.447 545.969L810.756 584.705M810.756 584.705L856.235 546.99M804.699 506.301L796.533 466.065M804.699 506.301L847.539 470.771M796.533 466.065L785.047 425.649M796.533 466.065L837.43 432.153M785.047 425.649L770.345 385.472M785.047 425.649L823.609 393.683M770.345 385.472L752.568 345.875M770.345 385.472L806.191 355.742M752.568 345.875L731.871 307.268M752.568 345.875L785.357 318.699M731.871 307.268L708.49 270.026M731.871 307.268L761.3 282.885M708.49 270.026L682.621 234.497M708.49 270.026L734.255 248.675M682.621 234.497L654.526 201.015M682.621 234.497L704.478 216.369M624.471 169.931L592.724 141.508M624.471 169.931L637.934 158.774M624.471 169.931L654.526 201.015M654.526 201.015L672.27 186.311M592.724 141.508L559.646 116.052M592.724 141.508L601.787 134.014M559.646 116.052L564.182 112.285M564.182 112.285L601.787 134.014M564.182 112.285L567.226 107.872M601.787 134.014L637.934 158.774M601.787 134.014L607.849 125.229M637.934 158.774L646.957 145.69M637.934 158.774L672.27 186.311M672.27 186.311L704.478 216.369M672.27 186.311L684.161 169.07M704.478 216.369L734.255 248.675M704.478 216.369L719.133 195.153M734.255 248.675L761.3 282.885M734.255 248.675L751.515 223.657M761.3 282.885L781.021 254.307M761.3 282.885L785.357 318.699M785.357 318.699L806.191 355.742M785.357 318.699L807.335 286.85M806.191 355.742L830.223 320.928M806.191 355.742L823.609 393.683M823.609 393.683L849.45 356.255M823.609 393.683L837.43 432.153M837.43 432.153L847.539 470.771M837.43 432.153L864.847 392.441M847.539 470.771L853.83 509.186M847.539 470.771L876.244 429.169M853.83 509.186L856.235 546.99M853.83 509.186L883.567 466.084M856.235 546.99L854.743 583.868M856.235 546.99L886.708 502.836M854.743 583.868L849.358 619.411M854.743 583.868L885.664 539.056M849.358 619.411L840.143 653.326M849.358 619.411L880.43 574.392L885.664 539.056M840.143 653.326L827.167 685.263M840.143 653.326L871.064 608.515M827.167 685.263L810.577 714.908M827.167 685.263L857.654 641.088M810.577 714.908L790.528 741.983M810.577 714.908L840.314 671.805L857.654 641.088M729.223 797.038L740.832 787.414M857.654 641.088L871.064 608.515M871.064 608.515L885.561 558.863L895.001 524.496L900.161 489.404M885.664 539.056L886.708 502.836M885.664 539.056L900.161 489.404M886.708 502.836L883.567 466.084M886.708 502.836L901 453.897M883.567 466.084L876.244 429.169M883.567 466.084L897.509 418.364M876.244 429.169L864.847 392.441M876.244 429.169L889.711 383.083M849.45 356.255L830.223 320.928M849.45 356.255L861.57 314.77M849.45 356.255L864.847 392.441M864.847 392.441L877.686 348.443M830.223 320.928L807.335 286.85M830.223 320.928L841.482 282.374M781.021 254.307L751.515 223.657M781.021 254.307L790.263 222.663M781.021 254.307L807.335 286.85M807.335 286.85L817.63 251.583M751.515 223.657L719.133 195.153M751.515 223.657L759.624 195.935M719.133 195.153L684.161 169.07M719.133 195.153L726.005 171.622M646.957 145.69L607.849 125.229M646.957 145.69L651.176 131.213M646.957 145.69L684.161 169.07M684.161 169.07L689.743 149.989M607.849 125.229L567.226 107.872M607.849 125.229L610.68 115.498M567.226 107.872L568.654 102.982M568.654 102.982L610.68 115.498M610.68 115.498L651.176 131.213M651.176 131.213L689.743 149.989M689.743 149.989L726.005 171.622M726.005 171.622L759.624 195.935M759.624 195.935L790.263 222.663M790.263 222.663L817.63 251.583M817.63 251.583L841.482 282.374M841.482 282.374L861.57 314.77M861.57 314.77L877.686 348.443M877.686 348.443L889.711 383.083M877.686 348.443L875.501 301.857M889.711 383.083L897.509 418.364M897.509 418.364L895.125 367.812M901 453.897L900.161 489.404M901 453.897L898.571 402.101L895.125 367.812" stroke="white" stroke-width="1.78022" stroke-linecap="round" stroke-linejoin="round"/>
</svg>
