<svg width="647" height="445" viewBox="0 0 647 445" fill="none" xmlns="http://www.w3.org/2000/svg">
<path opacity="0.1" d="M843.32 226.187L844.107 225.77C844.088 225.734 844.067 225.7 844.043 225.668L843.32 226.187ZM887.408 334.297L888.276 334.097C888.268 334.062 888.258 334.028 888.245 333.994L887.408 334.297ZM869.434 284.663L870.271 284.36L870.27 284.356L869.434 284.663ZM858.33 254.493L859.165 254.186C859.151 254.148 859.135 254.112 859.116 254.076L858.33 254.493ZM796.942 159.39L797.679 158.89C797.648 158.845 797.614 158.803 797.576 158.765L796.942 159.39ZM776.89 139.076L777.524 138.451C777.52 138.447 777.516 138.444 777.512 138.44L776.89 139.076ZM721.645 90.4073L722.267 89.7706C722.195 89.7004 722.112 89.6428 722.021 89.6004L721.645 90.4073ZM741.156 104.154L741.778 103.517C741.743 103.483 741.706 103.452 741.666 103.424L741.156 104.154ZM696.313 72.8212L695.8 73.5485L695.803 73.5509L696.313 72.8212ZM623.232 34.6429L623.635 33.8492C623.602 33.8325 623.568 33.8178 623.533 33.8053L623.232 34.6429ZM681.402 62.3012L681.916 61.5738C681.858 61.5335 681.797 61.5 681.732 61.4741L681.402 62.3012ZM577.942 18.3606L578.21 17.5118C578.188 17.5048 578.166 17.4987 578.143 17.4935L577.942 18.3606ZM530.14 7.27643L530.341 6.40932C530.308 6.40158 530.274 6.39578 530.24 6.39193L530.14 7.27643ZM582.545 20.7491C583.013 20.8973 583.513 20.6374 583.662 20.1687C583.81 19.6999 583.55 19.1998 583.081 19.0517L582.545 20.7491ZM481.695 1.80684L481.795 0.922344C481.789 0.921646 481.782 0.921013 481.776 0.920445L481.695 1.80684ZM472.898 1L472.979 0.11361C472.95 0.110923 472.921 0.10969 472.891 0.109915L472.898 1ZM418.94 1.41382L418.933 0.523736C418.894 0.524034 418.856 0.526884 418.817 0.532266L418.94 1.41382ZM368.433 8.46778L368.31 7.58622C368.291 7.58893 368.271 7.59228 368.252 7.59625L368.433 8.46778ZM347.462 12.8218L347.281 11.9502C347.257 11.9553 347.232 11.9615 347.208 11.9686L347.462 12.8218ZM297.155 27.7857L296.901 26.9325C296.875 26.9404 296.848 26.9497 296.822 26.9601L297.155 27.7857ZM272.499 37.7243L272.166 36.8988C272.142 36.9083 272.119 36.9189 272.096 36.9305L272.499 37.7243ZM226.19 61.2169L225.788 60.4231C225.771 60.4319 225.754 60.4412 225.737 60.4511L226.19 61.2169ZM350.675 20.1057L350.748 19.2186C350.704 19.215 350.661 19.2147 350.617 19.2175L350.675 20.1057ZM199.732 76.887L199.279 76.1212C199.238 76.145 199.2 76.172 199.164 76.2018L199.732 76.887ZM134.807 130.04L134.25 129.346C134.22 129.37 134.192 129.395 134.166 129.423L134.807 130.04ZM111.476 154.291L110.835 153.674C110.801 153.709 110.771 153.746 110.744 153.786L111.476 154.291ZM61.6901 224.462L60.9739 223.933C60.9524 223.962 60.9326 223.993 60.9148 224.024L61.6901 224.462ZM44.3597 255.189L43.5844 254.752C43.5665 254.784 43.5506 254.817 43.5367 254.85L44.3597 255.189ZM30.9415 287.764L30.1185 287.425C30.1046 287.459 30.0928 287.493 30.0831 287.528L30.9415 287.764ZM20.715 321.651C20.5849 322.125 20.8637 322.615 21.3377 322.745C21.8118 322.875 22.3016 322.597 22.4317 322.123L20.715 321.651ZM1.8389 406.876L0.958259 406.746C0.952977 406.782 0.949898 406.819 0.94904 406.855L1.8389 406.876ZM1 442.366L0.110138 442.345C0.109641 442.366 0.109888 442.387 0.110878 442.408L1 442.366ZM3.44401 494.175L2.55489 494.217C2.55562 494.233 2.55677 494.249 2.55833 494.264L3.44401 494.175ZM7.00084 371.766L6.14252 371.531C6.13292 371.566 6.12547 371.601 6.1202 371.637L7.00084 371.766ZM16.4405 337.399L15.6167 337.062C15.6031 337.095 15.5916 337.129 15.5821 337.164L16.4405 337.399ZM6.88003 528.467L5.99435 528.555C5.99809 528.593 6.00418 528.63 6.01259 528.666L6.88003 528.467ZM14.5934 561.983L13.726 562.182C13.7344 562.219 13.745 562.255 13.7579 562.29L14.5934 561.983ZM26.5077 594.404L27.3447 594.1L27.3432 594.096L26.5077 594.404ZM43.6702 641.787L42.8333 642.09C42.8475 642.129 42.8644 642.167 42.884 642.204L43.6702 641.787ZM58.6916 670.091L57.9054 670.508C57.9205 670.536 57.9371 670.564 57.9552 670.591L58.6916 670.091ZM88.3562 713.786L87.6198 714.286C87.6248 714.293 87.6299 714.301 87.6351 714.308L88.3562 713.786ZM32.5707 611.616L31.7019 611.809C31.7263 611.919 31.7712 612.023 31.8342 612.116L32.5707 611.616ZM105.071 736.887L104.35 737.409C104.377 737.446 104.406 737.48 104.438 737.513L105.071 736.887ZM125.118 757.202L124.485 757.827C124.489 757.831 124.492 757.835 124.496 757.838L125.118 757.202ZM160.847 792.129L160.224 792.766C160.259 792.8 160.297 792.831 160.337 792.859L160.847 792.129ZM144.131 775.065L143.395 775.566C143.456 775.655 143.532 775.732 143.621 775.794L144.131 775.065ZM220.597 833.968L220.084 834.695C220.119 834.72 220.156 834.743 220.194 834.762L220.597 833.968ZM267.476 857.774L267.073 858.568C267.106 858.584 267.14 858.599 267.175 858.612L267.476 857.774ZM319.21 876.379L318.909 877.216C318.92 877.22 318.931 877.224 318.943 877.228L319.21 876.379ZM481.796 383.693L482.673 383.845L482.674 383.841L481.796 383.693ZM474.336 426.812L475.213 426.968L475.213 426.964L474.336 426.812ZM466.65 470.119L467.526 470.278L467.527 470.275L466.65 470.119ZM458.817 513.227L459.692 513.39L459.693 513.386L458.817 513.227ZM369.986 536.739C369.508 536.628 369.029 536.926 368.918 537.405C368.807 537.884 369.105 538.362 369.584 538.473L369.986 536.739ZM449.267 556.054L449.066 556.921C449.099 556.928 449.133 556.934 449.167 556.938L449.267 556.054ZM359.241 577.535C358.763 577.424 358.284 577.722 358.173 578.201C358.062 578.68 358.36 579.158 358.839 579.269L359.241 577.535ZM441.156 598.368C441.635 598.479 442.113 598.181 442.224 597.702C442.335 597.223 442.037 596.745 441.558 596.634L441.156 598.368ZM349.364 617.057C348.885 616.946 348.407 617.244 348.296 617.723C348.184 618.202 348.482 618.68 348.961 618.792L349.364 617.057ZM433.52 637.503L433.318 638.37C433.352 638.378 433.386 638.384 433.42 638.388L433.52 637.503ZM340.443 654.971C339.964 654.86 339.486 655.158 339.375 655.637C339.264 656.116 339.562 656.594 340.041 656.705L340.443 654.971ZM425.855 675.688L425.654 676.555C425.687 676.562 425.721 676.568 425.755 676.572L425.855 675.688ZM324.06 877.903L323.793 878.752C323.815 878.759 323.837 878.765 323.859 878.77L324.06 877.903ZM371.664 889.871C372.143 889.982 372.621 889.684 372.732 889.206C372.844 888.727 372.546 888.248 372.067 888.137L371.664 889.871ZM373.778 889.034L373.025 888.559C372.861 888.818 372.843 889.143 372.975 889.42C373.108 889.696 373.373 889.884 373.678 889.919L373.778 889.034ZM429.105 895.267L429.005 896.152C429.04 896.156 429.076 896.158 429.111 896.157L429.105 895.267ZM512.544 686.366C513.032 686.421 513.473 686.07 513.528 685.582C513.583 685.093 513.232 684.652 512.743 684.597L512.544 686.366ZM427.497 675.349L428.369 675.53L428.37 675.525L427.497 675.349ZM518.96 648.033C519.449 648.088 519.889 647.737 519.944 647.248C519.999 646.76 519.648 646.319 519.16 646.264L518.96 648.033ZM435.179 637.161L436.051 637.337L436.052 637.332L435.179 637.161ZM529.838 565.134L529.738 566.019C529.773 566.023 529.809 566.025 529.844 566.024L529.838 565.134ZM450.91 555.715L451.784 555.882L451.785 555.878L450.91 555.715ZM457.275 512.681C456.786 512.626 456.346 512.977 456.29 513.466C456.235 513.954 456.587 514.395 457.075 514.45L457.275 512.681ZM534.099 522.251L533.999 523.135C534.034 523.139 534.07 523.141 534.105 523.141L534.099 522.251ZM465.108 469.573C464.619 469.518 464.178 469.869 464.123 470.358C464.068 470.846 464.42 471.287 464.908 471.342L465.108 469.573ZM537.521 478.639L537.421 479.524C537.457 479.528 537.492 479.53 537.528 479.529L537.521 478.639ZM472.794 426.266C472.305 426.211 471.865 426.562 471.809 427.051C471.754 427.539 472.106 427.98 472.594 428.035L472.794 426.266ZM540.112 434.758L540.012 435.643C540.047 435.647 540.083 435.649 540.119 435.648L540.112 434.758ZM480.237 383.15C479.748 383.095 479.307 383.447 479.252 383.935C479.197 384.424 479.549 384.864 480.037 384.919L480.237 383.15ZM541.825 390.987L541.725 391.872C541.761 391.876 541.796 391.878 541.832 391.877L541.825 390.987ZM543.45 390.652L544.34 390.687C544.34 390.681 544.34 390.675 544.34 390.669L543.45 390.652ZM601.958 391.421C602.45 391.417 602.845 391.016 602.841 390.524C602.838 390.033 602.436 389.637 601.945 389.641L601.958 391.421ZM541.754 434.42L542.643 434.472C542.643 434.466 542.643 434.46 542.644 434.454L541.754 434.42ZM605.866 435.146C606.357 435.142 606.753 434.741 606.749 434.249C606.745 433.757 606.344 433.362 605.852 433.366L605.866 435.146ZM539.164 478.301L540.051 478.371C540.051 478.365 540.052 478.359 540.052 478.353L539.164 478.301ZM608.245 478.991C608.737 478.988 609.132 478.586 609.128 478.095C609.125 477.603 608.723 477.207 608.231 477.211L608.245 478.991ZM535.724 521.916L536.61 522.003C536.61 521.997 536.611 521.992 536.611 521.986L535.724 521.916ZM609.104 522.568C609.595 522.564 609.991 522.163 609.987 521.671C609.983 521.179 609.582 520.784 609.09 520.788L609.104 522.568ZM531.48 564.796L532.364 564.902C532.364 564.896 532.365 564.89 532.366 564.884L531.48 564.796ZM608.423 565.438C608.914 565.434 609.31 565.033 609.306 564.541C609.303 564.049 608.901 563.654 608.409 563.658L608.423 565.438ZM483.065 894.863L483.071 895.754C483.11 895.753 483.149 895.75 483.188 895.745L483.065 894.863ZM533.572 887.811L533.695 888.693C533.715 888.69 533.734 888.687 533.753 888.683L533.572 887.811ZM554.542 883.456L554.724 884.327C554.748 884.322 554.772 884.316 554.796 884.309L554.542 883.456ZM629.505 858.551L629.838 859.377C629.862 859.367 629.885 859.357 629.908 859.345L629.505 858.551ZM604.848 868.485L605.102 869.338C605.129 869.33 605.155 869.321 605.181 869.311L604.848 868.485ZM675.829 835.047L676.232 835.841C676.249 835.832 676.266 835.822 676.283 835.812L675.829 835.047ZM702.27 819.38L702.724 820.146C702.764 820.122 702.803 820.095 702.839 820.065L702.27 819.38ZM726.297 800.134L726.7 800.928C726.759 800.898 726.815 800.861 726.866 800.819L726.297 800.134ZM810.577 714.908L811.292 715.437C811.298 715.429 811.304 715.421 811.31 715.413L810.577 714.908ZM790.528 741.983L791.169 742.6C791.196 742.572 791.221 742.543 791.243 742.512L790.528 741.983ZM767.211 766.219L767.779 766.904C767.805 766.883 767.829 766.86 767.853 766.836L767.211 766.219ZM741.4 788.1C741.779 787.786 741.831 787.225 741.518 786.846C741.204 786.468 740.643 786.415 740.264 786.729L741.4 788.1ZM840.314 671.805L841.047 672.311C841.062 672.289 841.076 672.266 841.089 672.243L840.314 671.805ZM857.654 641.088L858.429 641.525C858.447 641.494 858.463 641.461 858.477 641.427L857.654 641.088ZM871.064 608.515L871.887 608.854C871.899 608.825 871.909 608.795 871.918 608.764L871.064 608.515ZM880.43 574.392L881.163 574.898C881.24 574.786 881.291 574.658 881.311 574.523L880.43 574.392ZM897.509 418.364L898.364 418.613C898.391 418.519 898.403 418.42 898.398 418.322L897.509 418.364ZM901 453.897L901.89 453.918C901.89 453.897 901.89 453.876 901.889 453.855L901 453.897ZM900.161 489.404L901.042 489.534C901.047 489.498 901.05 489.461 901.051 489.425L900.161 489.404ZM885.561 558.863L886.416 559.112C886.417 559.108 886.418 559.103 886.419 559.098L885.561 558.863ZM895.001 524.496L895.859 524.731C895.869 524.696 895.876 524.661 895.882 524.625L895.001 524.496ZM895.125 367.812L896.011 367.723C896.007 367.686 896.001 367.649 895.993 367.613L895.125 367.812ZM898.571 402.101L899.46 402.06C899.46 402.044 899.458 402.028 899.457 402.012L898.571 402.101ZM875.501 301.857L876.336 301.55C876.323 301.516 876.309 301.482 876.292 301.449L875.501 301.857ZM569.254 97.4987L567.339 92.2345L565.666 92.8429L567.581 98.107L569.254 97.4987ZM611.035 104.891L607.235 94.4099L605.561 95.0167L609.362 105.498L611.035 104.891ZM651.29 115.58L645.642 99.9853L643.968 100.592L649.616 116.186L651.29 115.58ZM689.626 129.461L682.18 108.912L680.506 109.519L687.952 130.068L689.626 129.461ZM725.667 146.428L716.496 121.102L714.822 121.708L723.993 147.034L725.667 146.428ZM759.074 166.284L748.266 136.442L746.592 137.048L757.4 166.891L759.074 166.284ZM789.51 188.854L777.175 154.772L775.502 155.378L787.836 189.459L789.51 188.854ZM816.719 213.922L802.945 175.937L801.271 176.543L815.045 214.529L816.719 213.922ZM840.385 241.24L825.353 199.719L823.679 200.325L838.711 241.846L840.385 241.24ZM860.329 270.541L844.157 225.884L842.483 226.49L858.655 271.148L860.329 270.541ZM888.245 333.994L870.271 284.36L868.597 284.966L886.571 334.6L888.245 333.994ZM857.495 254.801L868.599 284.971L870.27 284.356L859.165 254.186L857.495 254.801ZM842.534 226.604L857.544 254.91L859.116 254.076L844.107 225.77L842.534 226.604ZM823.793 200.541L842.598 226.707L844.043 225.668L825.239 199.502L823.793 200.541ZM801.46 176.85L823.868 200.632L825.164 199.411L802.756 175.63L801.46 176.85ZM825.253 199.522L797.679 158.89L796.206 159.89L823.779 200.521L825.253 199.522ZM775.774 155.763L801.543 176.928L802.673 175.552L776.903 154.387L775.774 155.763ZM802.845 175.74L777.627 138.577L776.154 139.576L801.371 176.74L802.845 175.74ZM746.953 137.497L775.862 155.826L776.815 154.323L747.906 135.993L746.953 137.497ZM777.075 154.575L754.446 121.237L752.973 122.237L775.602 155.575L777.075 154.575ZM715.272 122.206L747.042 137.546L747.816 135.943L716.046 120.603L715.272 122.206ZM748.165 136.245L728.33 107.044L726.857 108.044L746.693 137.245L748.165 136.245ZM681.045 110.054L715.361 122.244L715.957 120.566L681.641 108.377L681.045 110.054ZM716.395 120.905L699.572 96.1297L698.099 97.1298L714.922 121.905L716.395 120.905ZM645.542 99.7889L635.197 84.5301L633.723 85.529L644.068 100.788L645.542 99.7889ZM644.594 101.153L681.132 110.08L681.554 108.351L645.016 99.4238L644.594 101.153ZM682.079 108.715L668.422 88.6022L666.95 89.6022L680.607 109.715L682.079 108.715ZM606.27 95.5942L644.677 101.169L644.933 99.4075L606.526 93.8324L606.27 95.5942ZM566.455 93.4275L606.349 95.6021L606.446 93.8245L566.551 91.6499L566.455 93.4275ZM607.135 94.214L600.186 83.9581L598.712 84.9567L605.661 95.2126L607.135 94.214ZM562.27 87.8871L565.766 93.0386L567.239 92.0388L563.742 86.8872L562.27 87.8871ZM566.476 91.649L525.469 92.8999L525.523 94.6793L566.53 93.4284L566.476 91.649ZM525.646 94.667L563.156 88.2646L562.856 86.5097L525.346 92.9122L525.646 94.667ZM563.628 86.7508L558.677 81.9093L557.433 83.1821L562.384 88.0236L563.628 86.7508ZM563.077 88.2744L599.52 85.3447L599.378 83.5702L562.935 86.4999L563.077 88.2744ZM600.071 83.8209L590.214 74.1853L588.97 75.4583L598.827 85.0939L600.071 83.8209ZM599.434 85.3474L634.445 85.9195L634.475 84.1395L599.463 83.5674L599.434 85.3474ZM635.082 84.3929L620.409 70.0574L619.165 71.3308L633.838 85.6662L635.082 84.3929ZM634.352 85.913L667.578 89.9857L667.794 88.2187L634.568 84.146L634.352 85.913ZM668.308 88.4657L648.971 69.5668L647.727 70.84L667.064 89.7388L668.308 88.4657ZM667.477 89.9674L698.626 97.4949L699.044 95.7645L667.895 88.237L667.477 89.9674ZM699.457 95.9931L675.635 72.7146L674.391 73.9879L698.213 97.2664L699.457 95.9931ZM698.519 97.4619L727.278 108.377L727.909 106.712L699.151 95.7975L698.519 97.4619ZM728.216 106.908L700.148 79.4704L698.904 80.7434L726.971 108.181L728.216 106.908ZM727.169 108.326L753.284 122.519L754.134 120.955L728.019 106.762L727.169 108.326ZM754.331 121.101L722.676 90.1701L721.432 91.4434L753.087 122.374L754.331 121.101ZM722.676 90.1701L722.267 89.7706L721.023 91.0439L721.432 91.4434L722.676 90.1701ZM753.176 122.45L776.357 139.789L777.423 138.364L754.242 121.025L753.176 122.45ZM777.512 138.44L741.778 103.517L740.534 104.79L776.268 139.713L777.512 138.44ZM776.257 139.702L796.309 160.015L797.576 158.765L777.524 138.451L776.257 139.702ZM741.666 103.424L722.564 90.0771L721.544 91.5364L740.646 104.883L741.666 103.424ZM722.564 90.0771L721.666 89.4502L720.647 90.9094L721.544 91.5364L722.564 90.0771ZM721.666 89.4502L696.823 72.0916L695.803 73.5509L720.647 90.9095L721.666 89.4502ZM699.15 80.9138L720.781 90.9867L721.532 89.3729L699.902 79.3L699.15 80.9138ZM720.781 90.9867L721.269 91.2142L722.021 89.6004L721.532 89.3729L720.781 90.9867ZM674.777 74.2094L699.289 80.965L699.762 79.2488L675.25 72.4931L674.777 74.2094ZM700.036 79.3772L664.801 54.7612L663.781 56.2205L699.016 80.8366L700.036 79.3772ZM648.245 71.0874L674.909 74.2352L675.117 72.4673L648.453 69.3194L648.245 71.0874ZM675.523 72.6216L645.628 51.7345L644.608 53.1938L674.503 74.0809L675.523 72.6216ZM619.803 71.5841L648.364 71.0934L648.334 69.3134L619.772 69.8041L619.803 71.5841ZM648.859 69.4738L624.592 52.5173L623.572 53.9765L647.839 70.9331L648.859 69.4738ZM589.713 75.7037L619.908 71.576L619.667 69.8122L589.471 73.9399L589.713 75.7037ZM620.297 69.9644L601.886 57.1033L600.867 58.5627L619.278 71.4238L620.297 69.9644ZM558.267 83.4103L589.804 75.6863L589.38 73.9572L557.843 81.6812L558.267 83.4103ZM590.101 74.0917L577.714 65.4521L576.695 66.9123L589.083 75.5518L590.101 74.0917ZM525.786 94.631L558.346 83.3871L557.764 81.7044L525.205 92.9482L525.786 94.631ZM551.337 78.9307L557.545 83.275L558.565 81.8165L552.358 77.4722L551.337 78.9307ZM525.949 94.5557L552.301 78.9676L551.394 77.4354L525.043 93.0235L525.949 94.5557ZM552.25 77.4075L544.998 73.7321L544.193 75.32L551.445 78.9954L552.25 77.4075ZM552.229 79.0058L577.586 66.9866L576.823 65.3779L551.466 77.3971L552.229 79.0058ZM577.608 65.3887L563.197 58.0644L562.391 59.6515L576.801 66.9757L577.608 65.3887ZM577.495 67.0236L601.667 58.6743L601.086 56.9917L576.914 65.3409L577.495 67.0236ZM601.779 57.0392L580.315 46.1469L579.509 47.7344L600.974 58.6267L601.779 57.0392ZM601.553 58.7055L624.258 54.1194L623.906 52.3744L601.2 56.9605L601.553 58.7055ZM624.485 52.4532L596.199 38.0931L595.393 39.6805L623.679 54.0406L624.485 52.4532ZM624.115 54.1364L645.151 53.3536L645.085 51.5746L624.049 52.3574L624.115 54.1364ZM645.521 51.6705L610.69 33.9801L609.883 35.5673L644.715 53.2577L645.521 51.6705ZM644.979 53.3433L664.152 56.3701L664.43 54.6116L645.257 51.5849L644.979 53.3433ZM664.694 54.6972L623.635 33.8492L622.829 35.4365L663.888 56.2845L664.694 54.6972ZM663.962 56.3179L681.073 63.1282L681.732 61.4741L664.62 54.6638L663.962 56.3179ZM680.889 63.0285L695.8 73.5485L696.826 72.0939L681.916 61.5738L680.889 63.0285ZM610.296 35.6638L623.241 35.5329L623.223 33.7528L610.278 33.8836L610.296 35.6638ZM623.533 33.8053L578.243 17.5229L577.641 19.1982L622.931 35.4805L623.533 33.8053ZM596.039 39.7431L610.53 35.63L610.043 33.9174L595.553 38.0305L596.039 39.7431ZM610.588 33.936L572.142 20.1229L571.541 21.7982L609.986 35.6114L610.588 33.936ZM580.315 47.7345L596.199 39.6807L595.394 38.0929L579.509 46.1467L580.315 47.7345ZM596.097 38.0491L564.895 26.8351L564.293 28.5104L595.495 39.7244L596.097 38.0491ZM563.302 59.5885L580.421 47.6711L579.403 46.2101L562.285 58.1274L563.302 59.5885ZM580.213 46.103L556.557 37.5948L555.955 39.27L579.611 47.7782L580.213 46.103ZM544.896 73.6885L536.909 70.8157L536.307 72.4908L544.294 75.3636L544.896 73.6885ZM545.176 75.2006L563.375 59.5325L562.213 58.1834L544.015 73.8515L545.176 75.2006ZM537.386 72.0856L547.674 53.5731L546.118 52.7084L535.83 71.2209L537.386 72.0856ZM563.095 58.0204L547.197 52.3032L546.595 53.9784L562.493 59.6955L563.095 58.0204ZM526.291 94.1889L537.404 72.0526L535.813 71.2539L524.7 93.3903L526.291 94.1889ZM526.128 94.4163L545.227 75.1528L543.963 73.8993L524.864 93.1629L526.128 94.4163ZM526.381 93.888L529.059 69.7951L527.29 69.5984L524.611 93.6912L526.381 93.888ZM527.973 70.5638L536.407 72.5203L536.809 70.7862L528.376 68.8297L527.973 70.5638ZM529.061 69.7803L530.99 49.3329L529.218 49.1657L527.288 69.6131L529.061 69.7803ZM547.097 52.2736L530.305 48.3822L529.903 50.1164L546.695 54.0079L547.097 52.2736ZM547.647 53.6186L557.007 38.9103L555.505 37.9545L546.145 52.6629L547.647 53.6186ZM556.457 37.5653L531.472 31.7752L531.07 33.5095L556.055 39.2995L556.457 37.5653ZM556.96 38.9776L565.297 28.218L563.89 27.1275L555.552 37.8872L556.96 38.9776ZM564.795 26.8057L531.876 19.1681L531.473 20.9022L564.393 28.5398L564.795 26.8057ZM565.199 28.3258L572.446 21.6136L571.237 20.3075L563.989 27.0197L565.199 28.3258ZM572.043 20.0935L531.505 10.6845L531.102 12.4186L571.64 21.8276L572.043 20.0935ZM572.19 21.7794L578.291 19.1794L577.593 17.5417L571.492 20.1417L572.19 21.7794ZM578.143 17.4935L530.341 6.40932L529.939 8.14353L577.741 19.2277L578.143 17.4935ZM577.674 19.2093L582.545 20.7491L583.081 19.0517L578.21 17.5118L577.674 19.2093ZM532.162 11.3179L530.999 7.04274L529.281 7.51011L530.445 11.7852L532.162 11.3179ZM530.24 6.39193L481.795 0.922344L481.595 2.69133L530.04 8.16092L530.24 6.39193ZM532.564 19.9962L532.193 11.5126L530.414 11.5905L530.785 20.074L532.564 19.9962ZM531.403 10.6671L490.295 6.02801L490.095 7.797L531.204 12.436L531.403 10.6671ZM532.161 32.6708L532.564 20.0636L530.785 20.0067L530.382 32.6139L532.161 32.6708ZM531.774 19.1506L498.4 15.3856L498.2 17.1546L531.575 20.9196L531.774 19.1506ZM530.992 49.3117L532.159 32.7047L530.383 32.5799L529.216 49.1869L530.992 49.3117ZM531.371 31.7578L506.056 28.9005L505.856 30.6695L531.172 33.5268L531.371 31.7578ZM528.274 68.8122L519.727 67.848L519.528 69.617L528.075 70.5812L528.274 68.8122ZM530.204 48.3648L513.2 46.4426L513 48.2116L530.004 50.1338L530.204 48.3648ZM526.363 93.5866L520.494 68.5295L518.761 68.9355L524.629 93.9926L526.363 93.5866ZM519.621 67.8424L511.286 67.9059L511.299 69.686L519.634 69.6226L519.621 67.8424ZM520.479 68.4728L513.951 47.0674L512.248 47.5867L518.776 68.9921L520.479 68.4728ZM513.093 46.437L496.493 46.5652L496.507 48.3454L513.107 48.2172L513.093 46.437ZM513.924 46.9914L506.78 29.4493L505.131 30.1207L512.275 47.6628L513.924 46.9914ZM505.949 28.8949L481.261 29.0852L481.275 30.8654L505.963 30.6751L505.949 28.8949ZM506.73 29.3463L499.075 15.8314L497.526 16.7088L505.181 30.2237L506.73 29.3463ZM498.293 15.38L465.746 15.6293L465.759 17.4095L498.307 17.1602L498.293 15.38ZM498.973 15.6873L490.868 6.32973L489.522 7.49527L497.627 16.8529L498.973 15.6873ZM490.188 6.02242L450.081 6.33239L450.095 8.11256L490.202 7.80259L490.188 6.02242ZM490.653 6.14946L482.153 1.0438L481.236 2.56987L489.736 7.67554L490.653 6.14946ZM481.688 0.916751L434.427 1.27998L434.44 3.06015L481.702 2.69692L481.688 0.916751ZM481.776 0.920445L472.979 0.11361L472.817 1.88639L481.614 2.69323L481.776 0.920445ZM472.891 0.109915L418.933 0.523736L418.947 2.30391L472.905 1.89008L472.891 0.109915ZM434.477 1.28101L418.984 0.524768L418.897 2.30287L434.39 3.05911L434.477 1.28101ZM418.817 0.532266L368.31 7.58622L368.556 9.34933L419.063 2.29538L418.817 0.532266ZM450.362 6.37539L434.707 1.32297L434.16 3.01715L449.815 8.06956L450.362 6.37539ZM434.31 1.28851L390.082 7.46537L390.329 9.22848L434.557 3.05162L434.31 1.28851ZM466.207 15.7539L450.543 6.45703L449.634 7.98792L465.298 17.2848L466.207 15.7539ZM449.965 6.34092L412.428 11.5841L412.674 13.3472L450.211 8.10403L449.965 6.34092ZM481.851 29.3028L466.336 15.8469L465.169 17.1918L480.685 30.6477L481.851 29.3028ZM465.63 15.6378L435.16 19.8925L435.407 21.6556L465.876 17.401L465.63 15.6378ZM497.171 46.8705L481.939 29.3905L480.597 30.5601L495.829 48.0401L497.171 46.8705ZM481.145 29.0937L458.036 32.321L458.282 34.0841L481.391 30.8568L481.145 29.0937ZM512.024 68.2889L497.232 46.9482L495.769 47.9624L510.561 69.303L512.024 68.2889ZM496.377 46.5738L480.851 48.7418L481.097 50.5049L496.623 48.3369L496.377 46.5738ZM526.27 93.3498L512.066 68.3562L510.519 69.2357L524.722 94.2294L526.27 93.3498ZM503.609 70.7669L511.416 69.6775L511.169 67.9144L503.363 69.0037L503.609 70.7669ZM526.151 93.1867L504.141 69.2824L502.832 70.4882L524.841 94.3925L526.151 93.1867ZM503.232 69.0322L496.265 71.1066L496.772 72.8129L503.74 70.7384L503.232 69.0322ZM504.082 69.2237L481.57 48.9617L480.379 50.2849L502.891 70.5469L504.082 69.2237ZM496.987 71.2028L467.556 52.9963L466.619 54.5103L496.05 72.7167L496.987 71.2028ZM480.72 48.7702L466.834 52.9001L467.341 54.6065L481.228 50.4765L480.72 48.7702ZM481.494 48.9009L458.679 32.4801L457.639 33.925L480.454 50.3458L481.494 48.9009ZM457.905 32.3494L437.25 38.4933L437.758 40.1996L458.413 34.0557L457.905 32.3494ZM458.584 32.4204L435.708 19.992L434.859 21.5562L457.734 33.9847L458.584 32.4204ZM435.03 19.9209L407.806 28.02L408.314 29.7263L435.537 21.6272L435.03 19.9209ZM435.589 19.9381L412.857 11.6296L412.246 13.3016L434.978 21.6101L435.589 19.9381ZM412.297 11.6125L378.771 21.5855L379.278 23.2918L412.805 13.3188L412.297 11.6125ZM412.712 11.5903L390.367 7.47156L390.044 9.22229L412.39 13.341L412.712 11.5903ZM390.2 7.45682L368.428 7.57768L368.438 9.35788L390.21 9.23702L390.2 7.45682ZM368.179 7.61462L323.045 21.0416L323.552 22.7479L368.687 9.32094L368.179 7.61462ZM368.252 7.59625L347.281 11.9502L347.643 13.6933L368.614 9.3393L368.252 7.59625ZM347.208 11.9686L296.901 26.9325L297.409 28.6388L347.716 13.6749L347.208 11.9686ZM296.822 26.9601L272.166 36.8988L272.832 38.5499L297.488 28.6112L296.822 26.9601ZM272.096 36.9305L225.788 60.4231L226.593 62.0107L272.902 38.5181L272.096 36.9305ZM323.103 21.0264L296.96 26.9173L297.351 28.654L323.494 22.7631L323.103 21.0264ZM296.753 26.9918L254.391 48.48L255.196 50.0677L297.558 28.5795L296.753 26.9918ZM350.617 19.2175L323.24 21.0066L323.356 22.783L350.733 20.9939L350.617 19.2175ZM322.896 21.101L284.896 40.3772L285.702 41.9649L323.701 22.6886L322.896 21.101ZM379.097 21.5515L350.748 19.2186L350.602 20.9928L378.951 23.3258L379.097 21.5515ZM350.272 19.312L317.004 36.1928L317.809 37.7803L351.078 20.8995L350.272 19.312ZM408.252 28.0041L379.217 21.5696L378.832 23.3077L407.867 29.7422L408.252 28.0041ZM378.622 21.6448L350.386 35.9691L351.191 37.5567L379.427 23.2324L378.622 21.6448ZM437.802 38.5078L408.358 28.0345L407.761 29.7118L437.205 40.1851L437.802 38.5078ZM407.657 28.0793L384.726 39.7099L385.531 41.2976L408.462 29.667L407.657 28.0793ZM467.477 52.953L437.893 38.5462L437.114 40.1467L466.698 54.5535L467.477 52.953ZM437.101 38.5527L419.715 47.3729L420.521 48.9605L437.906 40.1402L437.101 38.5527ZM496.116 71.1658L490.235 74.1459L491.04 75.7339L496.921 72.7537L496.116 71.1658ZM490.991 74.1231L455.761 58.8641L455.053 60.4976L490.284 75.7567L490.991 74.1231ZM466.685 52.9595L455.004 58.8871L455.81 60.4746L467.49 54.547L466.685 52.9595ZM525.919 93.0066L491.061 74.1569L490.214 75.7228L525.073 94.5726L525.919 93.0066ZM526.031 93.0787L497.054 71.2488L495.983 72.6707L524.96 94.5005L526.031 93.0787ZM525.814 92.9583L486.419 77.8743L485.782 79.5368L525.178 94.6209L525.814 92.9583ZM486.669 79.3904L491.206 75.6248L490.069 74.255L485.532 78.0206L486.669 79.3904ZM486.349 77.8506L446.593 66.33L446.098 68.0399L485.853 79.5605L486.349 77.8506ZM454.839 58.9953L445.778 66.4994L446.913 67.8705L455.975 60.3664L454.839 58.9953ZM455.683 58.8346L420.394 47.3205L419.842 49.0129L455.131 60.527L455.683 58.8346ZM419.55 47.4814L406.088 58.6419L407.224 60.0124L420.686 48.8519L419.55 47.4814ZM420.309 47.2972L385.319 39.6342L384.938 41.3732L419.928 49.0362L420.309 47.2972ZM384.561 39.8185L366.818 54.5296L367.954 55.9001L385.697 41.189L384.561 39.8185ZM385.225 39.6189L350.885 35.8781L350.692 37.6478L385.032 41.3886L385.225 39.6189ZM350.221 36.0776L328.346 54.2045L329.482 55.5752L351.357 37.4483L350.221 36.0776ZM350.783 35.8728L317.4 36.0965L317.412 37.8766L350.795 37.653L350.783 35.8728ZM316.838 36.3012L291.059 57.6646L292.195 59.0354L317.974 37.6719L316.838 36.3012ZM317.291 36.1039L285.184 40.2884L285.414 42.0537L317.521 37.8692L317.291 36.1039ZM284.731 40.4857L255.304 64.8774L256.44 66.248L285.867 41.8563L284.731 40.4857ZM285.071 40.3108L254.565 48.4136L255.022 50.1341L285.528 42.0313L285.071 40.3108ZM254.225 48.5886L221.438 75.7747L222.574 77.1451L255.361 49.959L254.225 48.5886ZM254.45 48.4525L225.848 60.3955L226.533 62.0383L255.136 50.0952L254.45 48.4525ZM225.622 60.5316L189.758 90.2543L190.894 91.625L226.758 61.9023L225.622 60.5316ZM225.737 60.4511L199.279 76.1212L200.186 77.6529L226.644 61.9828L225.737 60.4511ZM199.164 76.2018L160.603 108.171L161.739 109.541L200.3 77.5723L199.164 76.2018ZM134.166 129.423L110.835 153.674L112.118 154.908L135.449 130.657L134.166 129.423ZM110.744 153.786L82.0371 195.389L83.5023 196.4L112.209 154.797L110.744 153.786ZM160.613 108.162L134.25 129.346L135.365 130.734L161.729 109.55L160.613 108.162ZM134.075 129.534L106.663 169.251L108.129 170.262L135.54 130.546L134.075 129.534ZM189.86 90.1813L160.705 108.098L161.637 109.615L190.792 91.698L189.86 90.1813ZM160.438 108.351L134.6 145.793L136.066 146.804L161.904 109.362L160.438 108.351ZM221.636 75.6503L189.956 90.1301L190.696 91.7492L222.376 77.2694L221.636 75.6503ZM189.593 90.4342L165.578 125.243L167.043 126.254L191.058 91.4452L189.593 90.4342ZM255.6 64.7154L221.734 75.6125L222.279 77.3072L256.145 66.41L255.6 64.7154ZM221.274 75.9542L199.295 107.797L200.76 108.808L222.739 76.9655L221.274 75.9542ZM291.451 57.4775L255.696 64.6902L256.048 66.4352L291.803 59.2225L291.451 57.4775ZM255.14 65.0573L235.433 93.6237L236.898 94.6346L256.605 66.0682L255.14 65.0573ZM328.831 54.0036L291.545 57.4637L291.709 59.2363L328.996 55.7762L328.831 54.0036ZM290.894 57.8445L273.634 82.8625L275.099 83.8735L292.36 58.8555L290.894 57.8445ZM367.394 54.3248L328.921 53.9998L328.906 55.7799L367.379 56.1049L367.394 54.3248ZM328.181 54.3846L313.545 75.6107L315.011 76.6212L329.646 55.3951L328.181 54.3846ZM406.749 58.4419L367.479 54.3296L367.293 56.1001L406.564 60.2124L406.749 58.4419ZM366.653 54.7093L354.761 71.9428L356.226 72.9539L368.119 55.7204L366.653 54.7093ZM446.518 66.3118L406.829 58.454L406.484 60.2003L446.173 68.0581L446.518 66.3118ZM405.924 58.8214L396.898 71.8938L398.363 72.9053L407.389 59.8329L405.924 58.8214ZM485.368 78.2003L482.324 82.615L483.79 83.6255L486.834 79.2108L485.368 78.2003ZM483.204 82.2423L440.43 75.0923L440.137 76.8481L482.91 83.9982L483.204 82.2423ZM445.613 66.6795L439.551 75.4647L441.016 76.4757L447.078 67.6905L445.613 66.6795ZM525.713 92.9264L483.274 82.257L482.84 83.9835L525.279 94.6528L525.713 92.9264ZM482.483 88.2584L483.911 83.3699L482.202 82.8706L480.774 87.7591L482.483 88.2584ZM439.429 75.7214L436.597 85.4491L438.307 85.9467L441.138 76.219L439.429 75.7214ZM440.358 75.0832L397.705 71.5125L397.556 73.2865L440.209 76.8572L440.358 75.0832ZM396.776 72.1506L392.558 86.6292L394.267 87.1271L398.485 72.6485L396.776 72.1506ZM397.629 71.5094L355.492 71.5582L355.494 73.3385L397.631 73.2896L397.629 71.5094ZM354.639 72.1986L349.059 91.289L350.767 91.7885L356.348 72.6981L354.639 72.1986ZM355.414 71.5617L314.199 75.2294L314.357 77.0026L355.572 73.335L355.414 71.5617ZM313.424 75.8662L306.549 99.3816L308.258 99.8811L315.132 76.3657L313.424 75.8662ZM314.119 75.2402L274.207 82.4922L274.525 84.2438L314.437 76.9917L314.119 75.2402ZM273.512 83.1185L265.419 110.829L267.128 111.329L275.221 83.6175L273.512 83.1185ZM274.125 82.5112L235.924 93.2724L236.407 94.9859L274.608 84.2248L274.125 82.5112ZM235.311 93.8796L226.07 125.525L227.779 126.024L237.02 94.3787L235.311 93.8796ZM235.841 93.3005L199.702 107.474L200.352 109.131L236.491 94.9578L235.841 93.3005ZM199.173 108.053L188.861 143.327L190.57 143.826L200.882 108.552L199.173 108.053ZM199.618 107.512L165.901 124.958L166.719 126.539L200.436 109.093L199.618 107.512ZM165.456 125.499L154.197 164.057L155.906 164.556L167.165 125.998L165.456 125.499ZM165.818 125.007L134.841 145.556L135.825 147.04L166.802 126.49L165.818 125.007ZM134.479 146.048L122.356 187.527L124.065 188.026L136.187 146.548L134.479 146.048ZM134.761 145.616L106.824 169.075L107.968 170.438L135.905 146.98L134.761 145.616ZM106.542 169.507L93.6911 213.498L95.3999 213.997L108.25 170.006L106.542 169.507ZM106.748 169.146L82.1219 195.284L83.4176 196.505L108.044 170.367L106.748 169.146ZM81.9153 195.645L68.4549 241.73L70.1637 242.229L83.6241 196.144L81.9153 195.645ZM82.0535 195.366L60.9739 223.933L62.4063 224.99L83.4859 196.423L82.0535 195.366ZM60.8357 224.212L46.8905 271.945L48.5993 272.444L62.5445 224.711L60.8357 224.212ZM60.9148 224.024L43.5844 254.752L45.135 255.627L62.4654 224.899L60.9148 224.024ZM43.5053 254.94L29.2137 303.861L30.9225 304.361L45.2141 255.439L43.5053 254.94ZM43.5367 254.85L30.1185 287.425L31.7645 288.103L45.1828 255.528L43.5367 254.85ZM30.0831 287.528L20.715 321.651L22.4317 322.123L31.7998 288L30.0831 287.528ZM0.94904 406.855L0.110138 442.345L1.88986 442.387L2.72876 406.897L0.94904 406.855ZM0.110878 442.408L2.55489 494.217L4.33313 494.134L1.88912 442.324L0.110878 442.408ZM6.1202 371.637L0.958259 406.746L2.71955 407.005L7.88148 371.896L6.1202 371.637ZM0.94978 406.918L3.42865 459.479L5.20689 459.396L2.72803 406.834L0.94978 406.918ZM15.5821 337.164L6.14252 371.531L7.85916 372.002L17.2988 337.635L15.5821 337.164ZM6.11172 371.808L8.60397 424.632L10.3822 424.548L7.88996 371.725L6.11172 371.808ZM29.2444 303.774L15.6167 337.062L17.2642 337.737L30.8919 304.448L29.2444 303.774ZM15.5513 337.441L18.0302 390.003L19.8084 389.919L17.3296 337.357L15.5513 337.441ZM46.9663 271.763L29.2895 303.68L30.8468 304.542L48.5236 272.626L46.9663 271.763ZM29.179 304.153L31.6195 355.946L33.3978 355.862L30.9573 304.069L29.179 304.153ZM68.4202 242.022L70.7185 290.812L72.4968 290.728L70.1984 241.938L68.4202 242.022ZM68.5848 241.463L47.0204 271.677L48.4694 272.712L70.0338 242.497L68.5848 241.463ZM46.8558 272.236L49.2417 322.788L51.0199 322.704L48.634 272.153L46.8558 272.236ZM93.6564 213.79L95.8539 260.377L97.6321 260.293L95.4347 213.706L93.6564 213.79ZM93.8819 213.155L68.6457 241.387L69.9729 242.573L95.2092 214.341L93.8819 213.155ZM96.0567 259.768L70.9214 290.203L72.294 291.337L97.4293 260.902L96.0567 259.768ZM122.322 187.818L124.398 231.734L126.176 231.649L124.1 187.734L122.322 187.818ZM122.613 187.117L93.9479 213.088L95.1432 214.408L123.808 188.436L122.613 187.117ZM124.656 231.063L96.1125 259.707L97.3735 260.963L125.917 232.32L124.656 231.063ZM154.523 163.59L122.683 187.06L123.739 188.493L155.579 165.023L154.523 163.59ZM189.259 142.812L154.594 163.543L155.508 165.07L190.172 144.34L189.259 142.812ZM190.969 180.196L156.457 204.409L157.48 205.866L191.991 181.653L190.969 180.196ZM154.162 164.348L156.079 205.179L157.858 205.096L155.94 164.265L154.162 164.348ZM226.54 124.971L189.331 142.773L190.1 144.379L227.308 126.577L226.54 124.971ZM228.048 158.514L191.031 180.156L191.929 181.693L228.947 160.051L228.048 158.514ZM188.826 143.618L190.591 180.967L192.369 180.883L190.605 143.534L188.826 143.618ZM265.962 110.245L226.613 124.941L227.236 126.608L266.585 111.913L265.962 110.245ZM267.273 139.622L228.111 158.481L228.884 160.085L268.046 141.226L267.273 139.622ZM226.035 125.816L227.608 159.325L229.387 159.241L227.813 125.733L226.035 125.816ZM307.165 98.7738L266.035 110.222L266.512 111.937L307.642 100.489L307.165 98.7738ZM265.384 111.121L266.77 140.466L268.549 140.382L267.162 111.037L265.384 111.121ZM349.747 90.6644L307.237 98.7569L307.57 100.506L350.08 92.4132L349.747 90.6644ZM306.514 99.6733L307.69 124.571L309.469 124.487L308.293 99.5893L306.514 99.6733ZM393.317 85.9931L349.818 90.6537L350.008 92.4238L393.507 87.7632L393.317 85.9931ZM349.024 91.5806L349.976 111.793L351.754 111.709L350.802 91.4969L349.024 91.5806ZM437.428 84.8081L393.388 85.9884L393.436 87.768L437.476 86.5877L437.428 84.8081ZM392.523 86.9201L393.246 102.252L395.024 102.168L394.301 86.8362L392.523 86.9201ZM481.675 87.1199L437.498 84.809L437.405 86.5868L481.582 88.8976L481.675 87.1199ZM436.563 85.7394L437.044 96.0446L438.823 95.9615L438.341 85.6563L436.563 85.7394ZM525.612 92.9071L481.745 87.1263L481.512 88.8912L525.38 94.6721L525.612 92.9071ZM482.755 93.1469L482.517 87.968L480.739 88.0495L480.977 93.2284L482.755 93.1469ZM525.397 92.905L483.681 97.5671L483.879 99.3363L525.595 94.6742L525.397 92.905ZM525.508 92.8996L481.878 92.2976L481.853 94.0777L525.484 94.6796L525.508 92.8996ZM484.616 98.1476L482.702 92.8835L481.029 93.4918L482.943 98.7559L484.616 98.1476ZM481.809 92.2993L437.877 95.1148L437.99 96.8914L481.923 94.0759L481.809 92.2993ZM483.613 97.5774L441.567 105.61L441.901 107.358L483.947 99.326L483.613 97.5774ZM437.097 96.3065L440.897 106.787L442.571 106.181L438.77 95.6996L437.097 96.3065ZM437.809 95.1218L394.01 101.328L394.26 103.091L438.058 96.8844L437.809 95.1218ZM393.298 102.513L398.947 118.107L400.621 117.501L394.972 101.907L393.298 102.513ZM393.944 101.34L350.673 110.882L351.057 112.62L394.327 103.079L393.944 101.34ZM350.028 112.054L357.476 132.613L359.15 132.007L351.702 111.448L350.028 112.054ZM350.608 110.899L308.322 123.677L308.837 125.381L351.122 112.603L350.608 110.899ZM307.742 124.832L316.913 150.157L318.587 149.551L309.416 124.226L307.742 124.832ZM308.257 123.699L267.337 139.594L267.982 141.253L308.902 125.359L308.257 123.699ZM266.823 140.727L277.631 170.573L279.305 169.967L268.496 140.12L266.823 140.727ZM278.002 169.511L240.383 192.604L241.315 194.121L278.934 171.028L278.002 169.511ZM227.661 159.586L240.012 193.666L241.686 193.059L229.334 158.979L227.661 159.586ZM240.33 192.639L204.716 218.181L205.753 219.627L241.368 194.086L240.33 192.639ZM190.643 181.228L204.398 219.207L206.072 218.601L192.317 180.622L190.643 181.228ZM204.664 218.221L171.448 245.979L172.589 247.345L205.805 219.587L204.664 218.221ZM156.132 205.441L171.182 246.965L172.855 246.359L157.805 204.834L156.132 205.441ZM156.397 204.455L124.715 231.009L125.859 232.374L157.54 205.82L156.397 204.455ZM171.398 246.024L140.841 275.722L142.082 276.999L172.639 247.3L171.398 246.024ZM124.45 231.995L140.624 276.664L142.298 276.058L126.124 231.388L124.45 231.995ZM95.9061 260.638L113.065 308.004L114.739 307.398L97.5799 260.032L95.9061 260.638ZM70.7708 291.073L88.7498 340.706L90.4236 340.1L72.4446 290.467L70.7708 291.073ZM70.8688 290.274L49.3919 322.249L50.8697 323.242L72.3466 291.266L70.8688 290.274ZM49.2939 323.049L67.9137 374.456L69.5875 373.85L50.9677 322.442L49.2939 323.049ZM49.3448 322.328L31.7227 355.486L33.2947 356.322L50.9168 323.163L49.3448 322.328ZM31.6718 356.207L50.7567 408.895L52.4305 408.289L33.3456 355.601L31.6718 356.207ZM31.6819 355.574L18.0926 389.631L19.7461 390.291L33.3354 356.234L31.6819 355.574ZM18.0824 390.264L37.4499 443.741L39.1237 443.135L19.7562 389.658L18.0824 390.264ZM18.0605 389.727L8.63423 424.356L10.352 424.824L19.7782 390.195L18.0605 389.727ZM8.65619 424.893L28.1149 478.616L29.7887 478.01L10.33 424.287L8.65619 424.893ZM8.61264 424.459L3.43731 459.307L5.19822 459.568L10.3735 424.721L8.61264 424.459ZM3.48087 459.741L22.8449 513.201L24.5187 512.594L5.15467 459.134L3.48087 459.741ZM3.42794 459.415L2.55418 494.153L4.33384 494.198L5.2076 459.46L3.42794 459.415ZM2.60711 494.479L21.692 547.167L23.3658 546.56L4.28091 493.872L2.60711 494.479ZM2.55833 494.264L5.99435 528.555L7.7657 528.378L4.32968 494.087L2.55833 494.264ZM6.04312 528.77L24.663 580.177L26.3368 579.571L7.71693 528.164L6.04312 528.77ZM6.01259 528.666L13.726 562.182L15.4609 561.783L7.74746 528.267L6.01259 528.666ZM13.7579 562.29L25.6723 594.711L27.3432 594.096L15.4289 561.676L13.7579 562.29ZM25.6708 594.707L31.4599 610.69L33.1337 610.083L27.3446 594.1L25.6708 594.707ZM31.4599 610.69L32.1014 612.461L33.7752 611.854L33.1337 610.083L31.4599 610.69ZM32.1014 612.461L42.8333 642.09L44.5071 641.484L33.7752 611.854L32.1014 612.461ZM42.884 642.204L57.9054 670.508L59.4778 669.673L44.4565 641.369L42.884 642.204ZM57.9552 670.591L87.6198 714.286L89.0927 713.286L59.428 669.591L57.9552 670.591ZM42.9337 642.287L74.3987 688.647L75.8717 687.647L44.4067 641.287L42.9337 642.287ZM24.631 580.067L31.428 610.58L33.1656 610.193L26.3687 579.68L24.631 580.067ZM31.428 610.58L31.7019 611.809L33.4395 611.422L33.1656 610.193L31.428 610.58ZM31.8342 612.116L32.2019 612.657L33.6748 611.658L33.3072 611.116L31.8342 612.116ZM32.2019 612.657L64.7935 660.675L66.2665 659.675L33.6748 611.658L32.2019 612.657ZM21.6424 546.943L24.6133 579.954L26.3864 579.794L23.4155 546.784L21.6424 546.943ZM24.7634 580.374L58.904 630.666L60.3769 629.666L26.2363 579.374L24.7634 580.374ZM22.7922 512.867L21.6393 546.833L23.4185 546.894L24.5714 512.928L22.7922 512.867ZM21.7925 547.363L56.7828 598.91L58.2557 597.91L23.2654 546.364L21.7925 547.363ZM28.0719 478.179L22.8018 512.763L24.5617 513.032L29.8318 478.447L28.0719 478.179ZM22.9453 513.397L58.4502 565.703L59.9232 564.703L24.4182 512.398L22.9453 513.397ZM37.5503 443.938L73.0553 496.243L74.5282 495.243L39.0233 442.938L37.5503 443.938ZM37.427 443.208L28.092 478.083L29.8117 478.543L39.1466 443.668L37.427 443.208ZM28.2154 478.813L63.8913 531.365L65.3642 530.366L29.6883 477.813L28.2154 478.813ZM50.8571 409.092L85.8509 460.655L87.3239 459.656L52.3301 408.092L50.8571 409.092ZM50.762 408.274L37.4553 443.12L39.1183 443.755L52.4251 408.909L50.762 408.274ZM68.0142 374.653L102.155 424.945L103.628 423.945L69.4871 373.653L68.0142 374.653ZM67.9539 373.756L50.7969 408.195L52.3903 408.989L69.5473 374.55L67.9539 373.756ZM88.8501 340.903L121.813 389.478L123.286 388.479L90.3232 339.903L88.8501 340.903ZM88.8293 339.935L67.9932 373.685L69.508 374.62L90.3441 340.87L88.8293 339.935ZM113.166 308.201L144.631 354.561L146.104 353.562L114.639 307.201L113.166 308.201ZM113.188 307.17L88.8724 339.872L90.3009 340.934L114.616 308.232L113.188 307.17ZM140.725 276.861L170.398 320.572L171.871 319.572L142.198 275.861L140.725 276.861ZM140.793 275.773L113.234 307.113L114.57 308.289L142.13 276.949L140.793 275.773ZM171.282 247.162L198.856 287.793L200.329 286.794L172.755 246.162L171.282 247.162ZM204.498 219.404L229.736 256.581L231.209 255.581L205.971 218.404L204.498 219.404ZM277.731 170.769L297.549 199.968L299.022 198.969L279.204 169.77L277.731 170.769ZM240.113 193.863L262.743 227.207L264.216 226.207L241.586 192.863L240.113 193.863ZM317.34 149.064L278.057 169.48L278.878 171.059L318.161 150.643L317.34 149.064ZM357.96 131.493L317.397 149.037L318.104 150.671L358.666 133.127L357.96 131.493ZM317.014 150.354L333.838 175.13L335.311 174.13L318.487 149.354L317.014 150.354ZM399.49 116.964L358.019 131.47L358.607 133.15L400.078 118.644L399.49 116.964ZM357.577 132.81L371.234 152.925L372.707 151.925L359.049 131.81L357.577 132.81ZM441.502 105.625L399.552 116.945L400.016 118.664L441.966 107.343L441.502 105.625ZM399.047 118.304L409.392 133.564L410.866 132.565L400.52 117.305L399.047 118.304ZM483.043 98.9517L486.54 104.103L488.013 103.103L484.516 97.9518L483.043 98.9517ZM486.99 102.761L448.396 115.897L448.97 117.583L487.564 104.446L486.99 102.761ZM440.997 106.983L447.946 117.239L449.42 116.241L442.471 105.985L440.997 106.983ZM525.275 92.9275L487.055 102.741L487.498 104.465L525.717 94.6517L525.275 92.9275ZM525.137 92.975L491.869 107.63L492.587 109.259L525.855 94.6042L525.137 92.975ZM492.85 107.808L487.899 102.967L486.654 104.24L491.605 109.081L492.85 107.808ZM491.809 107.659L458.122 125.59L458.958 127.161L492.646 109.23L491.809 107.659ZM448.061 117.376L457.918 127.012L459.162 125.739L449.305 116.103L448.061 117.376ZM448.336 115.92L409.782 132.245L410.476 133.884L449.03 117.56L448.336 115.92ZM409.507 133.701L424.179 148.037L425.424 146.764L410.751 132.428L409.507 133.701ZM409.726 132.271L371.567 151.631L372.373 153.219L410.531 133.859L409.726 132.271ZM371.348 153.062L390.685 171.959L391.929 170.686L372.592 151.788L371.348 153.062ZM371.516 151.66L334.12 173.865L335.029 175.396L372.425 153.19L371.516 151.66ZM333.952 175.267L357.756 198.544L359.001 197.271L335.197 173.994L333.952 175.267ZM334.072 173.896L297.783 198.734L298.788 200.203L335.077 175.365L334.072 173.896ZM297.663 200.105L325.73 227.539L326.975 226.266L298.908 198.832L297.663 200.105ZM297.737 198.768L262.931 226.006L264.028 227.408L298.834 200.17L297.737 198.768ZM262.858 227.343L294.903 258.67L296.148 257.397L264.102 226.07L262.858 227.343ZM262.888 226.042L229.881 255.416L231.065 256.746L264.072 227.372L262.888 226.042ZM229.851 256.718L265.582 291.627L266.826 290.353L231.095 255.444L229.851 256.718ZM229.84 255.455L198.959 286.668L200.225 287.92L231.106 256.707L229.84 255.455ZM198.97 287.93L238.022 326.109L239.267 324.836L200.214 286.657L198.97 287.93ZM198.92 286.71L170.462 319.489L171.807 320.656L200.264 287.877L198.92 286.71ZM170.512 320.709L212.521 361.755L213.765 360.482L171.757 319.436L170.512 320.709ZM170.425 319.534L144.658 353.524L146.076 354.599L171.844 320.61L170.425 319.534ZM144.745 354.698L189.312 398.253L190.556 396.98L145.989 353.425L144.745 354.698ZM144.622 353.575L121.804 388.492L123.295 389.465L146.112 354.548L144.622 353.575ZM121.927 389.615L168.605 435.241L169.849 433.968L123.172 388.342L121.927 389.615ZM121.771 388.547L102.113 424.013L103.67 424.876L123.328 389.41L121.771 388.547ZM102.269 425.081L150.617 472.34L151.862 471.067L103.513 423.808L102.269 425.081ZM102.082 424.075L85.7777 459.786L87.3971 460.525L103.701 424.814L102.082 424.075ZM85.9652 460.792L135.521 509.232L136.765 507.959L87.2096 459.519L85.9652 460.792ZM85.7498 459.854L72.9541 495.442L74.6294 496.045L87.425 460.457L85.7498 459.854ZM73.1696 496.38L123.449 545.518L124.694 544.245L74.4139 495.107L73.1696 496.38ZM72.9305 495.519L63.7664 530.641L65.489 531.09L74.653 495.968L72.9305 495.519ZM64.0055 531.502L114.531 580.889L115.775 579.616L65.2499 530.229L64.0055 531.502ZM63.7486 530.726L58.3076 565.064L60.0658 565.342L65.5069 531.005L63.7486 530.726ZM58.5645 565.84L108.85 614.994L110.094 613.721L59.8089 564.566L58.5645 565.84ZM58.2977 565.158L56.6303 598.365L58.4082 598.455L60.0757 565.248L58.2977 565.158ZM56.8971 599.047L106.452 647.487L107.697 646.214L58.1415 597.773L56.8971 599.047ZM56.6311 598.469L58.7523 630.225L60.5286 630.107L58.4074 598.351L56.6311 598.469ZM59.0183 630.802L107.368 678.061L108.613 676.788L60.2626 629.529L59.0183 630.802ZM58.767 630.337L64.6565 660.346L66.4034 660.003L60.5139 629.995L58.767 630.337ZM64.9078 660.811L111.589 706.437L112.833 705.164L66.1521 659.538L64.9078 660.811ZM64.6881 660.464L74.2934 688.436L75.9771 687.858L66.3718 659.886L64.6881 660.464ZM74.5131 688.784L119.07 732.323L120.314 731.05L75.7573 687.51L74.5131 688.784ZM74.3441 688.555L87.5651 714.194L89.1474 713.378L75.9264 687.739L74.3441 688.555ZM87.734 714.423L129.744 755.487L130.989 754.213L88.9784 713.15L87.734 714.423ZM87.6351 714.308L104.35 737.409L105.793 736.366L89.0774 713.264L87.6351 714.308ZM104.438 737.513L124.485 757.827L125.752 756.577L105.705 736.262L104.438 737.513ZM124.496 757.838L160.224 792.766L161.469 791.493L125.741 756.565L124.496 757.838ZM160.337 792.859L205.189 824.177L206.209 822.718L161.356 791.4L160.337 792.859ZM129.631 755.351L143.395 775.566L144.866 774.564L131.102 754.349L129.631 755.351ZM143.621 775.794L192.655 810.045L193.675 808.586L144.64 774.335L143.621 775.794ZM118.884 732.059L129.558 755.222L131.175 754.477L120.501 731.314L118.884 732.059ZM129.857 755.58L182.6 792.42L183.619 790.961L130.876 754.12L129.857 755.58ZM111.356 706.048L118.837 731.934L120.547 731.44L113.066 705.553L111.356 706.048ZM119.183 732.416L175.125 771.492L176.145 770.033L120.202 730.957L119.183 732.416ZM107.11 677.556L111.331 705.931L113.092 705.669L108.871 677.294L107.11 677.556ZM111.701 706.53L170.303 747.459L171.322 745.999L112.721 705.071L111.701 706.53ZM106.185 646.877L107.101 677.451L108.88 677.398L107.964 646.823L106.185 646.877ZM107.481 678.154L168.182 720.556L169.202 719.097L108.5 676.695L107.481 678.154ZM108.584 614.292L106.187 646.785L107.962 646.916L110.359 614.423L108.584 614.292ZM171.713 658.356L168.402 690.208L170.173 690.392L173.484 658.54L171.713 658.356ZM106.565 647.58L168.778 691.029L169.797 689.57L107.584 646.12L106.565 647.58ZM114.275 580.107L108.594 614.211L110.35 614.504L116.031 580.399L114.275 580.107ZM177.71 624.408L171.722 658.294L173.475 658.603L179.463 624.718L177.71 624.408ZM108.962 615.087L172.089 659.178L173.108 657.719L109.981 613.628L108.962 615.087ZM123.562 545.611L186.69 589.702L187.71 588.242L124.581 544.152L123.562 545.611ZM123.209 544.664L114.29 580.035L116.016 580.471L124.935 545.099L123.209 544.664ZM186.335 588.762L177.721 624.354L179.451 624.772L188.065 589.181L186.335 588.762ZM114.643 580.983L178.077 625.293L179.096 623.833L115.663 579.523L114.643 580.983ZM135.633 509.325L197.854 552.773L198.874 551.313L136.652 507.866L135.633 509.325ZM135.298 508.314L123.227 544.6L124.916 545.162L136.987 508.876L135.298 508.314ZM197.512 551.786L186.348 588.714L188.052 589.229L199.216 552.301L197.512 551.786ZM150.73 472.434L211.43 514.836L212.449 513.376L151.749 470.974L150.73 472.434ZM150.416 471.367L135.319 508.258L136.967 508.933L152.063 472.041L150.416 471.367ZM168.718 435.335L227.327 476.262L228.346 474.802L169.737 433.875L168.718 435.335ZM168.426 434.217L150.439 471.315L152.041 472.092L170.028 434.993L168.426 434.217ZM189.425 398.346L245.359 437.424L246.378 435.964L190.444 396.887L189.425 398.346ZM189.158 397.182L168.451 434.17L170.004 435.04L190.711 398.051L189.158 397.182ZM212.633 361.848L265.371 398.69L266.39 397.231L213.653 360.389L212.633 361.848ZM212.392 360.641L189.183 397.139L190.685 398.094L213.894 361.596L212.392 360.641ZM238.135 326.202L287.18 360.451L288.199 358.992L239.154 324.742L238.135 326.202ZM237.921 324.954L212.419 360.601L213.867 361.637L239.369 325.99L237.921 324.954ZM265.695 291.72L310.539 323.057L311.558 321.598L266.714 290.26L265.695 291.72ZM265.509 290.434L237.949 324.916L239.34 326.028L266.9 291.546L265.509 290.434ZM295.016 258.763L335.261 286.883L336.281 285.424L296.035 257.304L295.016 258.763ZM294.861 257.442L265.539 290.398L266.869 291.582L296.191 258.625L294.861 257.442ZM325.843 227.632L361.098 252.262L362.117 250.802L326.862 226.173L325.843 227.632ZM325.72 226.276L294.893 257.407L296.158 258.66L326.985 227.529L325.72 226.276ZM357.781 197.247L325.755 226.243L326.95 227.562L358.976 198.567L357.781 197.247ZM390.748 170.63L357.819 197.215L358.938 198.6L391.866 172.015L390.748 170.63ZM357.869 198.637L387.783 219.531L388.802 218.071L358.888 197.177L357.869 198.637ZM424.284 146.676L390.789 170.598L391.824 172.047L425.319 148.125L424.284 146.676ZM390.797 172.052L415.064 189.007L416.083 187.547L391.817 170.593L390.797 172.052ZM458.069 125.62L424.331 146.645L425.272 148.156L459.011 127.131L458.069 125.62ZM424.292 148.13L442.703 160.991L443.722 159.532L425.311 146.671L424.292 148.13ZM491.717 109.174L497.925 113.518L498.946 112.06L492.738 107.715L491.717 109.174ZM458.031 127.106L470.419 135.747L471.437 134.287L459.049 125.646L458.031 127.106ZM524.984 93.0611L497.924 112.06L498.947 113.517L526.007 94.5181L524.984 93.0611ZM498.033 113.583L505.285 117.26L506.09 115.672L498.838 111.995L498.033 113.583ZM497.876 112.097L470.368 134.324L471.487 135.709L498.995 113.481L497.876 112.097ZM470.525 135.81L484.935 143.133L485.741 141.546L471.331 134.223L470.525 135.81ZM470.328 134.359L442.613 159.603L443.812 160.919L471.527 135.675L470.328 134.359ZM442.809 161.055L464.257 171.951L465.063 170.364L443.615 159.468L442.809 161.055ZM442.579 159.636L414.94 187.652L416.207 188.902L443.846 160.886L442.579 159.636ZM415.17 189.071L443.457 203.434L444.263 201.847L415.976 187.483L415.17 189.071ZM414.91 187.684L387.629 218.208L388.956 219.394L416.237 188.87L414.91 187.684ZM387.889 219.595L422.721 237.287L423.527 235.7L388.696 218.007L387.889 219.595ZM387.603 218.239L360.918 250.97L362.297 252.095L388.982 219.363L387.603 218.239ZM361.205 252.326L402.245 273.169L403.051 271.581L362.011 250.738L361.205 252.326ZM360.894 251L335.058 285.621L336.484 286.686L362.321 252.064L360.894 251ZM335.368 286.947L382.26 310.75L383.066 309.162L336.174 285.36L335.368 286.947ZM335.036 285.651L310.314 321.825L311.783 322.83L336.506 286.656L335.036 285.651ZM310.646 323.121L362.9 349.649L363.706 348.062L311.451 321.534L310.646 323.121ZM310.294 321.856L286.934 359.25L288.444 360.193L311.803 322.799L310.294 321.856ZM287.286 360.515L344.41 389.517L345.216 387.929L288.092 358.928L287.286 360.515ZM286.916 359.28L265.107 397.519L266.654 398.401L288.462 360.162L286.916 359.28ZM265.478 398.754L326.937 429.951L327.742 428.364L266.284 397.167L265.478 398.754ZM265.09 397.552L245.078 436.286L246.659 437.103L266.671 398.369L265.09 397.552ZM245.466 437.488L310.651 470.582L311.457 468.995L246.271 435.9L245.466 437.488ZM245.061 436.319L227.029 475.157L228.644 475.907L246.676 437.069L245.061 436.319ZM227.434 476.325L295.696 510.992L296.503 509.405L228.24 474.738L227.434 476.325ZM227.014 475.193L211.116 513.767L212.762 514.445L228.66 475.871L227.014 475.193ZM211.536 514.9L282.261 550.807L283.067 549.219L212.342 513.312L211.536 514.9ZM211.101 513.806L197.526 551.743L199.202 552.343L212.777 514.406L211.101 513.806ZM281.812 549.754L269.975 588.586L271.677 589.105L283.515 550.273L281.812 549.754ZM197.961 552.837L270.423 589.639L271.229 588.052L198.767 551.25L197.961 552.837ZM269.966 588.614L259.88 626.097L261.599 626.56L271.686 589.077L269.966 588.614ZM186.797 589.765L260.337 627.122L261.143 625.535L187.603 588.178L186.797 589.765ZM259.873 626.128L251.621 661.892L253.355 662.292L261.607 626.529L259.873 626.128ZM178.183 625.357L252.085 662.886L252.891 661.298L178.989 623.769L178.183 625.357ZM251.613 661.927L245.265 695.622L247.015 695.952L253.363 662.257L251.613 661.927ZM172.196 659.242L245.737 696.581L246.543 694.993L173.001 657.655L172.196 659.242ZM168.885 691.093L241.368 727.891L242.174 726.304L169.69 689.506L168.885 691.093ZM168.398 690.282L167.802 719.809L169.582 719.845L170.177 690.318L168.398 690.282ZM168.289 720.62L239.008 756.528L239.814 754.941L169.095 719.033L168.289 720.62ZM167.805 719.897L169.925 746.799L171.7 746.659L169.579 719.757L167.805 719.897ZM170.409 747.523L238.685 782.204L239.492 780.617L171.215 745.935L170.409 747.523ZM169.94 746.904L174.762 770.938L176.508 770.587L171.685 746.554L169.94 746.904ZM175.232 771.556L240.416 804.651L241.222 803.064L176.038 769.969L175.232 771.556ZM174.797 771.062L182.271 791.99L183.948 791.391L176.473 770.463L174.797 771.062ZM182.706 792.484L244.16 823.683L244.966 822.095L183.512 790.897L182.706 792.484ZM182.336 792.132L192.392 809.757L193.938 808.875L183.882 791.249L182.336 792.132ZM192.762 810.109L249.88 839.112L250.686 837.525L193.568 808.522L192.762 810.109ZM192.499 809.906L205.033 824.038L206.365 822.857L193.831 808.725L192.499 809.906ZM205.296 824.241L257.545 850.788L258.352 849.201L206.102 822.654L205.296 824.241ZM205.186 824.175L220.084 834.695L221.111 833.241L206.212 822.721L205.186 824.175ZM220.194 834.762L267.073 858.568L267.879 856.98L221 833.175L220.194 834.762ZM257.385 850.684L266.913 858.463L268.039 857.084L258.511 849.305L257.385 850.684ZM267.175 858.612L318.909 877.216L319.511 875.541L267.777 856.936L267.175 858.612ZM249.539 838.807L257.204 850.483L258.693 849.506L251.028 837.83L249.539 838.807ZM257.647 850.832L315.306 871.552L315.908 869.876L258.249 849.157L257.647 850.832ZM243.728 823.198L249.449 838.628L251.118 838.009L245.398 822.579L243.728 823.198ZM249.982 839.156L313.016 861.805L313.618 860.129L250.584 837.481L249.982 839.156ZM239.945 804.029L243.69 823.061L245.436 822.717L241.692 803.686L239.945 804.029ZM244.262 823.727L312.045 848.097L312.647 846.421L244.864 822.051L244.262 823.727ZM238.201 781.479L239.931 803.926L241.706 803.789L239.976 781.342L238.201 781.479ZM240.517 804.695L312.418 830.547L313.02 828.871L241.12 803.02L240.517 804.695ZM238.521 755.723L238.199 781.399L239.979 781.422L240.301 755.746L238.521 755.723ZM238.788 782.248L314.116 809.317L314.718 807.642L239.39 780.573L238.788 782.248ZM240.884 727.024L238.524 755.661L240.298 755.808L242.659 727.17L240.884 727.024ZM239.11 756.572L317.129 784.622L317.731 782.947L239.712 754.897L239.11 756.572ZM245.258 695.664L240.89 726.974L242.653 727.22L247.022 695.91L245.258 695.664ZM241.47 727.935L321.432 756.679L322.034 755.004L242.073 726.26L241.47 727.935ZM245.839 696.625L326.983 725.796L327.585 724.121L246.441 694.949L245.839 696.625ZM260.439 627.166L341.583 656.337L342.185 654.662L261.041 625.491L260.439 627.166ZM252.187 662.93L333.712 692.235L334.314 690.559L252.789 661.254L252.187 662.93ZM270.525 589.683L350.504 618.424L351.106 616.748L271.127 588.008L270.525 589.683ZM295.798 511.036L371.126 538.105L371.729 536.43L296.4 509.361L295.798 511.036ZM295.256 509.914L281.82 549.729L283.507 550.298L296.943 510.483L295.256 509.914ZM282.363 550.851L360.381 578.901L360.984 577.226L282.965 549.176L282.363 550.851ZM310.753 470.626L382.65 496.461L383.252 494.786L311.355 468.951L310.753 470.626ZM310.219 469.48L295.265 509.89L296.934 510.508L311.889 470.098L310.219 469.48ZM327.038 429.995L394.821 454.365L395.423 452.69L327.641 428.32L327.038 429.995ZM326.513 428.826L310.228 469.458L311.88 470.12L328.166 429.489L326.513 428.826ZM344.512 389.561L407.528 412.212L408.13 410.537L345.114 387.885L344.512 389.561ZM343.996 388.37L326.522 428.805L328.157 429.511L345.63 389.076L343.996 388.37ZM363.002 349.693L420.661 370.413L421.263 368.738L363.604 348.018L363.002 349.693ZM362.495 348.481L344.005 388.349L345.62 389.098L364.11 349.23L362.495 348.481ZM382.362 310.794L434.076 329.385L434.678 327.71L382.964 309.118L382.362 310.794ZM381.866 309.559L362.506 348.459L364.1 349.252L383.46 310.353L381.866 309.559ZM402.347 273.213L447.653 289.488L448.255 287.813L402.949 271.537L402.347 273.213ZM401.862 271.957L381.877 309.538L383.449 310.374L403.434 272.793L401.862 271.957ZM422.351 236.052L401.875 271.934L403.421 272.816L423.897 236.934L422.351 236.052ZM443.101 202.176L422.365 236.028L423.883 236.958L444.619 203.105L443.101 202.176ZM422.823 237.331L461.25 251.141L461.852 249.465L423.425 235.656L422.823 237.331ZM464.359 171.995L488.031 180.496L488.633 178.821L464.961 170.319L464.359 171.995ZM463.917 170.667L443.117 202.15L444.602 203.131L465.402 171.648L463.917 170.667ZM443.559 203.478L474.763 214.699L475.365 213.024L444.161 201.803L443.559 203.478ZM484.615 141.82L463.937 170.638L465.383 171.676L486.061 142.858L484.615 141.82ZM504.988 115.916L484.639 141.789L486.038 142.89L506.387 117.016L504.988 115.916ZM485.037 143.177L500.952 148.891L501.554 147.215L485.639 141.502L485.037 143.177ZM524.826 93.204L505.017 115.881L506.358 117.052L526.166 94.3752L524.826 93.204ZM513.976 118.501L505.989 115.629L505.387 117.304L513.374 120.176L513.976 118.501ZM524.688 93.4158L512.867 118.965L514.483 119.713L526.304 94.1634L524.688 93.4158ZM513.474 120.206L521.907 122.162L522.31 120.428L513.876 118.472L513.474 120.206ZM512.858 118.985L500.436 147.7L502.07 148.406L514.492 119.692L512.858 118.985ZM501.051 148.92L517.827 152.815L518.229 151.081L501.454 147.186L501.051 148.92ZM500.429 147.716L487.508 179.322L489.156 179.995L502.077 148.39L500.429 147.716ZM488.131 180.526L513.099 186.324L513.502 184.59L488.533 178.792L488.131 180.526ZM487.502 179.337L474.234 213.539L475.894 214.183L489.162 179.98L487.502 179.337ZM474.863 214.729L507.779 222.349L508.18 220.615L475.265 212.994L474.863 214.729ZM474.229 213.552L460.716 249.994L462.386 250.612L475.898 214.171L474.229 213.552ZM461.35 251.17L501.904 260.571L502.306 258.836L461.752 249.436L461.35 251.17ZM460.712 250.006L447.115 288.353L448.793 288.948L462.39 250.6L460.712 250.006ZM447.753 289.518L495.538 300.605L495.94 298.871L448.156 287.783L447.753 289.518ZM447.112 288.364L433.534 328.26L435.219 328.834L448.797 288.937L447.112 288.364ZM434.176 329.414L488.743 342.07L489.145 340.335L434.578 327.68L434.176 329.414ZM433.531 328.271L420.116 369.299L421.808 369.852L435.223 328.824L433.531 328.271ZM420.76 370.442L481.595 384.56L481.997 382.826L421.163 368.708L420.76 370.442ZM420.112 369.309L406.98 411.108L408.678 411.642L421.811 369.842L420.112 369.309ZM407.628 412.242L474.135 427.679L474.537 425.945L408.03 410.508L407.628 412.242ZM406.977 411.118L394.27 453.271L395.974 453.785L408.681 411.632L406.977 411.118ZM394.921 454.395L466.449 470.986L466.851 469.252L395.323 452.661L394.921 454.395ZM394.267 453.28L382.096 495.376L383.806 495.871L395.977 453.775L394.267 453.28ZM382.749 496.49L458.616 514.094L459.018 512.36L383.152 494.756L382.749 496.49ZM382.093 495.386L370.57 537.03L372.285 537.505L383.809 495.861L382.093 495.386ZM369.584 538.473L371.048 538.813L371.45 537.079L369.986 536.739L369.584 538.473ZM371.048 538.813L449.066 556.921L449.468 555.187L371.45 537.079L371.048 538.813ZM370.567 537.041L370.388 537.719L372.11 538.172L372.288 537.494L370.567 537.041ZM370.388 537.719L359.822 577.837L361.543 578.29L372.11 538.172L370.388 537.719ZM358.839 579.269L360.311 579.61L360.714 577.876L359.241 577.535L358.839 579.269ZM360.311 579.61L441.156 598.368L441.558 596.634L360.714 577.876L360.311 579.61ZM359.819 577.848L359.649 578.528L361.376 578.959L361.546 578.279L359.819 577.848ZM359.649 578.528L349.941 617.37L351.668 617.802L361.376 578.959L359.649 578.528ZM348.961 618.792L350.443 619.135L350.846 617.401L349.364 617.057L348.961 618.792ZM350.443 619.135L433.318 638.37L433.721 636.636L350.846 617.401L350.443 619.135ZM349.938 617.382L349.778 618.065L351.511 618.472L351.671 617.79L349.938 617.382ZM349.778 618.065L341.018 655.296L342.751 655.704L351.511 618.472L349.778 618.065ZM340.041 656.705L341.533 657.051L341.935 655.317L340.443 654.971L340.041 656.705ZM341.533 657.051L425.654 676.555L426.056 674.821L341.935 655.317L341.533 657.051ZM341.015 655.309L340.865 655.993L342.604 656.375L342.754 655.69L341.015 655.309ZM340.865 655.993L333.143 691.206L334.882 691.588L342.604 656.375L340.865 655.993ZM333.812 692.264L419.835 712.223L420.238 710.489L334.214 690.53L333.812 692.264ZM333.14 691.222L326.411 724.783L328.157 725.133L334.886 691.572L333.14 691.222ZM327.083 725.826L412.696 745.675L413.098 743.941L327.485 724.091L327.083 725.826ZM326.408 724.801L320.857 755.684L322.609 755.999L328.16 725.116L326.408 724.801ZM321.532 756.709L405.906 776.284L406.308 774.55L321.935 754.974L321.532 756.709ZM320.854 755.706L316.55 783.649L318.31 783.92L322.613 755.977L320.854 755.706ZM317.229 784.652L399.546 803.751L399.948 802.017L317.631 782.918L317.229 784.652ZM316.547 783.677L313.533 808.372L315.3 808.588L318.314 783.893L316.547 783.677ZM314.216 809.347L393.694 827.777L394.096 826.043L314.618 807.613L314.216 809.347ZM313.529 808.409L311.832 829.638L313.606 829.78L315.304 808.551L313.529 808.409ZM312.518 830.576L388.381 848.163L388.783 846.429L312.92 828.842L312.518 830.576ZM311.829 829.69L311.456 847.24L313.236 847.278L313.609 829.728L311.829 829.69ZM312.145 848.126L383.673 864.718L384.075 862.984L312.547 846.392L312.145 848.126ZM311.458 847.322L312.429 861.03L314.205 860.904L313.234 847.196L311.458 847.322ZM313.116 861.834L379.602 877.258L380.005 875.524L313.518 860.1L313.116 861.834ZM312.45 861.17L314.741 870.918L316.474 870.51L314.183 860.763L312.45 861.17ZM315.406 871.581L376.237 885.682L376.639 883.948L315.808 869.847L315.406 871.581ZM314.856 871.192L318.459 876.856L319.961 875.901L316.358 870.236L314.856 871.192ZM323.859 878.77L371.664 889.871L372.067 888.137L324.261 877.036L323.859 878.77ZM375.685 884.34L373.025 888.559L374.53 889.509L377.191 885.289L375.685 884.34ZM373.678 889.919L429.005 896.152L429.204 894.383L373.877 888.149L373.678 889.919ZM378.977 876.061L375.612 884.484L377.265 885.145L380.63 876.721L378.977 876.061ZM383.027 863.576L378.957 876.116L380.65 876.666L384.72 864.125L383.027 863.576ZM379.704 877.275L447.122 884.883L447.321 883.114L379.903 875.506L379.704 877.275ZM387.726 847.052L383.018 863.607L384.73 864.094L389.438 847.539L387.726 847.052ZM383.774 864.735L456.287 872.917L456.487 871.148L383.974 862.966L383.774 864.735ZM393.034 826.686L387.721 847.072L389.443 847.521L394.757 827.135L393.034 826.686ZM388.482 848.18L465.406 856.865L465.605 855.096L388.682 846.411L388.482 848.18ZM398.882 802.673L393.03 826.7L394.76 827.121L400.612 803.095L398.882 802.673ZM393.795 827.795L474.369 836.893L474.569 835.124L393.995 826.026L393.795 827.795ZM405.24 775.216L398.88 802.683L400.614 803.085L406.974 775.618L405.24 775.216ZM399.647 803.768L483.108 813.172L483.307 811.402L399.846 801.999L399.647 803.768ZM412.028 744.615L405.238 775.224L406.976 775.61L413.766 745.001L412.028 744.615ZM406.007 776.301L491.551 785.964L491.751 784.195L406.207 774.532L406.007 776.301ZM419.166 711.17L412.027 744.622L413.768 744.994L420.907 711.542L419.166 711.17ZM412.797 745.692L499.589 755.503L499.789 753.734L412.997 743.923L412.797 745.692ZM425.755 676.572L427.291 676.745L427.491 674.977L425.955 674.803L425.755 676.572ZM427.291 676.745L512.544 686.366L512.743 684.597L427.491 674.977L427.291 676.745ZM426.625 675.169L426.519 675.68L428.263 676.042L428.369 675.53L426.625 675.169ZM426.519 675.68L419.165 711.175L420.908 711.536L428.263 676.042L426.519 675.68ZM419.937 712.24L507.156 722.069L507.356 720.3L420.136 710.471L419.937 712.24ZM433.42 638.388L434.975 638.563L435.174 636.794L433.619 636.619L433.42 638.388ZM434.975 638.563L518.96 648.033L519.16 646.264L435.174 636.794L434.975 638.563ZM434.306 636.986L434.202 637.503L435.947 637.854L436.051 637.337L434.306 636.986ZM434.202 637.503L426.624 675.174L428.37 675.525L435.947 637.854L434.202 637.503ZM442.126 596.992L434.305 636.991L436.052 637.332L443.873 597.333L442.126 596.992ZM449.167 556.938L450.712 557.112L450.911 555.343L449.367 555.169L449.167 556.938ZM450.712 557.112L529.738 566.019L529.937 564.25L450.911 555.343L450.712 557.112ZM450.035 555.548L449.937 556.061L451.686 556.395L451.784 555.882L450.035 555.548ZM449.937 556.061L442.125 596.996L443.873 597.329L451.686 556.395L449.937 556.061ZM442.9 598.047L526.36 607.45L526.559 605.681L443.099 596.278L442.9 598.047ZM457.075 514.45L458.622 514.625L458.822 512.856L457.275 512.681L457.075 514.45ZM458.622 514.625L533.999 523.135L534.198 521.366L458.822 512.856L458.622 514.625ZM457.942 513.064L457.847 513.577L459.597 513.903L459.692 513.39L457.942 513.064ZM457.847 513.577L450.034 555.552L451.785 555.878L459.597 513.903L457.847 513.577ZM464.908 471.342L466.457 471.517L466.657 469.748L465.108 469.573L464.908 471.342ZM466.457 471.517L537.421 479.524L537.621 477.755L466.657 469.748L466.457 471.517ZM465.774 469.96L465.681 470.473L467.433 470.792L467.526 470.278L465.774 469.96ZM465.681 470.473L457.941 513.068L459.693 513.386L467.433 470.792L465.681 470.473ZM472.594 428.035L474.145 428.21L474.345 426.441L472.794 426.266L472.594 428.035ZM474.145 428.21L540.012 435.643L540.212 433.874L474.345 426.441L474.145 428.21ZM473.46 426.657L473.369 427.17L475.121 427.481L475.213 426.968L473.46 426.657ZM473.369 427.17L465.774 469.964L467.527 470.275L475.121 427.481L473.369 427.17ZM480.037 384.919L481.607 385.096L481.806 383.327L480.237 383.15L480.037 384.919ZM481.607 385.096L541.725 391.872L541.925 390.103L481.806 383.327L481.607 385.096ZM480.919 383.541L480.829 384.06L482.584 384.363L482.673 383.845L480.919 383.541ZM480.829 384.06L473.459 426.661L475.213 426.964L482.583 384.363L480.829 384.06ZM488.844 342.087L544.175 348.337L544.375 346.568L489.044 340.318L488.844 342.087ZM488.067 341.055L480.918 383.545L482.674 383.841L489.822 341.35L488.067 341.055ZM495.639 300.623L544.104 306.099L544.304 304.33L495.839 298.854L495.639 300.623ZM494.861 299.594L488.066 341.059L489.823 341.347L496.618 299.882L494.861 299.594ZM501.226 259.564L494.86 299.598L496.618 299.878L502.984 259.843L501.226 259.564ZM507.1 221.347L501.225 259.568L502.985 259.839L508.859 221.617L507.1 221.347ZM540.465 225.291L542.343 264.387L544.121 264.301L542.243 225.206L540.465 225.291ZM502.005 260.588L543.132 265.229L543.331 263.46L502.205 258.819L502.005 260.588ZM513.201 186.342L538.515 189.192L538.715 187.423L513.4 184.573L513.201 186.342ZM512.42 185.327L507.099 221.352L508.86 221.612L514.181 185.587L512.42 185.327ZM507.88 222.366L541.255 226.133L541.454 224.364L508.079 220.597L507.88 222.366ZM517.147 151.824L512.419 185.333L514.182 185.582L518.909 152.072L517.147 151.824ZM521.226 121.178L517.146 151.831L518.91 152.065L522.991 121.413L521.226 121.178ZM517.928 152.833L534.95 154.751L535.149 152.982L518.128 151.063L517.928 152.833ZM524.612 93.6808L521.225 121.187L522.992 121.404L526.379 93.8984L524.612 93.6808ZM530.755 121.375L522.208 120.411L522.009 122.18L530.556 123.144L530.755 121.375ZM524.62 93.9483L529.78 122.418L531.531 122.101L526.372 93.6309L524.62 93.9483ZM530.662 123.15L538.997 123.086L538.984 121.306L530.649 121.37L530.662 123.15ZM529.774 122.382L534.168 153.989L535.931 153.744L531.537 122.137L529.774 122.382ZM535.056 154.757L551.64 154.641L551.627 152.86L535.043 152.977L535.056 154.757ZM534.164 153.958L537.73 188.399L539.5 188.216L535.935 153.775L534.164 153.958ZM538.622 189.198L563.311 189.018L563.298 187.238L538.609 187.418L538.622 189.198ZM537.727 188.374L540.467 225.315L542.242 225.183L539.503 188.242L537.727 188.374ZM541.361 226.139L573.909 225.893L573.896 224.113L541.348 224.359L541.361 226.139ZM573.037 225.212L582.457 264.253L584.188 263.836L574.768 224.794L573.037 225.212ZM543.238 265.234L583.329 264.934L583.316 263.154L543.225 263.454L543.238 265.234ZM542.342 264.365L543.314 305.236L545.094 305.193L544.121 264.323L542.342 264.365ZM544.211 306.104L591.455 305.743L591.441 303.963L544.197 304.324L544.211 306.104ZM543.314 305.216L543.385 347.454L545.165 347.451L545.094 305.213L543.314 305.216ZM544.282 348.343L598.238 347.922L598.225 346.142L544.268 346.563L544.282 348.343ZM543.385 347.436L542.56 390.635L544.34 390.669L545.165 347.47L543.385 347.436ZM541.832 391.877L543.445 391.865L543.431 390.085L541.818 390.097L541.832 391.877ZM543.445 391.865L601.958 391.421L601.945 389.641L543.431 390.085L543.445 391.865ZM542.561 390.618L542.548 390.941L544.327 391.009L544.34 390.687L542.561 390.618ZM542.548 390.941L540.865 434.385L542.644 434.454L544.327 391.009L542.548 390.941ZM540.119 435.648L541.742 435.636L541.728 433.856L540.105 433.868L540.119 435.648ZM541.742 435.636L605.866 435.146L605.852 433.366L541.728 433.856L541.742 435.636ZM540.866 434.367L540.846 434.693L542.623 434.798L542.643 434.472L540.866 434.367ZM540.846 434.693L538.275 478.248L540.052 478.353L542.623 434.798L540.846 434.693ZM537.528 479.529L539.145 479.517L539.131 477.737L537.514 477.749L537.528 479.529ZM539.145 479.517L608.245 478.991L608.231 477.211L539.131 477.737L539.145 479.517ZM538.276 478.231L538.25 478.557L540.025 478.697L540.051 478.371L538.276 478.231ZM538.25 478.557L534.836 521.846L536.611 521.986L540.025 478.697L538.25 478.557ZM534.105 523.141L535.699 523.128L535.685 521.348L534.092 521.36L534.105 523.141ZM535.699 523.128L609.104 522.568L609.09 520.788L535.685 521.348L535.699 523.128ZM534.838 521.828L534.806 522.151L536.578 522.326L536.61 522.003L534.838 521.828ZM534.806 522.151L530.594 564.708L532.366 564.884L536.578 522.326L534.806 522.151ZM529.844 566.024L531.447 566.013L531.434 564.232L529.831 564.244L529.844 566.024ZM531.447 566.013L608.423 565.438L608.409 563.658L531.434 564.232L531.447 566.013ZM530.596 564.69L530.557 565.016L532.324 565.229L532.364 564.902L530.596 564.69ZM530.557 565.016L525.576 606.459L527.344 606.672L532.324 565.229L530.557 565.016ZM526.467 607.456L607.862 606.836L607.849 605.055L526.453 605.675L526.467 607.456ZM525.579 606.439L519.821 646.684L521.583 646.936L527.341 606.692L525.579 606.439ZM520.709 647.7L604.132 647.069L604.118 645.288L520.695 645.92L520.709 647.7ZM519.824 646.663L513.408 684.996L515.164 685.29L521.58 646.957L519.824 646.663ZM603.243 646.059L598.057 684.368L599.821 684.607L605.007 646.298L603.243 646.059ZM514.293 686.033L598.946 685.378L598.932 683.597L514.279 684.253L514.293 686.033ZM513.412 684.973L506.382 721.014L508.13 721.355L515.159 685.314L513.412 684.973ZM507.263 722.075L592.323 721.424L592.31 719.643L507.249 720.295L507.263 722.075ZM506.388 720.988L498.821 754.422L500.557 754.815L508.124 721.381L506.388 720.988ZM499.696 755.509L584.329 754.84L584.315 753.06L499.682 753.729L499.696 755.509ZM498.829 754.392L490.79 784.852L492.512 785.306L500.55 754.846L498.829 754.392ZM491.658 785.969L575.077 785.321L575.064 783.54L491.644 784.189L491.658 785.969ZM490.801 784.815L482.357 812.023L484.057 812.551L492.501 785.343L490.801 784.815ZM483.214 813.177L564.61 812.557L564.596 810.777L483.201 811.397L483.214 813.177ZM482.372 811.979L473.634 835.7L475.304 836.316L484.043 812.595L482.372 811.979ZM474.476 836.898L553.051 836.294L553.037 834.514L474.462 835.118L474.476 836.898ZM473.657 835.644L464.693 855.616L466.318 856.345L475.281 836.373L473.657 835.644ZM465.512 856.871L540.511 856.298L540.497 854.518L465.499 855.091L465.512 856.871ZM464.732 855.541L455.613 871.592L457.161 872.472L466.279 856.421L464.732 855.541ZM456.394 872.922L527.111 872.384L527.097 870.604L456.38 871.142L456.394 872.922ZM455.68 871.491L446.515 883.457L447.928 884.54L457.094 872.573L455.68 871.491ZM447.228 884.888L512.979 884.403L512.965 882.623L447.215 883.108L447.228 884.888ZM446.644 883.321L437.532 891.093L438.687 892.448L447.799 884.676L446.644 883.321ZM437.787 890.941L428.783 894.438L429.427 896.097L438.432 892.6L437.787 890.941ZM429.111 896.157L483.071 895.754L483.058 893.973L429.098 894.377L429.111 896.157ZM498.05 890.444L482.862 893.997L483.267 895.73L498.455 892.178L498.05 890.444ZM483.188 895.745L533.695 888.693L533.449 886.93L482.942 893.982L483.188 895.745ZM512.555 882.726L497.836 890.524L498.669 892.097L513.389 884.299L512.555 882.726ZM498.376 892.192L554.666 884.337L554.419 882.574L498.13 890.429L498.376 892.192ZM526.527 870.816L512.395 882.835L513.549 884.191L527.681 872.172L526.527 870.816ZM513.095 884.394L574.649 875.79L574.403 874.027L512.849 882.631L513.095 884.394ZM539.82 854.838L526.42 870.925L527.788 872.064L541.188 855.978L539.82 854.838ZM527.227 872.376L593.432 863.131L593.186 861.368L526.981 870.613L527.227 872.376ZM552.29 834.932L539.75 854.935L541.258 855.881L553.798 835.877L552.29 834.932ZM540.627 856.29L610.846 846.482L610.6 844.719L540.381 854.527L540.627 856.29ZM563.803 811.277L552.244 835.015L553.844 835.794L565.403 812.057L563.803 811.277ZM553.167 836.286L626.733 826.019L626.487 824.255L552.921 834.523L553.167 836.286ZM574.24 784.111L563.772 811.348L565.434 811.986L575.901 784.75L574.24 784.111ZM564.726 812.549L640.918 801.917L640.672 800.154L564.48 810.785L564.726 812.549ZM583.471 753.691L574.219 784.172L575.922 784.689L585.174 754.208L583.471 753.691ZM575.193 785.312L653.272 774.415L653.026 772.652L574.947 783.549L575.193 785.312ZM592.439 721.415L672.062 710.306L671.816 708.543L592.193 719.652L592.439 721.415ZM591.451 720.326L583.457 753.743L585.188 754.157L593.182 720.741L591.451 720.326ZM584.445 754.831L663.689 743.765L663.443 742.002L584.199 753.068L584.445 754.831ZM599.062 685.369L678.289 674.306L678.043 672.543L598.816 683.606L599.062 685.369ZM598.064 684.327L591.441 720.373L593.192 720.694L599.815 684.648L598.064 684.327ZM604.248 647.06L682.34 636.143L682.094 634.38L604.002 645.297L604.248 647.06ZM607.979 606.827L684.167 596.178L683.92 594.415L607.732 605.064L607.979 606.827ZM606.969 605.863L603.239 646.096L605.011 646.261L608.742 606.028L606.969 605.863ZM609.17 564.162L606.967 605.899L608.744 605.992L610.947 564.256L609.17 564.162ZM610.862 522.221L681.082 512.414L680.836 510.651L610.616 520.458L610.862 522.221ZM609.849 521.325L609.168 564.195L610.948 564.223L611.629 521.354L609.849 521.325ZM610.182 565.091L683.744 554.807L683.498 553.043L609.935 563.328L610.182 565.091ZM610.004 478.645L676.209 469.4L675.962 467.636L609.757 476.881L610.004 478.645ZM608.991 477.781L609.849 521.357L611.629 521.322L610.77 477.745L608.991 477.781ZM607.624 434.799L669.178 426.195L668.932 424.431L607.378 433.036L607.624 434.799ZM606.612 433.966L608.992 477.811L610.769 477.715L608.39 433.869L606.612 433.966ZM603.717 391.074L660.023 383.215L659.777 381.452L603.471 389.311L603.717 391.074ZM602.707 390.272L606.615 433.997L608.388 433.838L604.48 390.113L602.707 390.272ZM598.355 347.914L648.879 340.858L648.633 339.095L598.108 346.151L598.355 347.914ZM597.348 347.142L602.71 390.302L604.477 390.083L599.115 346.922L597.348 347.142ZM591.571 305.734L635.815 299.549L635.568 297.786L591.325 303.971L591.571 305.734ZM590.569 304.994L597.353 347.173L599.11 346.891L592.327 304.712L590.569 304.994ZM582.45 264.218L590.575 305.027L592.321 304.679L584.196 263.871L582.45 264.218ZM603.556 221.108L620.026 259.157L621.659 258.449L605.19 220.401L603.556 221.108ZM583.446 264.926L620.966 259.685L620.719 257.921L583.2 263.163L583.446 264.926ZM563.428 189.009L586.554 185.78L586.308 184.017L563.182 187.246L563.428 189.009ZM562.449 188.373L573.047 225.249L574.758 224.757L564.16 187.882L562.449 188.373ZM574.025 225.884L604.496 221.636L604.25 219.873L573.78 224.121L574.025 225.884ZM550.791 154.037L562.462 188.414L564.148 187.841L552.477 153.464L550.791 154.037ZM538.164 122.527L550.807 154.082L552.46 153.419L539.817 121.865L538.164 122.527ZM551.757 154.632L567.299 152.454L567.052 150.691L551.51 152.869L551.757 154.632ZM524.692 94.1715L538.187 122.578L539.795 121.814L526.3 93.4077L524.692 94.1715ZM546.673 120.224L538.867 121.315L539.114 123.078L546.92 121.987L546.673 120.224ZM524.794 94.337L546.094 121.653L547.498 120.558L526.198 93.2422L524.794 94.337ZM547.05 121.958L554.018 119.886L553.511 118.179L546.543 120.252L547.05 121.958ZM546.057 121.6L566.435 152.067L567.915 151.077L547.536 120.61L546.057 121.6ZM567.429 152.425L581.299 148.297L580.791 146.591L566.921 150.719L567.429 152.425ZM566.405 152.017L585.661 185.344L587.202 184.453L567.946 151.127L566.405 152.017ZM586.685 185.752L607.323 179.611L606.816 177.905L586.178 184.045L586.685 185.752ZM585.635 185.297L603.577 221.153L605.169 220.357L587.227 184.5L585.635 185.297ZM604.627 221.608L631.851 213.511L631.343 211.804L604.119 219.902L604.627 221.608ZM621.096 259.656L654.639 249.675L654.131 247.968L620.589 257.95L621.096 259.656ZM620.008 259.114L634.858 298.978L636.526 298.357L621.677 258.492L620.008 259.114ZM635.946 299.521L675.458 287.762L674.951 286.056L635.438 297.814L635.946 299.521ZM634.843 298.936L647.907 340.245L649.605 339.708L636.54 298.399L634.843 298.936ZM649.01 340.83L694.127 327.404L693.619 325.698L648.502 339.123L649.01 340.83ZM647.895 340.203L659.04 382.56L660.761 382.107L649.617 339.75L647.895 340.203ZM660.154 383.187L710.46 368.216L709.952 366.51L659.647 381.481L660.154 383.187ZM659.03 382.519L668.185 425.498L669.926 425.128L660.771 382.148L659.03 382.519ZM669.309 426.166L724.289 409.809L723.781 408.103L668.801 424.46L669.309 426.166ZM668.177 425.456L675.207 468.661L676.964 468.375L669.934 425.17L668.177 425.456ZM676.339 469.371L735.495 451.783L734.988 450.077L675.832 467.665L676.339 469.371ZM675.201 468.618L680.074 511.632L681.843 511.432L676.97 468.418L675.201 468.618ZM681.212 512.385L743.959 493.722L743.452 492.016L680.705 510.679L681.212 512.385ZM680.07 511.588L682.733 553.981L684.509 553.869L681.847 511.476L680.07 511.588ZM683.875 554.778L749.6 535.237L749.093 533.53L683.367 553.072L683.875 554.778ZM682.731 553.934L683.153 595.306L684.934 595.288L684.511 553.916L682.731 553.934ZM684.297 596.15L752.368 575.913L751.86 574.207L683.79 594.444L684.297 596.15ZM683.154 595.256L681.328 635.221L683.106 635.302L684.933 595.337L683.154 595.256ZM682.47 636.114L752.237 615.37L751.729 613.663L681.963 634.408L682.47 636.114ZM681.332 635.167L677.281 673.331L679.051 673.519L683.102 635.355L681.332 635.167ZM678.42 674.278L749.214 653.215L748.707 651.509L677.912 672.572L678.42 674.278ZM677.289 673.273L671.062 709.272L672.817 709.576L679.043 673.576L677.289 673.273ZM672.193 710.277L743.32 689.111L742.812 687.405L671.686 708.571L672.193 710.277ZM671.076 709.208L662.702 742.667L664.429 743.099L672.803 709.64L671.076 709.208ZM663.82 743.737L734.618 722.691L734.111 720.984L663.312 742.03L663.82 743.737ZM662.723 742.597L652.306 773.247L653.992 773.82L664.409 743.17L662.723 742.597ZM653.403 774.387L723.182 753.621L722.674 751.915L652.895 772.68L653.403 774.387ZM652.337 773.169L639.983 800.671L641.606 801.4L653.961 773.898L652.337 773.169ZM641.048 801.888L709.115 781.635L708.608 779.929L640.541 800.182L641.048 801.888ZM640.027 800.584L625.843 824.686L627.377 825.589L641.562 801.487L640.027 800.584ZM626.864 825.99L692.586 806.432L692.078 804.725L626.356 824.284L626.864 825.99ZM625.907 824.591L610.02 845.055L611.426 846.147L627.313 825.683L625.907 824.591ZM610.977 846.454L673.724 827.791L673.216 826.084L610.47 844.748L610.977 846.454ZM610.108 844.957L592.694 861.606L593.924 862.893L611.338 846.244L610.108 844.957ZM593.563 863.102L652.716 845.497L652.208 843.791L593.055 861.396L593.563 863.102ZM592.812 861.511L574.028 874.17L575.023 875.647L593.807 862.987L592.812 861.511ZM574.78 875.762L629.759 859.404L629.252 857.698L574.272 874.055L574.78 875.762ZM574.176 874.09L554.192 882.637L554.893 884.274L574.876 875.727L574.176 874.09ZM554.796 884.309L605.102 869.338L604.594 867.632L554.289 882.602L554.796 884.309ZM554.361 882.584L533.391 886.94L533.753 888.683L554.724 884.327L554.361 882.584ZM629.173 857.726L604.516 867.659L605.181 869.311L629.838 859.377L629.173 857.726ZM652 843.883L629.044 857.79L629.967 859.313L652.923 845.405L652 843.883ZM629.908 859.345L676.232 835.841L675.426 834.253L629.103 857.758L629.908 859.345ZM672.896 826.257L651.888 843.963L653.035 845.325L674.044 827.618L672.896 826.257ZM652.864 845.438L702.673 820.174L701.868 818.586L652.059 843.85L652.864 845.438ZM691.665 804.989L672.803 826.348L674.137 827.527L692.999 806.168L691.665 804.989ZM673.873 827.731L724.614 801.986L723.809 800.399L673.067 826.144L673.873 827.731ZM724.614 801.986L726.7 800.928L725.895 799.34L723.809 800.399L724.614 801.986ZM708.121 780.288L691.591 805.085L693.072 806.072L709.602 781.275L708.121 780.288ZM692.734 806.372L748.073 778.31L747.268 776.722L691.929 804.785L692.734 806.372ZM722.133 752.369L708.066 780.382L709.657 781.181L723.724 753.168L722.133 752.369ZM709.264 781.575L766.598 752.484L765.792 750.897L708.459 779.988L709.264 781.575ZM733.529 721.529L722.093 752.46L723.763 753.077L735.199 722.146L733.529 721.529ZM723.331 753.562L782.087 723.754L781.282 722.167L722.526 751.974L723.331 753.562ZM742.204 688.035L733.503 721.614L735.226 722.061L743.928 688.481L742.204 688.035ZM734.767 722.631L794.385 692.381L793.58 690.794L733.961 721.044L734.767 722.631ZM748.082 652.218L742.188 688.114L743.944 688.402L749.839 652.506L748.082 652.218ZM743.469 689.052L803.374 658.654L802.569 657.067L742.663 687.464L743.469 689.052ZM751.096 614.445L748.073 652.291L749.848 652.433L752.87 614.587L751.096 614.445ZM749.363 653.156L808.985 622.923L808.18 621.335L748.558 651.568L749.363 653.156ZM752.517 575.854L809.85 546.763L809.044 545.175L751.711 574.266L752.517 575.854ZM751.224 575.057L751.093 614.513L752.873 614.519L753.004 575.063L751.224 575.057ZM752.385 615.31L811.159 585.499L810.354 583.911L751.58 613.722L752.385 615.31ZM749.749 535.177L805.101 507.094L804.296 505.507L748.943 533.59L749.749 535.177ZM748.458 534.444L751.226 575.121L753.002 575L750.234 534.323L748.458 534.444ZM744.108 493.663L796.936 466.859L796.13 465.271L743.303 492.075L744.108 493.663ZM742.823 492.989L748.464 534.503L750.228 534.263L744.587 492.749L742.823 492.989ZM735.644 451.723L785.45 426.443L784.644 424.855L734.839 450.136L735.644 451.723ZM734.369 451.106L742.833 493.045L744.578 492.693L736.114 450.754L734.369 451.106ZM724.437 409.75L770.748 386.266L769.942 384.678L723.632 408.162L724.437 409.75ZM723.175 409.185L734.382 451.159L736.102 450.7L724.895 408.726L723.175 409.185ZM710.609 368.157L752.971 346.669L752.165 345.081L709.803 366.569L710.609 368.157ZM709.362 367.644L723.19 409.237L724.879 408.675L711.051 367.082L709.362 367.644ZM694.276 327.345L732.274 308.062L731.468 306.474L693.471 325.757L694.276 327.345ZM693.047 326.882L709.38 367.694L711.033 367.032L694.7 326.221L693.047 326.882ZM675.607 287.703L708.893 270.82L708.088 269.232L674.802 286.115L675.607 287.703ZM674.399 287.288L693.068 326.93L694.679 326.172L676.01 286.53L674.399 287.288ZM653.604 249.248L674.423 287.336L675.986 286.482L655.166 248.394L653.604 249.248ZM630.844 213.132L653.632 249.296L655.138 248.347L632.35 212.183L630.844 213.132ZM654.788 249.615L683.024 235.291L682.218 233.703L653.983 248.028L654.788 249.615ZM607.472 179.552L624.874 170.725L624.069 169.137L606.667 177.964L607.472 179.552ZM606.348 179.28L630.876 213.179L632.318 212.136L607.791 178.236L606.348 179.28ZM632 213.451L654.929 201.809L654.123 200.221L631.194 211.864L632 213.451ZM580.36 148.013L606.385 179.327L607.754 178.189L581.729 146.875L580.36 148.013ZM553.122 119.649L580.403 148.061L581.687 146.828L554.407 118.416L553.122 119.649ZM581.448 148.238L593.127 142.301L592.32 140.714L580.641 146.651L581.448 148.238ZM524.903 94.4535L553.172 119.696L554.357 118.368L526.089 93.1257L524.903 94.4535ZM559.243 115.258L553.362 118.238L554.167 119.826L560.048 116.846L559.243 115.258ZM525.01 94.5353L559.16 116.798L560.132 115.307L525.982 93.0439L525.01 94.5353ZM560.214 116.737L564.751 112.97L563.613 111.6L559.077 115.368L560.214 116.737ZM559.103 116.758L592.181 142.213L593.266 140.803L560.188 115.347L559.103 116.758ZM593.291 142.194L602.354 134.7L601.22 133.328L592.156 140.822L593.291 142.194ZM592.13 142.171L623.878 170.594L625.065 169.268L593.317 140.845L592.13 142.171ZM625.039 170.616L638.502 159.459L637.366 158.089L623.903 169.246L625.039 170.616ZM623.831 170.55L653.886 201.634L655.166 200.396L625.111 169.312L623.831 170.55ZM655.094 201.7L672.838 186.996L671.702 185.625L653.958 200.33L655.094 201.7ZM653.844 201.587L681.939 235.069L683.303 233.925L655.208 200.443L653.844 201.587ZM683.189 235.182L705.046 217.054L703.91 215.684L682.053 233.812L683.189 235.182ZM681.901 235.021L707.771 270.55L709.21 269.502L683.341 233.973L681.901 235.021ZM709.058 270.712L734.823 249.36L733.687 247.989L707.922 269.341L709.058 270.712ZM707.737 270.499L731.117 307.741L732.625 306.795L709.244 269.553L707.737 270.499ZM732.439 307.954L761.868 283.57L760.732 282.2L731.303 306.583L732.439 307.954ZM731.087 307.689L751.784 346.296L753.353 345.454L732.656 306.848L731.087 307.689ZM753.136 346.56L785.925 319.384L784.789 318.014L752 345.19L753.136 346.56ZM751.756 346.24L769.533 385.836L771.157 385.107L753.38 345.51L751.756 346.24ZM770.913 386.157L806.759 356.427L805.622 355.057L769.777 384.787L770.913 386.157ZM769.509 385.778L784.211 425.955L785.883 425.343L771.181 385.166L769.509 385.778ZM785.615 426.334L824.177 394.369L823.041 392.998L784.479 424.964L785.615 426.334ZM784.191 425.892L795.677 466.308L797.389 465.822L785.903 425.406L784.191 425.892ZM797.101 466.75L837.998 432.839L836.861 431.468L795.965 465.38L797.101 466.75ZM795.66 466.242L803.826 506.478L805.571 506.124L797.405 465.888L795.66 466.242ZM805.267 506.986L848.107 471.456L846.971 470.086L804.13 505.615L805.267 506.986ZM803.815 506.406L808.563 546.075L810.331 545.863L805.582 506.195L803.815 506.406ZM810.015 546.655L854.398 509.872L853.262 508.501L808.879 545.284L810.015 546.655ZM808.558 545.999L809.867 584.735L811.646 584.675L810.337 545.939L808.558 545.999ZM811.324 585.39L856.803 547.675L855.667 546.305L810.188 584.02L811.324 585.39ZM809.868 584.654L807.694 622.077L809.471 622.18L811.645 584.757L809.868 584.654ZM809.151 622.814L855.311 584.553L854.175 583.182L808.015 621.444L809.151 622.814ZM807.703 621.991L802.092 657.722L803.851 657.998L809.462 622.267L807.703 621.991ZM803.54 658.546L849.926 620.097L848.79 618.726L802.404 657.175L803.54 658.546ZM802.112 657.631L793.123 691.358L794.843 691.817L803.832 658.09L802.112 657.631ZM794.551 692.273L840.711 654.011L839.575 652.641L793.415 690.902L794.551 692.273ZM793.154 691.263L780.856 722.636L782.513 723.285L794.811 691.912L793.154 691.263ZM782.253 723.646L827.735 685.948L826.599 684.577L781.117 722.275L782.253 723.646ZM780.901 722.538L765.411 751.268L766.978 752.113L782.468 723.383L780.901 722.538ZM766.763 752.376L811.145 715.593L810.009 714.222L765.627 751.005L766.763 752.376ZM765.471 751.172L746.948 776.997L748.394 778.035L766.918 752.209L765.471 751.172ZM748.239 778.201L791.096 742.668L789.96 741.298L747.103 776.831L748.239 778.201ZM747.024 776.905L728.576 796.426L729.87 797.649L748.318 778.127L747.024 776.905ZM728.576 796.426L725.651 799.523L726.944 800.745L729.87 797.649L728.576 796.426ZM726.866 800.819L767.779 766.904L766.643 765.533L725.729 799.449L726.866 800.819ZM702.839 820.065L724.779 801.878L723.643 800.507L701.702 818.695L702.839 820.065ZM724.779 801.878L729.791 797.723L728.655 796.352L723.643 800.507L724.779 801.878ZM729.791 797.723L741.4 788.1L740.264 786.729L728.655 796.352L729.791 797.723ZM701.817 818.614L675.375 834.281L676.283 835.812L702.724 820.146L701.817 818.614ZM789.886 741.366L766.57 765.602L767.853 766.836L791.169 742.6L789.886 741.366ZM809.862 714.378L789.813 741.453L791.243 742.512L811.292 715.437L809.862 714.378ZM826.39 684.828L809.8 714.473L811.354 715.342L827.944 685.697L826.39 684.828ZM811.31 715.413L841.047 672.311L839.582 671.3L809.844 714.402L811.31 715.413ZM839.318 652.991L826.342 684.928L827.992 685.598L840.968 653.661L839.318 652.991ZM827.899 685.768L858.386 641.594L856.921 640.582L826.434 684.757L827.899 685.768ZM848.499 619.178L839.284 653.093L841.002 653.56L850.217 619.645L848.499 619.178ZM840.876 653.832L871.796 609.021L870.331 608.009L839.41 652.821L840.876 653.832ZM853.863 583.734L848.478 619.278L850.238 619.545L855.623 584.001L853.863 583.734ZM850.091 619.917L881.163 574.898L879.698 573.887L848.625 618.906L850.091 619.917ZM855.346 546.954L853.854 583.832L855.632 583.904L857.124 547.026L855.346 546.954ZM855.476 584.373L886.396 539.562L884.931 538.551L854.01 583.362L855.476 584.373ZM852.941 509.243L855.347 547.047L857.123 546.934L854.718 509.13L852.941 509.243ZM856.967 547.496L887.441 503.342L885.976 502.33L855.502 546.485L856.967 547.496ZM846.66 470.915L852.951 509.33L854.708 509.042L848.417 470.627L846.66 470.915ZM854.562 509.692L884.299 466.589L882.834 465.578L853.097 508.681L854.562 509.692ZM836.568 432.379L846.678 470.996L848.4 470.545L838.291 431.928L836.568 432.379ZM848.271 471.276L876.977 429.675L875.511 428.664L846.806 470.265L848.271 471.276ZM824.341 394.189L850.182 356.761L848.717 355.749L822.876 393.178L824.341 394.189ZM822.771 393.984L836.592 432.454L838.267 431.853L824.447 393.382L822.771 393.984ZM838.162 432.659L865.58 392.947L864.115 391.935L836.697 431.648L838.162 432.659ZM806.923 356.248L830.955 321.434L829.49 320.422L805.458 355.237L806.923 356.248ZM805.382 356.114L822.8 394.055L824.418 393.312L807 355.371L805.382 356.114ZM784.581 319.135L805.415 356.179L806.967 355.306L786.133 318.263L784.581 319.135ZM762.032 283.391L781.754 254.812L780.289 253.801L760.567 282.379L762.032 283.391ZM760.561 283.381L784.618 319.195L786.096 318.203L762.039 282.389L760.561 283.381ZM786.09 319.205L808.067 287.355L806.602 286.344L784.625 318.194L786.09 319.205ZM733.556 249.227L760.602 283.437L761.998 282.333L734.953 248.123L733.556 249.227ZM703.823 216.972L733.6 249.278L734.909 248.071L705.132 215.765L703.823 216.972ZM734.987 249.18L752.248 224.162L750.783 223.151L733.522 248.169L734.987 249.18ZM671.663 186.961L703.871 217.019L705.085 215.718L672.877 185.66L671.663 186.961ZM705.21 216.875L719.866 195.658L718.401 194.647L703.746 215.863L705.21 216.875ZM638.666 159.279L647.69 146.195L646.225 145.184L637.201 158.269L638.666 159.279ZM637.377 159.468L671.713 187.005L672.827 185.616L638.491 158.08L637.377 159.468ZM673.003 186.816L684.894 169.576L683.429 168.565L671.537 185.805L673.003 186.816ZM601.284 134.748L637.431 159.508L638.437 158.04L602.29 133.28L601.284 134.748ZM563.737 113.056L601.342 134.785L602.232 133.243L564.627 111.514L563.737 113.056ZM602.52 134.52L608.581 125.734L607.116 124.723L601.054 133.509L602.52 134.52ZM525.112 94.5927L563.798 113.088L564.566 111.482L525.88 92.9865L525.112 94.5927ZM566.494 107.366L563.449 111.779L564.915 112.79L567.959 108.377L566.494 107.366ZM525.211 94.633L566.942 108.715L567.511 107.029L525.781 92.9462L525.211 94.633ZM568.081 108.121L569.509 103.231L567.8 102.732L566.372 107.622L568.081 108.121ZM566.877 108.69L607.499 126.047L608.198 124.41L567.576 107.053L566.877 108.69ZM608.703 125.477L611.535 115.746L609.825 115.249L606.994 124.98L608.703 125.477ZM607.436 126.017L646.545 146.478L647.37 144.901L608.261 124.44L607.436 126.017ZM647.812 145.939L652.03 131.462L650.321 130.964L646.103 145.441L647.812 145.939ZM646.484 146.443L683.688 169.824L684.635 168.317L647.431 144.936L646.484 146.443ZM685.016 169.32L690.597 150.238L688.889 149.739L683.307 168.821L685.016 169.32ZM683.629 169.784L718.601 195.866L719.665 194.439L684.693 168.357L683.629 169.784ZM719.988 195.402L726.859 171.871L725.15 171.372L718.279 194.903L719.988 195.402ZM718.545 195.821L750.927 224.325L752.104 222.989L719.721 194.484L718.545 195.821ZM752.37 223.907L760.478 196.185L758.769 195.686L750.661 223.407L752.37 223.907ZM750.874 224.274L780.38 254.924L781.663 253.689L752.157 223.039L750.874 224.274ZM781.876 254.556L791.118 222.913L789.409 222.413L780.167 254.057L781.876 254.556ZM780.329 254.866L806.643 287.409L808.027 286.29L781.714 253.747L780.329 254.866ZM808.189 287.099L818.485 251.832L816.776 251.333L806.48 286.6L808.189 287.099ZM806.596 287.346L829.484 321.424L830.962 320.432L808.074 286.353L806.596 287.346ZM831.077 321.178L842.337 282.623L840.628 282.124L829.368 320.679L831.077 321.178ZM829.441 321.354L848.668 356.68L850.231 355.829L831.005 320.503L829.441 321.354ZM850.304 356.504L862.425 315.019L860.716 314.52L848.595 356.005L850.304 356.504ZM848.63 356.603L864.028 392.79L865.666 392.093L850.269 355.906L848.63 356.603ZM865.702 392.69L878.54 348.693L876.831 348.194L863.993 392.192L865.702 392.69ZM863.997 392.705L875.394 429.433L877.094 428.906L865.697 392.177L863.997 392.705ZM877.098 429.419L890.565 383.332L888.857 382.833L875.39 428.92L877.098 429.419ZM875.371 429.343L882.694 466.257L884.44 465.911L877.117 428.996L875.371 429.343ZM884.421 466.333L898.364 418.613L896.655 418.114L882.712 465.834L884.421 466.333ZM882.68 466.16L885.822 502.912L887.595 502.76L884.454 466.008L882.68 466.16ZM887.563 503.086L901.854 454.146L900.146 453.647L885.854 502.587L887.563 503.086ZM885.819 502.81L884.774 539.031L886.553 539.082L887.598 502.862L885.819 502.81ZM886.518 539.306L901.016 489.654L899.307 489.155L884.809 538.807L886.518 539.306ZM884.783 538.926L879.55 574.262L881.311 574.523L886.544 539.187L884.783 538.926ZM871.918 608.764L886.416 559.112L884.707 558.613L870.209 608.266L871.918 608.764ZM870.241 608.176L856.831 640.749L858.477 641.427L871.887 608.854L870.241 608.176ZM856.879 640.65L839.539 671.368L841.089 672.243L858.429 641.525L856.879 640.65ZM894.143 524.26L884.703 558.627L886.419 559.098L895.859 524.731L894.143 524.26ZM899.281 489.275L894.12 524.366L895.882 524.625L901.042 489.534L899.281 489.275ZM900.11 453.876L899.271 489.383L901.051 489.425L901.89 453.918L900.11 453.876ZM894.24 367.901L897.686 402.19L899.457 402.012L896.011 367.723L894.24 367.901ZM901.889 453.855L899.46 402.06L897.682 402.143L900.111 453.939L901.889 453.855ZM888.842 383.275L896.64 418.556L898.378 418.172L890.58 382.891L888.842 383.275ZM886.541 334.497L894.258 368.012L895.993 367.613L888.276 334.097L886.541 334.497ZM898.398 418.322L896.014 367.77L894.236 367.854L896.62 418.406L898.398 418.322ZM876.845 348.735L888.87 383.375L890.552 382.791L878.527 348.151L876.845 348.735ZM874.665 302.164L886.573 334.604L888.244 333.99L876.336 301.55L874.665 302.164ZM890.6 383.041L888.297 334.255L886.519 334.339L888.822 383.125L890.6 383.041ZM860.767 315.154L876.883 348.827L878.489 348.059L862.373 314.385L860.767 315.154ZM858.701 271.253L874.71 302.265L876.292 301.449L860.283 270.436L858.701 271.253ZM878.575 348.401L876.39 301.815L874.612 301.899L876.797 348.485L878.575 348.401ZM840.726 282.843L860.814 315.239L862.327 314.301L842.239 281.905L840.726 282.843ZM838.812 242.044L858.757 271.345L860.228 270.344L840.284 241.042L838.812 242.044ZM862.459 314.728L860.381 270.802L858.603 270.887L860.681 314.812L862.459 314.728ZM816.927 252.128L840.779 282.919L842.186 281.829L818.334 251.038L816.927 252.128ZM815.209 214.809L838.875 242.126L840.22 240.96L816.555 213.643L815.209 214.809ZM842.371 282.332L840.437 241.501L838.659 241.585L840.593 282.416L842.371 282.332ZM789.617 223.275L816.984 252.194L818.277 250.971L790.91 222.051L789.617 223.275ZM788.07 189.811L815.279 214.88L816.485 213.571L789.276 188.502L788.07 189.811ZM818.519 251.541L816.771 214.184L814.993 214.267L816.741 251.624L818.519 251.541ZM759.039 196.606L789.678 223.334L790.848 221.992L760.209 195.265L759.039 196.606ZM757.707 167.302L788.143 189.871L789.203 188.441L758.767 165.873L757.707 167.302ZM791.152 222.621L789.562 189.114L787.784 189.199L789.374 222.705L791.152 222.621ZM725.483 172.343L759.102 196.657L760.145 195.214L726.526 170.901L725.483 172.343ZM724.375 147.496L757.782 167.353L758.692 165.822L725.285 145.966L724.375 147.496ZM760.513 195.893L759.126 166.545L757.348 166.63L758.735 195.977L760.513 195.893ZM689.287 150.753L725.549 172.386L726.461 170.858L690.199 149.224L689.287 150.753ZM688.41 130.57L724.451 147.536L725.209 145.926L689.168 128.959L688.41 130.57ZM726.894 171.58L725.719 146.689L723.941 146.773L725.116 171.664L726.894 171.58ZM652.065 131.171L651.342 115.841L649.564 115.925L650.287 131.255L652.065 131.171ZM650.786 132.013L689.354 150.789L690.133 149.188L651.565 130.412L650.786 132.013ZM650.15 116.72L688.486 130.602L689.092 128.928L650.756 115.046L650.15 116.72ZM690.632 149.947L689.678 129.723L687.9 129.807L688.854 150.03L690.632 149.947ZM610.358 116.328L650.854 132.043L651.498 130.383L611.002 114.668L610.358 116.328ZM609.97 106.055L650.225 116.743L650.682 115.023L610.427 104.334L609.97 106.055ZM568.4 103.835L610.426 116.351L610.934 114.645L568.909 102.129L568.4 103.835ZM568.262 98.6793L610.044 106.071L610.354 104.318L568.572 96.9263L568.262 98.6793ZM611.569 115.456L611.088 105.153L609.309 105.236L609.791 115.539L611.569 115.456ZM525.413 94.6758L568.334 98.6891L568.5 96.9166L525.579 92.9034L525.413 94.6758ZM525.31 94.6602L568.469 103.852L568.84 102.111L525.681 92.919L525.31 94.6602ZM567.528 97.8436L567.765 103.022L569.544 102.941L569.306 97.7621L567.528 97.8436ZM318.943 877.228L323.793 878.752L324.327 877.054L319.477 875.529L318.943 877.228ZM376.338 885.699L438.01 892.655L438.209 890.886L376.538 883.93L376.338 885.699ZM438.116 892.661L498.259 892.201L498.246 890.421L438.103 890.881L438.116 892.661Z" fill="white"/>
</svg>
