<svg width="32" height="34" viewBox="0 0 32 34" fill="none" xmlns="http://www.w3.org/2000/svg">
<path d="M17.735 32.7827C17.1581 32.964 16.5693 33.1069 15.9737 33.2082C15.2709 33.3282 14.5587 33.3877 13.8465 33.3869C11.2871 33.3894 8.78466 32.627 6.66258 31.1976C4.53965 29.7673 2.8932 27.7354 1.93427 25.3623C0.975333 22.9892 0.748157 20.3838 1.28251 17.8805C1.816 15.3773 3.08551 13.091 4.92935 11.3152L17.0713 31.2256C17.3623 31.7115 17.5861 32.2356 17.735 32.7827Z" fill="#0D0D0D" stroke="#0D0D0D" stroke-width="0.4" stroke-linecap="round" stroke-linejoin="round"/>
<path d="M2.23166 15.3994C2.23166 19.2139 3.74622 22.8726 6.44264 25.5708C9.13906 28.2689 12.797 29.7851 16.6114 29.7877C17.413 29.7894 18.2128 29.7205 19.0024 29.5835C22.0068 29.0781 24.7739 27.6316 26.9045 25.4525C29.0342 23.2734 30.4177 20.474 30.8551 17.4585C30.9146 17.0246 30.9572 16.6077 30.9827 16.1312C30.9827 15.8844 30.9827 15.6377 30.9827 15.3994C30.987 12.2171 29.9353 9.12252 27.9927 6.60223C26.0502 4.08109 23.3257 2.27638 20.2472 1.46975C17.1688 0.662864 13.9099 0.900349 10.9803 2.1445C8.05079 3.38933 5.61728 5.57011 4.06104 8.34566C2.84854 10.4984 2.21805 12.9293 2.23166 15.3994Z" fill="#3CBF77" stroke="#0D0D0D" stroke-width="0.4" stroke-linecap="round" stroke-linejoin="round"/>
<path d="M3.92533 10.3963C3.92278 13.5785 4.97532 16.6715 6.91871 19.1918C8.86126 21.712 11.5849 23.5176 14.6634 24.3242C17.7418 25.1317 21.0007 24.896 23.9302 23.6537C26.8607 22.4115 29.2959 20.2324 30.8555 17.4585C30.9508 16.7761 30.9993 16.0886 31.0002 15.3994C31.0044 12.2171 29.9527 9.12252 28.0102 6.60223C26.0676 4.08109 23.3431 2.27638 20.2647 1.46975C17.1862 0.662864 13.9274 0.900349 10.9978 2.1445C8.06825 3.38933 5.63475 5.57011 4.0785 8.34566C3.97554 9.02466 3.92363 9.70962 3.92533 10.3963Z" fill="#4FE2A3" stroke="#0D0D0D" stroke-width="0.4" stroke-linecap="round" stroke-linejoin="round"/>
<path d="M24.457 7.82478C24.9777 6.74587 23.7712 5.08412 21.7614 4.11242C19.7516 3.14157 17.7002 3.22921 17.1786 4.30812C16.657 5.38703 17.8635 7.04879 19.8733 8.01963C21.8831 8.99133 23.9354 8.90369 24.457 7.82478Z" fill="white" stroke="#0D0D0D" stroke-width="0.4" stroke-linecap="round" stroke-linejoin="round"/>
</svg>
