<svg width="241" height="60" viewBox="0 0 241 60" fill="none" xmlns="http://www.w3.org/2000/svg">
<rect width="193" height="48" transform="translate(24)" fill="#FFEB34"/>
<path d="M67.528 23.736V24.492C67.528 25.892 67.08 27.026 66.184 27.894C65.288 28.762 64.1307 29.196 62.712 29.196C61.2 29.196 59.9447 28.706 58.946 27.726C57.9567 26.7367 57.462 25.5327 57.462 24.114C57.462 22.686 57.952 21.4773 58.932 20.488C59.9213 19.4987 61.144 19.004 62.6 19.004C63.5147 19.004 64.35 19.214 65.106 19.634C65.862 20.0447 66.45 20.5953 66.87 21.286L65.218 22.238C64.9847 21.8367 64.63 21.51 64.154 21.258C63.6873 21.006 63.1647 20.88 62.586 20.88C61.6527 20.88 60.8827 21.188 60.276 21.804C59.6787 22.4107 59.38 23.1807 59.38 24.114C59.38 25.038 59.6833 25.8033 60.29 26.41C60.906 27.0073 61.718 27.306 62.726 27.306C63.4727 27.306 64.0887 27.1427 64.574 26.816C65.0687 26.48 65.4047 26.0227 65.582 25.444H62.614V23.736H67.528ZM70.5442 26.242C70.7869 27.1193 71.4449 27.558 72.5182 27.558C73.2089 27.558 73.7315 27.3247 74.0862 26.858L75.5422 27.698C74.8515 28.6967 73.8342 29.196 72.4902 29.196C71.3329 29.196 70.4042 28.846 69.7042 28.146C69.0042 27.446 68.6542 26.564 68.6542 25.5C68.6542 24.4453 68.9995 23.568 69.6902 22.868C70.3809 22.1587 71.2675 21.804 72.3502 21.804C73.3769 21.804 74.2215 22.1587 74.8842 22.868C75.5562 23.5773 75.8922 24.4547 75.8922 25.5C75.8922 25.7333 75.8689 25.9807 75.8222 26.242H70.5442ZM70.5162 24.842H74.0862C73.9835 24.366 73.7689 24.0113 73.4422 23.778C73.1249 23.5447 72.7609 23.428 72.3502 23.428C71.8649 23.428 71.4635 23.554 71.1462 23.806C70.8289 24.0487 70.6189 24.394 70.5162 24.842ZM81.245 21.804C82.0103 21.804 82.6403 22.0607 83.135 22.574C83.639 23.0873 83.891 23.7967 83.891 24.702V29H82.085V24.926C82.085 24.4593 81.959 24.1047 81.707 23.862C81.455 23.61 81.119 23.484 80.699 23.484C80.2323 23.484 79.859 23.6287 79.579 23.918C79.299 24.2073 79.159 24.6413 79.159 25.22V29H77.353V22H79.159V22.784C79.5976 22.1307 80.293 21.804 81.245 21.804ZM87.159 26.242C87.4017 27.1193 88.0597 27.558 89.133 27.558C89.8237 27.558 90.3464 27.3247 90.701 26.858L92.157 27.698C91.4664 28.6967 90.449 29.196 89.105 29.196C87.9477 29.196 87.019 28.846 86.319 28.146C85.619 27.446 85.269 26.564 85.269 25.5C85.269 24.4453 85.6144 23.568 86.305 22.868C86.9957 22.1587 87.8824 21.804 88.965 21.804C89.9917 21.804 90.8364 22.1587 91.499 22.868C92.171 23.5773 92.507 24.4547 92.507 25.5C92.507 25.7333 92.4837 25.9807 92.437 26.242H87.159ZM87.131 24.842H90.701C90.5984 24.366 90.3837 24.0113 90.057 23.778C89.7397 23.5447 89.3757 23.428 88.965 23.428C88.4797 23.428 88.0784 23.554 87.761 23.806C87.4437 24.0487 87.2337 24.394 87.131 24.842ZM95.7738 23.204C95.9418 22.756 96.2171 22.42 96.5998 22.196C96.9918 21.972 97.4258 21.86 97.9018 21.86V23.876C97.3511 23.8107 96.8565 23.9227 96.4178 24.212C95.9885 24.5013 95.7738 24.982 95.7738 25.654V29H93.9678V22H95.7738V23.204ZM104.218 22H106.024V29H104.218V28.174C103.677 28.8553 102.916 29.196 101.936 29.196C101.003 29.196 100.2 28.8413 99.5283 28.132C98.8656 27.4133 98.5343 26.536 98.5343 25.5C98.5343 24.464 98.8656 23.5913 99.5283 22.882C100.2 22.1633 101.003 21.804 101.936 21.804C102.916 21.804 103.677 22.1447 104.218 22.826V22ZM100.886 26.928C101.25 27.292 101.712 27.474 102.272 27.474C102.832 27.474 103.294 27.292 103.658 26.928C104.032 26.5547 104.218 26.0787 104.218 25.5C104.218 24.9213 104.032 24.45 103.658 24.086C103.294 23.7127 102.832 23.526 102.272 23.526C101.712 23.526 101.25 23.7127 100.886 24.086C100.522 24.45 100.34 24.9213 100.34 25.5C100.34 26.0787 100.522 26.5547 100.886 26.928ZM111.866 23.736H110.284V26.648C110.284 26.8907 110.345 27.068 110.466 27.18C110.587 27.292 110.765 27.3573 110.998 27.376C111.231 27.3853 111.521 27.3807 111.866 27.362V29C110.625 29.14 109.747 29.0233 109.234 28.65C108.73 28.2767 108.478 27.6093 108.478 26.648V23.736H107.26V22H108.478V20.586L110.284 20.04V22H111.866V23.736ZM114.647 26.242C114.889 27.1193 115.547 27.558 116.621 27.558C117.311 27.558 117.834 27.3247 118.189 26.858L119.645 27.698C118.954 28.6967 117.937 29.196 116.593 29.196C115.435 29.196 114.507 28.846 113.807 28.146C113.107 27.446 112.757 26.564 112.757 25.5C112.757 24.4453 113.102 23.568 113.793 22.868C114.483 22.1587 115.37 21.804 116.453 21.804C117.479 21.804 118.324 22.1587 118.987 22.868C119.659 23.5773 119.995 24.4547 119.995 25.5C119.995 25.7333 119.971 25.9807 119.925 26.242H114.647ZM114.619 24.842H118.189C118.086 24.366 117.871 24.0113 117.545 23.778C117.227 23.5447 116.863 23.428 116.453 23.428C115.967 23.428 115.566 23.554 115.249 23.806C114.931 24.0487 114.721 24.394 114.619 24.842ZM129.229 21.804C130.172 21.804 130.975 22.1633 131.637 22.882C132.309 23.5913 132.645 24.464 132.645 25.5C132.645 26.536 132.309 27.4133 131.637 28.132C130.975 28.8413 130.172 29.196 129.229 29.196C128.249 29.196 127.493 28.8553 126.961 28.174V31.8H125.155V22H126.961V22.826C127.493 22.1447 128.249 21.804 129.229 21.804ZM127.507 26.928C127.871 27.292 128.333 27.474 128.893 27.474C129.453 27.474 129.915 27.292 130.279 26.928C130.653 26.5547 130.839 26.0787 130.839 25.5C130.839 24.9213 130.653 24.45 130.279 24.086C129.915 23.7127 129.453 23.526 128.893 23.526C128.333 23.526 127.871 23.7127 127.507 24.086C127.143 24.45 126.961 24.9213 126.961 25.5C126.961 26.0787 127.143 26.5547 127.507 26.928ZM140.083 28.132C139.364 28.8413 138.487 29.196 137.451 29.196C136.415 29.196 135.538 28.8413 134.819 28.132C134.11 27.4133 133.755 26.536 133.755 25.5C133.755 24.464 134.11 23.5913 134.819 22.882C135.538 22.1633 136.415 21.804 137.451 21.804C138.487 21.804 139.364 22.1633 140.083 22.882C140.802 23.5913 141.161 24.464 141.161 25.5C141.161 26.536 140.802 27.4133 140.083 28.132ZM136.093 26.886C136.457 27.25 136.91 27.432 137.451 27.432C137.992 27.432 138.445 27.25 138.809 26.886C139.173 26.522 139.355 26.06 139.355 25.5C139.355 24.94 139.173 24.478 138.809 24.114C138.445 23.75 137.992 23.568 137.451 23.568C136.91 23.568 136.457 23.75 136.093 24.114C135.738 24.478 135.561 24.94 135.561 25.5C135.561 26.06 135.738 26.522 136.093 26.886ZM144.147 23.988C144.147 24.1747 144.268 24.3287 144.511 24.45C144.763 24.562 145.066 24.6647 145.421 24.758C145.776 24.842 146.13 24.954 146.485 25.094C146.84 25.2247 147.138 25.4487 147.381 25.766C147.633 26.0833 147.759 26.48 147.759 26.956C147.759 27.6747 147.488 28.23 146.947 28.622C146.415 29.0047 145.748 29.196 144.945 29.196C143.508 29.196 142.528 28.6407 142.005 27.53L143.573 26.648C143.778 27.2547 144.236 27.558 144.945 27.558C145.589 27.558 145.911 27.3573 145.911 26.956C145.911 26.7693 145.785 26.62 145.533 26.508C145.29 26.3867 144.992 26.2793 144.637 26.186C144.282 26.0927 143.928 25.976 143.573 25.836C143.218 25.696 142.915 25.4767 142.663 25.178C142.42 24.87 142.299 24.4873 142.299 24.03C142.299 23.3393 142.551 22.798 143.055 22.406C143.568 22.0047 144.203 21.804 144.959 21.804C145.528 21.804 146.046 21.9347 146.513 22.196C146.98 22.448 147.348 22.812 147.619 23.288L146.079 24.128C145.855 23.652 145.482 23.414 144.959 23.414C144.726 23.414 144.53 23.4653 144.371 23.568C144.222 23.6707 144.147 23.8107 144.147 23.988ZM152.919 23.736H151.337V26.648C151.337 26.8907 151.398 27.068 151.519 27.18C151.641 27.292 151.818 27.3573 152.051 27.376C152.285 27.3853 152.574 27.3807 152.919 27.362V29C151.678 29.14 150.801 29.0233 150.287 28.65C149.783 28.2767 149.531 27.6093 149.531 26.648V23.736H148.313V22H149.531V20.586L151.337 20.04V22H152.919V23.736Z" fill="#0D0D0D"/>
<path d="M217 0V48H241L217 0Z" fill="#FFEB34"/>
<path d="M24 0V48H0L24 0Z" fill="#FFEB34"/>
<path d="M0 48H6V58L0 48Z" fill="#CDB900"/>
<rect x="6" y="48" width="229" height="10" fill="#CDB900"/>
<path d="M241 48H235V58L241 48Z" fill="#CDB900"/>
<path d="M7 58H234L236 60H5L7 58Z" fill="#0D0D0D"/>
<path d="M164 23.25H163.25L163.25 24.75L164 24.75L164 23.25ZM164 24.75L183 24.75V23.25L164 23.25L164 24.75ZM179.379 20C179.379 22.6 181.425 24.75 184 24.75V23.25C182.299 23.25 180.879 21.8183 180.879 20L179.379 20ZM184 23.25C181.425 23.25 179.379 25.4 179.379 28H180.879C180.879 26.1817 182.299 24.75 184 24.75V23.25Z" fill="#0D0D0D"/>
</svg>
