<svg width="60" height="62" viewBox="0 0 60 62" fill="none" xmlns="http://www.w3.org/2000/svg">
<path d="M6.36015 16.1199L24.885 1.0562L49.8715 9.26002L59.1104 40.545L55.9927 45.518L37.6979 61.0065L11.9016 52.3179L2.72729 21.017L6.36015 16.1199Z" fill="#1E74FF"/>
<path d="M24.885 1.0562L6.36015 16.1199M24.885 1.0562L49.8715 9.26002M24.885 1.0562L29.0172 8.68033M6.36015 16.1199L15.3502 47.2667M6.36015 16.1199L16.1191 18.5563M6.36015 16.1199L2.72729 21.017L11.9016 52.3179M15.3502 47.2667L41.0475 55.7587M15.3502 47.2667L22.9729 41.924M15.3502 47.2667L11.9016 52.3179M41.0475 55.7587L41.1924 55.6367M41.0475 55.7587L37.6979 61.0065M59.1104 40.545L49.8715 9.26002M59.1104 40.545L41.1924 55.6367M59.1104 40.545L52.9936 37.6106M59.1104 40.545L55.9927 45.518L37.6979 61.0065M49.8715 9.26002L45.9696 13.9857M41.1924 55.6367L41.0475 47.2667M11.9016 52.3179L37.6979 61.0065" stroke="#0D0D0D" stroke-width="0.470363" stroke-linejoin="round"/>
<path d="M6.36102 16.0666L24.8859 1.00284L49.8723 9.20666L59.1112 40.4916L41.1933 55.5833L41.0484 55.7053L15.3511 47.2133L6.36102 16.0666Z" fill="#1AD3FF"/>
<path d="M24.8859 1.00284L6.36102 16.0666M24.8859 1.00284L49.8724 9.20666M24.8859 1.00284L29.018 8.62697M6.36102 16.0666L15.3511 47.2133M6.36102 16.0666L16.1199 18.5029M15.3511 47.2133L41.0484 55.7053L41.1933 55.5833M15.3511 47.2133L22.9737 41.8707M59.1112 40.4916L49.8724 9.20666M59.1112 40.4916L41.1933 55.5833M59.1112 40.4916L52.9945 37.5573M49.8724 9.20666L45.9705 13.9324M41.1933 55.5833L41.0484 47.2133" stroke="#0D0D0D" stroke-width="0.470363" stroke-linejoin="round"/>
<path d="M49.8723 9.20666L59.1112 40.4916L41.1932 55.5833L41.0483 47.2133L29.018 8.62697L24.8858 1.00284L49.8723 9.20666Z" fill="#2AE9FB"/>
<path d="M41.0483 55.7053L41.1932 55.5833M59.1112 40.4916L49.8723 9.20666M59.1112 40.4916L41.1932 55.5833M59.1112 40.4916L52.9944 37.5573M49.8723 9.20666L24.8858 1.00284L29.018 8.62697L41.0483 47.2133L41.1932 55.5833M49.8723 9.20666L45.9704 13.9324" stroke="#0D0D0D" stroke-width="0.470363" stroke-linejoin="round"/>
<path d="M16.0403 18.4734L28.958 8.68114L45.9749 13.9357L52.9958 37.532L40.9078 47.3794L22.9003 41.9025L16.0403 18.4734Z" fill="#95FCFF" stroke="#0D0D0D" stroke-width="0.470363" stroke-linejoin="round"/>
<mask id="mask0_20_242" style="mask-type:alpha" maskUnits="userSpaceOnUse" x="16" y="8" width="37" height="40">
<path d="M16.5612 18.7054L29.1118 9.19144L45.6452 14.2967L52.4665 37.2225L40.722 46.7901L23.2262 41.4688L16.5612 18.7054Z" fill="#95FCFF" stroke="black" stroke-width="0.470363" stroke-linejoin="round"/>
</mask>
<g mask="url(#mask0_20_242)">
<rect x="29.1752" y="3.69017" width="22.6209" height="41.1235" transform="rotate(14.0764 29.1752 3.69017)" fill="white"/>
</g>
<path d="M39.9148 18.3972L34.518 19.8433L37.9929 21.8496L34.9092 27.1908L32.4208 25.7542L27.2353 34.7358L29.0007 35.7551L33.1719 28.5376L35.6602 29.9742L39.7597 22.8738L43.2271 24.8716L41.7811 19.4747C41.6765 19.0843 41.4211 18.7515 41.0711 18.5495C40.7211 18.3474 40.3052 18.2926 39.9148 18.3972Z" fill="#01AAD5" stroke="#0D0D0D" stroke-width="0.782814" stroke-linejoin="round"/>
</svg>
