<svg width="36" height="36" viewBox="0 0 36 36" fill="none" xmlns="http://www.w3.org/2000/svg">
<path d="M17.626 26.074C17.547 24.0701 16.715 22.1697 15.297 20.7516C13.879 19.3335 11.978 18.5021 9.97501 18.4229L0 18.0049L10.023 17.616C12.018 17.5447 13.913 16.7249 15.331 15.3197C16.748 13.9145 17.585 12.0271 17.674 10.0329L18.131 0L18.442 9.9163C18.505 11.9312 19.329 13.8473 20.749 15.2782C22.169 16.709 24.079 17.5479 26.093 17.6257L36 18.0049L26.035 18.384C24.03 18.4609 22.129 19.2917 20.71 20.7102C19.292 22.1288 18.461 24.0305 18.384 26.0351L18.005 36L17.626 26.074Z" fill="white"/>
</svg>
