<svg width="16" height="12" viewBox="0 0 16 12" fill="none" xmlns="http://www.w3.org/2000/svg">
<path d="M4.69076 9.08291C3.61232 9.0642 2.68495 8.47825 2.21296 7.6326C2.25025 7.63379 2.28773 7.6344 2.32541 7.6344C2.6409 7.6344 2.94562 7.5931 3.23421 7.51875L3.21611 6.93365C2.04774 6.70855 1.14682 5.80971 0.957618 4.6941C1.29841 4.81524 1.6642 4.88676 2.0449 4.89895L3.13438 4.93383L2.21617 4.34639C1.44717 3.85441 0.946892 3.01846 0.946892 2.07707C0.946892 1.72475 1.01627 1.38849 1.14328 1.08006C2.74868 2.78859 5.03158 3.89721 7.58367 4.01995L7.98459 4.03923L7.88955 3.64926C7.8413 3.45129 7.81612 3.24344 7.81612 3.02977C7.81612 1.53491 9.08658 0.3 10.6813 0.3C11.5107 0.3 12.2552 0.634248 12.7769 1.16718L12.8893 1.28197L13.0471 1.25206C13.4885 1.16845 13.914 1.04346 14.3197 0.881347C14.0919 1.18486 13.8001 1.44294 13.462 1.63681L13.6452 2.19514C13.9437 2.16112 14.2359 2.10827 14.5207 2.03778C14.263 2.29534 13.9802 2.53018 13.6763 2.73774L13.5412 2.83002L13.5456 2.99359L13.5561 3.38182C13.554 7.2437 10.4831 11.7 4.85139 11.7C3.57224 11.7 2.3596 11.4344 1.26691 10.9595C2.61754 10.8616 3.85779 10.379 4.8656 9.62283L5.56497 9.09807L4.69076 9.08291Z" stroke="#8A8A8A" stroke-width="0.6"/>
</svg>
