<svg width="13" height="18" viewBox="0 0 13 18" fill="none" xmlns="http://www.w3.org/2000/svg">
<mask id="path-1-inside-1_22_124" fill="white">
<path fill-rule="evenodd" clip-rule="evenodd" d="M0 4.71178L0 9.71178L6.38467 5.40803L12.7687 9.71137V4.71137L6.38836 0.410522V0.405544L6.38467 0.408032L6.38037 0.405136V0.41093L0 4.71178Z"/>
</mask>
<path fill-rule="evenodd" clip-rule="evenodd" d="M0 4.71178L0 9.71178L6.38467 5.40803L12.7687 9.71137V4.71137L6.38836 0.410522V0.405544L6.38467 0.408032L6.38037 0.405136V0.41093L0 4.71178Z" fill="#76FFC6"/>
<path d="M0 9.71178H-0.4L-0.4 10.4638L0.223578 10.0435L0 9.71178ZM0 4.71178L-0.223578 4.3801L-0.4 4.49902L-0.4 4.71178H0ZM6.38467 5.40803L6.60825 5.07635L6.38467 4.92564L6.16109 5.07635L6.38467 5.40803ZM12.7687 9.71137L12.5452 10.0431L13.1687 10.4634V9.71137H12.7687ZM12.7687 4.71137H13.1687V4.49861L12.9923 4.37969L12.7687 4.71137ZM6.38836 0.410522H5.98836V0.623281L6.16478 0.742203L6.38836 0.410522ZM6.38836 0.405544H6.78836V-0.34642L6.1648 0.0738487L6.38836 0.405544ZM6.38467 0.408032L6.16111 0.739727L6.38467 0.890403L6.60823 0.739728L6.38467 0.408032ZM6.38037 0.405136L6.60393 0.0734415L5.98037 -0.346831V0.405136H6.38037ZM6.38037 0.41093L6.60395 0.742611L6.78037 0.62369V0.41093H6.38037ZM0.4 9.71178L0.4 4.71178H-0.4L-0.4 9.71178H0.4ZM6.16109 5.07635L-0.223578 9.3801L0.223578 10.0435L6.60825 5.73971L6.16109 5.07635ZM6.16109 5.73971L12.5452 10.0431L12.9923 9.37969L6.60825 5.07635L6.16109 5.73971ZM13.1687 9.71137V4.71137H12.3687V9.71137H13.1687ZM12.9923 4.37969L6.61194 0.0788403L6.16478 0.742203L12.5452 5.04305L12.9923 4.37969ZM5.98836 0.405544V0.410522H6.78836V0.405544H5.98836ZM6.60823 0.739728L6.61192 0.73724L6.1648 0.0738487L6.16111 0.0763369L6.60823 0.739728ZM6.60823 0.0763378L6.60393 0.0734415L6.15681 0.736831L6.16111 0.739727L6.60823 0.0763378ZM5.98037 0.405136V0.41093H6.78037V0.405136H5.98037ZM0.223578 5.04346L6.60395 0.742611L6.15679 0.0792484L-0.223578 4.3801L0.223578 5.04346Z" fill="#0D0D0D" mask="url(#path-1-inside-1_22_124)"/>
<mask id="path-3-inside-2_22_124" fill="white">
<path fill-rule="evenodd" clip-rule="evenodd" d="M0 12.4286L0 17.4286L6.38467 13.1248L12.7687 17.4282V12.4282L6.38836 8.12732V8.12234L6.38467 8.12483L6.38037 8.12193V8.12773L0 12.4286Z"/>
</mask>
<path fill-rule="evenodd" clip-rule="evenodd" d="M0 12.4286L0 17.4286L6.38467 13.1248L12.7687 17.4282V12.4282L6.38836 8.12732V8.12234L6.38467 8.12483L6.38037 8.12193V8.12773L0 12.4286Z" fill="#76FFC6"/>
<path d="M0 17.4286H-0.4L-0.4 18.1806L0.223578 17.7603L0 17.4286ZM0 12.4286L-0.223578 12.0969L-0.4 12.2158L-0.4 12.4286H0ZM6.38467 13.1248L6.60825 12.7931L6.38467 12.6424L6.16109 12.7931L6.38467 13.1248ZM12.7687 17.4282L12.5452 17.7598L13.1687 18.1802V17.4282H12.7687ZM12.7687 12.4282H13.1687V12.2154L12.9923 12.0965L12.7687 12.4282ZM6.38836 8.12732H5.98836V8.34008L6.16478 8.459L6.38836 8.12732ZM6.38836 8.12234H6.78836V7.37038L6.1648 7.79065L6.38836 8.12234ZM6.38467 8.12483L6.16111 8.45652L6.38467 8.6072L6.60823 8.45652L6.38467 8.12483ZM6.38037 8.12193L6.60393 7.79024L5.98037 7.36997V8.12193H6.38037ZM6.38037 8.12773L6.60395 8.45941L6.78037 8.34049V8.12773H6.38037ZM0.4 17.4286L0.4 12.4286H-0.4L-0.4 17.4286H0.4ZM6.16109 12.7931L-0.223578 17.0969L0.223578 17.7603L6.60825 13.4565L6.16109 12.7931ZM6.16109 13.4565L12.5452 17.7598L12.9923 17.0965L6.60825 12.7931L6.16109 13.4565ZM13.1687 17.4282V12.4282H12.3687V17.4282H13.1687ZM12.9923 12.0965L6.61194 7.79564L6.16478 8.459L12.5452 12.7598L12.9923 12.0965ZM5.98836 8.12234V8.12732H6.78836V8.12234H5.98836ZM6.60823 8.45652L6.61192 8.45404L6.1648 7.79065L6.16111 7.79313L6.60823 8.45652ZM6.60823 7.79313L6.60393 7.79024L6.15681 8.45363L6.16111 8.45652L6.60823 7.79313ZM5.98037 8.12193V8.12773H6.78037V8.12193H5.98037ZM0.223578 12.7603L6.60395 8.45941L6.15679 7.79605L-0.223578 12.0969L0.223578 12.7603Z" fill="#0D0D0D" mask="url(#path-3-inside-2_22_124)"/>
</svg>
