<svg width="48" height="48" viewBox="0 0 48 48" fill="none" xmlns="http://www.w3.org/2000/svg">
<circle cx="22.9348" cy="25.657" r="21.8255" fill="#29B379" stroke="#0D0D0D" stroke-width="0.418182"/>
<circle cx="25.0001" cy="23.0004" r="21.8255" fill="#1FC87F" stroke="#0D0D0D" stroke-width="0.418182"/>
<mask id="mask0_333_1857" style="mask-type:alpha" maskUnits="userSpaceOnUse" x="3" y="1" width="44" height="44">
<circle cx="24.9999" cy="23.001" r="21.6339" transform="rotate(22.3651 24.9999 23.001)" fill="white"/>
</mask>
<g mask="url(#mask0_333_1857)">
<rect x="25.9518" y="-1.35046" width="16.764" height="44.9124" transform="rotate(22.3651 25.9518 -1.35046)" fill="white"/>
</g>
<circle cx="25.0003" cy="23.0005" r="14.9402" stroke="#0D0D0D" stroke-width="0.418182"/>
<path d="M31.7378 25.8647L31.8465 26.2706L27.2487 27.5026L27.14 27.0968C27.4087 27.024 27.6331 26.9557 27.8137 26.8853C28.0043 26.8111 28.1504 26.7329 28.2484 26.6411C28.3484 26.5475 28.3988 26.4392 28.3953 26.3103C28.392 26.1848 28.3377 26.0455 28.2424 25.8866L26.9994 23.7973L26.98 23.7648L26.9435 23.7746L22.79 24.8875L22.7534 24.8973L22.7529 24.9351L22.721 27.3661C22.721 27.3661 22.721 27.3661 22.721 27.3661C22.718 27.5513 22.7406 27.6991 22.8005 27.8094C22.8619 27.9228 22.9597 27.9914 23.0931 28.0225C23.2239 28.0529 23.3895 28.0476 23.5917 28.0166C23.7833 27.9873 24.0117 27.9342 24.2809 27.8629L24.3896 28.2687L20.3327 29.3557L20.224 28.9499C20.562 28.8565 20.8547 28.7445 21.0671 28.5666C21.2927 28.3776 21.4239 28.1175 21.4301 27.7404C21.4301 27.7404 21.4301 27.7404 21.4301 27.7404L21.6082 17.2778L21.6082 17.2778C21.6113 17.0926 21.5887 16.9448 21.5288 16.8344C21.4674 16.7211 21.3696 16.6525 21.2362 16.6214C21.1054 16.5909 20.9398 16.5963 20.7376 16.6272C20.546 16.6566 20.3176 16.7096 20.0484 16.7809L19.9397 16.3752L24.0277 15.2798L30.0885 25.4203L30.0885 25.4204C30.2825 25.7439 30.5261 25.9035 30.816 25.9544C31.0889 26.0023 31.3984 25.9529 31.7378 25.8647ZM22.9808 17.068L22.8909 16.9174L22.8878 17.0928L22.7721 23.7703L22.771 23.8366L22.8351 23.8194L26.3704 22.8722L26.4343 22.855L26.4004 22.7982L22.9808 17.068Z" fill="#29B379" stroke="#0D0D0D" stroke-width="0.1"/>
</svg>
