<svg width="48" height="48" viewBox="0 0 48 48" fill="none" xmlns="http://www.w3.org/2000/svg">
<circle cx="22.9348" cy="25.657" r="21.8255" fill="#29B379" stroke="#0D0D0D" stroke-width="0.418182"/>
<circle cx="25.0001" cy="23.0004" r="21.8255" fill="#1FC87F" stroke="#0D0D0D" stroke-width="0.418182"/>
<mask id="mask0_333_2010" style="mask-type:alpha" maskUnits="userSpaceOnUse" x="3" y="1" width="44" height="44">
<circle cx="24.9999" cy="23.001" r="21.6339" transform="rotate(22.3651 24.9999 23.001)" fill="white"/>
</mask>
<g mask="url(#mask0_333_2010)">
<rect x="25.9518" y="-1.35046" width="16.764" height="44.9124" transform="rotate(22.3651 25.9518 -1.35046)" fill="white"/>
</g>
<circle cx="25.0003" cy="23.0005" r="14.9402" stroke="#0D0D0D" stroke-width="0.418182"/>
<path d="M27.0846 21.5912L27.1121 21.6867C27.9531 21.5441 28.8756 21.4567 29.6763 21.7363C30.4722 22.0141 31.1558 22.6574 31.5145 23.9962C31.7699 24.9495 31.6421 25.9009 31.1066 26.7066C30.5707 27.5128 29.6234 28.1781 28.2315 28.5511L22.6581 30.0445L22.5494 29.6385C22.8831 29.5455 23.1354 29.4345 23.2821 29.2569C23.4395 29.0662 23.4664 28.8108 23.3713 28.4558L20.7986 18.8545C20.7035 18.4994 20.5525 18.2917 20.3208 18.2053C20.105 18.1247 19.831 18.1548 19.4954 18.2411L19.3867 17.8352L24.6317 16.4298C25.8914 16.0922 26.9249 16.0937 27.7012 16.3995C28.4748 16.7042 28.9992 17.3136 29.2389 18.2079C29.4918 19.1519 29.3383 19.834 28.9351 20.3602C28.5293 20.89 27.8657 21.2683 27.0846 21.5912ZM23.6588 22.1878L23.6717 22.2361L23.72 22.2231L25.5553 21.7314C26.3649 21.5144 26.9112 21.1432 27.2123 20.6654C27.5138 20.187 27.5646 19.6095 27.3988 18.9908C27.2219 18.3307 26.9691 17.8317 26.5078 17.5675C26.047 17.3036 25.3923 17.2819 24.432 17.5392L22.5967 18.031L22.5484 18.0439L22.5614 18.0922L23.6588 22.1878ZM25.279 28.2345L25.2919 28.2828L25.3402 28.2698L27.5039 27.6901C28.4373 27.44 29.0719 27.046 29.4131 26.4914C29.7547 25.9362 29.7955 25.2309 29.5657 24.3734C29.3327 23.5036 28.9031 22.9384 28.2451 22.6699C27.5906 22.4028 26.7206 22.4337 25.6157 22.7297L23.9737 23.1697L23.9254 23.1827L23.9383 23.231L25.279 28.2345Z" fill="#29B379" stroke="#0D0D0D" stroke-width="0.1"/>
</svg>
