<svg width="48" height="48" viewBox="0 0 48 48" fill="none" xmlns="http://www.w3.org/2000/svg">
<circle cx="22.9348" cy="25.657" r="21.8255" fill="#29B379" stroke="#0D0D0D" stroke-width="0.418182"/>
<circle cx="25.0001" cy="23.0004" r="21.8255" fill="#1FC87F" stroke="#0D0D0D" stroke-width="0.418182"/>
<mask id="mask0_333_2019" style="mask-type:alpha" maskUnits="userSpaceOnUse" x="3" y="1" width="44" height="44">
<circle cx="24.9999" cy="23.001" r="21.6339" transform="rotate(22.3651 24.9999 23.001)" fill="white"/>
</mask>
<g mask="url(#mask0_333_2019)">
<rect x="25.9518" y="-1.35046" width="16.764" height="44.9124" transform="rotate(22.3651 25.9518 -1.35046)" fill="white"/>
</g>
<circle cx="25.0003" cy="23.0005" r="14.9402" stroke="#0D0D0D" stroke-width="0.418182"/>
<path d="M21.7793 23.2868C22.1981 24.8495 22.9308 26.0118 23.8801 26.6984C24.8307 27.3859 25.9936 27.5928 27.2626 27.2528C29.4616 26.6636 30.1753 25.0813 30.1964 23.8455L30.6108 23.8188C30.6889 24.6226 30.6641 25.6136 30.2013 26.5213C29.7304 27.4449 28.8019 28.2897 27.0454 28.7604C25.3093 29.2255 23.8037 28.9768 22.5986 28.1176C21.3921 27.2573 20.4805 25.7807 19.9441 23.7786C19.4468 21.9228 19.5469 20.2579 20.1845 18.947C20.8217 17.637 21.9984 16.6748 23.6666 16.2278C25.5292 15.7288 26.8096 16.0331 27.7047 16.7526C28.6028 17.4745 29.122 18.6212 29.4445 19.825L29.5338 20.1581L27.4066 20.5118C27.4067 19.9298 27.3432 19.4009 27.2017 18.873C26.9739 18.0228 26.5589 17.4918 26.0225 17.2221C25.4873 16.953 24.8405 16.9486 24.1573 17.1316C23.2294 17.3803 22.3662 17.9259 21.87 18.9109C21.3744 19.8951 21.2495 21.3093 21.7793 23.2868Z" fill="#29B379" stroke="#0D0D0D" stroke-width="0.1"/>
</svg>
