<svg width="48" height="48" viewBox="0 0 48 48" fill="none" xmlns="http://www.w3.org/2000/svg">
<circle cx="22.9348" cy="25.657" r="21.8255" fill="#29B379" stroke="#0D0D0D" stroke-width="0.418182"/>
<circle cx="25.0001" cy="23.0004" r="21.8255" fill="#1FC87F" stroke="#0D0D0D" stroke-width="0.418182"/>
<mask id="mask0_333_2028" style="mask-type:alpha" maskUnits="userSpaceOnUse" x="3" y="1" width="44" height="44">
<circle cx="24.9999" cy="23.001" r="21.6339" transform="rotate(22.3651 24.9999 23.001)" fill="white"/>
</mask>
<g mask="url(#mask0_333_2028)">
<rect x="25.9518" y="-1.35046" width="16.764" height="44.9124" transform="rotate(22.3651 25.9518 -1.35046)" fill="white"/>
</g>
<circle cx="25.0003" cy="23.0005" r="14.9402" stroke="#0D0D0D" stroke-width="0.418182"/>
<path d="M24.2899 28.3172L24.3028 28.3655L24.3511 28.3526L25.2011 28.1248C26.7635 27.7062 27.8354 27.0081 28.3921 25.954C28.9483 24.9008 28.9841 23.504 28.5012 21.7018C28.0183 19.8997 27.2953 18.7316 26.293 18.1218C25.29 17.5116 24.0192 17.4676 22.4576 17.886L21.6076 18.1138L21.5593 18.1267L21.5723 18.175L24.2899 28.3172ZM18.5063 18.3239L18.3975 17.9179L22.4255 16.8386C24.4174 16.3049 26.1416 16.3792 27.5022 17.0901C28.8619 17.8005 29.8676 19.1512 30.4137 21.1894C30.9598 23.2276 30.7708 24.9246 29.9545 26.244C29.1379 27.564 27.6884 28.5143 25.6969 29.048L21.669 30.1272L21.5602 29.7213C21.894 29.6282 22.1463 29.5173 22.2929 29.3396C22.4503 29.1489 22.4773 28.8936 22.3821 28.5385L19.8095 18.9372C19.7143 18.5822 19.5633 18.3745 19.3317 18.288C19.1159 18.2075 18.8419 18.2376 18.5063 18.3239Z" fill="#29B379" stroke="#0D0D0D" stroke-width="0.1"/>
</svg>
