<svg width="48" height="48" viewBox="0 0 48 48" fill="none" xmlns="http://www.w3.org/2000/svg">
<circle cx="22.9348" cy="25.657" r="21.8255" fill="#29B379" stroke="#0D0D0D" stroke-width="0.418182"/>
<circle cx="25.0001" cy="23.0004" r="21.8255" fill="#1FC87F" stroke="#0D0D0D" stroke-width="0.418182"/>
<mask id="mask0_333_2037" style="mask-type:alpha" maskUnits="userSpaceOnUse" x="3" y="1" width="44" height="44">
<circle cx="24.9999" cy="23.001" r="21.6339" transform="rotate(22.3651 24.9999 23.001)" fill="white"/>
</mask>
<g mask="url(#mask0_333_2037)">
<rect x="25.9518" y="-1.35046" width="16.764" height="44.9124" transform="rotate(22.3651 25.9518 -1.35046)" fill="white"/>
</g>
<circle cx="25.0003" cy="23.0005" r="14.9402" stroke="#0D0D0D" stroke-width="0.418182"/>
<path d="M28.7406 18.0439L28.3544 18.2313C28.0865 17.6853 27.8397 17.2641 27.5727 17C27.4348 16.8636 27.2899 16.7674 27.132 16.718C26.9737 16.6686 26.8056 16.6674 26.6237 16.7162L21.6009 18.062L21.5526 18.075L21.5655 18.1232L22.7199 22.4313L22.7328 22.4796L22.7811 22.4666L26.5289 21.4624C26.8814 21.368 27.0924 21.2331 27.188 21.0321C27.2774 20.8444 27.2591 20.6121 27.1888 20.3332L27.5948 20.2244L28.3298 22.9676L27.9238 23.0764C27.8453 22.7997 27.7449 22.5894 27.5737 22.4714C27.3904 22.3452 27.1402 22.3339 26.7877 22.4283L23.0399 23.4326L22.9916 23.4455L23.0046 23.4938L24.2831 28.2655L24.2961 28.3138L24.3444 28.3008L29.5797 26.898C29.9478 26.7994 30.1721 26.5401 30.3078 26.1523C30.4389 25.7779 30.4894 25.2784 30.5091 24.6748L30.9334 24.6952L30.8591 26.7574L30.8591 26.7576L30.8317 27.6185L21.6623 30.0755L21.5535 29.6695C21.8873 29.5765 22.1396 29.4655 22.2862 29.2879C22.4436 29.0972 22.4705 28.8418 22.3754 28.4868L19.8028 18.8855C19.7076 18.5304 19.5566 18.3227 19.325 18.2363C19.1091 18.1557 18.8352 18.1858 18.4996 18.2721L18.3908 17.8662L27.4595 15.4362L27.8135 16.1689L27.8137 16.1693L28.7406 18.0439Z" fill="#29B379" stroke="#0D0D0D" stroke-width="0.1"/>
</svg>
