<svg width="48" height="48" viewBox="0 0 48 48" fill="none" xmlns="http://www.w3.org/2000/svg">
<circle cx="22.9348" cy="25.657" r="21.8255" fill="#29B379" stroke="#0D0D0D" stroke-width="0.418182"/>
<circle cx="25.0001" cy="23.0004" r="21.8255" fill="#1FC87F" stroke="#0D0D0D" stroke-width="0.418182"/>
<mask id="mask0_333_2046" style="mask-type:alpha" maskUnits="userSpaceOnUse" x="3" y="1" width="44" height="44">
<circle cx="24.9998" cy="23.001" r="21.6339" transform="rotate(22.3651 24.9998 23.001)" fill="white"/>
</mask>
<g mask="url(#mask0_333_2046)">
<rect x="25.9518" y="-1.35046" width="16.764" height="44.9124" transform="rotate(22.3651 25.9518 -1.35046)" fill="white"/>
</g>
<circle cx="25.0003" cy="23.0005" r="14.9402" stroke="#0D0D0D" stroke-width="0.418182"/>
<path d="M23.0572 23.484L23.0089 23.4969L23.0219 23.5452L24.2073 27.9691C24.3024 28.3242 24.4534 28.5319 24.685 28.6183C24.9009 28.6988 25.1748 28.6688 25.5104 28.5825L25.6192 28.9884L21.6589 30.0496L21.5501 29.6437C21.8839 29.5506 22.1362 29.4396 22.2828 29.262C22.4402 29.0713 22.4671 28.8159 22.372 28.4609L19.7993 18.8596C19.7042 18.5045 19.5532 18.2968 19.3215 18.2104C19.1057 18.1299 18.8317 18.16 18.4962 18.2462L18.3874 17.8403L27.6116 15.3687L27.9844 16.0974L27.9845 16.0975L28.9257 17.9492L28.5617 18.1468C28.2846 17.6038 28.0286 17.1856 27.7546 16.9237C27.6131 16.7884 27.4652 16.6932 27.3054 16.6446C27.1452 16.5958 26.9761 16.5949 26.7942 16.6437L21.5975 18.0361L21.5492 18.0491L21.5621 18.0974L22.7372 22.4827L22.7501 22.531L22.7984 22.518L26.5462 21.5138C26.8987 21.4194 27.1097 21.2845 27.2053 21.0835C27.2947 20.8957 27.2764 20.6635 27.206 20.3846L27.6121 20.2758L28.3471 23.019L27.9411 23.1278C27.8626 22.8511 27.7622 22.6408 27.591 22.5228C27.4077 22.3966 27.1575 22.3853 26.805 22.4797L23.0572 23.484Z" fill="#29B379" stroke="#0D0D0D" stroke-width="0.1"/>
</svg>
