<svg width="48" height="48" viewBox="0 0 48 48" fill="none" xmlns="http://www.w3.org/2000/svg">
<circle cx="22.9348" cy="25.657" r="21.8255" fill="#29B379" stroke="#0D0D0D" stroke-width="0.418182"/>
<circle cx="25.0001" cy="23.0004" r="21.8255" fill="#1FC87F" stroke="#0D0D0D" stroke-width="0.418182"/>
<mask id="mask0_333_2055" style="mask-type:alpha" maskUnits="userSpaceOnUse" x="3" y="1" width="44" height="44">
<circle cx="24.9998" cy="23.001" r="21.6339" transform="rotate(22.3651 24.9998 23.001)" fill="white"/>
</mask>
<g mask="url(#mask0_333_2055)">
<rect x="25.9518" y="-1.35046" width="16.764" height="44.9124" transform="rotate(22.3651 25.9518 -1.35046)" fill="white"/>
</g>
<circle cx="25.0003" cy="23.0005" r="14.9402" stroke="#0D0D0D" stroke-width="0.418182"/>
<path d="M27.6062 20.0574C27.6254 19.5539 27.5818 19.1022 27.461 18.6514C27.2764 17.9625 26.8801 17.4892 26.3395 17.2401C25.8004 16.9917 25.1239 16.9689 24.3821 17.1677C23.378 17.4368 22.4616 17.996 21.9312 18.99C21.4012 19.9835 21.2617 21.4021 21.7917 23.3798C22.2104 24.9425 22.9533 26.143 23.9123 26.8681C24.8725 27.5941 26.046 27.8407 27.3164 27.5003C28.6183 27.1515 29.2736 26.7048 29.7719 26.2145L29.7892 26.1975L29.7865 26.1733L29.6263 24.7255L29.6263 24.725C29.5655 24.2205 29.3437 23.8686 28.967 23.6661C28.5938 23.4654 28.0762 23.4156 27.4305 23.4948L27.4302 23.4948L24.632 23.8572L24.5476 23.5421L30.6517 21.9065L31.1582 23.8719L31.1583 23.8724C31.2055 24.0486 31.2652 24.2126 31.3363 24.3484C31.4 24.4702 31.4747 24.5727 31.5608 24.6399C31.1218 26.4641 29.7107 28.1425 27.0578 28.8534C25.3216 29.3186 23.816 29.0698 22.6109 28.2106C21.4044 27.3503 20.4929 25.8737 19.9564 23.8716C19.4594 22.0168 19.6024 20.3405 20.2833 19.0177C20.9639 17.6954 22.1844 16.7213 23.8528 16.2742C25.7161 15.775 27.0252 16.0465 27.937 16.6934C28.8506 17.3416 29.3742 18.373 29.6521 19.4101L29.7259 19.6858L27.6062 20.0574Z" fill="#29B379" stroke="#0D0D0D" stroke-width="0.1"/>
</svg>
