<svg width="48" height="48" viewBox="0 0 48 48" fill="none" xmlns="http://www.w3.org/2000/svg">
<circle cx="22.9348" cy="25.657" r="21.8255" fill="#29B379" stroke="#0D0D0D" stroke-width="0.418182"/>
<circle cx="25.0001" cy="23.0004" r="21.8255" fill="#1FC87F" stroke="#0D0D0D" stroke-width="0.418182"/>
<mask id="mask0_333_2064" style="mask-type:alpha" maskUnits="userSpaceOnUse" x="3" y="1" width="44" height="44">
<circle cx="24.9998" cy="23.001" r="21.6339" transform="rotate(22.3651 24.9998 23.001)" fill="white"/>
</mask>
<g mask="url(#mask0_333_2064)">
<rect x="25.9518" y="-1.35046" width="16.764" height="44.9124" transform="rotate(22.3651 25.9518 -1.35046)" fill="white"/>
</g>
<circle cx="25.0003" cy="23.0005" r="14.9402" stroke="#0D0D0D" stroke-width="0.418182"/>
<path d="M27.1737 20.8158L27.222 20.8029L27.2091 20.7546L26.2255 17.0841C26.1304 16.729 25.9794 16.5213 25.7478 16.4349C25.5319 16.3543 25.258 16.3844 24.9224 16.4707L24.8136 16.0648L28.7739 15.0036L28.8827 15.4095C28.5489 15.5026 28.2966 15.6135 28.15 15.7912C27.9926 15.9819 27.9657 16.2373 28.0608 16.5923L30.6335 26.1936C30.7286 26.5487 30.8796 26.7564 31.1113 26.8428C31.3271 26.9233 31.6011 26.8932 31.9366 26.807L32.0454 27.2129L28.0851 28.2741L27.9763 27.8681C28.3101 27.7751 28.5624 27.6641 28.709 27.4865C28.8664 27.2958 28.8933 27.0404 28.7982 26.6854L27.4989 21.8364L27.486 21.7881L27.4377 21.8011L21.9706 23.266L21.9223 23.2789L21.9352 23.3272L23.2345 28.1762C23.3296 28.5312 23.4806 28.7389 23.7123 28.8253C23.9281 28.9059 24.2021 28.8758 24.5376 28.7895L24.6464 29.1955L20.6861 30.2566L20.5773 29.8507C20.9111 29.7576 21.1634 29.6467 21.31 29.469C21.4674 29.2783 21.4944 29.023 21.3992 28.6679L18.8266 19.0666C18.7314 18.7116 18.5804 18.5039 18.3488 18.4174C18.1329 18.3369 17.859 18.367 17.5234 18.4532L17.4146 18.0473L21.3749 16.9862L21.4837 17.3921C21.1499 17.4852 20.8976 17.5961 20.751 17.7738C20.5936 17.9644 20.5667 18.2198 20.6618 18.5749L21.6453 22.2454L21.6583 22.2937L21.7066 22.2807L27.1737 20.8158Z" fill="#29B379" stroke="#0D0D0D" stroke-width="0.1"/>
</svg>
