<svg width="48" height="48" viewBox="0 0 48 48" fill="none" xmlns="http://www.w3.org/2000/svg">
<circle cx="22.9348" cy="25.657" r="21.8255" fill="#29B379" stroke="#0D0D0D" stroke-width="0.418182"/>
<circle cx="25.0001" cy="23.0004" r="21.8255" fill="#1FC87F" stroke="#0D0D0D" stroke-width="0.418182"/>
<mask id="mask0_333_2082" style="mask-type:alpha" maskUnits="userSpaceOnUse" x="3" y="1" width="44" height="44">
<circle cx="24.9998" cy="23.001" r="21.6339" transform="rotate(22.3651 24.9998 23.001)" fill="white"/>
</mask>
<g mask="url(#mask0_333_2082)">
<rect x="25.9518" y="-1.35046" width="16.764" height="44.9124" transform="rotate(22.3651 25.9518 -1.35046)" fill="white"/>
</g>
<circle cx="25.0003" cy="23.0005" r="14.9402" stroke="#0D0D0D" stroke-width="0.418182"/>
<path d="M25.7896 16.9273L25.7767 16.879L25.7284 16.892L22.9272 17.6426C22.7483 17.6905 22.6079 17.7601 22.5036 17.8558C22.3987 17.952 22.3332 18.0721 22.3001 18.216C22.237 18.4902 22.2917 18.8532 22.4121 19.3128L22.0062 19.4216C21.7368 18.4322 21.4161 17.7505 20.9037 17.1288L27.348 15.402L29.4263 23.1584C29.8439 24.717 29.7995 25.9564 29.3153 26.8959C28.8317 27.8343 27.9039 28.4839 26.5312 28.8517C24.8733 29.296 23.6467 28.9836 22.7534 28.265C21.8576 27.5442 21.2905 26.4094 20.9658 25.1976L20.8817 24.8838L23.0269 24.5252C23.0138 25.1299 23.0764 25.6564 23.1931 26.0916C23.4054 26.8839 23.8093 27.432 24.3395 27.7339C24.8696 28.0358 25.5189 28.0877 26.2144 27.9013C26.9855 27.6947 27.5255 27.3404 27.7831 26.7153C28.039 26.0944 28.011 25.2177 27.679 23.9786L25.7896 16.9273Z" fill="#29B379" stroke="#0D0D0D" stroke-width="0.1"/>
</svg>
