<svg width="48" height="48" viewBox="0 0 48 48" fill="none" xmlns="http://www.w3.org/2000/svg">
<circle cx="22.9348" cy="25.657" r="21.8255" fill="#29B379" stroke="#0D0D0D" stroke-width="0.418182"/>
<circle cx="25.0001" cy="23.0004" r="21.8255" fill="#1FC87F" stroke="#0D0D0D" stroke-width="0.418182"/>
<mask id="mask0_333_1866" style="mask-type:alpha" maskUnits="userSpaceOnUse" x="3" y="1" width="44" height="44">
<circle cx="24.9999" cy="23.001" r="21.6339" transform="rotate(22.3651 24.9999 23.001)" fill="white"/>
</mask>
<g mask="url(#mask0_333_1866)">
<rect x="25.9518" y="-1.35046" width="16.764" height="44.9124" transform="rotate(22.3651 25.9518 -1.35046)" fill="white"/>
</g>
<circle cx="25.0003" cy="23.0005" r="14.9402" stroke="#0D0D0D" stroke-width="0.418182"/>
<path d="M31.2424 26.9493C31.5776 26.9401 31.9292 26.8541 32.2709 26.7631L32.3796 27.1689L27.492 28.4785L27.3833 28.0728C27.6646 27.9972 27.8901 27.9351 28.0618 27.878C28.2408 27.8184 28.3702 27.7617 28.4424 27.6951C28.4799 27.6605 28.5055 27.6201 28.5114 27.5724C28.5173 27.5253 28.503 27.4792 28.4772 27.4348C28.4269 27.3485 28.3227 27.2516 28.1785 27.1358C28.1784 27.1357 28.1783 27.1357 28.1781 27.1356L23.6278 23.3655L23.576 23.3225L23.5498 23.3845L22.5747 25.6956L22.5681 25.7114L22.5725 25.728L23.2403 28.2201C23.3354 28.5752 23.4864 28.7828 23.7181 28.8693C23.9339 28.9498 24.2079 28.9197 24.5434 28.8335L24.6522 29.2394L20.6919 30.3006L20.5831 29.8946C20.9169 29.8016 21.1692 29.6906 21.3158 29.513C21.4732 29.3223 21.5002 29.0669 21.405 28.7119L18.8324 19.1106C18.7372 18.7555 18.5862 18.5478 18.3546 18.4614C18.1387 18.3808 17.8648 18.4109 17.5292 18.4972L17.4204 18.0913L21.3807 17.0301L21.4895 17.436C21.1557 17.5291 20.9034 17.64 20.7568 17.8177C20.5994 18.0084 20.5725 18.2638 20.6676 18.6188L22.0238 23.6803L22.0617 23.8218L22.1183 23.6866L24.8184 17.228C24.8184 17.2279 24.8185 17.2279 24.8185 17.2278C24.888 17.0652 24.9342 16.9363 24.9403 16.8415C24.9433 16.793 24.9364 16.747 24.9107 16.7093C24.8844 16.6709 24.8439 16.6492 24.7965 16.6384C24.706 16.6179 24.5705 16.6336 24.3897 16.671C24.2162 16.707 23.9922 16.7653 23.7111 16.8405L23.6024 16.4348L28.3547 15.1614L28.4634 15.5671C27.9991 15.6916 27.5538 15.8132 27.1892 15.9844C26.8114 16.1618 26.5126 16.3957 26.3683 16.7492C26.3683 16.7493 26.3682 16.7494 26.3682 16.7495L23.7644 22.8714L23.7277 22.9576L23.8198 22.9401L25.3926 22.6411L30.2591 26.6383C30.2591 26.6383 30.2592 26.6384 30.2593 26.6385C30.5517 26.8838 30.8899 26.959 31.2424 26.9493Z" fill="#29B379" stroke="#0D0D0D" stroke-width="0.1"/>
</svg>
