<svg width="48" height="48" viewBox="0 0 48 48" fill="none" xmlns="http://www.w3.org/2000/svg">
<circle cx="22.9348" cy="25.657" r="21.8255" fill="#29B379" stroke="#0D0D0D" stroke-width="0.418182"/>
<circle cx="25.0001" cy="23.0004" r="21.8255" fill="#1FC87F" stroke="#0D0D0D" stroke-width="0.418182"/>
<mask id="mask0_333_1938" style="mask-type:alpha" maskUnits="userSpaceOnUse" x="3" y="1" width="44" height="44">
<circle cx="24.9999" cy="23.001" r="21.6339" transform="rotate(22.3651 24.9999 23.001)" fill="white"/>
</mask>
<g mask="url(#mask0_333_1938)">
<rect x="25.9518" y="-1.35046" width="16.764" height="44.9124" transform="rotate(22.3651 25.9518 -1.35046)" fill="white"/>
</g>
<circle cx="25.0003" cy="23.0005" r="14.9402" stroke="#0D0D0D" stroke-width="0.418182"/>
<path d="M29.2031 17.3154L29.2032 17.3157L33.1771 26.5827C33.1771 26.5827 33.1771 26.5827 33.1771 26.5827C33.3229 26.9278 33.5241 27.1129 33.7877 27.1816C34.0345 27.2459 34.3282 27.2057 34.666 27.1184L34.7748 27.5243L30.5054 28.6683L30.3966 28.2625C30.6179 28.2021 30.8061 28.1421 30.9606 28.0767C31.1259 28.0068 31.2559 27.9292 31.3467 27.835C31.4387 27.7395 31.489 27.6282 31.4959 27.4956C31.5028 27.3649 31.4675 27.2167 31.3953 27.0458L31.3952 27.0456L27.699 18.4286L27.6031 18.4464L27.1759 29.5604L25.3151 30.059L19.3303 20.6628L19.2385 20.6959L20.404 29.991L20.4039 29.991L20.4041 29.9923C20.432 30.1751 20.4793 30.3199 20.5534 30.4287C20.6286 30.5389 20.7294 30.6094 20.8578 30.6456C20.9845 30.6814 21.1364 30.6834 21.3149 30.6613C21.4816 30.6406 21.6747 30.5984 21.8965 30.5401L22.0052 30.9459L18.2767 31.945L18.168 31.5391C18.5041 31.4458 18.7786 31.3337 18.9579 31.1551C19.1497 30.9641 19.2262 30.7041 19.1701 30.3351L17.9202 20.3386L17.9202 20.3386L17.92 20.3373C17.8651 19.977 17.7628 19.7571 17.5634 19.6629C17.4654 19.6166 17.3495 19.6037 17.2156 19.6135C17.0938 19.6223 16.9542 19.6501 16.7947 19.6912L16.686 19.2853L19.9828 18.4019L26.0491 28.0246L26.1404 27.9876C25.9935 27.286 25.9066 26.4237 25.9721 25.4378C25.9721 25.4377 25.9721 25.4377 25.9721 25.4377L26.6018 16.6284L29.726 15.7913L29.8347 16.1972C29.6761 16.2412 29.5413 16.287 29.4317 16.3402C29.3112 16.3986 29.2177 16.4677 29.1571 16.5567C29.0337 16.7381 29.0609 16.9788 29.2031 17.3154Z" fill="#29B379" stroke="#0D0D0D" stroke-width="0.1"/>
</svg>
