<svg width="48" height="48" viewBox="0 0 48 48" fill="none" xmlns="http://www.w3.org/2000/svg">
<circle cx="22.9348" cy="25.657" r="21.8255" fill="#29B379" stroke="#0D0D0D" stroke-width="0.418182"/>
<circle cx="25.0001" cy="23.0004" r="21.8255" fill="#1FC87F" stroke="#0D0D0D" stroke-width="0.418182"/>
<mask id="mask0_333_1947" style="mask-type:alpha" maskUnits="userSpaceOnUse" x="3" y="1" width="44" height="44">
<circle cx="24.9999" cy="23.001" r="21.6339" transform="rotate(22.3651 24.9999 23.001)" fill="white"/>
</mask>
<g mask="url(#mask0_333_1947)">
<rect x="25.9518" y="-1.35046" width="16.764" height="44.9124" transform="rotate(22.3651 25.9518 -1.35046)" fill="white"/>
</g>
<circle cx="25.0003" cy="23.0005" r="14.9402" stroke="#0D0D0D" stroke-width="0.418182"/>
<path d="M23.2806 29.0025C23.6088 29.0502 24.0572 28.9724 24.6414 28.818L24.7501 29.2238L20.6932 30.3108L20.5845 29.9049C20.9182 29.8118 21.1705 29.7009 21.3172 29.5232C21.4746 29.3325 21.5015 29.0772 21.4064 28.7221L18.8337 19.1208C18.7386 18.7658 18.5876 18.5581 18.3559 18.4716C18.1401 18.3911 17.8661 18.4212 17.5305 18.5074L17.4218 18.1015L20.8419 17.1851L29.6675 26.2233L29.8011 26.3601L29.7516 26.1754L27.2566 16.8639C27.2083 16.6836 27.1318 16.5436 27.0213 16.4423C26.9106 16.3409 26.7698 16.2821 26.5994 16.2574C26.2711 16.2098 25.8228 16.2875 25.2386 16.4419L25.1299 16.0361L29.1867 14.9491L29.2955 15.355C28.9618 15.4481 28.7095 15.559 28.5628 15.7367C28.4054 15.9274 28.3785 16.1828 28.4736 16.5378L31.0463 26.1391C31.1414 26.4942 31.2924 26.7018 31.5241 26.7883C31.7399 26.8688 32.0139 26.8387 32.3495 26.7525L32.4582 27.1584L29.0188 28.08L20.2177 19.0559L20.0841 18.9189L20.1336 19.1038L22.6234 28.396C22.6717 28.5763 22.7482 28.7164 22.8587 28.8176C22.9694 28.919 23.1102 28.9778 23.2806 29.0025Z" fill="#29B379" stroke="#0D0D0D" stroke-width="0.1"/>
</svg>
