<svg width="48" height="48" viewBox="0 0 48 48" fill="none" xmlns="http://www.w3.org/2000/svg">
<circle cx="22.9348" cy="25.657" r="21.8255" fill="#29B379" stroke="#0D0D0D" stroke-width="0.418182"/>
<circle cx="25.0001" cy="23.0004" r="21.8255" fill="#1FC87F" stroke="#0D0D0D" stroke-width="0.418182"/>
<mask id="mask0_333_1956" style="mask-type:alpha" maskUnits="userSpaceOnUse" x="3" y="1" width="44" height="44">
<circle cx="24.9999" cy="23.001" r="21.6339" transform="rotate(22.3651 24.9999 23.001)" fill="white"/>
</mask>
<g mask="url(#mask0_333_1956)">
<rect x="25.9518" y="-1.35046" width="16.764" height="44.9124" transform="rotate(22.3651 25.9518 -1.35046)" fill="white"/>
</g>
<circle cx="25.0003" cy="23.0005" r="14.9402" stroke="#0D0D0D" stroke-width="0.418182"/>
<path d="M19.9766 23.9658C19.5024 22.1962 19.5458 20.5307 20.1596 19.1874C20.7727 17.8458 21.9577 16.8195 23.7802 16.3312C25.6027 15.8429 27.142 16.1391 28.3438 16.9945C29.547 17.8508 30.4174 19.2715 30.8915 21.0411C31.3657 22.8108 31.3353 24.5251 30.7339 25.917C30.1333 27.3073 28.961 28.3809 27.1397 28.8689C25.3184 29.3569 23.7663 29.0133 22.551 28.1097C21.3342 27.2049 20.4507 25.7355 19.9766 23.9658ZM21.8891 23.4533C22.359 25.2068 23.0592 26.4646 23.917 27.212C24.777 27.9612 25.7925 28.1946 26.8808 27.903C27.9692 27.6114 28.7319 26.9014 29.1021 25.8226C29.4713 24.7465 29.4488 23.3071 28.979 21.5536C28.5092 19.8002 27.8217 18.59 26.976 17.8907C26.1279 17.1895 25.1254 17.006 24.039 17.2971C22.9527 17.5882 22.1762 18.2483 21.7923 19.2797C21.4096 20.3082 21.4193 21.6999 21.8891 23.4533Z" fill="#29B379" stroke="#0D0D0D" stroke-width="0.1"/>
</svg>
