<svg width="48" height="48" viewBox="0 0 48 48" fill="none" xmlns="http://www.w3.org/2000/svg">
<circle cx="22.9348" cy="25.657" r="21.8255" fill="#29B379" stroke="#0D0D0D" stroke-width="0.418182"/>
<circle cx="25.0001" cy="23.0004" r="21.8255" fill="#1FC87F" stroke="#0D0D0D" stroke-width="0.418182"/>
<mask id="mask0_333_1965" style="mask-type:alpha" maskUnits="userSpaceOnUse" x="3" y="1" width="44" height="44">
<circle cx="24.9998" cy="23.001" r="21.6339" transform="rotate(22.3651 24.9998 23.001)" fill="white"/>
</mask>
<g mask="url(#mask0_333_1965)">
<rect x="25.9518" y="-1.35046" width="16.764" height="44.9124" transform="rotate(22.3651 25.9518 -1.35046)" fill="white"/>
</g>
<circle cx="25.0003" cy="23.0005" r="14.9402" stroke="#0D0D0D" stroke-width="0.418182"/>
<path d="M24.6704 28.5069C24.8862 28.5874 25.1602 28.5573 25.4958 28.4711L25.6045 28.877L21.6442 29.9381L21.5355 29.5322C21.8692 29.4391 22.1215 29.3282 22.2682 29.1505C22.4256 28.9599 22.4525 28.7045 22.3573 28.3494L19.7847 18.7481C19.6895 18.3931 19.5385 18.1854 19.3069 18.099C19.0911 18.0184 18.8171 18.0485 18.4815 18.1348L18.3728 17.7288L23.753 16.2872C24.8844 15.9841 25.8672 16.0495 26.626 16.4134C27.3838 16.7768 27.9235 17.4404 28.166 18.3452C28.4317 19.3371 28.2843 20.2735 27.8031 21.0339C27.3217 21.7947 26.5038 22.383 25.4225 22.6727C24.0287 23.0462 23.1636 22.6041 22.7569 22.1324L22.6707 22.178L24.1926 27.8577C24.2877 28.2127 24.4387 28.4204 24.6704 28.5069ZM21.5828 17.9247L21.5345 17.9376L21.5475 17.9859L22.1686 20.3041C22.3389 20.9396 22.6423 21.4265 23.0835 21.7065C23.5255 21.987 24.0974 22.0546 24.7929 21.8682C25.5517 21.6649 26.0042 21.21 26.2267 20.6611C26.4484 20.1144 26.4405 19.4783 26.2883 18.9104C26.1103 18.2461 25.8031 17.7642 25.3467 17.5007C24.8903 17.2372 24.2949 17.198 23.5533 17.3967L21.5828 17.9247Z" fill="#29B379" stroke="#0D0D0D" stroke-width="0.1"/>
</svg>
