<svg width="48" height="48" viewBox="0 0 48 48" fill="none" xmlns="http://www.w3.org/2000/svg">
<circle cx="22.9348" cy="25.657" r="21.8255" fill="#29B379" stroke="#0D0D0D" stroke-width="0.418182"/>
<circle cx="25.0001" cy="23.0004" r="21.8255" fill="#1FC87F" stroke="#0D0D0D" stroke-width="0.418182"/>
<mask id="mask0_333_1974" style="mask-type:alpha" maskUnits="userSpaceOnUse" x="3" y="1" width="44" height="44">
<circle cx="24.9998" cy="23.001" r="21.6339" transform="rotate(22.3651 24.9998 23.001)" fill="white"/>
</mask>
<g mask="url(#mask0_333_1974)">
<rect x="25.9518" y="-1.35046" width="16.764" height="44.9124" transform="rotate(22.3651 25.9518 -1.35046)" fill="white"/>
</g>
<circle cx="25.0003" cy="23.0005" r="14.9402" stroke="#0D0D0D" stroke-width="0.418182"/>
<path d="M28.5746 26.2103L28.5445 26.2461L28.5782 26.2785L32.0927 29.6673L31.9789 29.8255L29.9972 28.6334L27.8851 26.9247L27.8542 26.8997L27.8228 26.9242C27.2635 27.361 26.5577 27.7146 25.7329 27.9356C23.9116 28.4236 22.3596 28.0799 21.1443 27.1763C19.9274 26.2715 19.044 24.8021 18.5698 23.0325C18.0957 21.2628 18.1391 19.5973 18.7529 18.2541C19.366 16.9124 20.551 15.8862 22.3735 15.3979C24.1959 14.9095 25.7353 15.2058 26.9371 16.0611C28.1403 16.9175 29.0106 18.3382 29.4848 20.1078C30.1086 22.4359 29.8637 24.677 28.5746 26.2103ZM27.4882 25.2246L27.5396 25.2744L27.5687 25.209C28.066 24.0896 28.0914 22.5576 27.5723 20.6203C27.1024 18.8669 26.415 17.6567 25.5692 16.9574C24.7211 16.2561 23.7186 16.0727 22.6323 16.3638C21.5559 16.6522 20.7816 17.3011 20.399 18.3088L20.3874 18.3396L20.411 18.3625L27.4882 25.2246ZM20.3756 18.647L20.3184 18.5244L20.2821 18.6547C20.0042 19.6511 20.0566 20.9312 20.4824 22.52C20.9522 24.2735 21.6525 25.5313 22.5103 26.2786C23.3702 27.0278 24.3858 27.2613 25.4741 26.9696C26.0415 26.8176 26.5014 26.5684 26.8854 26.1914L26.9254 26.1521L26.8818 26.1168L22.0265 22.189L20.3756 18.647Z" fill="#29B379" stroke="#0D0D0D" stroke-width="0.1"/>
</svg>
