<svg width="48" height="48" viewBox="0 0 48 48" fill="none" xmlns="http://www.w3.org/2000/svg">
<circle cx="22.9348" cy="25.657" r="21.8255" fill="#29B379" stroke="#0D0D0D" stroke-width="0.418182"/>
<circle cx="25.0001" cy="23.0004" r="21.8255" fill="#1FC87F" stroke="#0D0D0D" stroke-width="0.418182"/>
<mask id="mask0_333_2001" style="mask-type:alpha" maskUnits="userSpaceOnUse" x="3" y="1" width="44" height="44">
<circle cx="24.9998" cy="23.001" r="21.6339" transform="rotate(22.3651 24.9998 23.001)" fill="white"/>
</mask>
<g mask="url(#mask0_333_2001)">
<rect x="25.9518" y="-1.35046" width="16.764" height="44.9124" transform="rotate(22.3651 25.9518 -1.35046)" fill="white"/>
</g>
<circle cx="25.0003" cy="23.0005" r="14.9402" stroke="#0D0D0D" stroke-width="0.418182"/>
<path d="M22.3568 18.7977L22.3439 18.7494L22.2956 18.7624L19.4944 19.513C19.3131 19.5615 19.1708 19.643 19.064 19.7604C18.9573 19.8776 18.8891 20.0275 18.8504 20.2081C18.7755 20.5572 18.8092 21.0311 18.899 21.6337L18.4986 21.6911L18.1513 19.64L17.9937 18.6194C18.4198 18.7081 18.8008 18.6428 19.4236 18.4759L26.5908 16.5555C27.2154 16.3881 27.56 16.2587 27.8993 15.9645L28.2551 16.9318L28.2552 16.9321L28.9605 18.8856L28.563 19.0256C28.3602 18.4629 28.1631 18.0375 27.9288 17.7733C27.8076 17.6367 27.6749 17.5412 27.5245 17.4931C27.3739 17.4449 27.2099 17.4456 27.0286 17.4942L24.2275 18.2447L24.1792 18.2577L24.1921 18.306L26.8372 28.1777C26.885 28.3562 26.9519 28.4967 27.0424 28.602C27.1336 28.708 27.2467 28.7759 27.3826 28.8116C27.6406 28.8795 27.9803 28.8312 28.4109 28.7187L28.5196 29.1246L24.0184 30.3307L23.9097 29.9248C24.3388 29.8069 24.6571 29.6789 24.8466 29.4911C24.9464 29.3922 25.0105 29.2769 25.0364 29.1395C25.0622 29.0031 25.0498 28.848 25.002 28.6695L22.3568 18.7977Z" fill="#29B379" stroke="#0D0D0D" stroke-width="0.1"/>
</svg>
