<svg width="48" height="48" viewBox="0 0 48 48" fill="none" xmlns="http://www.w3.org/2000/svg">
<circle cx="22.9348" cy="25.657" r="21.8255" fill="#29B379" stroke="#0D0D0D" stroke-width="0.418182"/>
<circle cx="25.0001" cy="23.0004" r="21.8255" fill="#1FC87F" stroke="#0D0D0D" stroke-width="0.418182"/>
<mask id="mask0_333_1875" style="mask-type:alpha" maskUnits="userSpaceOnUse" x="3" y="1" width="44" height="44">
<circle cx="24.9999" cy="23.001" r="21.6339" transform="rotate(22.3651 24.9999 23.001)" fill="white"/>
</mask>
<g mask="url(#mask0_333_1875)">
<rect x="25.9518" y="-1.35046" width="16.764" height="44.9124" transform="rotate(22.3651 25.9518 -1.35046)" fill="white"/>
</g>
<circle cx="25.0003" cy="23.0005" r="14.9402" stroke="#0D0D0D" stroke-width="0.418182"/>
<path d="M18.0947 18.3948L17.9859 17.9888L21.9462 16.9277L22.055 17.3336C21.7212 17.4267 21.4689 17.5376 21.3223 17.7153C21.1649 17.906 21.138 18.1613 21.2331 18.5164L22.9465 24.9108C23.3133 26.2797 23.8841 27.1095 24.5736 27.5409C25.2637 27.9727 26.063 27.9994 26.8735 27.7823C27.6928 27.5627 28.3693 27.1514 28.7544 26.4735C29.1395 25.7956 29.2277 24.8613 28.8918 23.6077L27.1111 16.9621C27.0632 16.7831 26.9936 16.6427 26.8979 16.5385C26.8017 16.4336 26.6815 16.368 26.5377 16.335C26.2635 16.2719 25.9005 16.3265 25.4409 16.447L25.3321 16.0411L29.0413 15.0473L29.1501 15.4532C28.8163 15.5463 28.564 15.6572 28.4174 15.8349C28.26 16.0256 28.233 16.2809 28.3282 16.636L30.114 23.3009C30.5338 24.8673 30.4192 26.0732 29.8911 26.9704C29.3629 27.8679 28.4152 28.4666 27.1478 28.8062C25.6174 29.2162 24.3391 29.2181 23.3316 28.7007C22.3253 28.184 21.5776 27.1431 21.1216 25.4412L19.3978 19.0081C19.3027 18.6531 19.1517 18.4454 18.9201 18.359C18.7042 18.2784 18.4303 18.3085 18.0947 18.3948Z" fill="#29B379" stroke="#0D0D0D" stroke-width="0.1"/>
</svg>
