<svg width="48" height="48" viewBox="0 0 48 48" fill="none" xmlns="http://www.w3.org/2000/svg">
<circle cx="22.9348" cy="25.657" r="21.8255" fill="#29B379" stroke="#0D0D0D" stroke-width="0.418182"/>
<circle cx="25.0001" cy="23.0004" r="21.8255" fill="#1FC87F" stroke="#0D0D0D" stroke-width="0.418182"/>
<mask id="mask0_333_1893" style="mask-type:alpha" maskUnits="userSpaceOnUse" x="3" y="1" width="44" height="44">
<circle cx="24.9999" cy="23.001" r="21.6339" transform="rotate(22.3651 24.9999 23.001)" fill="white"/>
</mask>
<g mask="url(#mask0_333_1893)">
<rect x="25.9518" y="-1.35046" width="16.764" height="44.9124" transform="rotate(22.3651 25.9518 -1.35046)" fill="white"/>
</g>
<circle cx="25.0003" cy="23.0005" r="14.9402" stroke="#0D0D0D" stroke-width="0.418182"/>
<path d="M15.1011 19.81C14.8238 19.7634 14.5098 19.814 14.17 19.9023L14.0612 19.4964L18.0215 18.4353L18.1303 18.8411C17.973 18.8846 17.8436 18.9277 17.743 18.9764C17.6326 19.0298 17.5506 19.093 17.5067 19.1775C17.4621 19.2634 17.4615 19.3618 17.4935 19.4746C17.5252 19.5866 17.5905 19.7181 17.6847 19.8752L17.6847 19.8752L17.6851 19.876L23.4588 29.1372L23.5387 29.2654L23.5511 29.1149L24.3968 18.8254L24.3982 18.8088L24.3894 18.7948L23.9905 18.1562L23.9903 18.1559C23.7841 17.8316 23.4988 17.6847 23.1433 17.6535C22.8037 17.6237 22.3991 17.6993 21.936 17.8213L21.8273 17.4155L25.1241 16.5321L31.5544 26.7405L31.6414 26.8785L31.6467 26.7155L31.996 16.0414L31.996 16.0405C31.999 15.8563 31.9825 15.7091 31.937 15.5973C31.8904 15.4827 31.8135 15.4062 31.7018 15.3663C31.5934 15.3276 31.4562 15.3248 31.2896 15.3461C31.1335 15.3661 30.9467 15.4079 30.7259 15.466L30.6172 15.0603L34.3457 14.0612L34.4544 14.4671C34.116 14.5606 33.8188 14.6737 33.6019 14.8527C33.3718 15.0426 33.2353 15.3038 33.229 15.6813C33.229 15.6815 33.229 15.6816 33.229 15.6817L32.8194 27.5561L30.3406 28.2203L25.2566 20.1772L25.1648 20.2106C25.2917 21.1461 25.3238 22.1899 25.2441 23.2016L24.7074 29.7297L22.1305 30.4202L15.8386 20.3415C15.8385 20.3413 15.8384 20.3412 15.8384 20.3411C15.6441 20.0173 15.3954 19.8594 15.1011 19.81Z" fill="#29B379" stroke="#0D0D0D" stroke-width="0.1"/>
</svg>
