<svg width="48" height="48" viewBox="0 0 48 48" fill="none" xmlns="http://www.w3.org/2000/svg">
<circle cx="22.9348" cy="25.657" r="21.8255" fill="#29B379" stroke="#0D0D0D" stroke-width="0.418182"/>
<circle cx="25.0001" cy="23.0004" r="21.8255" fill="#1FC87F" stroke="#0D0D0D" stroke-width="0.418182"/>
<mask id="mask0_333_1920" style="mask-type:alpha" maskUnits="userSpaceOnUse" x="3" y="1" width="44" height="44">
<circle cx="24.9998" cy="23.001" r="21.6339" transform="rotate(22.3651 24.9998 23.001)" fill="white"/>
</mask>
<g mask="url(#mask0_333_1920)">
<rect x="25.9518" y="-1.35046" width="16.764" height="44.9124" transform="rotate(22.3651 25.9518 -1.35046)" fill="white"/>
</g>
<circle cx="25.0003" cy="23.0005" r="14.9402" stroke="#0D0D0D" stroke-width="0.418182"/>
<path d="M30.6468 23.7734L30.7783 26.7712L30.7783 26.7717L30.8144 27.8412C30.5889 27.7563 30.2821 27.7544 29.8788 27.8625L20.9633 30.2514L20.9337 30.1408L24.9821 18.7787L24.9822 18.7784C25.204 18.1401 25.4633 17.4944 25.791 16.9549L25.8582 16.8443L25.7341 16.881L19.8061 18.6351L19.806 18.6351C19.6244 18.6892 19.4825 18.7834 19.3764 18.9184C19.2708 19.0528 19.2029 19.2249 19.1641 19.4317C19.0886 19.8342 19.1212 20.3799 19.213 21.0658L18.8133 21.1231L18.4837 18.7578L18.4837 18.7577L18.3622 17.8624L27.9886 15.2831L28.0285 15.4318L24.0647 26.0256C23.9794 26.2518 23.8996 26.4695 23.8231 26.6785C23.5397 27.452 23.3004 28.1055 22.987 28.6262L22.9208 28.7362L23.0439 28.7L29.4742 26.8114L29.4744 26.8113C29.8462 26.7005 30.0503 26.3706 30.1547 25.8602C30.2573 25.3591 30.2673 24.6688 30.2373 23.7998L30.6468 23.7734Z" fill="#29B379" stroke="#0D0D0D" stroke-width="0.1"/>
</svg>
